<svg id="Layer_1" data-name="Layer 1" xmlns="http://www.w3.org/2000/svg" viewBox="0 0 702.69 264.92"><defs><style>.cls-1{fill:#fff;}.cls-2{stroke:#fff;stroke-miterlimit:10;stroke-width:4px;}.cls-3{fill:none;}.cls-4{fill:#9e9d9d;}.cls-5{fill:#989898;}.cls-6{fill:#9d9c9c;}.cls-7{fill:#4065af;}.cls-8{fill:#4066af;}.cls-9{fill:#fafbfb;}</style></defs><polygon class="cls-1" points="681.33 218.16 316.44 218.16 316.44 77.2 702.69 77.2 681.33 218.16"/><path d="M365.85,411.68l-6.8-25.08-5.27,25.08H301l21.91-22.07c1.37-5.49,2.62-11.78,3.69-17.44l-10.37-5.69,12.57-6.57c.47-2.64.9-5.17,1.31-7.69-9.32-.15-20.89-1.21-31.72-6.56L294.92,344l.85-3.77c1.62-7.2,4.93-22.68,6.89-32.08l.2-1.19-.6,0,.7-.59.46-2.66c1.05-6,2.61-14.93,3.94-24.25,1.7-12.21,2.79-21.47,3.07-26l.19-3,2.8-1.19a114.85,114.85,0,0,1,41.49-8.48c8.74,0,21.49,1.07,32.63,6.17l3.64,1.67-.89,3.9c-1.65,7.24-4.71,23.54-5.82,29.89l0,.09,2-.1-1.53,7.57c-1.63,8.12-3.66,18.18-4.92,26.22-1.11,6.62-1.81,11.3-2.36,15.83l12.7-16.44H436l-26.76,22.86-19.8,24.27,11.12,26.92,18.35,22.12ZM329.16,393c-.35.82-.61,2.23-.22,2.82.25.37,1,.59,2.05.59a21.79,21.79,0,0,0,6.7-1.47l4.72-26.62-8.6,2.81-4.56,21.69Zm13.91-28.4,3-16.8-8.44,1.2L335,364.46l-.24.12Zm27.21-.22,26-35.78L412,322.43h-18.3l-26.29,34-6.9,5.49-4.94,1.67Zm-57.67-32.92A57.77,57.77,0,0,0,336,336.76a41.74,41.74,0,0,0,10.26-1.23,31.87,31.87,0,0,0,11.54-5.12L363.9,302l-12.37,8.26-3.12,17.86-1.16.37-.62.17a41.21,41.21,0,0,1-5.38,1c-1.46.19-2.94.32-4.41.38h-.34l-.9,0h-.25c-1.49,0-2.94-.07-4.51-.19-.33,0-.67-.06-1-.1l-.43-.05a37.45,37.45,0,0,1-13-4.06,34.69,34.69,0,0,1-6.65-4.65l-.28-.24-.39-.36-1.21-3.71-4.25,19.81,7.9-5.71Zm2.44-14.95a27.15,27.15,0,0,0,16.33,6.56c1.49.12,2.81.18,4.06.18a34.86,34.86,0,0,0,6.93-.68l1.65-9.42-3.59-.62c-10.22-1.77-19-3.3-26.74-3.3h-1ZM311,299.71l12.16-10.13,3.79-31.42,1.32-.34a100.94,100.94,0,0,1,23.33-2.71,70.38,70.38,0,0,1,24.55,4,28,28,0,0,1,5.35-.73l.55,0,1.2-5.84-.26-.11-.73-.28-1.08-.4h0A74.43,74.43,0,0,0,366,248.27a88.77,88.77,0,0,0-11.12-.69A99.77,99.77,0,0,0,323,253c-2,.69-3.95,1.39-5.83,2.14Zm55.25-4.07,8.2-6.12A184.14,184.14,0,0,1,338.09,285l-8.39,5.11a116.55,116.55,0,0,0,20.13,4.46,108.34,108.34,0,0,0,15,1.1h1.37Zm-22.82-16.49a158.13,158.13,0,0,0,31.39,3.6l-3.47-7.38c-4.34-2.41-8.87-3.72-15.44-4.48l-1.41-.15a72.49,72.49,0,0,0-8.38-.61l-1.11,0Z" transform="translate(-28.23 -168.43)"/><path class="cls-1" d="M354.91,242.71c8.54,0,21,1,31.8,6l2.16,1-.53,2.32c-1.66,7.27-4.73,23.62-5.84,30l-.45,2.56,1.93-.1-.74,3.68-.28,1.38c-1.63,8.11-3.66,18.2-4.94,26.3-1.67,10-2.43,15.59-3.12,22.95l15.54-20.11.88-1.14h39.24l-6,5.14L407.79,337,387.11,362.3l11.7,28.3,11.85,14.3,4,4.78H367.38l-.59-2.15-8-29.48-6.16,29.31-.49,2.32H305.81l4.94-5,14-14.08c1.48-5.81,2.84-12.73,4.11-19.52l-3.59-2-4.77-2.62,4.82-2.52,5.3-2.78c.69-3.79,1.31-7.42,1.87-11-9.5,0-21.83-.75-33.18-6.36l-2.06-1,.5-2.24c1.63-7.23,4.94-22.72,6.9-32.11l.13-.65h0l.66-3.8c1-5.95,2.61-14.93,3.95-24.31,1.7-12.27,2.8-21.58,3.09-26.21l.11-1.8,1.66-.7a112.72,112.72,0,0,1,40.71-8.32m-46.64,61.84,0,0,1.47-.1c1.25-.09,2.57-.14,3.92-.14a96.84,96.84,0,0,1,12.94,1c2.25.3,4.57.66,7,1.05l.11,0-.11,0c-2.4-.39-4.72-.75-7-1.05a96.84,96.84,0,0,0-12.94-1c-1.35,0-2.67,0-3.92.14l-1.47.1L325,290.61l1.21.43a117.58,117.58,0,0,0,23.34,5.49,110.17,110.17,0,0,0,15.28,1.12h.43c1.05,0,1.63,0,1.63,0L349.71,309.1h0l-2.89-.49,2.89.49-3.06,17.5-.54.15a39.94,39.94,0,0,1-5.12,1c-1.26.16-2.68.3-4.23.36-.39,0-.77,0-1.17,0h-.31c-1.34,0-2.74-.06-4.28-.19-.47,0-.92-.09-1.38-.14A35.09,35.09,0,0,1,317.35,324a34.58,34.58,0,0,1-2.94-1.83,34.58,34.58,0,0,0,2.94,1.83,32.14,32.14,0,0,1-6.27-4.37l-.26-.23-.21-.62-3.14-9.65-6.9,32.15h0l11.13-8A59.19,59.19,0,0,0,336,338.76a44.07,44.07,0,0,0,10.75-1.29c8.46-2,12.86-6,12.86-6l7.32-33.89,13.44-10.05,0,0s-.68,0-1.93,0a183.21,183.21,0,0,1-40.69-4.73l.46-2.67,2.18-12.46-2.18,12.46-.46,2.67L325,290.61l3.73-30.86a99.91,99.91,0,0,1,22.82-2.64c7.71,0,16.39,1,24.41,4.06a29.45,29.45,0,0,1,5.49-.8c1.21,0,2.1.24,2,1-.21,1.06-.42,2.14-.63,3.23h0c.21-1.1,2.72-13.23,2.72-13.23s-.64-.32-1.81-.78l-1.11-.43h0a63.18,63.18,0,0,0-10.53-3,65.55,65.55,0,0,1,9.76,2.68,76,76,0,0,0-15.55-3.58,89,89,0,0,0-11.37-.71,101.18,101.18,0,0,0-32.53,5.52c-2.3.77-4.63,1.63-7,2.61h0l-7.07,50.84m60.42-57.93.82.13-.82-.13-.45-.07.45.07m2.3.38,1,.18-1-.18-.82-.15.82.15m-20.2,18.42c1.46.12,2.85.27,4.22.43-1.37-.16-2.76-.31-4.22-.43h0m31.77.26-.42,2.19.42-2.19m-20.9,1.12c-1.63-.32-3.37-.58-5.24-.8,1.87.22,3.61.48,5.24.8m2.44.54a43.31,43.31,0,0,1,4.3,1.31,37.44,37.44,0,0,1,5.91,2.77l.79.46-.79-.46a37.44,37.44,0,0,0-5.91-2.77,43.31,43.31,0,0,0-4.3-1.31h0m11.33,17.41c.84,0,1.68,0,2.49,0l-.94-2L372.85,274c-4.75-2.75-9.68-4.23-16.75-5.05l-1.42-.15a75.37,75.37,0,0,0-8.6-.62c-.94,0-1.87,0-2.81.09l-2.17,12.45a158.25,158.25,0,0,0,34.33,4.08m4.67,4.19.27-1.36-.27,1.36m-44.66,36.29a37.46,37.46,0,0,0,8.67-1l2.22-12.73-5.56-.95c-10.29-1.79-19.18-3.33-27.08-3.33-1.28,0-2.53,0-3.72.13l.28.86,3.08,9.47c5.74,4.74,11,6.89,17.91,7.38,1.52.12,2.9.18,4.2.18m57.31-4.8h0l-3.65,4.73-13.17,17L366,355l-6.44,5.13h0L345,365.07l10.41.53,13.53.69,2.31.12L364,370.17l7.28-3.76,10.86,31.45-10.86-31.45,26.31-36.18,25.08-9.8-16.76,14.32-.2.17-.16.2-20.68,25.33-1.1,1.35.66,1.61-.66-1.61,1.1-1.35,20.68-25.33.16-.2.2-.17,16.76-14.32h-29.9M364.11,342l.78-.28c.95-.33,1.84-.68,2.69-1-.85.35-1.74.7-2.69,1l-.78.28m-63.54-.77h0a43.86,43.86,0,0,0,4.19,1.82c.48.19,1,.36,1.45.53-.49-.17-1-.34-1.45-.53a43.86,43.86,0,0,1-4.19-1.82h0m63.56,11.46,8.7-11.27a45,45,0,0,1-7,3.06l-1.73,8.21m-51.61-7.3c-1-.24-2.07-.5-3.11-.79,1,.29,2.08.55,3.11.79m36,0-12.62,1.8,0,.11h0l-2.65,15.83-1,.5-.31.16.31-.16-5.61,2.93h14.6l-9.15,3-1.85-1,1.85,1-4.74,22.55s-2.79,6.27,3.64,6.27a25.7,25.7,0,0,0,8.47-2l4.31-24.3,1.24-7,3.49-19.66m21.11,61.35-8-29.48-1.4-5.17,1.4,5.17,8,29.48M356,377.44l1.12-5.33L356,377.44m40.61,15-.28-.34-.17-.4.17.4.28.34M354.91,238.71a117,117,0,0,0-42.28,8.64l-1.65.7-2.27,1-.16,2.46-.11,1.8c-.29,4.54-1.37,13.74-3.06,25.91-1.33,9.31-2.89,18.25-3.93,24.17l-.34,1.95-4.89,4.08,4.19-.3c-2,9.46-5.05,23.8-6.59,30.65l-.5,2.24-.69,3.07,2.82,1.39,2.05,1c10.3,5.08,21.16,6.41,30.27,6.7-.25,1.46-.5,2.93-.77,4.43l-3.56,1.86L318.61,363,312,366.44l6.54,3.59,4.78,2.62,1,.57c-1,5.06-2.06,10.53-3.26,15.37l-13.19,13.3-4.94,5-6.77,6.82h59.2l.67-3.18.48-2.31,2.74-13,3.64,13.42.59,2.16.8,2.95h58.82l-5.43-6.55-4-4.78-11.47-13.84L391.72,363l18.94-23.21,16.48-14.08,6-5.14,8.24-7h-4.5l6.36-5.43-13.9,5.43h-40l-1.2,1.56-.88,1.13-6.65,8.6c.38-2.46.81-5.17,1.34-8.33,1.27-8.06,3.29-18.1,4.91-26.17l.28-1.38.74-3.68,1-5-2.05.1c1.33-7.36,3.91-21,5.38-27.41l.53-2.32.73-3.17-3-1.36-2.16-1c-11.48-5.25-24.53-6.36-33.47-6.36ZM319,256.57c1.51-.59,3.05-1.14,4.65-1.68a97.51,97.51,0,0,1,31.25-5.31,86.79,86.79,0,0,1,10.87.68,72.24,72.24,0,0,1,14.71,3.38h0l.43.17c-.17.8-.35,1.69-.54,2.61a31.92,31.92,0,0,0-4.11.6,72.92,72.92,0,0,0-24.7-3.9,102.65,102.65,0,0,0-23.84,2.78l-2.63.69-.32,2.69-3.54,29.28-7.57,6.31L319,256.57Zm26.71,21,.95-5.46a74.57,74.57,0,0,1,7.58.58l1.43.16c6,.69,10.19,1.86,14.12,3.94l1.82,3.86a158.13,158.13,0,0,1-25.9-3.08Zm-11.12,11.86,3.85-2.35a182,182,0,0,0,30.28,4.17l-3.17,2.37h-.7a105.5,105.5,0,0,1-14.72-1.08,118.35,118.35,0,0,1-15.54-3.11Zm18.78,22,7.54-5L356,329.23a31.22,31.22,0,0,1-10.2,4.35,39.82,39.82,0,0,1-9.81,1.18,55.75,55.75,0,0,1-22.46-5.11l-2.17-1.1-2,1.43-2.69,1.94,2-9.15a36.58,36.58,0,0,0,6.79,4.71h0a39.37,39.37,0,0,0,13.65,4.28h.09l.41,0c.36.05.73.09,1.11.11,1.58.13,3.08.2,4.54.2h.39l.93,0h.3c1.56-.06,3.11-.2,4.63-.4a42.87,42.87,0,0,0,5.64-1.09l.7-.19,2.31-.74.43-2.39,2.77-15.82Zm-36.59,3.82-1.32-4.06c7.14.2,15.3,1.62,24.64,3.24l1.61.28-1.06,6.06a32.18,32.18,0,0,1-5.2.41c-1.2,0-2.47-.06-3.88-.17a24.78,24.78,0,0,1-14.79-5.76Zm78,9.13h6.7l-5.31,2.08-1.09.42-.69.95-25,34.42h-.14l-5.49-.28,4.84-3.86.38-.3.29-.38,9.92-12.83,13.17-17,2.45-3.18Zm-55.38,26.32,4.26-.6-2.21,12.43h-4l2-11.83Zm-3.81,21.91,4.33-1.42,0,.17-3.9,22a17.2,17.2,0,0,1-4.94,1h-.18a3.89,3.89,0,0,1,.21-.68l.17-.38.07-.38,4.27-20.29Z" transform="translate(-28.23 -168.43)"/><path class="cls-2" d="M385.5,251.36" transform="translate(-28.23 -168.43)"/><path d="M334.91,217.55c.45,0,.9,0,1.34.06a9.74,9.74,0,0,1,1.26.21,6.51,6.51,0,0,1,1.08.35,3.57,3.57,0,0,1,.82.5,2.68,2.68,0,0,1,.74,1,3.27,3.27,0,0,1,.25,1.27,2.7,2.7,0,0,1-.33,1.35,3,3,0,0,1-.95,1,5.23,5.23,0,0,1-1.47.65,9.75,9.75,0,0,1-1.91.32,8.22,8.22,0,0,1,2.49.47,4.76,4.76,0,0,1,1.8,1.07,3.41,3.41,0,0,1,.81,1.17,3.51,3.51,0,0,1,.3,1.47,3.71,3.71,0,0,1-.44,1.84,3.47,3.47,0,0,1-1.21,1.26,5.74,5.74,0,0,1-1.92.73,12,12,0,0,1-2.51.24h-7.35c-.09,0-.14,0-.16-.06a.23.23,0,0,1,0-.11V217.77c0-.15.09-.22.27-.22Zm-2.31,1.74v4.05h.27a7.83,7.83,0,0,0,.81,0,2,2,0,0,0,.81-.23,1.59,1.59,0,0,0,.61-.6,2.25,2.25,0,0,0,.24-1.14,2.29,2.29,0,0,0-.2-1.07,1.57,1.57,0,0,0-.5-.62,1.59,1.59,0,0,0-.7-.28,4.29,4.29,0,0,0-.79-.07Zm0,5.87v5.64h.49a3.76,3.76,0,0,0,.86-.11,2.35,2.35,0,0,0,.84-.41,2.39,2.39,0,0,0,.64-.83,3.29,3.29,0,0,0,.25-1.37,4.28,4.28,0,0,0-.19-1.37,2.57,2.57,0,0,0-.49-.9,1.74,1.74,0,0,0-.72-.5,2.32,2.32,0,0,0-.81-.15Z" transform="translate(-28.23 -168.43)"/><path d="M361.1,217.77c0-.15.09-.22.26-.22h11.35l.19,0c.08,0,.13.11.13.25v2.25a.29.29,0,0,1,0,.12s-.07,0-.15,0a.22.22,0,0,1-.15-.08l-.06-.05a.89.89,0,0,0-.17-.13,2.41,2.41,0,0,0-1.06-.4,8.68,8.68,0,0,0-1.13-.07h-3.94v3.39h4.33a7.15,7.15,0,0,0,.91,0,2.45,2.45,0,0,0,.8-.29,1.21,1.21,0,0,0,.22-.14l.1-.08c.05-.05.08-.08.11-.08h.09c.07,0,.1,0,.11.05s0,.07,0,.12v2.94c0,.08,0,.12-.1.12h-.07a.24.24,0,0,1-.17-.1l-.11-.09a1.46,1.46,0,0,0-.25-.15,3.66,3.66,0,0,0-.59-.24,4.06,4.06,0,0,0-.57-.12h-4.82v5.83h4.75a4.75,4.75,0,0,0,.82-.06,2.34,2.34,0,0,0,.68-.25l.21-.14.09-.09A.17.17,0,0,1,373,230h.11c.06,0,.1,0,.1.08a.68.68,0,0,1,0,.12v2.1a.62.62,0,0,1,0,.11c0,.07-.07.1-.16.1H361.29c-.09,0-.14,0-.16-.06a.23.23,0,0,1,0-.11Z" transform="translate(-28.23 -168.43)"/><path d="M395.82,223.25v6.8a8.24,8.24,0,0,0,.07,1,1.84,1.84,0,0,0,.33.87l.09.15a.36.36,0,0,0,.08.09.1.1,0,0,0,.07.06.19.19,0,0,1,.1.15.13.13,0,0,1-.15.15H394c-.08,0-.14,0-.15-.06a.23.23,0,0,1,0-.11V217.77c0-.15.08-.22.26-.22h3.54L404,225v-4.8a8.08,8.08,0,0,0-.07-1.09,2,2,0,0,0-.33-.93.48.48,0,0,0-.1-.15l-.08-.1-.08-.07s0,0-.05-.07a.22.22,0,0,1,0-.1c0-.06,0-.1,0-.1h2.43c.18,0,.26.07.26.22v14.57a.22.22,0,0,1,0,.11s-.07.06-.16.06h-1.95Z" transform="translate(-28.23 -168.43)"/><path d="M439.55,217.55l.14,0c.05,0,.08.08.08.18V220a.29.29,0,0,1,0,.12s-.06,0-.15,0a.22.22,0,0,1-.15-.08l-.05-.05-.17-.14a2.57,2.57,0,0,0-1.06-.39,8.72,8.72,0,0,0-1.14-.07h-1.42v10.52a9,9,0,0,0,.05,1.05,1.94,1.94,0,0,0,.31.93,1.47,1.47,0,0,0,.18.24s.05.07.08.08l0,0a.09.09,0,0,1,0,.07v.1c0,.06,0,.09,0,.1h-5.72c-.09,0-.14,0-.16-.06a.23.23,0,0,1,0-.11v-13h-1.43a8.68,8.68,0,0,0-1.13.07,2.39,2.39,0,0,0-1,.39,1.29,1.29,0,0,0-.17.14l-.06.05a.26.26,0,0,1-.2.08c-.06,0-.1,0-.1,0a.35.35,0,0,1,0-.12v-2.2c0-.1,0-.16.08-.18l.14,0Z" transform="translate(-28.23 -168.43)"/><path d="M472.23,232.37a.21.21,0,0,1-.16.14H460.3c-.09,0-.14,0-.16-.06a.23.23,0,0,1,0-.11V217.77c0-.15.09-.22.27-.22h5.56c.07,0,.11,0,.13,0a.32.32,0,0,1,0,.15.21.21,0,0,1-.07.15l-.1.09a2.66,2.66,0,0,0-.16.22,2.21,2.21,0,0,0-.34,1,10.14,10.14,0,0,0-.06,1.1v10.29h4.75a3.85,3.85,0,0,0,.82-.07,2.34,2.34,0,0,0,.68-.25,1,1,0,0,0,.21-.14l.09-.09a.19.19,0,0,1,.13-.07h.11c.06,0,.1,0,.1.08a.72.72,0,0,1,0,.13v2.1A.9.9,0,0,1,472.23,232.37Z" transform="translate(-28.23 -168.43)"/><path d="M492.94,226.06l-4.85-8.19a.24.24,0,0,1-.06-.15c0-.12.07-.17.21-.17h6.56a.55.55,0,0,1,.18,0,.1.1,0,0,1,.08.11.23.23,0,0,1-.08.2l-.07.1a.43.43,0,0,0-.07.1.24.24,0,0,1-.06.1.73.73,0,0,0-.09.26.93.93,0,0,0,0,.23s0,.09,0,.18a.69.69,0,0,0,.09.23l2.34,4.26,2.53-4.18a1.94,1.94,0,0,0,.18-.47,1.67,1.67,0,0,0,0-.28,1.11,1.11,0,0,0-.05-.24.57.57,0,0,0-.06-.15.62.62,0,0,0-.08-.12l-.06-.08a.17.17,0,0,1,0-.12c0-.07,0-.11.06-.13l.16,0h3.1a.1.1,0,0,1,.07,0s0,0,0,.07,0,0,0,.05,0,0,0,0l0,0-4.82,8v4.16a9.79,9.79,0,0,0,.07,1.08,2,2,0,0,0,.33.93,2.43,2.43,0,0,0,.18.24.3.3,0,0,0,.08.08l0,0a.43.43,0,0,1,0,.14c0,.06,0,.09,0,.1h-5.73c-.09,0-.14,0-.16-.06a.23.23,0,0,1,0-.11Z" transform="translate(-28.23 -168.43)"/><path d="M520.28,228.81a.37.37,0,0,1-.35-.15.7.7,0,0,1-.08-.37v-2.68c0-.31.07-.5.22-.56a.93.93,0,0,1,.38-.1h5.49a.44.44,0,0,1,.46.29,1.64,1.64,0,0,1,.1.54v2.28a.86.86,0,0,1-.16.55.64.64,0,0,1-.55.2Z" transform="translate(-28.23 -168.43)"/><path d="M557,217.55l.14,0q.09,0,.09.18V220a.29.29,0,0,1,0,.12s-.06,0-.15,0a.22.22,0,0,1-.15-.08l-.06-.05a1.76,1.76,0,0,0-.16-.14,2.57,2.57,0,0,0-1.06-.39,8.83,8.83,0,0,0-1.14-.07h-1.42v10.52c0,.36,0,.71,0,1.05a2.05,2.05,0,0,0,.31.93,2.22,2.22,0,0,0,.19.24s0,.07.08.08l0,0a.09.09,0,0,1,0,.07v.1c0,.06,0,.09,0,.1H548c-.08,0-.14,0-.16-.06a.43.43,0,0,1,0-.11v-13h-1.43a8.68,8.68,0,0,0-1.13.07,2.39,2.39,0,0,0-1,.39,1.29,1.29,0,0,0-.17.14L544,220a.28.28,0,0,1-.2.08c-.07,0-.1,0-.11,0s0-.06,0-.12v-2.2q0-.15.09-.18l.14,0Z" transform="translate(-28.23 -168.43)"/><path d="M583.35,232.26a.39.39,0,0,1,0,.14.16.16,0,0,1,0,.1h-5.58c-.09,0-.14,0-.16-.06a.23.23,0,0,1,0-.11V217.77c0-.15.09-.22.26-.22h6.64a13.53,13.53,0,0,1,2.74.25,6.88,6.88,0,0,1,2.08.76,3.72,3.72,0,0,1,1.33,1.28,3.49,3.49,0,0,1,.47,1.81,3.16,3.16,0,0,1-1.22,2.65,7.19,7.19,0,0,1-3.36,1.25l.34.1a4,4,0,0,1,.62.2,3.76,3.76,0,0,1,.91.61,3.81,3.81,0,0,1,.91,1.21l.48,1,.52,1.13q.26.55.45,1l.29.68c.11.28.21.49.27.61a.71.71,0,0,1,.11.29c0,.06,0,.09,0,.1h-5.33a.22.22,0,0,1-.21-.13.52.52,0,0,1-.06-.13c-.3-.82-.58-1.56-.84-2.24-.11-.28-.22-.57-.34-.85l-.32-.79-.25-.62c-.07-.18-.12-.3-.16-.38a3.23,3.23,0,0,0-.57-.87.71.71,0,0,0-.42-.24.29.29,0,0,0-.23.14v3.48a7.88,7.88,0,0,0,.07,1.09,2,2,0,0,0,.33.94,1.47,1.47,0,0,0,.18.24.3.3,0,0,0,.08.08Zm-.7-13.06v5.58H583a4.54,4.54,0,0,0,1-.13,2,2,0,0,0,.86-.42,2.28,2.28,0,0,0,.6-.83,3.26,3.26,0,0,0,.24-1.35,3.63,3.63,0,0,0-.23-1.39,2.19,2.19,0,0,0-.59-.86,1.91,1.91,0,0,0-.84-.45,4.08,4.08,0,0,0-1-.15Z" transform="translate(-28.23 -168.43)"/><path d="M624.07,227.24c0,.11,0,.33-.05.66a6.38,6.38,0,0,1-.23,1.12,5.84,5.84,0,0,1-.59,1.32,4.72,4.72,0,0,1-1.12,1.27,5.71,5.71,0,0,1-1.79.95,8.08,8.08,0,0,1-2.63.38,7.49,7.49,0,0,1-3-.55,5.78,5.78,0,0,1-1.92-1.33,4.7,4.7,0,0,1-1.3-3v-10.5h5.92s0,0,0,.1a.14.14,0,0,1-.06.09l0,0-.1.08a1.57,1.57,0,0,0-.19.15,1.1,1.1,0,0,0-.21.27.78.78,0,0,0-.09.27v9.3a2.7,2.7,0,0,0,.16.84,2.56,2.56,0,0,0,.49.82,2.79,2.79,0,0,0,.83.61,2.6,2.6,0,0,0,1.15.24,2.37,2.37,0,0,0,1.3-.33,2.59,2.59,0,0,0,.82-.79,3.23,3.23,0,0,0,.42-1,3.82,3.82,0,0,0,.12-.84v-8.61c0-.12,0-.25-.08-.36a1.22,1.22,0,0,0-.14-.33.58.58,0,0,0-.12-.14.76.76,0,0,1-.09-.09.35.35,0,0,1-.09-.07.16.16,0,0,1-.12-.17c0-.06,0-.1,0-.1h2.75Z" transform="translate(-28.23 -168.43)"/><path d="M660.31,232.51h-5.63l-.12,0s0-.06,0-.15,0-.05,0-.08l0,0,.07-.08a.38.38,0,0,0,.09-.09l.1-.15a1.88,1.88,0,0,0,.33-.9,9.45,9.45,0,0,0,.07-1.07v-7l-3.4,9.53h-2l-3.53-9.77v7.16a9.79,9.79,0,0,0,.07,1.08,2,2,0,0,0,.33.93,2.43,2.43,0,0,0,.18.24.59.59,0,0,0,.08.08l0,0a.43.43,0,0,1,0,.14c0,.06,0,.09,0,.1H644.5c-.08,0-.14,0-.16-.06a.43.43,0,0,1,0-.11V217.77c0-.15.08-.22.26-.22h5.14L652.4,225l2.72-7.46h4.93c.17,0,.26.07.26.22Z" transform="translate(-28.23 -168.43)"/><path d="M680.65,232.51c-.09,0-.13,0-.13-.11a.41.41,0,0,1,0-.15l5.55-14.55a.19.19,0,0,1,0-.1.37.37,0,0,1,.25-.09h2.19a.2.2,0,0,1,.14.05l.09.08.07.11,5.66,14.48a.24.24,0,0,1,0,.13c0,.1-.06.15-.17.15h-5.75l-.18,0a.1.1,0,0,1-.09-.11.29.29,0,0,1,.08-.21l.07-.09a.36.36,0,0,0,.07-.1l.06-.11a.8.8,0,0,0,.1-.22,1,1,0,0,0,0-.19v-.15l-.57-1.48h-4.55l-.55,1.42a1.4,1.4,0,0,0,0,.4.33.33,0,0,0,0,.17c0,.06,0,.11.07.16a1,1,0,0,1,.11.17l.07.09a.17.17,0,0,1,0,.12.11.11,0,0,1-.07.12.35.35,0,0,1-.16,0Zm3.83-4.75h3l-1.48-3.9Z" transform="translate(-28.23 -168.43)"/><path d="M716.8,223.25v6.8a8.22,8.22,0,0,0,.06,1,2.08,2.08,0,0,0,.33.87l.1.15a.35.35,0,0,0,.07.09s0,.06.08.06a.18.18,0,0,1,.09.15.13.13,0,0,1-.15.15H715c-.09,0-.14,0-.16-.06a.23.23,0,0,1,0-.11V217.77c0-.15.09-.22.26-.22h3.55L725,225v-4.8a10.09,10.09,0,0,0-.06-1.09,2.24,2.24,0,0,0-.33-.93.76.76,0,0,0-.1-.15l-.09-.1-.07-.07s-.05,0-.06-.07a.58.58,0,0,1,0-.1c0-.06,0-.1,0-.1h2.43c.17,0,.26.07.26.22v14.57a.23.23,0,0,1,0,.11s-.07.06-.16.06h-1.95Z" transform="translate(-28.23 -168.43)"/><polygon points="404.93 141.85 412.49 94.11 388.84 94.11 381.29 141.85 365.79 141.85 373.34 94.11 357.19 94.11 359.19 81.56 443.26 81.56 450.57 94.11 427.89 94.11 426.12 105.43 446.66 105.43 444.83 117.02 424.3 117.02 422.35 129.3 447.62 129.3 445.62 141.85 404.93 141.85"/><path d="M522.4,311.6c-6,0-10.51-1.74-13.19-10.22l-3.68-10.75H499l-3.07,19.65h-15l7.38-46.57-8-13.72h32.28c14.19,0,22.33,6.32,22.33,17.33,0,9.74-5,16.89-14.45,20.69l-1.24.5,1.54,4.88c1.32,4.45,4,6.53,8.49,6.53h.21l-1.75,11.16A24.27,24.27,0,0,1,522.4,311.6ZM500.87,279H509c6.29,0,10-3.49,10-9.34,0-4.43-3-7.07-7.95-7.07h-7.64Z" transform="translate(-28.23 -168.43)"/><polygon points="506.65 141.85 514.02 95.28 506.03 81.56 531.61 81.56 524.06 129.3 545.65 129.3 543.65 141.85 506.65 141.85"/><polygon points="549.83 141.85 557.2 95.28 549.21 81.56 574.79 81.56 565.24 141.85 549.83 141.85"/><path d="M629,287.15c-1.78-1.6-3.51-3.17-5.25-4.81l-2-1.9L617,310.28H602l9.6-60.42,25,23.18c.89.79,1.76,1.62,2.63,2.45s1.77,1.68,2.65,2.47l2,1.79L648.6,250h15.06l-9.59,60.36Z" transform="translate(-28.23 -168.43)"/><path d="M693.88,311.6c-17,0-28.39-10.81-28.39-26.9,0-19.87,17-36,37.87-36,7.18,0,13.4,1.19,18.5,3.52l-2.17,13.75a42.3,42.3,0,0,0-17.12-3.4c-13.88,0-21.37,10.33-21.37,20,0,7.63,4.74,15.32,15.31,15.32a43.4,43.4,0,0,0,5-.28l2.27-.26-9-14.38h24.61l-3.82,24.31A57.42,57.42,0,0,1,693.88,311.6Z" transform="translate(-28.23 -168.43)"/><path d="M432.57,317.67l8.28,14.22-2.59,16.39-2-1.78c-.92-.83-1.84-1.7-2.76-2.57s-17.23-14.31-20.69-17.23c-.62.61-1,.08-1.72.62-.3.47-1.38-.44-1.74,0a14.92,14.92,0,0,1-3.11,2.88c-1.62,1.23-2.26,6.13-3.88,7.51-.23.26-.47.51-.71.76l-6.58,41.4H410.6l4.85-30.7,2,1.9c1.77,1.69,3.59,3.32,5.41,5l25.93,24,9.91-62.31Z" transform="translate(-28.23 -168.43)"/><polygon points="429.33 211.45 439.18 149.24 455.15 149.24 445.3 211.45 429.33 211.45"/><path d="M514.46,381.23c-17.52,0-29.29-11.15-29.29-27.76,0-20.49,17.52-37.16,39.05-37.16,7.42,0,13.85,1.23,19.11,3.64l-2.25,14.25a43.65,43.65,0,0,0-17.67-3.51c-14.27,0-22,10.62-22,20.61,0,7.83,4.86,15.74,15.73,15.74a43.46,43.46,0,0,0,5.14-.29l2.27-.26-9.27-14.83H540.8l-4,25.13A59.19,59.19,0,0,1,514.46,381.23Z" transform="translate(-28.23 -168.43)"/><polygon points="557.27 211.45 561.25 186.31 536.71 186.31 532.73 211.45 516.76 211.45 526.61 149.24 542.58 149.24 538.78 173.38 563.32 173.38 564.88 163.46 556.6 149.24 583.17 149.24 573.33 211.45 557.27 211.45"/><polygon points="595.78 211.45 603.56 162.26 586.93 162.26 589 149.24 638.33 149.24 636.26 162.26 619.62 162.26 611.84 211.45 595.78 211.45"/><path d="M682.72,381.23c-6.53,0-13.2-1.12-17.75-3l2.32-14.92a38.22,38.22,0,0,0,12.43,3.94l.49.06a34.19,34.19,0,0,0,4,.32c3,0,10.85,0,10.85-5.06,0-3.18-3.52-4.63-8.84-6.82-.71-.29-1.47-.6-2.26-.94-9.11-3.79-14-7.5-14-16.2,0-13.15,11.34-22.34,27.58-22.34a46.51,46.51,0,0,1,15.67,2.53L711,332.92a31.23,31.23,0,0,0-14.37-3.23c-6.64,0-10.76,2.26-10.76,5.88,0,3.08,3.85,4.8,10.23,7.65l.21.09c9.47,4.24,14.6,8.14,14.6,16.58C710.93,373.25,700.39,381.23,682.72,381.23Z" transform="translate(-28.23 -168.43)"/><path class="cls-3" d="M331.24,325.05c1.52.12,2.9.18,4.2.18a37.46,37.46,0,0,0,8.67-1l2.22-12.73-5.56-.95c-10.29-1.79-19.18-3.33-27.08-3.33-1.28,0-2.53,0-3.72.13l.28.86,3.08,9.47C319.07,322.41,324.3,324.56,331.24,325.05Z" transform="translate(-28.23 -168.43)"/><path class="cls-3" d="M356.1,268.9l-1.42-.15a75.37,75.37,0,0,0-8.6-.62c-.94,0-1.87,0-2.81.09l-2.17,12.45a158.25,158.25,0,0,0,34.33,4.08c.84,0,1.68,0,2.49,0l-.94-2L372.85,274C368.1,271.2,363.17,269.72,356.1,268.9Z" transform="translate(-28.23 -168.43)"/><path class="cls-3" d="M364.13,352.71l8.7-11.27a45,45,0,0,1-7,3.06Z" transform="translate(-28.23 -168.43)"/><path class="cls-4" d="M335.86,347.32l-2.65,15.83h0s-2.69,2.79,8,3.43l-9.15,3-4.74,22.55s-4.69,10.54,12.11,4.29l9-51-12.62,1.8Z" transform="translate(-28.23 -168.43)"/><path class="cls-4" d="M392.75,320.43l-3.65,4.73-13.17,17-.79,1-8.7,11.26L366,355l-6.44,5.13h0s-2.26,1.35-.61,2.91a3.37,3.37,0,0,0,.52.41c1.53,1,4.9,2.1,11.77,2.93l26.31-36.18Z" transform="translate(-28.23 -168.43)"/><path class="cls-5" d="M412.76,320.43c-10.65,0-15.19,9.8-15.19,9.8l25.08-9.8Z" transform="translate(-28.23 -168.43)"/><polygon class="cls-4" points="341.38 238.33 353.89 229.43 343.02 197.98 331.98 203.68 341.38 238.33"/><path class="cls-5" d="M382.59,250.15l1.13.44c1.08.43,1.67.71,1.75.75-.08,0-.68-.33-1.78-.76Z" transform="translate(-28.23 -168.43)"/><path class="cls-4" d="M376,261.17l9.53-9.81c-43.86-7.57-56.76,8.39-56.76,8.39S354.66,252.94,376,261.17Z" transform="translate(-28.23 -168.43)"/><polygon class="cls-4" points="296.78 122.18 300.5 91.33 287.11 85.28 287.11 85.28 280.04 136.13 280.07 136.1 296.78 122.18"/><path class="cls-5" d="M385.47,251.34l0,0h0Z" transform="translate(-28.23 -168.43)"/><path class="cls-5" d="M346.72,337.47c-8.06,1.94-19.82,2.19-35-4.25C311.7,333.22,328.88,342,346.72,337.47Z" transform="translate(-28.23 -168.43)"/><path class="cls-4" d="M346.61,326.65l0,0-.54.15a39.94,39.94,0,0,1-5.12,1c-1.26.16-2.68.3-4.23.36q-.57,0-1.17,0h-.31a41.65,41.65,0,0,1-5.66-.33A35.09,35.09,0,0,1,317.35,324a32.14,32.14,0,0,1-6.27-4.37l-.26-.23-.21-.62-.05-.18-1.47-4.51-1.62-5-6.9,32.15h0l11.13-8S333.79,340.69,346.61,326.65Z" transform="translate(-28.23 -168.43)"/><polygon class="cls-4" points="331.35 163.09 338.66 129.2 321.48 140.67 321.48 140.68 318.42 158.18 318.42 158.18 331.35 163.09"/><path class="cls-5" d="M325,290.61l1.21.43Z" transform="translate(-28.23 -168.43)"/><path class="cls-5" d="M362.26,297.6c-3.07-.1-7.48-.37-12.7-1.07A113.92,113.92,0,0,0,362.26,297.6Z" transform="translate(-28.23 -168.43)"/><path class="cls-5" d="M362.26,297.6c1.09,0,2,0,2.75,0C364.09,297.65,363.17,297.62,362.26,297.6Z" transform="translate(-28.23 -168.43)"/><path class="cls-4" d="M380.32,287.58l.06,0a181.8,181.8,0,0,1-42.62-4.71L325,290.61S364.88,296.47,380.32,287.58Z" transform="translate(-28.23 -168.43)"/><path class="cls-1" d="M340.58,246.8a114.08,114.08,0,0,0-18.22,4.3c-2.3.77-4.63,1.63-7,2.61h0A114.26,114.26,0,0,1,340.58,246.8Z" transform="translate(-28.23 -168.43)"/><path class="cls-1" d="M340.72,246.78c20.82-3.09,35.85,1.15,41.87,3.37a75.68,75.68,0,0,0-16.33-3.86,97.72,97.72,0,0,0-11.35-.66A96.41,96.41,0,0,0,340.72,246.78Z" transform="translate(-28.23 -168.43)"/><polygon class="cls-1" points="287.11 85.28 287.11 85.28 287.11 85.28 287.11 85.28"/><path class="cls-1" d="M340.72,246.78a96.41,96.41,0,0,1,14.19-1.15,97.72,97.72,0,0,1,11.35.66c-11-1.41-26.17-1.18-43.9,4.81a114.08,114.08,0,0,1,18.22-4.3Z" transform="translate(-28.23 -168.43)"/><path class="cls-1" d="M385.5,251.36h0c-.59-.27-1.18-.53-1.78-.77l-1.13-.44c-6-2.22-21-6.46-41.87-3.37l-.14,0a114.26,114.26,0,0,0-25.24,6.91h0l13.4,6S341.64,243.79,385.5,251.36Z" transform="translate(-28.23 -168.43)"/><path class="cls-1" d="M383.72,250.59c.6.24,1.19.5,1.78.77C385.49,251.35,384.87,251.05,383.72,250.59Z" transform="translate(-28.23 -168.43)"/><path class="cls-1" d="M340.58,246.8l.14,0Z" transform="translate(-28.23 -168.43)"/><polygon class="cls-1" points="287.11 85.28 287.11 85.28 287.11 85.28 287.11 85.28 287.11 85.28"/><polygon class="cls-1" points="357.26 82.93 357.26 82.93 357.26 82.93 357.26 82.93"/><path class="cls-1" d="M349.56,296.53A131.3,131.3,0,0,1,326.22,291,117.58,117.58,0,0,0,349.56,296.53Z" transform="translate(-28.23 -168.43)"/><path class="cls-1" d="M366.9,297.63l-1.89,0C366.22,297.65,366.9,297.63,366.9,297.63Z" transform="translate(-28.23 -168.43)"/><path class="cls-1" d="M325,290.61l1.21.43a131.3,131.3,0,0,0,23.34,5.49A122.44,122.44,0,0,0,365,297.65l1.89,0,13.44-10.05h0C364.88,296.47,325,290.61,325,290.61Z" transform="translate(-28.23 -168.43)"/><path class="cls-1" d="M380.34,287.58l0,0-.06,0Z" transform="translate(-28.23 -168.43)"/><path class="cls-1" d="M359.58,331.52a38,38,0,0,1-12.86,6C355.18,335.43,359.58,331.52,359.58,331.52Z" transform="translate(-28.23 -168.43)"/><path class="cls-1" d="M346.65,326.64h0c-12.82,14-34.91,6.57-34.91,6.57,15.2,6.44,27,6.19,35,4.25a38,38,0,0,0,12.86-6l-12.93-4.91Z" transform="translate(-28.23 -168.43)"/><path class="cls-1" d="M346.65,326.64v0h0l0,0Z" transform="translate(-28.23 -168.43)"/><path class="cls-4" d="M397.57,330.23s4.54-9.8,15.19-9.8h-20Z" transform="translate(-28.23 -168.43)"/><polygon class="cls-1" points="364.52 152 364.52 152 364.52 152 364.52 152"/><path class="cls-1" d="M333.21,363.15l-1,.5-5.61,2.93h14.6C330.52,365.94,333.21,363.15,333.21,363.15Z" transform="translate(-28.23 -168.43)"/><polygon class="cls-1" points="298.41 198.16 298.41 198.16 298.41 198.16 298.41 198.16"/><polygon class="cls-1" points="304.97 194.72 304.02 195.22 304.97 194.72 304.97 194.72"/><path class="cls-1" d="M359.49,363.48l-.84,1.09.32-1.5c-1.65-1.56.61-2.91.61-2.91L345,365.07l13.39.68,0-.19.06.2,12.76.65C364.39,365.58,361,364.51,359.49,363.48Z" transform="translate(-28.23 -168.43)"/><polygon class="cls-1" points="330.17 197.33 330.26 197.33 330.21 197.14 330.17 197.33"/><path class="cls-1" d="M358.65,364.57l.84-1.09a3.37,3.37,0,0,1-.52-.41Z" transform="translate(-28.23 -168.43)"/><path class="cls-1" d="M327.35,392.12l-.56.57-14,14.07h0l26.64-10.35C322.66,402.66,327.35,392.13,327.35,392.12Z" transform="translate(-28.23 -168.43)"/><polygon class="cls-1" points="298.55 224.26 299.11 223.7 299.11 223.7 284.58 238.33 284.58 238.33 284.58 238.33 298.55 224.26"/><path class="cls-1" d="M307.34,309.73l4.36,23.49s-6.2-15-11.13,8Z" transform="translate(-28.23 -168.43)"/><path d="M331.66,328l1.52.09Z" transform="translate(-28.23 -168.43)"/><path d="M329.62,327.81c.46.05.91.11,1.38.14l.66.05C331,327.94,330.31,327.9,329.62,327.81Z" transform="translate(-28.23 -168.43)"/><path d="M333.18,328.09c.71,0,1.42.06,2.1.05C334.6,328.14,333.9,328.12,333.18,328.09Z" transform="translate(-28.23 -168.43)"/><path d="M365,297.65a109.5,109.5,0,0,1-15.45-1.12A117.58,117.58,0,0,1,326.22,291l-1.21-.43L308.3,304.53l1.47-.1c1.25-.09,2.57-.14,3.92-.14,8.16,0,17.16,1.56,27.58,3.37l5.55,1,2.89.49h0l17.19-11.47S366.22,297.65,365,297.65Z" transform="translate(-28.23 -168.43)"/><path d="M341,327.75a39.94,39.94,0,0,0,5.12-1l-1.36.31C343.44,327.36,342.21,327.58,341,327.75Z" transform="translate(-28.23 -168.43)"/><polygon points="303.85 201.14 313 198.16 298.41 198.16 302 200.13 303.85 201.14"/><polygon points="347.7 173.78 360.87 156.73 352.04 168.16 347.7 173.78"/><polygon points="357.26 82.93 357.26 82.93 357.26 82.93 357.26 82.93"/><path d="M381.81,249.87l.77.28Z" transform="translate(-28.23 -168.43)"/><path d="M381.81,249.87a69.87,69.87,0,0,0-15.55-3.58A76,76,0,0,1,381.81,249.87Z" transform="translate(-28.23 -168.43)"/><path d="M382.59,250.15h0l1.11.43Z" transform="translate(-28.23 -168.43)"/><polygon points="364.52 152 364.52 152 384.53 152 394.42 152 394.42 152 364.52 152"/><path d="M338.22,280.17l2.18-12.46.4-2.27,2.3-.14c1-.06,2-.09,3-.09a77.73,77.73,0,0,1,8.93.64l1.41.15c7.48.87,12.83,2.49,17.89,5.42l.79.46.39.82,4.14,8.79c1.11-6.38,4.83-24.29,6.51-31.62L376,261.17c-21.31-8.23-47.23-1.42-47.23-1.42L325,290.61l12.75-7.77Z" transform="translate(-28.23 -168.43)"/><path d="M315.34,253.71c2.39-1,4.72-1.84,7-2.61C319.91,251.9,317.55,252.77,315.34,253.71Z" transform="translate(-28.23 -168.43)"/><polygon points="298.41 198.15 298.41 198.16 304.02 195.22 303.71 195.38 298.41 198.15"/><path d="M371.26,366.41l-2.31-.12-13.53-.69L345,365.07l14.57-4.91h0l1.69-8.06,1.73-8.2.34-1.61,1.55-.55a42,42,0,0,0,6.52-2.85l.58-.32v-.08c.69-7.45,1.46-13.08,3.15-23.16,1.27-8.13,3.31-18.26,5-26.39l.27-1.36h0L366.9,297.63l-7.32,33.89s-4.4,3.91-12.86,6c-17.84,4.52-35-4.25-35-4.25l-11.13,8h0c10.85,5.36,22.74,6.06,31.89,6.06h3.4l0-.11,12.62-1.8L345,365.07h0l-1.24,7h0l-4.31,24.3-26.64,10.35h37L356,377.44l1.12-5.33h3.15l1.4,5.17,8,29.48-9.39-34.65Z" transform="translate(-28.23 -168.43)"/><polygon points="377.29 166.69 377.46 166.49 377.66 166.32 394.42 152 369.33 161.8 343.02 197.98 353.89 229.43 341.38 238.33 380.18 238.33 368.33 224.04 368.05 223.7 367.88 223.29 356.18 194.99 355.51 193.38 356.62 192.03 377.29 166.69"/><path d="M311.48,319.92l-.4-.32a32.14,32.14,0,0,0,6.27,4.37A38.41,38.41,0,0,1,311.48,319.92Z" transform="translate(-28.23 -168.43)"/><path class="cls-1" d="M393,320.72l4.75,8.1a17.47,17.47,0,0,1,15-8.1Z" transform="translate(-28.23 -168.43)"/><path class="cls-1" d="M108.89,431.37a29.6,29.6,0,0,1-8.19-.9l-2.15-.67,12.29-26.58-4.41,0,7.39-14-9.28.71-4.64-8.43-5.4,2.32-.69-2c-11.46-33.37-48.63-51.38-49-51.56L37,326.53l21.22-.07-5.52-6.64,3.78-.32c30.32-2.57,44.11-38.94,45.63-43.22l-1.24-9.56c-9.1-7.77-9.74-25-8.77-33.13a42.42,42.42,0,0,1,3.1-11.65c5.66-13.26,18.4-23.9,34.94-29.19,9.58-3.07,19.51-3.1,29.12-3.12A158,158,0,0,0,175.9,189l-2.53-.6c1.29-6.64,7-18,20.07-18a26.76,26.76,0,0,1,5.42.58c15.52,3.19,19,16.61,19.72,21.71h.89c29.59,0,52.8,21.46,59.21,28a14.61,14.61,0,0,0,10.62,4.32c6.1,0,11.25-3.3,12-7.68,1.15-6.89-4.31-11.88-4.37-11.93l-4.63-4.15,6.18.72c10.48,1.21,22.4,9.83,21.47,30.13-.44,9.73-5.23,17.4-13.85,22.2A38.19,38.19,0,0,1,296,258.15c6.15,13.66,8,30.9,5.53,51.32-2.38,19.6-9.38,37.1-20.23,50.63a104.44,104.44,0,0,1-34.56,27.41,109.31,109.31,0,0,1-13.07,5.58l-.59.24c-2.28,1-3.72,1.49-4.75,1.49h0a2.46,2.46,0,0,1-1.38-.4s-4.31-2.71-13-2.71c-9.16,0-24.7,3.06-46.67,17.64C154.86,417.58,130.8,431.37,108.89,431.37Zm78.61-248.3c-3.47,0-8.94,3.18-10.11,5.73a55.58,55.58,0,0,0,9-1.88,5.27,5.27,0,0,0,2.42-1.22,2,2,0,0,0,.35-2C189.09,183.57,188.88,183.07,187.5,183.07Z" transform="translate(-28.23 -168.43)"/><path class="cls-1" d="M193.44,172.38a25.08,25.08,0,0,1,5,.54c17.86,3.68,18.35,21.81,18.35,21.81.89,0,1.78-.06,2.66-.06,27.43,0,49.51,18.94,57.79,27.44a16.65,16.65,0,0,0,12,4.91c6.7,0,13-3.66,13.93-9.32,1.34-8-5-13.73-5-13.73,7.57.87,20.69,7.09,19.73,28.08-1,22-24.91,24.61-24.91,24.61l0,.09c8,16,8.55,35,6.43,52.48-2.17,17.82-8.51,35.54-19.81,49.63a102.13,102.13,0,0,1-33.91,26.89A108.88,108.88,0,0,1,233,391.22c-.54.19-3.62,1.62-4.69,1.62a.53.53,0,0,1-.28-.06s-4.59-3-14.07-3c-10.16,0-26,3.5-47.77,18-28,18.57-47.37,21.69-57.27,21.69a28.31,28.31,0,0,1-7.6-.8l12.65-27.36-4.22,0L117.24,387l-11.58.88-4.9-8.89-5.08,2.19c-11.88-34.57-50-52.69-50-52.69l16.72-.06-5.77-6.95c33.77-2.87,47.49-45,47.49-45l-1.41-10.8C94.4,259.3,92.9,243.33,94,233.83a40.75,40.75,0,0,1,3-11.11c6-14.08,19.5-23.54,33.72-28.09,18.33-5.86,37.91-.27,56.26-5.81a7.09,7.09,0,0,0,3.33-1.8,4,4,0,0,0,.7-4c-.54-1.35-1.85-1.91-3.49-1.91-4.44,0-11.34,4.11-12.21,7.75,0-.11,3-16.46,18.15-16.46m0-3.95h0a20.67,20.67,0,0,0-17.93,9.75,30,30,0,0,0-3.95,9.2c-4,.24-8.13.26-12.35.27-9.75,0-19.84,0-29.71,3.21-17.09,5.47-30.27,16.51-36.16,30.3a44.91,44.91,0,0,0-3.25,12.2A59,59,0,0,0,91,251.75c1.48,6.95,4.23,12.43,8,15.95l1.09,8.36a88.83,88.83,0,0,1-10.39,19.73C80.24,309.14,69,316.45,56.27,317.53l-7.55.64L53.56,324l.42.5-8.34,0-17.41.06L44,332.05c.36.17,36.8,17.86,48,50.41l1.38,4,3.92-1.69L99,384l3.17,5.75,1.22,2.23,2.54-.2,4.44-.33-4.18,7.92-3.08,5.83,4.6,0-10,21.72L95.81,431l4.3,1.35a31.43,31.43,0,0,0,8.78,1c11.76,0,31.62-3.88,59.46-22.35,11.9-7.9,29.47-17.31,45.58-17.31,7.83,0,11.75,2.31,11.92,2.41a4.45,4.45,0,0,0,2.43.69c1.37,0,2.94-.55,5.52-1.63.21-.1.39-.17.5-.21a112.86,112.86,0,0,0,13.28-5.67,106.54,106.54,0,0,0,35.21-27.94c11.08-13.82,18.22-31.67,20.65-51.63,2.4-19.72.8-36.58-4.76-50.21a39.83,39.83,0,0,0,8.37-3.43c9.24-5.15,14.38-13.39,14.86-23.84s-2.14-18.63-7.76-24.5A26,26,0,0,0,298.69,200l-12.36-1.43,9.26,8.3s4.69,4.41,3.74,10.14c-.57,3.38-5,6-10,6a12.69,12.69,0,0,1-9.2-3.71c-6.49-6.66-29.85-28.26-59.84-28.64a30.9,30.9,0,0,0-2.35-7.2,25.51,25.51,0,0,0-18.66-14.47,29.1,29.1,0,0,0-5.81-.62Z" transform="translate(-28.23 -168.43)"/><path d="M101.29,428.59S124,435.7,166.16,407.7,228,392.77,228,392.78c.61.41,4.36-1.35,5-1.56a107.29,107.29,0,0,0,12.83-5.48,102,102,0,0,0,33.91-26.88c11.3-14.09,17.64-31.81,19.81-49.63,2.12-17.44,1.59-36.49-6.43-52.48l0-.09s23.07-2.4,23.9-24.44-9-25.39-18.72-28.25c0,0,6.56,3.28,5,13.73-1.39,9.29-17.41,13.19-26,4.41s-31.79-28.66-60.45-27.38c0,0-.43-18.39-18.35-21.81s-21.57,12-21.59,12.1c1.19-5,12.1-7,14.12-2a4,4,0,0,1-.7,4,7.09,7.09,0,0,1-3.33,1.8c-18.35,5.54-37.93,0-56.26,5.81-14.22,4.55-27.71,14-33.72,28.09a40.75,40.75,0,0,0-3,11.11c-1.12,9.5.38,25.47,8.67,31.86l1.41,10.8s-13.72,42.11-47.49,45l5.77,6.95-16.72.06s38.14,18.12,50,52.69l5.08-2.19,4.9,8.89,11.58-.88-7.52,14.26,4.22,0Z" transform="translate(-28.23 -168.43)"/><path class="cls-6" d="M121.4,373s11.28-36.33,37.27-46.69c0,0,10.47-5.29,7.11-15.09s-15.19-6.1-15.19-6.1-30.81,6.8-23-11.92c0,0-17.31,5.41-11.83-9,0,0,18.57-11.56,30.16-12.58s28.63-2.73,42,16.4-5.31,44.86-5.31,44.86-8.42,12.94,5.64,15.91C188.26,348.83,144.39,355.89,121.4,373Z" transform="translate(-28.23 -168.43)"/><path class="cls-6" d="M120.32,392.88s22.62-24.07,50.74-31.17l19.36-4.86,4.9,3.81S151.16,372.55,120.32,392.88Z" transform="translate(-28.23 -168.43)"/><path class="cls-6" d="M119.49,410s15.94-23.47,46.78-37l28.3-8.29,6,4.2S153.9,378.15,119.49,410Z" transform="translate(-28.23 -168.43)"/><path class="cls-6" d="M180.36,396.27s4.45-12.07,15.37-15.66,19.33,7.52,19.33,7.52S203.71,386.32,180.36,396.27Z" transform="translate(-28.23 -168.43)"/><path class="cls-6" d="M207.39,377.56l-5.33-4.66c-.84-.73-5.47.29-6.44.4a67.55,67.55,0,0,0-13.36,2.88c-10.5,3.45-20.47,10.29-29,17.23-7.53,6.13-13.68,13.74-19.42,21.51-.4.54-1.4,2.54-2,2.73,0,0,20.71-6.62,31.16-17.51S189.54,374.46,207.39,377.56Z" transform="translate(-28.23 -168.43)"/><path class="cls-6" d="M97.35,376.07s14.43-7,28.21-25.85,29.72-26.59,29.72-26.59,8.84-4.36,7.38-10.31-5.79-6.9-11.86-4.22-31.57,26.4-94.64,22.3C56.16,331.4,84.93,346.45,97.35,376.07Z" transform="translate(-28.23 -168.43)"/><path class="cls-6" d="M62.89,323.46l4,4.7s15.64-1.74,35.36-10a29.22,29.22,0,0,0,8.91,5.29s24.18-5.89,36.22-15.39c0,0-28.93,4.15-27.86-9.05,0,0-15.85,1.31-9.84-19.51C109.72,279.55,95.08,318.39,62.89,323.46Z" transform="translate(-28.23 -168.43)"/><path class="cls-6" d="M107.13,275.35l2.17-2.27,3-8.39s-.74-1-5.18,0C107.13,264.69,108.33,271.5,107.13,275.35Z" transform="translate(-28.23 -168.43)"/><path class="cls-6" d="M114.24,276.16s25.83-15,54.42-7.81,34.33,37.89,34,42.22c0,0,4.38-22.12-12.23-39.34S133.23,255.63,114.24,276.16Z" transform="translate(-28.23 -168.43)"/><path class="cls-7" d="M107.7,259.16S105,237.55,126.34,218.4s50.79-22,50.79-22a155,155,0,0,0-18.54-.09c-11,.52-23.09,1.53-33,6.55a51.47,51.47,0,0,0-16.25,12.71,42.61,42.61,0,0,0-9.53,20.73c-1.22,8.06,1.77,16.77,4.69,24.21Z" transform="translate(-28.23 -168.43)"/><path class="cls-8" d="M197.37,350.22s-12.66-2.63-3.31-13.71,35.49-28.8,42.17-49.1,4.53-41.85-6.47-56.26S190,206.38,162.82,210.6s-36.6,15.59-36.6,15.59,13.74-14.68,42-22.73,49.89.68,57.34,7.14,31.5,23.22,35.87,62.71-27.72,67.23-27.72,67.23-26.59,24.56-18.68,44.85L211.62,382s1.12-2.53-8-9.91l2.16-1.84-7.22-5.62,2.23-2.52-7.44-6.4A8.55,8.55,0,0,0,197.37,350.22Z" transform="translate(-28.23 -168.43)"/><path class="cls-8" d="M267.88,288.62s8.13,33.89-6.76,61.22-35.43,27-35.43,27-9,.7-2.2-14.69,20.68-19.53,29.49-33.64S266.27,301,267.88,288.62Z" transform="translate(-28.23 -168.43)"/><path class="cls-8" d="M269.11,346.62s43.53-31.25,11.38-102.52a94.4,94.4,0,0,1,10.35,8.28s12.73-1.07,19.42-10.62c0,0-13.88,13.16-35-11s-52.64-29.18-52.64-29.18,24.67,8.34,43.83,52.26S269.11,346.62,269.11,346.62Z" transform="translate(-28.23 -168.43)"/><path class="cls-8" d="M111.14,258.21s4.58.36,6.16,2.54,9.56-18.78,46.11-18.53c0,0,13.07.68,20.09,3.22a13.86,13.86,0,0,1,17.33-6.12c12,4.19,16.73,17.84,16.73,17.84s-2.83-6.35-11.66-9.6c-7.84-2.89-13.06,3.56-11.91,10.86a34.87,34.87,0,0,0,12,21.22,22.93,22.93,0,0,0,9.43,4.95,13.81,13.81,0,0,0,10.36-1.54c4-2.54,6-7.28,6.84-11.91,1.8-9.55-.54-19-5.43-27.28-17.25-29.18-58.87-32.88-86.89-18.58a73,73,0,0,0-18.09,13C116.51,244,113.43,250.59,111.14,258.21Z" transform="translate(-28.23 -168.43)"/><path class="cls-8" d="M184.91,178a8.67,8.67,0,0,1,10.27,3.53c4,6-6.45,12.78-6.45,12.78s12.72-.3,15.52-7.29-5.35-10-7.81-10.4S190.62,176.05,184.91,178Z" transform="translate(-28.23 -168.43)"/><path class="cls-8" d="M201.62,194.3s9.52-.51,7.91-8.45c0,0,3.11,3.84,2.76,8.45Z" transform="translate(-28.23 -168.43)"/><path class="cls-8" d="M278.12,228.47c.51.86,2.64,1.6,3.49,2a22.83,22.83,0,0,0,9.2,2.29c4.89.1,10.11-1.91,13.16-5.83,3.42-4.41,3.3-11.23,1.82-16.33.13.44,1.23,1.23,1.53,1.61a17.75,17.75,0,0,1,2.86,5.51c2.93,8.94,1,19.26-9.36,21.37C291.86,240.92,282.7,236.16,278.12,228.47Z" transform="translate(-28.23 -168.43)"/><path class="cls-9" d="M121.4,373s23.41-26.91,46.34-28.43c0,0,7.73-.63,13.81.94,0,0,1.75,2.1,6.71,3.32C188.26,348.83,147.89,354,121.4,373Z" transform="translate(-28.23 -168.43)"/><path class="cls-9" d="M158.48,366.06s10.7-3.18,20.53-.32l11.41-3.62a72.84,72.84,0,0,0-7.47-3.4S165.49,362.12,158.48,366.06Z" transform="translate(-28.23 -168.43)"/><path class="cls-9" d="M166.27,373s7.62-.36,13.78,1.87c0,0,12.58-3.91,14.75-4.52l-5.22-4.18Z" transform="translate(-28.23 -168.43)"/><path class="cls-9" d="M169.32,382.24s8.59-3.43,16.16-.4c0,0,9.21-5.11,17.19-4.69l-7-3.85S180.08,375.21,169.32,382.24Z" transform="translate(-28.23 -168.43)"/><path class="cls-9" d="M185.18,387.67c-.42.4,8.33-2.19,15.74,1.4l6.85-.76s-1.21-4.45-8.05-8.41C199.72,379.9,193.92,379.27,185.18,387.67Z" transform="translate(-28.23 -168.43)"/><path class="cls-9" d="M120.91,294.19s-6.71-3.75,10.23-11.55l7.19-2.36s-9.24,5.86-6.11,15.83,25.24,1.39,25.24,1.39,15.24-5.15,6.52-18l-4-3s16.14-1.86,29.27,14.43a35.73,35.73,0,0,0-18.88-17.33c-14.06-5.76-36.09,1.26-36.09,1.26l-18.49,9.39S111.22,294.14,120.91,294.19Z" transform="translate(-28.23 -168.43)"/><path class="cls-9" d="M147.42,260.25l-6.67,7.11s12.62-2.43,22.07-.18l1.42-7.35S152.52,259.46,147.42,260.25Z" transform="translate(-28.23 -168.43)"/><path class="cls-9" d="M62.89,323.46s22.54,6.47,56.67-24.4c0,0-16.2,1.49-9.84-19.51C109.72,279.55,94.55,318.74,62.89,323.46Z" transform="translate(-28.23 -168.43)"/><path class="cls-9" d="M56.16,331.4s23,8.1,46.36,3.67,46-22.48,46-22.48,13-5.22,13.58,3.7c0,0,2.41-4.55-3.13-8.13s-16.93,6.3-16.93,6.3-8,7.89-36.87,14.57S56.16,331.4,56.16,331.4Z" transform="translate(-28.23 -168.43)"/><path class="cls-1" d="M229.14,353.2c-1.46,2-2.43,4.31-1.39,6.25s3.81.61,5.3-.17c9-4.68,21.36-17.64,27.42-37.22s5.64-23.94,5.64-23.94c.16,1.69-1.21,4.36-1.72,5.91a109.66,109.66,0,0,1-6,14.73,89.17,89.17,0,0,1-10.94,17c-4.39,5.31-9.51,9.31-14.75,13.71A22.51,22.51,0,0,0,229.14,353.2Z" transform="translate(-28.23 -168.43)"/><path class="cls-1" d="M197.37,350.22S197,340.91,215.06,329s31.23-32,29.45-51.66-5.14-22.29-5.14-22.29,2.71,11.45-1.86,28-16.5,28.4-32.23,42.43-15.76,17-13.82,21.09A5.91,5.91,0,0,0,197.37,350.22Z" transform="translate(-28.23 -168.43)"/><path class="cls-1" d="M114.35,258.88s9.1-19.31,27-29,48.53-11.6,60.95-7.4c0,0-16.24-8.81-43.37-3.7s-40.61,22.63-43.16,28-4.65,11.42-4.65,11.42S111.41,257,114.35,258.88Z" transform="translate(-28.23 -168.43)"/><path class="cls-1" d="M335.32,312.9c-5.06-.15-10.23-2.39-14.94-3.79-6.19-1.83-8.83,7.81-2.66,9.64,5.94,1.77,24.27,9.47,25-1.73C343,312.6,338.38,311.24,335.32,312.9Z" transform="translate(-28.23 -168.43)"/></svg>