<svg id="Layer_1" data-name="Layer 1" xmlns="http://www.w3.org/2000/svg" viewBox="0 0 493.03 251.97"><defs><style>.cls-1{fill:#fff;}.cls-2{fill:#c1986c;}.cls-3{fill:#3f2313;}.cls-4{fill:#009147;}</style></defs><path class="cls-1" d="M199.3,384.42a.72.72,0,0,1,.77-.55.66.66,0,0,1,.51.43v-.06c0-.12,0,.12,0-.08.08-.45.16-.9.23-1.36l.48-2.71-2.13-.29-.27,3.77a4.43,4.43,0,0,0,0,2.08c.26.57.55,1.14.83,1.71a1.1,1.1,0,0,0,1.87,0l3.4-5.57-2-.84-.39,1.58a1.09,1.09,0,0,0,1.81,1.05,6.83,6.83,0,0,0,1.58-2l-1.87-1.09a39.91,39.91,0,0,1-2.34,4.06,1.08,1.08,0,0,0,.09,1.2,1.1,1.1,0,0,0,1.13.38,5.13,5.13,0,0,0,4-3.89,1.08,1.08,0,1,0-2.08-.57,4.44,4.44,0,0,1-.15.52c0,.08-.09.21,0,.07-.05.09-.09.18-.14.26a2.26,2.26,0,0,1-.16.26l-.09.13-.1.12-.21.22-.19.17c-.05,0-.18.13-.05.05a5.33,5.33,0,0,1-.51.31l-.14.07-.15.05a3.8,3.8,0,0,1-.58.15l1.22,1.59a44.06,44.06,0,0,0,2.34-4.06,1.12,1.12,0,0,0-.39-1.48,1.1,1.1,0,0,0-1.48.39,4.73,4.73,0,0,1-1.24,1.6l1.81,1.05.38-1.57a1.08,1.08,0,0,0-2-.83l-3.41,5.56h1.87l-.84-1.71.15.55.38-5.3a1.08,1.08,0,0,0-2.12-.29c-.25,1.43-.53,2.85-.74,4.28a1.8,1.8,0,0,0,1,2.15,1.46,1.46,0,0,0,1.89-.95,1.1,1.1,0,0,0-.76-1.33,1.11,1.11,0,0,0-1.33.76Z" transform="translate(-158.3 -169.72)"/><polygon class="cls-2" points="332.86 201.47 353.67 230.14 367.99 206.12 332.86 201.47"/><path class="cls-2" d="M650.81,314.29l-1-6.35-1-6.35q-2.16-13.23-4.33-26.53l-.74-4.5-.73-4.51-.37-2.25-2.23.49-4.45,1-2.76.6c-.23-.08-.5-.19-.83-.34a10.12,10.12,0,0,0,4.44-3.08c1.9-2.28,2.86-5.39,2.86-9.27,0-6.3-3.06-11.81-6.76-17.84l-.7-1.14.07,0,4.58,1.6,3.43,1.2-.59-3.59-.77-4.78c-.48-2.92-1-5.87-1.42-8.82l-.35-2.19-.26-1.64-1.65-.17-1.84-.19a2.9,2.9,0,0,1-.35-.17c-.36-.21-1.07-.76-1.7-1.25a33.53,33.53,0,0,0-3.85-2.69,18.17,18.17,0,0,0-8.72-2.66,9.35,9.35,0,0,0-8.79,5.36c-2.19-.81-4.45-1.64-6.76-2.47-1.8-8.67-8-15.21-17.5-18.5a118.35,118.35,0,0,0-13.18-3.61l-3.4-.66-2.55-.49,0,2.6,0,3.46v1.27l0,2.18v1.3l-4.71-1.51c-.54-2.8-1.09-5.6-1.63-8.4l-.06-.34-.07-.32-.65-3.4-.5-2.55-2.42.95-2.49,1a17,17,0,0,1-1.73-.31c-6-1.35-12.29-2.61-18.69-3.73l-3.37-.59-2.52-.44v2.56l0,3.42v2.63c-1.53-.31-3.1-.62-4.69-.91v-8.41l-1.86-.27-2.49-.35c-4.3-.61-8.77-1.19-13.28-1.71,0,0-1.64-.19-1.64-.21l-1.39-.14-.17,0-2.41-.28v0l-.55-.06c-3.6-.38-7.33-.74-11.09-1.07l-3.13-.28-2.35-.21v7.86c-2.52-.21-5.1-.41-7.7-.6-2.31-4.23-7.27-8.86-17.91-9.35-2.57-.13-5.36-.16-7.24-.16-2.8,0-5,.06-6.11.11l-2.75.13-2.06.1v7.43c-2.64-.08-5.3-.14-7.95-.19-.28-.53-.58-1-.89-1.53a16.7,16.7,0,0,0-14.56-7.82h-.17c-7.1,0-12.49,3.17-15.66,9.18-2.9,0-5.76.06-8.53.11l-.91-4.54-.62-3.06-.46-2.31-2.26.65-3,.87a5.2,5.2,0,0,1-.57.08l-1.36-.11c-1.11-.1-2.36-.21-3.52-.21h-.36a18.89,18.89,0,0,0-16.49,9.85c-11.24.7-22.32,1.63-33,2.77-2.69-5.41-8.18-8.37-15.63-8.37a33.63,33.63,0,0,0-3.41.18c-4.6.48-10.82,1.55-13.37,2.11l-2.27.5-1.71.38v10.09l-4.61.77v-1l0-2.47v-1.29l0-3.37v-2.52l-2.49.4-3.33.53c-3.8.61-7.58,1.27-11.24,2v0l-2.57.51-1.44.29-.34.07-1.75.33v0c-4.59.93-9.14,1.94-13.53,3l-2.22.54-1.67.4v1.71l0,2.29V192l0,3.64v2.18q-3.51.9-7,1.83c-3.14-6.65-8.1-8.11-11.85-8.11a16.69,16.69,0,0,0-5.39,1c-5.89,2.07-10.3,6.25-13.13,12.42a34,34,0,0,0-1.78,5c-2.28.85-4.51,1.71-6.64,2.57l-.87-3.54-1.24-5-.92-3.78-2.72,2.78-3.56,3.64a15.88,15.88,0,0,1-2.19,1.34c-6.21,3.14-12.32,6.58-18.15,10.21l-1.36.85-1,.63v13l2.25-1.39,0,27.47-.95.4-1.32.56v8.72q-2.55,1.28-5,2.56l-2.33,1.21-2.34,1.21-1.17.6v27.73l3.16-1.63,2.35-1.22q0,46.93,0,93.83l-1.56.65-2.66,1.11-1.33.56V421.7l3-1.25,4.05-1.68c14-5.74,64.25-25.43,120.25-37.45,8.74-1.74,17.55-3.3,26.14-4.62,10.62-1.63,21.35-3,31.91-4.05l3.9-.38,1.87-.19,2.27-.18,3.49-.28c9-.73,18.12-1.25,27.13-1.57l4.17-.15,4.18-.14.32,0h1.29l3.69,0,3.7,0h4c5.89,0,12,.09,18,.27,0,0,5.69.22,6,.2l2.7.1,3.85.15,5.46.3,4,.29,4,.29c2.53.19,5.21.4,8.43.68,13.65,1.42,28.08,2.53,41,7.45a35.86,35.86,0,0,1,6.19,2.95c3.28,2,5.72,5,8.69,7.36a10.33,10.33,0,0,1,2-4c4-4.57,8.55-4.82,13.8-3.5,11.89,3,24.13,5.92,36.06,8.87,3.63.9,7.18,2,10.74,3.19,14.2,4.58,28.39,9.11,42.35,14.41l5.85,2.23,5.86,2.22,2.93,1.11V387.69l-1.39-.53-2.79-1.06-1.42-.54c0-24.85.06-48.83.09-73.73l.28,0,1.24.26,2.47.53,2.48.53,3.19.71,6.27,1.43,6.27,1.43,3.14.72Zm-8.41-1.09-6.27-1.43-3.22-.71-2.47-.53L628,310s-4.13-3-4.13-1.75q0,18.44-.05,36.85,0,20.44,0,40.89a2.38,2.38,0,0,0,.26,1.16l2.55,1,2.79,1.06v21.93l-5.86-2.23-5.86-2.22q-3.92-1.49-7.88-2.93t-8-2.83q-8-2.77-16-5.31l-3-1-3-1v-.17c-5-1.41-10-2.74-14.94-4l-.12,0c-5-1.26-47.54-17.46-47.54-17.46l-6.43,5.88a1.92,1.92,0,0,1-.19.71c-.27.49-9.1-14.43-10.34-14.67-4.56-.88-10.56-10.25-15.15-11-9-1.49-19.68,17.83-28.77,16.89l-3.86-.33-4.6-.36-4-.29-4-.29v-.15c-1.85-.13-3.68-.24-5.51-.35l0,.2-3.85-.15-2.84-.11a6.77,6.77,0,0,1-.69,0h-2l-2.17-.2c-3.22-.1-6.44-.18-9.62-.23s-6.35-.08-9.46-.08l-4,0-3.69,0-3.7,0-1.67,0-4.17.15-4.18.15c-4.52.16-9.07.37-13.62.63-2.27.13-4.54.28-6.81.43s-4.53.33-6.79.51l-3.49.28-2.29.18-1.89.19-3.9.39q-4,.4-8,.85c-2.66.3-5.34.62-8,1-5.35.68-10.71,1.43-16,2.25q-3.42.53-6.84,1.1l-4.85.83-1.72.3c-2.06.36-4.12.74-6.17,1.12l-.24,0c-2.16.4-4.3.82-6.45,1.25l-3.38.73-1.11.25-3.25.74-.75.17-2.88.67-1.11.26-3.26.78-.86.21-2.69.67-1,.25-3.23.82-.93.24-2.64.69-.91.23-3.19.85L253,387l-2.73.74-.67.18-3.17.88-.94.27-2.93.83-.33.1-3.17.91-.85.25-3.13.92-.35.11-2.86.86-.75.22-3,.93-.49.16-2.69.83-.63.2-3,.94-.54.17-2.69.86-.4.13-2.91.94-.55.19-2.71.89-.2.06-2.82.95-.52.17-5.49,1.87-.45.16-2.66.92-.05,0-2.54.89-.38.13-2.48.89-.26.09-2.26.81-.29.1-2.34.85-.28.11-2.15.78-.17.06-2.16.81-.34.12-4,1.51-.39.16-1.84.7h-.05l-1.72.66-.36.14-1.6.62-.3.12-1.26.49-.42.17-1.32.52-.43.17L169,415l-.48.19-1,.41-.53.22-.56.22-1.14.46-.09,0-.66.27h0l-4,1.68V396.33l2.66-1.11,2.48-1a2.14,2.14,0,0,0,.41-1.38q0-48.78,0-97.61L160.46,298V275.18l1.17-.61,1.17-.6,2.35-1.22c1.72-.89,3.46-1.76,5.21-2.63l1.25-.61q2.63-1.29,5.3-2.54s0-.9-.07-.89l-1.5.62-4,1.67V261l1.76-.74a.93.93,0,0,0,.52-.65l0-32.35-2.25,1.38v-7.91l1.36-.84c5.78-3.6,11.83-7,18-10.13a16.1,16.1,0,0,0,2.71-1.68l3.61-3.7,1.24,5c.49,2,1,4,1.46,6l2.18-.89.11,0c2.31-.93,4.86-1.92,7.66-2.95.21-.84.45-1.65.7-2.43l.27-.8.28-.78c.22-.57.45-1.14.7-1.68a22.87,22.87,0,0,1,4.18-6.32,18,18,0,0,1,1.49-1.41,17.55,17.55,0,0,1,1.61-1.23,19.49,19.49,0,0,1,4.58-2.31,14.62,14.62,0,0,1,4.69-.85l.64,0H229l.49.05.19,0a10.6,10.6,0,0,1,1.34.27l.14,0,.55.18.15.05a10.33,10.33,0,0,1,1.36.63l.08,0c.2.12.39.24.59.38l.1.06a11.76,11.76,0,0,1,1.31,1.1l0,0c.2.19.4.41.59.63l.06.07a13.49,13.49,0,0,1,1.2,1.65c.18.3.36.61.53.94l.06.1a23.92,23.92,0,0,1,1,2.25l3-.82.09,0,3-.8.27-.07,3-.76.42-.11,3-.73c0-1.29,0-2.58,0-3.87l-2.37.57,0-3.64V188.4l2.22-.54c3.29-.8,6.68-1.57,10.11-2.3l3.43-.71,1.64-.34.36-.07,1.44-.28.56-.1c4.26-.82,8.69-1.6,13.17-2.32l3.32-.53,0,3.36v1.26l0,2.47s-2.34,2.81-2.33,4l.74-.13,4.7-.82,2.75-.46,1.44-.24,4-.64c0-1.1,0-2.19,0-3.29l-2.39.31v-6.84l2.28-.5,1.09-.22,1.37-.27,2.45-.43c1.17-.19,2.42-.39,3.67-.57l1.87-.26c.92-.12,1.82-.23,2.67-.32,1.1-.11,2.18-.17,3.19-.17.55,0,1.08,0,1.6.06l.45,0c.38,0,.76.07,1.12.12l.44.06c.48.08.95.17,1.42.29s.89.24,1.31.38l.38.14c.31.11.61.23.91.36l.35.16c.39.19.77.38,1.13.6h0a12,12,0,0,1,1,.69l.3.23.68.59.27.26a11.65,11.65,0,0,1,.83.89s0,0,0,0c.25.31.48.64.7,1,.07.11.14.22.2.33s.31.52.45.8a3.65,3.65,0,0,1,.18.34c.19.38.36.77.52,1.18l4.76-.5,1.92-.19,3-.29,2.39-.22,2.4-.22,2.84-.25.39,0q4-.35,8.16-.64l.67,0,4.06-.29.84,0,4.27-.28a20.65,20.65,0,0,1,1.94-3.11l.09-.11c.21-.27.42-.53.64-.79l.11-.12c.23-.26.47-.52.71-.77l.06-.05a16.94,16.94,0,0,1,1.7-1.49l.1-.07c.25-.19.51-.37.78-.55l.21-.14c.24-.14.47-.29.71-.42l.25-.14c.25-.14.5-.26.76-.38l.22-.11a17.15,17.15,0,0,1,2-.77l.29-.08.77-.2.38-.08.73-.13.4-.07.79-.09.36,0c.38,0,.76-.05,1.16-.06h.32l.82,0c.83,0,1.71.11,2.5.18l.46,0,.44,0,.68,0a4.92,4.92,0,0,0,.64-.06,3.79,3.79,0,0,0,.51-.1l3-.87.62,3.07,1.27,6.31h0l5.25-.09h.09l6.19-.07h.07a15.75,15.75,0,0,1,4.6-6.1,13.49,13.49,0,0,1,1.29-.89,14.66,14.66,0,0,1,1.46-.78l.07,0a13.41,13.41,0,0,1,1.89-.69l.11,0c.27-.08.54-.15.82-.21l.17,0a16.74,16.74,0,0,1,1.84-.29l.23,0,.68-.05h.26c.29,0,.58,0,.88,0h.17a16.57,16.57,0,0,1,2,.12,15.73,15.73,0,0,1,2.81.59,14.32,14.32,0,0,1,1.73.65,13.09,13.09,0,0,1,1.61.87A12.86,12.86,0,0,1,425,175.8a15.19,15.19,0,0,1,3.11,3.53c.22.34.43.7.63,1.07l.15.27c.19.37.38.76.56,1.15l3.31.07H433l3.17.07h.23l3.33.09h.08l3.49.11h0v-.9l-2.42-.09v-6.68l2.75-.13c.41,0,1,0,1.65,0s1.5,0,2.41,0h2c.93,0,2.08,0,3.32,0l1.9,0,1.92.08c.65,0,1.28.08,1.9.14l.54.07c.46.05.9.12,1.34.19.16,0,.34,0,.5.09.55.1,1.08.22,1.59.35.18,0,.35.1.53.15.34.09.68.2,1,.31s.45.15.66.23l.8.32c.38.16.74.33,1.09.51l.64.34c.25.14.49.29.74.45l.39.26c.26.18.51.35.76.54l0,0a15,15,0,0,1,1.6,1.47l0,.06c.25.26.48.54.7.82l0,.05a13.17,13.17,0,0,1,.93,1.37l0,0a16.12,16.12,0,0,1,.77,1.49q3.42.24,6.84.52c2.27.18,4.55.38,6.82.59,0-.29-2.41-1.09-2.41-1.09v-7l3.13.28,5.59.52c1.85.17,3.67.36,5.46.55l2.59.27.35,0,3.21.37c3.36.39,6.71.81,10,1.25l3.24.45,2.48.35v7.08l-2.47-.36v1.2h0l3.38.59.56.1,2.89.54.5.1,3,.61.28.06c1.09.22,2.17.46,3.23.7,0-.53,0-1.05,0-1.58,0,0,0-.08,0-.11l-2.38-.42,0-2.43v-1.26l0-3.42,3.36.59,4.76.86,4.69.91c3.1.62,6.16,1.27,9.14,1.94l.54.11.87.16.62.08a4.74,4.74,0,0,0,.51,0l2.95-1.16.66,3.4.06.33q.92,4.67,1.81,9.33l.13.67h0l5.62,1.79.08,0,2.52.81.31.1,2.53.82c0-1.3-2.31-5-2.31-5v-2.17l0-1.27,0-3.46,3.4.66c.94.18,2.62.56,4.61,1.08.85.22,1.76.46,2.69.72l1.88.54.94.29c.94.29,1.88.59,2.76.89.63.22,1.25.46,1.85.7l.58.26c.39.17.78.34,1.15.53l.67.34,1,.52.68.4.85.55.66.44c.26.19.52.38.77.58l.63.49c.24.2.46.4.69.61s.71.66,1,1,.42.42.62.64.41.5.62.75l.42.51c.2.26.39.53.57.8s.24.34.35.52.36.57.53.87.2.33.29.5.33.62.48.94c.08.15.14.31.21.47.16.34.31.69.45,1,0,.11.07.22.11.33a22.06,22.06,0,0,1,1.08,4.14.77.77,0,0,1,0,.15q5.58,2,9.92,3.62a11.1,11.1,0,0,1,.39-1.15l0-.06.21-.47c0-.06.07-.13.1-.2l.22-.42.13-.2a6.74,6.74,0,0,1,.42-.62l.22-.29.24-.27.29-.29a2.39,2.39,0,0,1,.23-.22c.17-.15.35-.3.53-.43l.22-.15.44-.27.25-.13a4.91,4.91,0,0,1,.57-.25l.16-.07q.38-.13.78-.24l.24,0,.66-.11.26,0c.31,0,.62,0,1,0a16,16,0,0,1,7.66,2.39,30.66,30.66,0,0,1,3.59,2.51l.54.43.76.56c.23.17.44.31.62.42l.22.12a6.82,6.82,0,0,0,.75.3l2.1.22.34,2.19q.72,4.44,1.42,8.83l.78,4.78-4.57-1.6-1.54-.53-1.26-.42-.49-1.23-.14-.31,0-.05-.19-.35,0,0c-.1-.16-.21-.34-.34-.51a6.42,6.42,0,0,0-.76-.91,11.63,11.63,0,0,0-2-1.66l0,1.08,0,1.13c.09.15.17.3.26.47l1.84,3,.57.95,1.12,1.83,1.11,1.81c3.53,5.75,6.45,11,6.45,16.72,0,3.35-.79,6-2.36,7.87a8.61,8.61,0,0,1-6.94,3l-.73,0-.61-.05h-.13a14.82,14.82,0,0,1-1.54-.24l0,.9q3,1.33,6,2.72a17.7,17.7,0,0,0,1.94.78l3.35-.73,4.46-1,.73,4.51.73,4.5q2.18,13.29,4.34,26.53l1,6.35,1,6.35ZM502.13,378Z" transform="translate(-158.3 -169.72)"/><path class="cls-2" d="M195.44,210.09a16.81,16.81,0,0,1-3.45,2.24q-9,4.53-17.76,10v1.14a2.52,2.52,0,0,1,1.24-.44c.6,0,1,.43,1,1.37l0,35.2a3.76,3.76,0,0,1-2.27,3.31V264l2.46-1q5.33-2.2,10.69-4.31v-1.19a3.12,3.12,0,0,1-1.1.25c-.83,0-1.33-.55-1.34-1.71l-.06-16.49q3.69-1.71,7.4-3.33a3.72,3.72,0,0,1,1.44-.37c.79,0,1.2.49,1.21,1.35l1.25-.53c0-3.58,0-7.16-.07-10.74l-1.25.55a4.39,4.39,0,0,1-2.62,3.37c-2.49,1.13-5,2.3-7.45,3.51,0-3.66,0-7.31-.05-11,2.09-1.1,4.18-2.15,6.27-3.19.55-.27,1.1-.55,1.65-.81a5,5,0,0,1,.81-.32,2.83,2.83,0,0,1,.86-.15,1.7,1.7,0,0,1,1.6,1.11l1.45-1.05-.36-1.48C196.48,214.37,196,212.22,195.44,210.09Z" transform="translate(-158.3 -169.72)"/><path class="cls-2" d="M236,203c-1.64-4.23-4.26-6.43-7.82-6.43a11.45,11.45,0,0,0-3.75.7c-5.56,1.95-9.33,6.4-11.42,13a51.32,51.32,0,0,0-2,15.62c.13,14.81,3.2,21.62,9.75,21.62a13.06,13.06,0,0,0,3.92-.67C234,244,238.16,235.21,238,216.94,238,211.05,237.28,206.38,236,203Zm-11.2,37.08a2.64,2.64,0,0,1-.84.14c-2.63,0-3.94-4.64-4.05-17.48-.07-7.43.48-12.38,1.61-15.34.71-1.86,1.66-2.94,2.83-3.35a2.94,2.94,0,0,1,.89-.16c.87,0,1.58.54,2.14,1.66,1.12,2.23,1.65,6.79,1.72,14.16C229.19,234.3,227.74,239.14,224.77,240.08Z" transform="translate(-158.3 -169.72)"/><path class="cls-2" d="M269.38,186.89c0,.42,0,.85,0,1.27a3,3,0,0,1,.51,0c1.06,0,1.88.69,1.88,2.14l0,4.15q.07,14.53.17,29c0,2.64-2,4.34-4.36,4.88a6.12,6.12,0,0,1-1.38.17c-1.64,0-2.94-.83-3-3.09q-.09-14.48-.19-29.09l0-4.23a2.91,2.91,0,0,1,2.36-3.05v-1.28q-6.75,1.37-13.44,3c0,.43,0,.86,0,1.29a2.69,2.69,0,0,1,.61-.08c1,0,1.76.67,1.77,2.08l0,4.27q.1,15.06.22,30a11,11,0,0,1-.47,4,13.26,13.26,0,0,0,9.1,3.31,19.05,19.05,0,0,0,4.41-.54,24.26,24.26,0,0,0,13.2-8.89,9.52,9.52,0,0,1-.6-3.69q-.08-14.76-.15-29.63c0-1.34,0-2.68,0-4a2.8,2.8,0,0,1,2.38-2.92c0-.42,0-.84,0-1.25Q275.9,185.64,269.38,186.89Z" transform="translate(-158.3 -169.72)"/><path class="cls-2" d="M326.65,222a2.67,2.67,0,0,1-2.45-1.61,127.55,127.55,0,0,1-4.62-16.29c3.56-2,5.67-5.42,5.66-11.89a14.41,14.41,0,0,0-1.13-6c-1.85-4.15-5.87-6-11.3-6-.93,0-1.89,0-2.9.15-4.58.48-10.54,1.52-12.79,2v1.24a3,3,0,0,1,.5,0c1.32,0,1.9.81,1.9,2.2,0,1.22,0,2.43,0,3.66q.06,17.1.12,34.09a2.88,2.88,0,0,1-2.38,2.93v1.23q6.81-1.23,13.63-2.29c0-.4,0-.8,0-1.21a2.35,2.35,0,0,1-.45,0,1.92,1.92,0,0,1-1.95-2.15q0-7.23,0-14.49l3.63-.5a93.43,93.43,0,0,0,3.61,17.58q5.63-.82,11.27-1.55V222Zm-16.46-20.67c-.51.07-1.17.15-1.75.17l0-13.29c0-.36,0-.72,0-1.08a12.53,12.53,0,0,1,1.75-.26,6.35,6.35,0,0,1,.87,0,5,5,0,0,1,2.67.68c1.38.85,2.36,2.6,2.37,5.79C316.07,199,313.31,201,310.19,201.37Z" transform="translate(-158.3 -169.72)"/><path class="cls-2" d="M379.92,213.48h-.43c-5.2,0-7.84-3.87-7.84-15.66,0-10.85,3.66-15.66,8-15.76H380c2.79,0,4.37.8,5.14,2.4l1.61-.39c-.14-.73-.29-1.46-.44-2.19l-1.17-5.8a8.18,8.18,0,0,1-1.9.27h-.07c-.94,0-3.24-.32-4.88-.32H378a13.85,13.85,0,0,0-11.87,6.68c-2.4,3.76-3.72,9-3.72,15.54,0,13.5,4.76,21.36,14.67,21.36l.92,0c2.2-.1,4.76-.61,5.35-.63h.35a6.3,6.3,0,0,1,1.33.13c.59-2.81,1.17-5.61,1.76-8.42l-1.61-.31C384.32,212.49,383,213.36,379.92,213.48Z" transform="translate(-158.3 -169.72)"/><path class="cls-2" d="M415.3,175.39h-.15c-5.09,0-8.76,2.12-11.06,6.26-2,3.52-2.93,8.49-2.93,14.86,0,15.81,4.4,22.82,14,23h.4c9.31,0,13.58-6.63,13.59-22.67,0-6.44-1-11.48-3-15A11.73,11.73,0,0,0,415.3,175.39Zm.07,38.07h-.07c-3.29-.05-4.91-4.29-4.9-16.94,0-9.2,1.17-13.75,3.47-14.87a2.8,2.8,0,0,1,1.25-.29h0a3.09,3.09,0,0,1,1.33.3c2.41,1.15,3.43,5.69,3.43,15C419.92,209.53,418.4,213.46,415.37,213.46Z" transform="translate(-158.3 -169.72)"/><path class="cls-2" d="M470.88,218.81a149.76,149.76,0,0,1-4.58-17c3.58-1.24,5.7-4.2,5.7-10.6a14.18,14.18,0,0,0-2-7.77c-2.51-4-7.25-5.87-13.34-6.15-2.21-.11-4.73-.15-7-.15-2.49,0-4.69.05-5.87.1v1.15a2.18,2.18,0,0,1,2.41,2.4v1.47q0,17,0,33.91a2.08,2.08,0,0,1-2.22,2.2h-.19v1.14q6.87.45,13.74,1.05v-1.16a2.5,2.5,0,0,1-2.41-2.58q0-6.92,0-13.84c1.22.09,2.44.17,3.66.27A100.48,100.48,0,0,0,462.34,221q5.66.55,11.3,1.19c0-.39,0-.78,0-1.17A3.62,3.62,0,0,1,470.88,218.81Zm-13.41-21.47-.59,0c-.51,0-1.17-.08-1.76-.17q0-6.84,0-13.68a2.19,2.19,0,0,1,.4,0c.4,0,1,0,1.35.05,2.93.15,5.92,1.75,5.92,7.17C462.8,195.8,460.36,197.34,457.47,197.34Z" transform="translate(-158.3 -169.72)"/><path class="cls-2" d="M504.68,182.84a2.7,2.7,0,0,1,2.46,2.82v1.39q0,6.69,0,13.36l-.22,0q-3.21-7.15-6.43-14.18c-.34-.74-.68-1.48-1-2.22a7.35,7.35,0,0,1-.87-3c-3.67-.39-7.33-.74-11-1.07v1.21a2.56,2.56,0,0,1,2.4,2.69v1.3q0,17.84-.07,35.57a1.92,1.92,0,0,1-2,2.16l-.42,0V224q6.54.91,13.07,2c0-.41,0-.81,0-1.21a2.8,2.8,0,0,1-2.39-2.86q0-12.25.07-24.55l.14,0q4.31,8.94,8.59,18.09,0,5.79,0,11.57l1,.18,2.22.39c2.29.41,4.58.82,6.87,1.25,0-.41,0-.82,0-1.23-1.23-.23-1.88-1.25-1.87-2.87q.07-18.15.14-36.45v-1.49a2.06,2.06,0,0,1,2.11-2.23,2.36,2.36,0,0,1,.37,0v-1.24q-6.57-.94-13.15-1.7Z" transform="translate(-158.3 -169.72)"/><path class="cls-2" d="M552.23,196.35a3.78,3.78,0,0,1,2.21,1.42,6.24,6.24,0,0,1,.86,1.67l1.58-.09c-.06-.29-.11-.58-.17-.87-.57-2.93-1.13-5.86-1.7-8.79a2.15,2.15,0,0,1-.74.09,15.87,15.87,0,0,1-3.21-.46q-9.19-2.07-18.45-3.68c0,.42,0,.84,0,1.27a2.8,2.8,0,0,1,2.37,3c0,.75,0,1.49,0,2.23q-.11,18.35-.21,36.5c0,1.41-.8,2.12-1.84,2.12a2.64,2.64,0,0,1-.55-.06v1.25q9.75,2.11,19.44,4.56a8.92,8.92,0,0,1,3.29,1.37c.59-2.92,1.19-5.85,1.78-8.78l-1.42-.77A2.79,2.79,0,0,1,553,230a4.3,4.3,0,0,1-1.11-.16q-4.15-1-8.31-2,0-7.77.1-15.58c2.46.55,4.93,1.11,7.39,1.7a3.09,3.09,0,0,1,2.63,2.92l1.44.36q0-5.64.08-11.3l-1.43-.35a1.8,1.8,0,0,1-2,1.74,2.89,2.89,0,0,1-.7-.08q-3.74-.88-7.47-1.69,0-5.52.07-11C546.53,195.06,549.38,195.68,552.23,196.35Z" transform="translate(-158.3 -169.72)"/><path class="cls-2" d="M597.38,246.64c-1.71-6.21-3.41-13.85-4.28-19.3,3.46-.44,5.52-3,5.57-9.84a21.91,21.91,0,0,0-.56-5.25c-1.66-7-6.87-11.73-14.1-14.23a114.43,114.43,0,0,0-12.49-3.42c0,.43,0,.86,0,1.29a3,3,0,0,1,2.32,3.27c0,1.6,0,3.2,0,4.8q-.13,17.34-.28,34.53c0,1.36-.73,2-1.69,2l-.26,0a3.83,3.83,0,0,1-.42-.08c0,.42,0,.85,0,1.27l2.31.68q5.52,1.62,11,3.34c0-.42,0-.85,0-1.27a3.38,3.38,0,0,1-2.32-3.33q.08-7.59.13-15.2l3.54,1.15a132.5,132.5,0,0,0,3.3,20.14q5.46,1.77,10.9,3.65c0-.42,0-.83,0-1.25A4.83,4.83,0,0,1,597.38,246.64ZM586,220.45a6.47,6.47,0,0,1-2-.36,17.87,17.87,0,0,1-1.69-.62q0-6.3.11-12.63c0-.81,0-1.63,0-2.44a13.76,13.76,0,0,1,1.69.5,7.75,7.75,0,0,1,4.63,4.1,12.08,12.08,0,0,1,1,5.34C589.78,218.93,588.17,220.45,586,220.45Z" transform="translate(-158.3 -169.72)"/><path class="cls-2" d="M628.13,261.15c4,0,6.42-2.54,6.42-8,0-4.77-2.33-9.19-6-15.21l-2.58-4.23c-.66-1.08-1.33-2.19-2.07-3.42a11.07,11.07,0,0,1-1.9-5.66c0-1.47.73-2.49,2.08-2.49a3.34,3.34,0,0,1,.89.14,6.25,6.25,0,0,1,1.3.53c3.35,1.83,5.25,4,6.06,6.07l1.57.54q-.72-4.39-1.42-8.84a7,7,0,0,1-2-.8C629,219,626.87,217,625,215.92a13.39,13.39,0,0,0-6.25-2c-2.54,0-4.2,1.46-4.85,4.09a11.89,11.89,0,0,0-.32,2.73c0,5,2.79,10.3,7.74,17.77a40.1,40.1,0,0,1,4.32,7.72,11.48,11.48,0,0,1,.75,4.09,3.4,3.4,0,0,1-.94,2.63,2.7,2.7,0,0,1-1.91.68,6.56,6.56,0,0,1-2.36-.52c-4.23-1.72-5.69-3.8-6.37-6.64l-1.67-.22c.45,3.41.89,6.81,1.34,10.2a7.62,7.62,0,0,1,2,.44c1.32.51,3.34,2,5.77,3a22.75,22.75,0,0,0,3,.93A13.34,13.34,0,0,0,628.13,261.15Z" transform="translate(-158.3 -169.72)"/><path class="cls-3" d="M647.63,308.29l-1-6.35q-2.18-13.24-4.34-26.53l-.73-4.5-.73-4.51-4.46,1-3.35.73a17.7,17.7,0,0,1-1.94-.78q-2.94-1.38-6-2.72l0-.9a14.82,14.82,0,0,0,1.54.24h.13l.61.05.73,0a8.61,8.61,0,0,0,6.94-3c1.57-1.87,2.36-4.52,2.36-7.87,0-5.75-2.92-11-6.45-16.72l-1.11-1.81-1.12-1.83-.57-.95-.77-1.27a19.27,19.27,0,0,1,2.71.62l1.26.42,1.54.53,4.57,1.6-.78-4.78q-.71-4.4-1.42-8.83L635,218l-2.1-.22a6.82,6.82,0,0,1-.75-.3l-.22-.12-.29-.19a3.29,3.29,0,0,1-.33-.23l-.76-.56-.54-.43a30.66,30.66,0,0,0-3.59-2.51,16,16,0,0,0-7.66-2.39c-.33,0-.64,0-1,0l-.26,0-.66.11-.24,0q-.4.11-.78.24l-.16.07a4.91,4.91,0,0,0-.57.25l-.25.13-.44.27-.22.15c-.18.13-.36.28-.53.43a2.39,2.39,0,0,0-.23.22l-.29.29-.24.27-.22.29a6.74,6.74,0,0,0-.42.62l-.13.2-.22.42c0,.07-.07.14-.1.2l-.21.47,0,.06a11.1,11.1,0,0,0-.39,1.15q-4.35-1.62-9.92-3.62h0a22,22,0,0,0-1.1-4.28c0-.11-.07-.22-.11-.33-.14-.35-.29-.7-.45-1-.07-.16-.13-.32-.21-.47-.15-.32-.31-.63-.48-.94s-.19-.34-.29-.5-.34-.59-.53-.87-.23-.35-.35-.52-.37-.54-.57-.8l-.42-.51c-.21-.25-.41-.51-.62-.75s-.44-.45-.65-.67-.67-.66-1-1-.45-.41-.69-.61l-.63-.49c-.25-.2-.51-.39-.77-.58l-.66-.44-.85-.55-.68-.4-1-.52-.67-.34c-.37-.19-.76-.36-1.15-.53l-.58-.26c-.6-.24-1.22-.48-1.85-.7-.88-.3-1.82-.6-2.76-.89l-.94-.29-1.88-.54c-.93-.26-1.84-.5-2.69-.72-2-.52-3.67-.9-4.61-1.08l-3.4-.66,0,3.46,0,1.27V198s-.11,4.23-.22,4.19l-2.83-.91-.08,0-5.62-1.79h0l-.13-.67q-.9-4.67-1.81-9.33l-.06-.33-.66-3.4-2.95,1.16a4.74,4.74,0,0,1-.51,0l-.62-.08-.87-.16-.54-.11c-3-.67-6-1.32-9.14-1.94l-4.69-.91-4.76-.86-3.36-.59,0,3.42v1.26l0,2.43s0,1.05,0,1.58c-1.06-.24.26,0-.83-.17l-.28-.06-3-.61-.5-.1-2.89-.54-.56-.1-1-.17c0-.4,0-1.27,0-1.27V180.8l-2.48-.35L515,180c-3.27-.44-6.62-.86-10-1.25l-3.2-.37-.35,0-2.59-.27c-1.79-.19-3.61-.38-5.46-.55l-5.59-.52-3.13-.28v7s0,.61,0,.9c-2.26-.21-2.13-.22-4.4-.4s-4.56-.36-6.84-.52a16.12,16.12,0,0,0-.77-1.49l0,0a11.77,11.77,0,0,0-.93-1.37l0-.05c-.22-.28-.45-.56-.7-.82l0-.06a15,15,0,0,0-1.6-1.47l0,0c-.25-.19-.5-.36-.76-.54l-.39-.26c-.25-.16-.49-.31-.74-.45l-.64-.34c-.35-.18-.71-.35-1.09-.51l-.8-.32c-.21-.08-.43-.16-.66-.23s-.66-.22-1-.31c-.18,0-.35-.11-.53-.15-.51-.13-1-.25-1.59-.35-.16,0-.34-.06-.5-.09-.44-.07-.88-.14-1.34-.19l-.54-.07c-.62-.06-1.25-.11-1.9-.14l-1.92-.08-1.9,0c-1.24,0-2.39,0-3.32,0h-2c-.91,0-1.72,0-2.41,0s-1.24,0-1.65,0l-2.75.13v6.68s.06.91-1.1.88h-.08l-3.33-.09h-.23L433,181.9h-.26l-3.31-.07c-.18-.39-.37-.78-.56-1.15l-.15-.27c-.2-.37-.41-.73-.63-1.07A15.19,15.19,0,0,0,425,175.8a12.86,12.86,0,0,0-1.48-1.06,13.09,13.09,0,0,0-1.61-.87,14.32,14.32,0,0,0-1.73-.65,15.73,15.73,0,0,0-2.81-.59,16.57,16.57,0,0,0-2-.12h-.19l-.86,0H414l-.68.05-.23,0a16.74,16.74,0,0,0-1.84.29l-.17,0c-.28.06-.55.13-.82.21l-.11,0a13.41,13.41,0,0,0-1.89.69l-.07,0a14.66,14.66,0,0,0-1.46.78,13.19,13.19,0,0,0-1.3.9,15.72,15.72,0,0,0-4.59,6.09h0l-6.26.07h-.09l-5.26.09,0,0L388,175.52l-.62-3.07-3,.87a3.79,3.79,0,0,1-.51.1,4.92,4.92,0,0,1-.64.06l-.68,0-.44,0-.46,0c-.79-.07-1.67-.15-2.5-.18l-.82,0H378c-.4,0-.78,0-1.16.06l-.36,0-.79.09-.4.07-.74.13-.37.08-.77.2-.29.08a18,18,0,0,0-2.05.77l-.21.11c-.26.12-.51.24-.76.38l-.25.14c-.24.13-.47.28-.71.42l-.21.14c-.27.18-.53.36-.78.55l-.1.07a16.94,16.94,0,0,0-1.7,1.49l-.06.05c-.24.25-.48.51-.71.77l-.11.12c-.22.26-.43.52-.64.79l-.09.11a21.53,21.53,0,0,0-1.95,3.11l-4.26.28-.84,0-4.06.29-.67,0q-4.14.3-8.16.64l-.39,0-2.84.25-2.4.22-2.39.22-3,.29-1.92.19-4.77.5a11.34,11.34,0,0,0-.51-1.18l-.18-.35c-.14-.27-.29-.53-.45-.79s-.13-.22-.2-.33c-.22-.33-.45-.66-.7-1,0,0,0,0,0,0a11.65,11.65,0,0,0-.83-.89l-.27-.26-.68-.59-.3-.23a12,12,0,0,0-1-.69h0c-.36-.22-.74-.41-1.13-.6l-.35-.16c-.3-.13-.6-.25-.91-.36l-.38-.14q-.63-.21-1.32-.39c-.46-.11-.93-.2-1.41-.28l-.44-.06c-.36,0-.74-.09-1.12-.12l-.45,0c-.52,0-1.05-.06-1.6-.06-1,0-2.09.06-3.19.17-.85.09-1.75.2-2.67.32l-1.87.26c-1.25.18-2.5.38-3.67.57l-2.45.43-1.37.27-1.09.22-2.28.5V187s.07,2.25.07,3.35l-1.69.27-1.44.24-2.75.46c-.49.08-1.22.19-3.12.53,0-1.16,0-3.54,0-3.54l0-2.47v-1.26l0-3.37-3.32.54c-4.48.72-8.91,1.5-13.17,2.32l-.56.09-1.44.29-.36.07-1.64.34-3.43.71c-3.43.73-6.82,1.5-10.11,2.3l-2.22.54V192l0,3.64s.07,2.58.08,3.87l-4,1-.27.07-3,.8-.09,0-3,.83a19.14,19.14,0,0,0-1-2.26l-.06-.1c-.17-.33-.35-.64-.53-.94a13.49,13.49,0,0,0-1.2-1.65l-.06-.07c-.19-.22-.39-.44-.59-.63l0,0a11.76,11.76,0,0,0-1.31-1.1l-.1-.06c-.2-.14-.39-.26-.59-.38l-.08,0a10.33,10.33,0,0,0-1.36-.63l-.15-.05-.55-.18-.14,0a10.6,10.6,0,0,0-1.34-.27l-.19,0-.49-.05h-.19l-.64,0a14.62,14.62,0,0,0-4.69.85,19.49,19.49,0,0,0-4.58,2.31,17.55,17.55,0,0,0-1.61,1.23,18,18,0,0,0-1.49,1.41,22.77,22.77,0,0,0-4.18,6.33c-.25.53-.48,1.1-.7,1.67l-.28.78-.27.8c-.25.78-.49,1.59-.71,2.43-2.79,1-5.34,2-7.65,2.95l-.11,0-2.18.89c-.49-2-1-4-1.46-6l-1.24-5-3.61,3.7a16.1,16.1,0,0,1-2.71,1.68c-6.15,3.12-12.2,6.53-18,10.13l-1.36.84v7.91l2.25-1.38,0,32.35a.93.93,0,0,1-.52.65l-1.76.74v7.38l.11,1.21-1.09.54c-1.75.87-3.49,1.74-5.22,2.64L162.8,274l-1.17.6-1.17.61V298l5.51-2.85q0,48.82,0,97.61a2.14,2.14,0,0,1-.41,1.38l-2.48,1-2.66,1.11v22.12l4-1.68h0l.66-.27.09,0,1.14-.46.56-.22.53-.22,1-.41c22.45-9,45.38-17.17,68.66-23.87A622.3,622.3,0,0,1,309.88,375a586.36,586.36,0,0,1,77.1-7.28q22.54-.63,45.09.48,19.51,1,38.94,3.31c11.19,1.34,22.79,2.65,32.83,8.18a43.91,43.91,0,0,1,7.53,5.24c-.33-.57,1.66-2.85,2-3.17,5.14-5.31,13.28-2.18,19.33-.64,24.49,6.23,49,12.62,72.84,21,8,2.81,15.89,6,23.8,9V389.18l-2.79-1.06-2.55-1a2.38,2.38,0,0,1-.26-1.16q0-20.44,0-40.89c0-12.57,0-21.63,0-34.37l1.65-1.31L628,310l2.48.53,2.47.53,3.22.71,6.27,1.43,6.27,1.44Zm-23.28-16.45q-4.56-2-9.15-3.94-.06,49.11-.11,98.08a9.87,9.87,0,0,0,4.44,8.6,6.79,6.79,0,0,0,1.15.56v3.43l-1.32-.49q-15.37-5.79-31-10.74c0-1.15,0-2.31,0-3.46a5.55,5.55,0,0,0,1.67.27c2.35,0,4.18-1.77,4.18-5.48l0-20.07q.06-39.23.12-78.57-5.74-2-11.52-3.78a13,13,0,0,0-3.75-.7c-2.5,0-3.87,1.35-4.73,4.19l-1.74-.93c-.63-.34-1.26-.68-1.9-1,.33-1.83.65-3.65,1-5.47q1.6-9,3.22-18.07a33.93,33.93,0,0,0,7.78,3.63A351.72,351.72,0,0,1,624.84,274c.84.38,1.68.76,2.52,1.16a14.93,14.93,0,0,0,5.74,1.7,2.93,2.93,0,0,0,.63-.06q2.16,13.29,4.33,26.54c-1.11-.26-2.23-.5-3.34-.74-1.5-4.84-3.17-7.49-8.71-10ZM515.41,342.91l4.23-.49c1.75,7.58,5.45,12.56,16.14,14.86a15.42,15.42,0,0,0,3.22.36c5.85,0,9.91-4,9.92-11.9,0-.08,0-.15,0-.23,0-10.06-3.88-17.77-12.91-30.51-12.62-17.72-19.85-30-19.84-44.2,0-15.82,7.71-25.75,21.67-25.75a35.79,35.79,0,0,1,7.35.82c4.9,1,10.31,4.51,14,5.43a13.7,13.7,0,0,0,3,.31,7.67,7.67,0,0,0,2.22-.26q1.5,10.44,3,20.9l-.79,4.42-2.58,0c-2.08-5.29-6.94-9.88-15.51-11.83a11.47,11.47,0,0,0-2.52-.29c-5.4,0-8.34,4.42-8.35,9.82,0,4.92,1.57,9.42,4.9,14.7,4.37,6.78,7.86,12.15,11.86,18.42,9.4,14.72,15.27,26.47,15.25,41.05,0,1,0,2-.07,2.91-.82,17.71-8.91,25.86-21.95,25.86C544.81,377.33,516.58,352.22,515.41,342.91Zm-67,17.59v-3.39h.44c3,0,5.43-2.26,5.43-6.52V246.29c0-4-2-6.43-4.91-7-2.16.25-4.05,2-4.53,4.86,0,0-5.68,36.4-10.66,68.28-3.76,24-7.11,45.44-7.33,46.86h0l-2.18-.07-2.14-.07c-3.39-.11-6.79-.18-10.18-.23h0c-2.92,0-5.84-.07-8.75-.07h-4q-4.89-29.65-9.8-59.25-4.63-28-9.27-56c-.52-3.45-2.39-5.17-5.27-5.17H375v-3.38q14.31-.5,28.61-.49h3.13V238h0c-3,0-4.43,1.78-4.43,3.73,0,1.06.18,2.84.36,4.62q3.57,29.51,7.14,59.07,1.61,13.26,3.2,26.52l.89,0q1.53-12.26,3.05-24.48l7.47-60.16a39.75,39.75,0,0,0,.36-4.61c0-2.67-1.25-4.49-4.46-4.55v-3.38q14.08.27,28.15,1h0l1,.06.74,0h0c14.6.83,29.18,2,43.7,3.77a48.44,48.44,0,0,0,5.54.37,10,10,0,0,0,4.2-.59q2.39,12.63,4.76,25.28l-3.88.7c-1.42-4.18-3.72-6.85-7.61-7.35q-10.53-1.35-21.1-2.35v29.61q9.22.94,18.44,2.15a7.38,7.38,0,0,0,.93.06,5.35,5.35,0,0,0,5.62-5.3l3.53.5q0,15.18,0,30.34l-3.53-.53c0-3.25-2.12-6.46-6.55-7.06q-9.11-1.23-18.25-2.21,0,10.62,0,21.22v20.73q10.29,1.19,20.55,2.72a11.71,11.71,0,0,0,1.71.13c3.49,0,5.44-1.92,7.13-5.24l3.53,1.66C507.47,352.55,464.5,361.67,448.42,360.5Zm-66.5-1.26q-13.82.5-27.61,1.6c-3.38-11.33-7.65-36-8.72-50.19-3,.26-5.93.53-8.89.83q0,20.32,0,40.64c0,3.71,1.88,6.41,5.21,6.41l.65,0v3.39q-16.27,1.62-32.48,4.12-14.93,2.3-29.74,5.33V367.9c3-.61,4.21-2.65,4.21-4.65,0-.72-.71-9.27-1.24-12.6a31.36,31.36,0,0,1-10,4,35.65,35.65,0,0,1-7,.71,16.56,16.56,0,0,1-3.66-.33c-.52,3.58-1.56,12.18-1.56,13.27,0,1.79.82,3,2.76,3a6.65,6.65,0,0,0,1.44-.18v3.44q-12.84,3-25.58,6.52-15.27,4.25-30.36,9.28c0-1.16,0-2.31,0-3.46,3.6-1.2,5.66-4.59,5.65-9q0-18.42,0-36.89,0-6.71,0-13.4-9.79,3.24-19.48,7l0,27.64,0,22.42c0,3.37,1.34,5.42,3.74,5.42a5.8,5.8,0,0,0,1.89-.36c0,1.15,0,2.3,0,3.45q-8.48,3-16.88,6.21-7.6,2.93-15.13,6.05v-3.4a8.13,8.13,0,0,0,2.78-2,9.76,9.76,0,0,0,2-3.21,11.23,11.23,0,0,0,.76-4.09q0-52.33,0-104.72c0-3.29-1.35-4.87-3.24-4.87a4.91,4.91,0,0,0-2.26.63v-3.4q4.14-2.15,8.31-4.15,11.65-5.6,23.52-10.19v3.46c-3.4,1.32-5.6,5-5.6,9.32q0,18.92.05,37.8,9.69-3.76,19.48-7,0-19-.06-38c0-3.64-1.43-5.53-3.73-5.53a5.83,5.83,0,0,0-1.94.38c0-1.16,0-2.31,0-3.47,10.73-3.87,21.55-7.2,32.44-10.08,0,1.16,0,2.32,0,3.48-3.3.87-5.73,3.94-5.72,8.7q0,29.3.09,58.5,0,24,.06,48c0,3.21,1.13,5,2.87,5.56a9.07,9.07,0,0,0,2.34-5q4.23-30,8.49-60,3.69-26,7.39-51.9a29.41,29.41,0,0,0,.35-3.92c0-1.76-.81-3.2-2.42-3.2a3.23,3.23,0,0,0-.73.09c0-1.16,0-2.32,0-3.48,12.75-3,25.59-5.38,38.47-7.36v3.45a4,4,0,0,0-3.35,4.15,38,38,0,0,0,.36,4.12l3.36,21.95q6.28,41,12.57,81.78c.6,3.58,2.1,4.67,4.16,4.67H310c2.82-.81,5.05-3.59,5.05-7.71q0-38.34,0-76.76,0-14.18,0-28.36c0-3.93-1.46-6.21-4.79-6.21a7.82,7.82,0,0,0-1.05.07v-3.44a257.75,257.75,0,0,1,31.23-4.58c1.57-.12,3.11-.19,4.61-.19,19.82,0,32.78,10.63,32.77,35.57,0,10.73-1.77,18.34-5,23.8a23.56,23.56,0,0,1-8.91,8.72,444.12,444.12,0,0,0,11.22,47.17c.88,2.75,3.63,5.25,6.6,5.25h.18Zm-115.45.49h0Zm348.3-113.28c.68,2.84,2.14,4.92,6.37,6.64a6.56,6.56,0,0,0,2.36.52,2.7,2.7,0,0,0,1.91-.68,3.4,3.4,0,0,0,.94-2.63,11.48,11.48,0,0,0-.75-4.09,40.1,40.1,0,0,0-4.32-7.72c-4.95-7.47-7.77-12.75-7.74-17.77a11.89,11.89,0,0,1,.32-2.73c.65-2.63,2.31-4.09,4.85-4.09a13.39,13.39,0,0,1,6.25,2c1.91,1.08,4,3,5.45,3.89a7,7,0,0,0,2,.8q.7,4.44,1.42,8.84l-1.57-.54c-.81-2-2.71-4.24-6.06-6.07a6.1,6.1,0,0,0-1.31-.53,3.21,3.21,0,0,0-.88-.14c-1.35,0-2.08,1-2.08,2.49a11.07,11.07,0,0,0,1.9,5.66c.74,1.23,1.41,2.34,2.07,3.42l2.58,4.23c3.7,6,6,10.44,6,15.21,0,5.43-2.37,8-6.42,8a13.34,13.34,0,0,1-2.93-.37,22.75,22.75,0,0,1-3-.93c-2.43-.94-4.45-2.47-5.77-3a7.62,7.62,0,0,0-2-.44c-.45-3.39-.89-6.79-1.34-10.2Zm-43.63-6a3.83,3.83,0,0,0,.42.08l.26,0c1,0,1.68-.67,1.69-2q.13-17.18.28-34.53c0-1.6,0-3.2,0-4.8a3,3,0,0,0-2.32-3.27c0-.43,0-.86,0-1.29A114.43,114.43,0,0,1,584,198c7.23,2.5,12.44,7.21,14.1,14.23a21.91,21.91,0,0,1,.56,5.25c0,6.81-2.11,9.4-5.57,9.84.87,5.45,2.57,13.09,4.28,19.3a4.83,4.83,0,0,0,2.65,3c0,.42,0,.83,0,1.25q-5.43-1.89-10.9-3.65a132.5,132.5,0,0,1-3.3-20.14l-3.54-1.15q-.06,7.62-.13,15.2a3.38,3.38,0,0,0,2.32,3.33c0,.42,0,.85,0,1.27q-5.51-1.72-11-3.34l-2.31-.68C571.13,241.27,571.14,240.84,571.14,240.42Zm-38.78-9.76a2.64,2.64,0,0,0,.55.06c1,0,1.83-.71,1.84-2.12q.11-18.15.21-36.5c0-.74,0-1.48,0-2.23a2.8,2.8,0,0,0-2.37-3c0-.43,0-.85,0-1.27q9.25,1.62,18.45,3.68a15.87,15.87,0,0,0,3.21.46,2.15,2.15,0,0,0,.74-.09c.57,2.93,1.13,5.86,1.7,8.79.06.29.11.58.17.87l-1.58.09a6.24,6.24,0,0,0-.86-1.67,3.78,3.78,0,0,0-2.21-1.42c-2.85-.67-5.7-1.29-8.55-1.89q0,5.53-.07,11,3.74.81,7.47,1.69a2.89,2.89,0,0,0,.7.08,1.8,1.8,0,0,0,2-1.74l1.43.35q0,5.66-.08,11.3l-1.44-.36a3.09,3.09,0,0,0-2.63-2.92c-2.46-.59-4.93-1.15-7.39-1.7q-.06,7.81-.1,15.58,4.15,1,8.31,2A4.3,4.3,0,0,0,553,230a2.79,2.79,0,0,0,2.49-1.66l1.42.77c-.59,2.93-1.19,5.86-1.78,8.78a8.92,8.92,0,0,0-3.29-1.37q-9.69-2.44-19.44-4.56Zm-44.88-7.89.42,0a1.92,1.92,0,0,0,2-2.16q0-17.73.07-35.57v-1.3a2.56,2.56,0,0,0-2.4-2.69v-1.21c3.68.33,7.34.68,11,1.07a7.35,7.35,0,0,0,.87,3c.33.74.67,1.48,1,2.22q3.23,7,6.43,14.18l.22,0q0-6.67,0-13.36v-1.39a2.7,2.7,0,0,0-2.46-2.82v-1.23q6.58.76,13.15,1.7v1.24a2.36,2.36,0,0,0-.37,0,2.06,2.06,0,0,0-2.11,2.23v1.49q-.06,18.3-.14,36.45c0,1.62.64,2.64,1.87,2.87,0,.41,0,.82,0,1.23-2.29-.43-4.58-.84-6.87-1.25l-2.22-.39-1-.18q0-5.78,0-11.57-4.28-9.15-8.59-18.09l-.14,0q0,12.3-.07,24.55a2.8,2.8,0,0,0,2.39,2.86c0,.4,0,.8,0,1.21q-6.53-1-13.07-2Zm-43.7-4.38H444a2.08,2.08,0,0,0,2.22-2.2q0-17,0-33.91v-1.47a2.18,2.18,0,0,0-2.41-2.4v-1.15c1.18,0,3.38-.1,5.87-.1,2.28,0,4.8,0,7,.15,6.09.28,10.83,2.19,13.34,6.15a14.18,14.18,0,0,1,2,7.77c0,6.4-2.12,9.36-5.7,10.6a149.76,149.76,0,0,0,4.58,17,3.62,3.62,0,0,0,2.77,2.23c0,.39,0,.78,0,1.17q-5.64-.65-11.3-1.19a100.48,100.48,0,0,1-3.56-17.75c-1.22-.1-2.44-.18-3.66-.27q0,6.93,0,13.84a2.5,2.5,0,0,0,2.41,2.58v1.16q-6.87-.6-13.74-1.05Zm-39.69-36.74c2.3-4.14,6-6.26,11.06-6.26h.15a11.73,11.73,0,0,1,10.87,6.38c2,3.57,3,8.61,3,15,0,16-4.28,22.67-13.59,22.67h-.4c-9.6-.16-14-7.17-14-23C401.16,190.14,402.13,185.17,404.09,181.65Zm-37.94,1.08A13.85,13.85,0,0,1,378,176.05h.25c1.64,0,3.94.32,4.88.32h.07a8.18,8.18,0,0,0,1.9-.27l1.17,5.8c.15.73.3,1.46.44,2.19l-1.61.39c-.77-1.6-2.35-2.4-5.14-2.4h-.35c-4.32.1-8,4.91-8,15.76,0,11.79,2.64,15.66,7.84,15.66h.43c3.08-.12,4.4-1,5.28-3.11l1.61.31c-.59,2.81-1.17,5.61-1.76,8.42a6.3,6.3,0,0,0-1.33-.13h-.35c-.59,0-3.15.53-5.35.63l-.92,0c-9.91,0-14.67-7.86-14.67-21.36C362.43,191.74,363.75,186.49,366.15,182.73Zm-56.24-2.28c1-.1,2-.15,2.9-.15,5.43,0,9.45,1.83,11.3,6a14.41,14.41,0,0,1,1.13,6c0,6.47-2.1,9.89-5.66,11.89a127.55,127.55,0,0,0,4.62,16.29,2.67,2.67,0,0,0,2.45,1.61l.32,0v1.19q-5.64.72-11.27,1.55a93.43,93.43,0,0,1-3.61-17.58l-3.63.5q0,7.26,0,14.49a1.92,1.92,0,0,0,1.95,2.15,2.35,2.35,0,0,0,.45,0c0,.41,0,.81,0,1.21q-6.82,1.06-13.63,2.29v-1.23a2.88,2.88,0,0,0,2.38-2.93q-.07-17-.12-34.09c0-1.23,0-2.44,0-3.66,0-1.39-.58-2.2-1.9-2.2a3,3,0,0,0-.5,0v-1.24C299.37,182,305.33,180.93,309.91,180.45Zm-44.49,7.22V189a2.91,2.91,0,0,0-2.36,3.05l0,4.23q.11,14.6.19,29.09c0,2.26,1.32,3.09,3,3.09a6.12,6.12,0,0,0,1.38-.17C270,227.7,272,226,272,223.36q-.09-14.42-.17-29l0-4.15c0-1.45-.82-2.14-1.88-2.14a3,3,0,0,0-.51,0c0-.42,0-.85,0-1.27q6.53-1.26,13.08-2.3c0,.41,0,.83,0,1.25a2.8,2.8,0,0,0-2.38,2.92c0,1.35,0,2.69,0,4q.08,14.88.15,29.63a9.52,9.52,0,0,0,.6,3.69,24.26,24.26,0,0,1-13.2,8.89,19.05,19.05,0,0,1-4.41.54,13.26,13.26,0,0,1-9.1-3.31,11,11,0,0,0,.47-4q-.1-14.94-.22-30l0-4.27c0-1.41-.77-2.08-1.77-2.08a2.69,2.69,0,0,0-.61.08c0-.43,0-.86,0-1.29Q258.67,189,265.42,187.67ZM213,210.29c2.09-6.62,5.86-11.07,11.42-13a11.45,11.45,0,0,1,3.75-.7c3.56,0,6.18,2.2,7.82,6.43,1.31,3.38,2,8.05,2,13.94.15,18.27-4.06,27-13.33,29.92a13.06,13.06,0,0,1-3.92.67c-6.55,0-9.62-6.81-9.75-21.62A51.32,51.32,0,0,1,213,210.29ZM176.69,263l-2.46,1V262.9a3.76,3.76,0,0,0,2.27-3.31l0-35.2c0-.94-.4-1.37-1-1.37a2.52,2.52,0,0,0-1.24.44v-1.14q8.79-5.48,17.76-10a16.81,16.81,0,0,0,3.45-2.24c.52,2.13,1,4.28,1.57,6.43l.36,1.48-1.45,1.05a1.7,1.7,0,0,0-1.6-1.11,2.83,2.83,0,0,0-.86.15,5,5,0,0,0-.81.32c-.55.26-1.1.54-1.65.81-2.09,1-4.18,2.09-6.27,3.19,0,3.66,0,7.31.05,11,2.47-1.21,5-2.38,7.45-3.51a4.39,4.39,0,0,0,2.62-3.37l1.25-.55c0,3.58.05,7.16.07,10.74l-1.25.53c0-.86-.42-1.35-1.21-1.35a3.72,3.72,0,0,0-1.44.37q-3.71,1.62-7.4,3.33l.06,16.49c0,1.16.51,1.71,1.34,1.71a3.12,3.12,0,0,0,1.1-.25v1.19Q182,260.81,176.69,263Zm28.77,133.27h0l-2.83,1c.42-.15,2.83-1,2.83-1Z" transform="translate(-158.3 -169.72)"/><path class="cls-3" d="M223.93,240.22a2.64,2.64,0,0,0,.84-.14c3-.94,4.42-5.78,4.3-20.37-.07-7.37-.6-11.93-1.72-14.16-.56-1.12-1.27-1.66-2.14-1.66a2.94,2.94,0,0,0-.89.16c-1.17.41-2.12,1.49-2.83,3.35-1.13,3-1.68,7.91-1.61,15.34C220,235.58,221.3,240.22,223.93,240.22Z" transform="translate(-158.3 -169.72)"/><path class="cls-3" d="M308.44,201.54c.58,0,1.24-.1,1.75-.17,3.12-.41,5.88-2.39,5.87-8,0-3.19-1-4.94-2.37-5.79a5,5,0,0,0-2.67-.68,6.35,6.35,0,0,0-.87,0,12.53,12.53,0,0,0-1.75.26c0,.36,0,.72,0,1.08Z" transform="translate(-158.3 -169.72)"/><path class="cls-3" d="M415.3,213.46h.07c3,0,4.55-3.93,4.55-16.81,0-9.3-1-13.84-3.43-15a3.09,3.09,0,0,0-1.33-.3h0a2.8,2.8,0,0,0-1.25.29c-2.3,1.12-3.47,5.67-3.47,14.87C410.39,209.17,412,213.41,415.3,213.46Z" transform="translate(-158.3 -169.72)"/><path class="cls-3" d="M457.47,197.34c2.89,0,5.33-1.54,5.33-6.67,0-5.42-3-7-5.92-7.17-.4,0-.95-.05-1.35-.05a2.19,2.19,0,0,0-.4,0q0,6.84,0,13.68c.59.09,1.25.14,1.76.17Z" transform="translate(-158.3 -169.72)"/><path class="cls-3" d="M586,220.45c2.13,0,3.74-1.52,3.78-6.11a12.08,12.08,0,0,0-1-5.34,7.75,7.75,0,0,0-4.63-4.1,13.76,13.76,0,0,0-1.69-.5c0,.81,0,1.63,0,2.44q-.06,6.33-.11,12.63a17.87,17.87,0,0,0,1.69.62A6.47,6.47,0,0,0,586,220.45Z" transform="translate(-158.3 -169.72)"/><path class="cls-3" d="M273.59,268.11l-1.23.25q-1.5,13.72-3,27.49-2.14,19.78-4.3,39.57a12.22,12.22,0,0,0,4.2.59,21.09,21.09,0,0,0,4.21-.42A19.61,19.61,0,0,0,281.2,332q-2.49-20.91-5-41.88Q274.9,279.15,273.59,268.11Z" transform="translate(-158.3 -169.72)"/><path class="cls-3" d="M342.35,253.54q-.69,0-1.38.06a26.74,26.74,0,0,0-4.27.54v40.14h.52c1.28,0,2.65-.13,3.75-.23a13.81,13.81,0,0,0,10.36-5.53c2.48-3.36,4.05-8.49,4.05-16.14C355.38,257.7,349,253.54,342.35,253.54Z" transform="translate(-158.3 -169.72)"/><polygon class="cls-3" points="334.14 197.93 337.57 202.63 353.91 225.25 366.99 201.75 334.14 197.93"/><path class="cls-4" d="M375.14,350.62a444.12,444.12,0,0,1-11.22-47.17,23.56,23.56,0,0,0,8.91-8.72c3.22-5.46,5-13.07,5-23.8,0-24.94-12.95-35.56-32.77-35.57-1.5,0-3,.07-4.61.19a257.75,257.75,0,0,0-31.23,4.58v3.44a7.82,7.82,0,0,1,1.05-.07c3.33,0,4.79,2.28,4.79,6.21q0,14.19,0,28.36,0,38.42,0,76.76c0,4.12-2.23,6.9-5.05,7.71h-.16c-2.06,0-3.56-1.09-4.16-4.67q-6.29-40.77-12.57-81.78l-3.36-21.95a38,38,0,0,1-.36-4.12,4,4,0,0,1,3.35-4.15v-3.45c-12.88,2-25.72,4.39-38.47,7.36,0,1.16,0,2.32,0,3.48a3.23,3.23,0,0,1,.73-.09c1.61,0,2.42,1.44,2.42,3.2a29.41,29.41,0,0,1-.35,3.92q-3.71,25.92-7.39,51.9-4.25,30-8.49,60a9.07,9.07,0,0,1-2.34,5c-1.74-.55-2.86-2.35-2.87-5.56q0-23.94-.06-48,0-29.22-.09-58.5c0-4.76,2.42-7.83,5.72-8.7,0-1.16,0-2.32,0-3.48-10.89,2.88-21.71,6.21-32.44,10.08,0,1.16,0,2.31,0,3.47a5.83,5.83,0,0,1,1.94-.38c2.3,0,3.72,1.89,3.73,5.53q0,19,.06,38-9.8,3.28-19.48,7,0-18.89-.05-37.8c0-4.36,2.2-8,5.6-9.32V266.1q-11.87,4.61-23.52,10.19-4.17,2-8.31,4.15v3.4a4.91,4.91,0,0,1,2.26-.63c1.89,0,3.24,1.58,3.24,4.87q0,52.38,0,104.72a11.23,11.23,0,0,1-.76,4.09,9.76,9.76,0,0,1-2,3.21,8.13,8.13,0,0,1-2.78,2v3.4q7.53-3.14,15.13-6.05,8.4-3.24,16.88-6.21c0-1.15,0-2.3,0-3.45a5.8,5.8,0,0,1-1.89.36c-2.4,0-3.74-2.05-3.74-5.42l0-22.42,0-27.64q9.69-3.71,19.48-7,0,6.71,0,13.4,0,18.45,0,36.89c0,4.37-2,7.76-5.65,9,0,1.15,0,2.3,0,3.46q15.07-5.06,30.36-9.28,12.74-3.54,25.58-6.52v-3.44a6.65,6.65,0,0,1-1.44.18c-1.94,0-2.76-1.23-2.76-3,0-1.09,1-9.69,1.56-13.27a16.56,16.56,0,0,0,3.66.33,35.65,35.65,0,0,0,7-.71,31.36,31.36,0,0,0,10-4c.53,3.33,1.24,11.88,1.24,12.6,0,2-1.23,4-4.21,4.65v3.44q14.82-3,29.74-5.33,16.2-2.49,32.48-4.12V358.5l-.65,0c-3.33,0-5.21-2.7-5.21-6.41q0-20.31,0-40.64c3-.3,5.93-.57,8.89-.83,1.07,14.22,5.34,38.86,8.72,50.19q13.79-1.11,27.61-1.6v-3.38h-.18C378.77,355.87,376,353.37,375.14,350.62Zm-101.66-15a21.09,21.09,0,0,1-4.21.42,12.22,12.22,0,0,1-4.2-.59q2.15-19.8,4.3-39.57,1.5-13.74,3-27.49l1.23-.25q1.32,11,2.62,22.05,2.49,21,5,41.88A19.61,19.61,0,0,1,273.48,335.59Zm77.85-47.06A13.81,13.81,0,0,1,341,294.06c-1.1.1-2.47.23-3.75.23h-.52V254.14a26.74,26.74,0,0,1,4.27-.54q.69-.06,1.38-.06c6.64,0,13,4.16,13,18.85C355.38,280,353.81,285.17,351.33,288.53Z" transform="translate(-158.3 -169.72)"/><path class="cls-4" d="M498.23,348.06a11.71,11.71,0,0,1-1.71-.13q-10.26-1.53-20.55-2.72V324.48q0-10.61,0-21.22,9.13,1,18.25,2.21c4.43.6,6.55,3.81,6.55,7.06l3.53.53q0-15.17,0-30.34l-3.53-.5a5.35,5.35,0,0,1-5.62,5.3,7.38,7.38,0,0,1-.93-.06q-9.21-1.21-18.44-2.15V255.7q10.56,1,21.1,2.35c3.89.5,6.19,3.17,7.61,7.35l3.88-.7Q506,252,503.63,239.42a10,10,0,0,1-4.2.59,48.44,48.44,0,0,1-5.54-.37c-14.52-1.72-29.1-2.94-43.7-3.77l-.74,0-1-.06q-14.07-.75-28.15-1v3.38c3.21.06,4.46,1.88,4.46,4.55a39.75,39.75,0,0,1-.36,4.61l-7.47,60.16q-1.53,12.24-3.05,24.48l-.89,0q-1.6-13.26-3.2-26.52-3.57-29.55-7.14-59.07c-.18-1.78-.36-3.56-.36-4.62,0-1.95,1.42-3.73,4.43-3.73h0v-3.38h-3.13q-14.31,0-28.61.49v3.38h.26c2.88,0,4.75,1.72,5.27,5.17q4.63,28,9.27,56,4.91,29.6,9.8,59.25h4c2.91,0,5.83,0,8.76.07,3.39.05,6.79.12,10.18.23l2.14.07,2.18.06c.22-1.42,3.57-22.86,7.33-46.86,5-31.88,10.67-68.27,10.66-68.28.48-2.84,2.37-4.61,4.53-4.86,2.88.57,4.91,3,4.91,7V350.6c0,4.26-2.43,6.52-5.43,6.52h-.44v3.39c0,.06,25.26,2.36,27.56,2.63,8.77,1,18.09,1.6,26.54,4.3a4,4,0,0,1,1.71.87,4.31,4.31,0,0,1,.88,1.65c1,2.69,1.92,5.39,2.89,8.08l.89-33.55-3.53-1.66C503.67,346.14,501.72,348.06,498.23,348.06Z" transform="translate(-158.3 -169.72)"/><path class="cls-4" d="M542.51,289.09c-3.33-5.28-4.9-9.78-4.9-14.7,0-5.4,2.95-9.82,8.35-9.82a11.47,11.47,0,0,1,2.52.29c8.57,1.95,13.43,6.54,15.51,11.83l2.58,0,.79-4.42q-1.5-10.46-3-20.9a7.67,7.67,0,0,1-2.22.26,13.7,13.7,0,0,1-3-.31c-3.66-.92-9.07-4.38-14-5.43a35.79,35.79,0,0,0-7.35-.82c-14,0-21.67,9.93-21.67,25.75,0,14.16,7.22,26.48,19.84,44.2,9,12.74,12.86,20.45,12.91,30.51,0,.08,0,.15,0,.23,0,7.9-4.07,11.9-9.92,11.9a15.42,15.42,0,0,1-3.22-.36c-10.69-2.3-14.39-7.28-16.14-14.86l-4.23.49v34.42c0-1.48,2.49-4.61,3.19-5.91a2.52,2.52,0,0,1,1-.67c6.62-.81,12.72,4.05,19,5.47a40.51,40.51,0,0,0,9,1.11c13,0,21.13-8.15,21.95-25.86,0-1,.07-1.91.07-2.91,0-14.58-5.85-26.33-15.25-41.05C550.37,301.24,546.88,295.87,542.51,289.09Z" transform="translate(-158.3 -169.72)"/><path class="cls-4" d="M633.73,276.8a2.93,2.93,0,0,1-.63.06,14.93,14.93,0,0,1-5.74-1.7c-.84-.4-1.68-.78-2.52-1.16a351.72,351.72,0,0,0-42.1-16.11,33.93,33.93,0,0,1-7.78-3.63q-1.61,9-3.22,18.07c-.33,1.82-.65,3.64-1,5.47.64.33,1.27.67,1.9,1l1.74.93c.86-2.84,2.23-4.19,4.73-4.19a13,13,0,0,1,3.75.7q5.77,1.8,11.52,3.78-.06,39.35-.12,78.57l0,20.07c0,3.71-1.83,5.48-4.18,5.48a5.55,5.55,0,0,1-1.67-.27c0,1.15,0,2.31,0,3.46q15.6,4.94,31,10.74l1.32.49v-3.43a6.79,6.79,0,0,1-1.15-.56,9.87,9.87,0,0,1-4.44-8.6q0-49,.11-98.08,4.59,1.91,9.15,3.94l1.66.74c5.54,2.53,7.21,5.18,8.71,10,1.11.24,2.23.48,3.34.74Q635.89,290.1,633.73,276.8Z" transform="translate(-158.3 -169.72)"/></svg>