<svg id="Layer_1" data-name="Layer 1" xmlns="http://www.w3.org/2000/svg" viewBox="0 0 565.91 241.88"><defs><style>.cls-1,.cls-6{fill:#f05a26;}.cls-1{stroke:#fff;stroke-miterlimit:10;stroke-width:5px;}.cls-2{fill:#231f20;}.cls-3{fill:#110d0b;}.cls-4{fill:#f16732;}.cls-5{fill:#fff;}</style></defs><path class="cls-1" d="M665.18,331.1h8.25V316.91c0-11.87-6.7-18.75-18.38-19v-.37h19.08V273.06H506.34a118.45,118.45,0,0,0-233.51,0H136.77v24.47h9.29v42.6H143v0h-29.4v21c0,12.1,6.94,19,19,19h23.84c.53,0,1,0,1.56-.05v.09H309.35a118.42,118.42,0,0,0,160.46,0H655.05v0h.37c12.1,0,19-6.93,19-19V347.77C674.46,338.07,670.48,333.65,665.18,331.1Zm3.28,30a15.64,15.64,0,0,1-1.78,8,15.64,15.64,0,0,0,1.78-8V347.78c0-3.4-.51-5.81-1.64-7.63,1.13,1.82,1.64,4.23,1.64,7.62Zm-97.53-.65V345h0v15.42Zm23.84-28.7H570.93V317.57h0v14.17Zm8.57,42.38h0V352.8h0Zm0-48.92h0V303.88h0Zm-399.82-5.09h0Zm0,.11s0,0,0,0a.25.25,0,0,1,0,.08v0a.22.22,0,0,0,0-.08.06.06,0,0,0,0,0v0Zm0,.31v0a.28.28,0,0,1,0-.09A.28.28,0,0,0,203.46,320.53Zm.09,37.4h0l0-.08Zm18.15,0h0v0l-.12,0Zm0-.09v0Zm0-37.45a2.56,2.56,0,0,1,0,.45v36.33c0,.05,0,.08,0,.12s0-.07,0-.12V320.84A2.56,2.56,0,0,0,221.76,320.39Zm-.83-2.41H204.31c-2,0-2.85.85-2.85,2.86v36.33c0,2,.85,2.85,2.85,2.85h16.62a2.65,2.65,0,0,0,2.39-.95,2.64,2.64,0,0,1-2.39,1H204.31c-2,0-2.86-.86-2.86-2.86V320.84c0-2,.86-2.86,2.86-2.86h16.62c1.49,0,2.34.48,2.68,1.54C223.27,318.46,222.42,318,220.93,318Zm-36.88-1.07a15.67,15.67,0,0,1,1.78-8,15.68,15.68,0,0,0-1.78,8v44.17c0,6.25,2,10.14,6.35,11.91a14.09,14.09,0,0,0,2.9.82,14.09,14.09,0,0,1-2.9-.82c-4.3-1.77-6.35-5.67-6.35-11.91Zm316.63,57.21V361.47h0v12.65ZM139.11,359.57l-.1,0Zm-11.38,14c-.12,0-.25-.05-.37-.09C127.48,373.53,127.61,373.55,127.73,373.58Zm24.33-82v65.22a5,5,0,0,1-.09.91,5.12,5.12,0,0,0,.09-.92V291.54Zm104.13,69.93h0V316.54h0Zm-8.67-44.94h0V303.88h0Zm26.08.61h0v14.18h0Zm-26.08,44.33h0v12.65h0Zm26.08,0h0V345h0ZM510,316.54v44.93h0V316.54Zm17.41,44.93V316.54h0v44.93ZM142.77,278.88h0v12.65h0Zm7,80.7a5.79,5.79,0,0,1-.61,0h-9.39a4.5,4.5,0,0,1-.54,0,4.5,4.5,0,0,0,.54,0h9.39A5.79,5.79,0,0,0,149.81,359.58Zm.12,0h0ZM158,374.08a15,15,0,0,0,5.8-1.39,15,15,0,0,1-5.8,1.39c-.24,0-.5,0-.74,0Zm378.68,0h0V361.47h0Zm0-57.59h0V303.88h0ZM649,348.9a3.8,3.8,0,0,1,1.08.5A3.8,3.8,0,0,0,649,348.9Zm-15.53,11.74H648.2a3.06,3.06,0,0,0,2.1-.61,3.06,3.06,0,0,1-2.1.62H633.44a2.51,2.51,0,0,1-2.54-1.21C631.31,360.26,632.12,360.64,633.44,360.64Zm4.84-14.49-10.79-2.75c-10.24-2.61-14.11-4.49-14.11-13.9V316.91c0-4.21,1-7.35,2.88-9.5-1.93,2.15-2.88,5.29-2.88,9.51v12.59c0,9.41,3.87,11.28,14.11,13.89Zm16.77-12.08-.61-.16.61.15c6.06,1.58,9.78,2.95,11.72,6C664.84,337,661.11,335.64,655.05,334.07Zm12.38-9H650v-4.88c0-2-.85-2.86-2.85-2.86H633.65c-2,0-2.86.85-2.86,2.86v5.57A2.34,2.34,0,0,0,632,328.1a2.33,2.33,0,0,1-1.22-2.31v-5.57c0-2,.85-2.86,2.85-2.86h13.53c2,0,2.85.86,2.85,2.86v4.88h17.41v-8.18c0-5-1.35-8.54-4.12-10.63,2.77,2.09,4.12,5.59,4.12,10.62Z" transform="translate(-111.05 -172.1)"/><circle class="cls-2" cx="278.53" cy="120.94" r="118.44"/><path class="cls-3" d="M441,191.59l14.3,9.17c.41,1.22,1.13,2,2.53,1.62l1.68,1.08c-.24.77.2,1.18.77,1.59a87.44,87.44,0,0,1,17.85,17.25c25.11,32.33,30.33,68,17.39,106.61-1.39,4.14-4.19,7.77-4.46,12.3l-14,21.87c-5.78,4.1-9.7,10.11-15.17,14.57-32.59,26.54-68.63,35.29-109.15,21.6-3.82-1.29-7.1-3.89-11.22-4.38l-21-13.48c-.35-2.39-2.52-3.31-4-4.65-34.64-31.17-46.95-81.6-30.61-125.24,1.35-3.6,3.88-6.83,3.84-10.93l3.23-5c2.83-2.93,5.29-6.11,6.48-10.09l2.7-4.21c2.67-.56,3.66-3,5.31-4.73,31.63-32.43,69.13-44.18,113.3-32C427.56,186.38,434.2,189.2,441,191.59Zm-36.57-8.49c-18.26-3.07-35.86-.58-53.46,6,6.75,4.9,8.2,7.58,8.37,15.71a51.11,51.11,0,0,1-.54,9.42c-.42,2.52.15,3.13,2.67,3a103.31,103.31,0,0,1,12.93.22c2.82.24,3.95-.82,5.21-3.25,6.16-11.84,12.89-23.3,25-30.25.3-.1.84-.2.84-.31C405.43,182.88,404.9,183,404.38,183.1Zm94.21,108.72c.16.37.29,1,.5,1,.87.12.72-.62.78-1.16.52-26.19-8-49.17-24.44-69.42a32.79,32.79,0,0,0-12.91-9.75c-16.36-7-35.72-3.57-47,8.55-2,2.13-2,2.77,1,3.74a172.43,172.43,0,0,1,47.76,24.31C479.66,260.16,492.34,273.41,498.59,291.82Zm-210.5,38.87a8.62,8.62,0,0,0,.68,1.4c.9-.26,1-1,.79-1.8.58-4.27.81-8.62,1.83-12.79,4.58-18.88,14.87-34.75,27.32-49.22a303.27,303.27,0,0,0,30.51-43.07c.66-1.11,1.94-2.36,1.24-3.59-.93-1.63-2.71-.53-4.08-.4A93.9,93.9,0,0,0,325,225.73c-17.36,5.9-32.13,15.43-38.73,33.27C277.38,282.92,279.51,307,288.09,330.69Zm147.72,59.86c3.78-8.43,4.92-18.58,4-29-1.16-13.44-5.54-26-10.77-38.3-7.47-17.6-16.89-34.32-23.63-52.25-5.22-13.89-6.41-27.86-.05-41.72,1.3-2.81.41-3.32-2.1-3.76-6.54-1.13-13.06-2.42-19.57-3.75-2.57-.53-3.69.29-4.74,2.81-6.64,16-11.8,32.46-16.65,49.06-8.76,30-14,60.51-14.7,91.76-.19,8.84.45,17.64,4.19,25.9a15.1,15.1,0,0,0,11,9.1,108.14,108.14,0,0,0,68.41-5.86C432.75,393.89,434.45,393.47,435.81,390.55Zm4.49-.9c1.26.19,2.14-.71,3.11-1.28a113.35,113.35,0,0,0,42.38-43.28c5.34-9.58,10.1-19.6,11.09-30.74,1.63-18.23-5.34-33.53-17.24-46.78-17.91-19.93-41-31.27-66-39.28-3.45-1.1-4.1.93-5,3-4.47,9.89-4,20-1.51,30.28,2.45,9.9,6.56,19.17,10.71,28.43,6.81,15.16,14.6,29.92,19.48,45.87C442.64,353.5,446.18,371.32,440.3,389.65Zm-91.53,5.69c-7.14-12.56-7.64-25.89-6.78-39.21,2.83-43.34,14.44-84.68,29.79-125.06,4.06-10.69,4.46-10.34-7-10.84-4.89-.21-8.13.67-9.45,6-.65,2.65-2.64,5-4,7.42-9.71,16.88-24.17,30-35.8,45.36-10,13.23-18.46,27.32-21.36,44-2.1,12.07-.51,23.23,7.2,33.5,9.52,12.67,20.54,23.52,34.05,31.76C339.63,390.92,344.28,393,348.77,395.34Zm112.9-185.69c-12.66-12.08-27.88-19.41-44.54-24.33-6.71-2-11.58-.18-16.3,4.1-7.92,7.19-12.86,16.4-17.62,25.76-1.26,2.47.11,2.77,2,3.07,6.38,1,12.84,1.8,19.1,3.34,3.58.88,5.7.07,8.11-2.49,11.37-12.08,25.3-15.84,41.33-12C456.43,207.76,459,208.8,461.67,209.65ZM291.89,243.53c14.45-15.12,32.53-22.33,52.78-25,9.67-1.3,9.66-1.37,11.77-11.1.15-.65.33-1.29.42-1.94.56-4.25.76-8.68-3.23-11.3s-8.55-2.79-13.16-.3C319.13,205.35,302.42,221.35,291.89,243.53Z" transform="translate(-111.05 -172.1)"/><path class="cls-4" d="M435.81,390.55c-1.36,2.92-3.06,3.34-4.56,4a108.14,108.14,0,0,1-68.41,5.86,15.1,15.1,0,0,1-11-9.1c-3.74-8.26-4.38-17.06-4.19-25.9.67-31.25,5.94-61.78,14.7-91.76,4.85-16.6,10-33.07,16.65-49.06,1.05-2.52,2.17-3.34,4.74-2.81,6.51,1.33,13,2.62,19.57,3.75,2.51.44,3.4,1,2.1,3.76-6.36,13.86-5.17,27.83.05,41.72,6.74,17.93,16.16,34.65,23.63,52.25,5.23,12.3,9.61,24.86,10.77,38.3C440.73,372,439.59,382.12,435.81,390.55Z" transform="translate(-111.05 -172.1)"/><path class="cls-4" d="M440.3,389.65c5.88-18.33,2.34-36.15-3.05-53.79-4.88-15.95-12.67-30.71-19.48-45.87-4.15-9.26-8.26-18.53-10.71-28.43-2.53-10.24-3-20.39,1.51-30.28.93-2.06,1.58-4.09,5-3,25.07,8,48.13,19.35,66,39.28,11.9,13.25,18.87,28.55,17.24,46.78-1,11.14-5.75,21.16-11.09,30.74a113.35,113.35,0,0,1-42.38,43.28C442.44,388.94,441.56,389.84,440.3,389.65Z" transform="translate(-111.05 -172.1)"/><path class="cls-4" d="M348.77,395.34c-4.49-2.33-9.14-4.42-13.45-7-13.51-8.24-24.53-19.09-34.05-31.76-7.71-10.27-9.3-21.43-7.2-33.5,2.9-16.68,11.33-30.77,21.36-44,11.63-15.36,26.09-28.48,35.8-45.36,1.41-2.45,3.4-4.77,4-7.42,1.32-5.35,4.56-6.23,9.45-6,11.51.5,11.11.15,7,10.84-15.35,40.38-27,81.72-29.79,125.06C341.13,369.45,341.63,382.78,348.77,395.34Z" transform="translate(-111.05 -172.1)"/><path class="cls-4" d="M288.08,330.69c-8.57-23.69-10.7-47.77-1.86-71.69,6.6-17.84,21.37-27.37,38.73-33.27a93.9,93.9,0,0,1,21.43-4.51c1.37-.13,3.15-1.23,4.08.4.7,1.23-.58,2.48-1.24,3.59a303.27,303.27,0,0,1-30.51,43.07c-12.45,14.47-22.74,30.34-27.32,49.22-1,4.17-1.25,8.52-1.83,12.79Z" transform="translate(-111.05 -172.1)"/><path class="cls-4" d="M498.59,291.82c-6.25-18.41-18.93-31.66-34.34-42.69a172.43,172.43,0,0,0-47.76-24.31c-3-1-3-1.61-1-3.74,11.29-12.12,30.65-15.55,47-8.55a32.79,32.79,0,0,1,12.91,9.75c16.41,20.25,25,43.23,24.44,69.42Z" transform="translate(-111.05 -172.1)"/><path class="cls-4" d="M461.67,209.65c-2.64-.85-5.24-1.89-7.93-2.53-16-3.86-30-.1-41.33,12-2.41,2.56-4.53,3.37-8.11,2.49-6.26-1.54-12.72-2.3-19.1-3.34-1.88-.3-3.25-.6-2-3.07,4.76-9.36,9.7-18.57,17.62-25.76,4.72-4.28,9.59-6.09,16.3-4.1C433.79,190.24,449,197.57,461.67,209.65Z" transform="translate(-111.05 -172.1)"/><path class="cls-4" d="M291.89,243.53c10.53-22.18,27.24-38.18,48.58-49.67,4.61-2.49,9.07-2.38,13.16.3s3.79,7.05,3.23,11.3c-.09.65-.27,1.29-.42,1.94-2.11,9.73-2.1,9.8-11.77,11.1C324.42,221.2,306.34,228.41,291.89,243.53Z" transform="translate(-111.05 -172.1)"/><path class="cls-4" d="M404.57,184c-12.12,6.94-18.85,18.4-25,30.24-1.26,2.43-2.39,3.49-5.21,3.25a103.31,103.31,0,0,0-12.93-.22c-2.52.1-3.09-.51-2.67-3a51.11,51.11,0,0,0,.54-9.42c-.17-8.13-1.62-10.81-8.37-15.71,17.6-6.55,35.2-9,53.46-6C404.44,183.39,404.51,183.67,404.57,184Z" transform="translate(-111.05 -172.1)"/><path class="cls-4" d="M297.21,344.39c.19.81.11,1.54-.78,1.8a7.31,7.31,0,0,1-.69-1.4Z" transform="translate(-111.05 -172.1)"/><path class="cls-4" d="M507.52,305.81c-.06.53.09,1.28-.78,1.15-.21,0-.33-.67-.5-1Z" transform="translate(-111.05 -172.1)"/><path d="M203.55,357.94a1.85,1.85,0,0,0,.76.09h16.62a1.71,1.71,0,0,0,.77-.1h0v0a.14.14,0,0,1,0-.06s0,0,0-.06,0-.09,0-.14,0-.06,0-.1a3.41,3.41,0,0,0,0-.37V320.84a1.66,1.66,0,0,0-.1-.77,1.79,1.79,0,0,0-.76-.09H204.31c-.62,0-.76.09-.77.1h0v.08a.06.06,0,0,0,0,0s0,0,0,0a.25.25,0,0,1,0,.08v0s0,.08,0,.13v.06c0,.07,0,.15,0,.25v36.33a1.71,1.71,0,0,0,.1.77Z" transform="translate(-111.05 -172.1)"/><path d="M665.18,331.1h8.25V316.91c0-11.87-6.7-18.75-18.38-19v-.37h19.08V273.06H136.77v24.47h9.29v42.6H143v0h-29.4v21c0,12.1,6.94,19,19,19h23.84c.53,0,1,0,1.56-.05v.09H655.05v0h.37c12.1,0,19-6.93,19-19V347.77C674.46,338.07,670.48,333.65,665.18,331.1Zm-493.72,30c0,6.41-2,10.73-6,13a16.69,16.69,0,0,1-7.47,1.95c-.51,0-1,.05-1.56.05H132.59c-10,0-15-5.06-15-15v-17H139v12.66a3.39,3.39,0,0,0,.05.62.39.39,0,0,0,.05.15,1.79,1.79,0,0,0,.76.09h9.39c.63,0,.76-.09.77-.1s.05,0,.08-.31c0-.11,0-.25,0-.45V293.53h-9.29V276.88H670.13v16.65H171.46Zm71.73,0a18.37,18.37,0,0,1-1.67,8.27c-2.23,4.49-6.69,6.76-13.36,6.76H197.09a17.9,17.9,0,0,1-9-2c-4-2.3-6-6.62-6-13V316.91c0-10,5.06-15,15-15h31.07c6.67,0,11.13,2.27,13.36,6.76a18.37,18.37,0,0,1,1.67,8.27Zm81.64-42.56h-8.67v40.94h8.67v16.65H288.15V359.47h6.6V347H275.6v12.45h6.6v16.65H245.52V359.47h8.67V318.53h-8.67V301.88H282.2v16.65h-6.6v10.8h19.15v-10.8h-6.6V301.88h36.68Zm85.45,0h-8.67v57.59H380.93l-24.32-43.69v27h8.26v16.65H328.19V359.47h8.67V318.53h-8.67V301.88h32.46l21.21,39.54V318.53H373.6V301.88h36.68Zm85,0h-8.67v57.59H466l-24.32-43.69v27h8.26v16.65H413.23V359.47h8.67V318.53h-8.67V301.88h32.46l21.21,39.54V318.53h-8.26V301.88h36.68Zm43.35,0h-9.29v40.94h9.29v16.65h-40V359.47H508V318.53h-9.29V301.88h40Zm66.67,8.67H587.86v-7.64H572.93v10.18h23.84V347H572.93v11.42h14.93V350.8h17.48v25.32H542.86V359.47h8.67V318.53h-8.67V301.88h62.48Zm65.12,33.89c0,10-5.06,15-15,15H626.21c-10,0-15-5.06-15-15V350.18h21.4v7.6a1.61,1.61,0,0,0,.1.77,1.79,1.79,0,0,0,.76.09H648.2c.62,0,.76-.09.77-.1a2,2,0,0,0,.09-.76v-6.29c0-.44,0-.54-1.41-.89L627,345.34c-10-2.55-15.62-4.54-15.62-15.84V316.91c0-10,5.06-15,15-15h28l.66,0c9.53.22,14.38,5.26,14.38,15V327.1H648v-6.88a1.76,1.76,0,0,0-.09-.77s-.06-.09-.76-.09H633.65c-.63,0-.77.09-.77.1l0,0s0,0,0,.05a.64.64,0,0,0,0,.07.93.93,0,0,1,0,.14.31.31,0,0,1,0,.09c0,.1,0,.22,0,.38v5.57c0,.56,0,.6,1.43,1l20.62,5.15.21.06c9.84,2.52,15.41,4.56,15.41,15.77Z" transform="translate(-111.05 -172.1)"/><path class="cls-5" d="M139,357.37a.3.3,0,0,0,.05.15A.3.3,0,0,1,139,357.37Z" transform="translate(-111.05 -172.1)"/><path class="cls-5" d="M221.7,357.93v0Z" transform="translate(-111.05 -172.1)"/><path class="cls-5" d="M632.88,319.46l0,0,0,0Z" transform="translate(-111.05 -172.1)"/><path class="cls-5" d="M659.54,291.54h8.59V278.88H142.77v12.66h9.29v65.22c0,2-.86,2.85-2.86,2.85h-9.39c-2,0-2.86-.85-2.86-2.85V346.09h-17.4v15c0,6.29,2.08,10.19,6.43,11.94a17.62,17.62,0,0,0,6.6,1.1h23.85c.53,0,1,0,1.56-.05,7.81-.47,11.47-4.63,11.47-13V291.54H659.54Z" transform="translate(-111.05 -172.1)"/><path class="cls-5" d="M228.15,303.88H197.09c-8.9,0-13,4.14-13,13v44.17c0,6.25,2,10.14,6.35,11.91a17.54,17.54,0,0,0,6.69,1.13h31.06c8.9,0,13-4.15,13-13V316.92C241.19,308,237.05,303.88,228.15,303.88Zm-4.36,53.29c0,2-.86,2.86-2.86,2.86H204.31c-2,0-2.86-.86-2.86-2.86V320.84c0-2,.86-2.86,2.86-2.86h16.62c2,0,2.86.86,2.86,2.86Z" transform="translate(-111.05 -172.1)"/><polygon class="cls-5" points="179.1 144.44 185.71 144.44 185.71 159.24 162.55 159.24 162.55 144.44 169.15 144.44 169.15 131.78 136.47 131.78 136.47 144.44 145.14 144.44 145.14 189.37 136.47 189.37 136.47 202.03 169.15 202.03 169.15 189.37 162.55 189.37 162.55 172.92 185.71 172.92 185.71 189.37 179.1 189.37 179.1 202.03 211.78 202.03 211.78 189.37 203.11 189.37 203.11 144.44 211.78 144.44 211.78 131.78 179.1 131.78 179.1 144.44"/><polygon class="cls-5" points="264.55 144.44 272.81 144.44 272.81 177.28 248.4 131.78 219.14 131.78 219.14 144.44 227.81 144.44 227.81 189.37 219.14 189.37 219.14 202.03 251.82 202.03 251.82 189.37 243.56 189.37 243.56 152.63 271.06 202.03 288.56 202.03 288.56 144.44 297.23 144.44 297.23 131.78 264.55 131.78 264.55 144.44"/><polygon class="cls-5" points="349.59 144.44 357.85 144.44 357.85 177.28 333.44 131.78 304.18 131.78 304.18 144.44 312.85 144.44 312.85 189.37 304.18 189.37 304.18 202.03 336.86 202.03 336.86 189.37 328.6 189.37 328.6 152.63 356.1 202.03 373.6 202.03 373.6 144.44 382.27 144.44 382.27 131.78 349.59 131.78 349.59 144.44"/><polygon class="cls-5" points="389.63 144.44 398.92 144.44 398.92 189.37 389.63 189.37 389.63 202.03 425.62 202.03 425.62 189.37 416.33 189.37 416.33 144.44 425.62 144.44 425.62 131.78 389.63 131.78 389.63 144.44"/><polygon class="cls-5" points="433.81 144.44 442.48 144.44 442.48 189.37 433.81 189.37 433.81 202.03 492.29 202.03 492.29 180.7 478.81 180.7 478.81 188.34 459.88 188.34 459.88 172.92 483.72 172.92 483.72 159.65 459.88 159.65 459.88 145.47 478.81 145.47 478.81 153.11 492.29 153.11 492.29 131.78 433.81 131.78 433.81 144.44"/><path class="cls-5" d="M655.05,334.07l-.7-.19-20.64-5.16c-1.78-.49-2.92-1-2.92-2.93v-5.57c0-2,.85-2.86,2.85-2.86h13.53c2,0,2.85.86,2.85,2.86v4.88h17.41v-8.18c0-8.67-3.95-12.81-12.38-13l-.66,0h-28c-8.89,0-13,4.14-13,13v12.59c0,9.41,3.87,11.28,14.11,13.89l20.64,5.26c1.3.33,2.92.74,2.92,2.83v6.3c0,2-.85,2.86-2.85,2.86H633.44c-2,0-2.86-.86-2.86-2.86v-5.61h-17.4v8.91c0,8.89,4.14,13,13,13h29.21c8.9,0,13-4.15,13-13V347.78C668.46,338.59,664.75,336.59,655.05,334.07Z" transform="translate(-111.05 -172.1)"/><path class="cls-6" d="M140.77,276.88v16.65h9.29v63.22c0,.2,0,.34,0,.45,0,.3-.07.31-.08.31s-.14.1-.77.1h-9.39a1.79,1.79,0,0,1-.76-.09.39.39,0,0,1-.05-.15,3.39,3.39,0,0,1-.05-.62V344.09h-21.4v17c0,10,5.06,15,15,15h23.84c.53,0,1,0,1.56-.05a16.69,16.69,0,0,0,7.47-1.95c4-2.3,6-6.62,6-13V293.53H670.13V276.88Zm527.36,14.65H169.46v69.56c0,8.35-3.65,12.51-11.47,13-.51,0-1,0-1.56,0H132.59A17.56,17.56,0,0,1,126,373c-4.36-1.75-6.44-5.66-6.44-11.94v-15H137v10.66c0,2,.86,2.86,2.86,2.86h9.39c2,0,2.86-.85,2.86-2.86V291.53h-9.29V278.88H668.13Z" transform="translate(-111.05 -172.1)"/><path class="cls-6" d="M241.52,308.64c-2.23-4.49-6.69-6.76-13.36-6.76H197.09c-10,0-15,5.06-15,15v44.18c0,6.41,2,10.73,6,13a17.9,17.9,0,0,0,9,2h31.07c6.67,0,11.13-2.27,13.36-6.76a18.37,18.37,0,0,0,1.67-8.27V316.91A18.37,18.37,0,0,0,241.52,308.64Zm-.33,52.45c0,8.89-4.14,13-13,13H197.09A17.56,17.56,0,0,1,190.4,373c-4.3-1.77-6.35-5.67-6.35-11.91V316.91c0-8.89,4.15-13,13-13h31.07c8.89,0,13,4.14,13,13Z" transform="translate(-111.05 -172.1)"/><path class="cls-6" d="M220.93,318H204.31c-2,0-2.85.85-2.85,2.86v36.33c0,2,.85,2.85,2.85,2.85h16.62c2,0,2.86-.85,2.86-2.85V320.84C223.79,318.83,222.93,318,220.93,318Zm.86,39.19a3.57,3.57,0,0,1,0,.37.34.34,0,0,1,0,.1.51.51,0,0,1,0,.13s0,.05,0,.07,0,0,0,.05v0a1.82,1.82,0,0,1-.77.09H204.31a1.85,1.85,0,0,1-.76-.09,1.73,1.73,0,0,1-.09-.76V320.53s0-.09,0-.13v-.06a.22.22,0,0,0,0-.08.06.06,0,0,0,0,0s0,0,0-.05a0,0,0,0,1,0,0s0,0,0,0v0h0s.14-.1.76-.1h16.62a1.79,1.79,0,0,1,.76.09,1.61,1.61,0,0,1,.1.77Z" transform="translate(-111.05 -172.1)"/><path class="cls-6" d="M324.83,318.53V301.88H288.15v16.65h6.6v10.8H275.6v-10.8h6.6V301.88H245.52v16.65h8.67v40.94h-8.67v16.65H282.2V359.47h-6.6V347h19.15v12.45h-6.6v16.65h36.68V359.47h-8.67V318.53Zm-2,42.94v12.65H290.15V361.47h6.6V345H273.6v16.45h6.6v12.65H247.52V361.47h8.67V316.53h-8.67V303.88H280.2v12.65h-6.6v14.8h23.15v-14.8h-6.6V303.88h32.68v12.65h-8.67v44.94Z" transform="translate(-111.05 -172.1)"/><path class="cls-6" d="M373.6,301.88v16.65h8.26v22.89l-21.21-39.54H328.19v16.65h8.67v40.94h-8.67v16.65h36.68V359.47h-8.26v-27l24.32,43.69h20.68V318.53h8.67V301.88Zm34.68,14.65h-8.67v57.59h-17.5l-27.5-49.4v36.75h8.26v12.65H330.19V361.47h8.67V316.53h-8.67V303.88h29.26l24.41,45.5V316.53H375.6V303.88h32.68Z" transform="translate(-111.05 -172.1)"/><path class="cls-6" d="M458.64,301.88v16.65h8.26v22.89l-21.21-39.54H413.23v16.65h8.67v40.94h-8.67v16.65h36.68V359.47h-8.26v-27L466,376.12h20.68V318.53h8.67V301.88Zm34.68,14.65h-8.67v57.59h-17.5l-27.5-49.4v36.75h8.26v12.65H415.23V361.47h8.67V316.53h-8.67V303.88h29.26l24.41,45.5V316.53h-8.26V303.88h32.68Z" transform="translate(-111.05 -172.1)"/><path class="cls-6" d="M538.67,318.53V301.88h-40v16.65H508v40.94h-9.29v16.65h40V359.47h-9.29V318.53Zm-2,42.94v12.65h-36V361.47H510V316.53h-9.29V303.88h36v12.65h-9.29v44.94Z" transform="translate(-111.05 -172.1)"/><path class="cls-6" d="M605.34,327.2V301.88H542.86v16.65h8.67v40.94h-8.67v16.65h62.48V350.8H587.86v7.64H572.93V347h23.84V329.74H572.93V319.56h14.93v7.64Zm-34.41-9.64v14.18h23.84V345H570.93v15.42h18.93V352.8h13.48v21.32H544.86V361.47h8.67V316.53h-8.67V303.88h58.48V325.2H589.86v-7.64Z" transform="translate(-111.05 -172.1)"/><path class="cls-6" d="M655.05,332l-.21-.06-20.62-5.15c-1.43-.4-1.43-.44-1.43-1v-5.57c0-.16,0-.28,0-.38a.31.31,0,0,0,0-.09.93.93,0,0,0,0-.14.64.64,0,0,1,0-.07s0,0,0-.05l0,0s.14-.1.77-.1h13.52c.7,0,.76.09.76.09a1.76,1.76,0,0,1,.09.77v6.88h21.41V316.91c0-9.75-4.85-14.79-14.38-15l-.66,0h-28c-10,0-15,5.06-15,15V329.5c0,11.3,5.65,13.29,15.62,15.84l20.65,5.26c1.41.35,1.41.45,1.41.89v6.29a2,2,0,0,1-.09.76s-.15.1-.77.1H633.44a1.79,1.79,0,0,1-.76-.09,1.61,1.61,0,0,1-.1-.77v-7.6h-21.4v10.91c0,10,5.06,15,15,15h29.21c10,0,15-5.06,15-15V347.77C670.46,336.56,664.89,334.52,655.05,332Zm13.41,29.09c0,8.89-4.14,13-13,13H626.21c-8.89,0-13-4.14-13-13v-8.91h17.4v5.6c0,2,.86,2.86,2.86,2.86H648.2c2,0,2.86-.85,2.86-2.86v-6.29c0-2.1-1.63-2.5-2.92-2.83l-20.65-5.26c-10.24-2.61-14.11-4.49-14.11-13.9V316.91c0-8.89,4.15-13,13-13h28l.66,0c8.43.2,12.38,4.35,12.38,13v8.19H650v-4.88c0-2-.85-2.86-2.85-2.86H633.65c-2,0-2.86.85-2.86,2.86v5.57c0,2,1.15,2.44,2.92,2.93l20.64,5.16.7.18c9.7,2.52,13.41,4.53,13.41,13.71Z" transform="translate(-111.05 -172.1)"/><rect class="cls-5" x="23.14" y="75.51" width="542.46" height="25.2"/><path d="M142.37,270.81v-4.2h2.48V254.32h-2.48v-4.19h10.7v4.19h-2.66v12H155v-3.61h4.43v8.13Z" transform="translate(-111.05 -172.1)"/><path d="M225.76,270.81h-9.63v-4.2h1.68l-.65-2.18h-5.85l-.65,2.18h1.68v4.2H203v-4.2h2.27l4.05-12.29h-2.39v-4.19H218l5.49,16.48h2.28Zm-11.53-16.46-1.86,6.36h3.7Z" transform="translate(-111.05 -172.1)"/><path d="M289.79,254.32v16.49h-5.47l-7.41-13.33v9.13h2.36v4.2h-9.92v-4.2h2.48V254.32h-2.48v-4.19h8.83l6.53,12.17v-8h-2.36v-4.19h9.92v4.19Z" transform="translate(-111.05 -172.1)"/><path d="M340.53,270.81c-2.72,0-4-1.3-4-4V254.15c0-2.72,1.36-4,4.08-4h8.27c2.72,0,4,1.3,4,4V258h-5.55v-2.75c0-.41-.12-.53-.54-.53H342.6c-.42,0-.53.12-.53.53v10.4c0,.41.11.53.53.53h4.13c.42,0,.54-.12.54-.53v-2.75h5.55v3.87c0,2.72-1.3,4-4,4Z" transform="translate(-111.05 -172.1)"/><path d="M419.22,270.81h-9.63v-4.2h1.68l-.65-2.18h-5.85l-.65,2.18h1.69v4.2h-9.4v-4.2h2.28l4-12.29h-2.39v-4.19h11.11l5.49,16.48h2.28ZM407.7,254.35l-1.86,6.36h3.69Z" transform="translate(-111.05 -172.1)"/><path d="M473.42,255.09c0-.41-.12-.53-.54-.53H469c-.41,0-.53.12-.53.53v1.6c0,.32.09.41.62.56l5.91,1.48c2.9.73,4.25,1.3,4.25,4.25v3.81c0,2.72-1.3,4-4,4h-8.36c-2.72,0-4-1.3-4-4V264h5.55v1.9c0,.41.12.53.53.53h4.23c.41,0,.53-.12.53-.53V264c0-.32-.15-.41-.62-.53L467.18,262c-2.89-.73-4.25-1.29-4.25-4.25v-3.6c0-2.72,1.3-4,4-4h8c2.72,0,4,1.3,4,4v2.63h-5.55Z" transform="translate(-111.05 -172.1)"/><path d="M538.1,254.5h-2.39v12.11h2.66v4.2H527.49v-4.2h2.66V254.5h-2.39V258h-4.43v-7.86h19.2V258H538.1Z" transform="translate(-111.05 -172.1)"/><path d="M599.42,254.62h-4.85v3.49h6.83v4.37h-6.83v3.84h4.85v-2.19h4.43v6.68H586.54v-4.2H589V254.32h-2.48v-4.19h17.31v6.68h-4.43Z" transform="translate(-111.05 -172.1)"/><path d="M668.38,270.81h-6.14L658.78,263h-2.3v3.57h1.95v4.2h-10v-4.2h2.48V254.32h-2.48v-4.19H663c2.72,0,4,1.3,4,4v4.16c0,2.37-1,3.67-3,4l2,4.34h2.39Zm-7.41-12c.41,0,.53-.11.53-.53v-3.22c0-.41-.12-.53-.53-.53h-4.49v4.28Z" transform="translate(-111.05 -172.1)"/></svg>