<svg id="Layer_1" data-name="Layer 1" xmlns="http://www.w3.org/2000/svg" viewBox="0 0 488.15 202.99"><defs><style>.cls-1{fill:#9e9d9d;}.cls-2{fill:#fff;}.cls-3{fill:none;}.cls-4{fill:#231f20;}.cls-5{fill:#ec1e27;}.cls-6{fill:#faaf3a;}.cls-7{fill:#fcfcfb;}.cls-8{fill:#9c9b9b;}</style></defs><polygon points="258.47 102.29 257.4 101.67 257.4 94.35 258.47 93.73 266.82 93.73 270.43 94.78 272.02 96.63 272.02 99.39 270.43 101.24 266.82 102.29 258.47 102.29"/><path class="cls-1" d="M383.08,322.24l3.39,1,1.36,1.57v2.37l-1.36,1.58-3.39,1H375l-.68-.4v-6.71l.68-.39h8.13m.16-1.06h-8.58l-.25.14-.67.4-.53.3V330l.53.31.68.4.24.14h8.58l.14,0,3.39-1,.3-.09.21-.24,1.36-1.58.25-.29v-3.16l-.25-.3-1.36-1.58-.21-.24-.3-.08-3.39-1-.14,0Z" transform="translate(-116.34 -227.98)"/><polygon points="352.69 106.24 351.49 105.54 356.06 94.48 356.91 91.54 357.75 94.48 362.32 105.54 361.12 106.24 352.69 106.24"/><path class="cls-1" d="M473.25,321.45l.34,1.18,4.4,10.66-.68.39h-8.13l-.68-.39,4.41-10.66.34-1.18m0-3.86-1,3.57-.32,1.12-4.38,10.6-.36.86.81.47.67.39.25.15h8.71l.25-.15.68-.39.8-.47-.36-.86-4.38-10.6-.32-1.12-1-3.57Z" transform="translate(-116.34 -227.98)"/><polygon points="315.41 102.29 314.34 101.67 314.34 94.35 315.41 93.73 323.76 93.73 327.38 94.78 328.96 96.63 328.96 99.39 327.38 101.24 323.76 102.29 315.41 102.29"/><path class="cls-1" d="M440,322.24l3.39,1,1.35,1.57v2.37l-1.35,1.58-3.39,1h-8.14l-.67-.4v-6.71l.67-.39H440m.15-1.06h-8.57l-.25.14-.68.4-.53.3V330l.53.31.68.4.25.14h8.57l.14,0,3.39-1,.31-.09.2-.24,1.36-1.58.26-.29v-3.16l-.26-.3-1.36-1.58-.2-.24-.31-.08-3.39-1-.14,0Z" transform="translate(-116.34 -227.98)"/><path d="M518.77,372.18l10.65-13.59H486.15l-10.87,8-2.74,1.95L470,366.54l-10.86-8H415.87l10.65,13.59H347.09l10.65-13.59h-9V303.92h10.54v-27l-12.19-15.54h79.48l38.58,27.86h20.19l38.59-27.86H603.4l-12.19,15.54v27h12.66v54.67H592.75l10.65,13.59Zm73.31-5.51-6.38-8.14v-5.45h12.66V309.43h-9.07v2.12h7V351H356.36V311.55h7.05v-2.12h-9.16v43.65h10.54v5.45l-6.37,8.14h56.77l-6.37-8.14v-5.45h52.12l11,8.06h1.39l11-8.06h52.13v5.45l-6.37,8.14ZM580.89,344.6l8.42-4.91V333l-6.08-3.54-10.17-1.38-2.73-1.59v-2.08l1.59-1.85,2.94-.85h8.94l5,1L586.15,318H569l-8.42,4.91v5.31l6.09,3.54,10.16,1.38,2.73,1.59v3.07l-1.59,1.85-2.93.85h-9.48l-5.82-1.16,3,5.23Zm-28,0,3-5.24-6,1.17H537.84l-1.4-.82v-7.12l1.06-.62h6l4.5.87v-5.42l-4.5.88h-6l-1.06-.62v-5.35l1.06-.62h12.4l5,1L552.25,318h-26l1.08,2.52v21.53l-1.08,2.52Zm-41.28,0L510,341.72v-19l1.07-.62h6.29l6,1.17-3-5.24H490.5l-3,5.24,6-1.17h6.3l1.06.62v19l-1.64,2.88Zm-17.87,0-2-2.34-10.3-22.17.81-2.06H465.55l.82,2.06-10.3,22.17-1.25,1.46-2-2-5.41-8.6,7.67-4.47v-6.09L447.34,318H420.5l1.08,2.52v21.53l-1.08,2.52h11.27l-1.09-2.52v-7.52l1.07-.62h5.3l1.64.48,5.72,10.18h20.38l-.57-2.68,1.49-3.48,1-.55h13.17l.95.55,1.49,3.48-.57,2.68Zm-79,0-1.08-2.52V320.55l1.08-2.52H403.55l1.08,2.52v21.53l-1.08,2.52Zm-39.66,0-1.42-3.31V335l1.07-.62H389l9.1-5.3v-6.49L390.4,318H363.55l1.08,2.52v21.53l-1.08,2.52Zm145.39-48.55a4.37,4.37,0,0,0-4.69,4.72c0,2.28,1.23,4.72,4.69,4.72a4.72,4.72,0,0,0,0-9.44Zm-44.15,8.83a9.83,9.83,0,0,0,3.69.61c3.81,0,4.25-1.69,4.25-3,0-1.7-.84-2.22-4.08-2.55-1.43-.15-2.9-.31-2.9-1.53,0-1.38,2.19-1.38,3.24-1.38a8.63,8.63,0,0,1,3.23.56l.21-1a9.11,9.11,0,0,0-3.43-.54c-1.94,0-4.25.45-4.25,2.59,0,1.7.91,2.32,3.9,2.64,1.74.18,3.11.33,3.11,1.59,0,1.6-2.38,1.6-3.27,1.6a9.53,9.53,0,0,1-3.48-.63Zm-71.07-8.83a4.37,4.37,0,0,0-4.69,4.72c0,2.28,1.23,4.72,4.69,4.72a4.72,4.72,0,0,0,0-9.44Zm141.13,9.26,4.25-9h-1.24l-3.78,8.29-1.77-3.94,2-4.35h-1l-1.46,3.21L542,296.31h-1.1l2,4.37-1.78,3.93-3.73-8.3h-1.29l4.26,9h1.4l1.64-3.54,1.65,3.54Zm17.47-.09v-6.34l7.76,6.18v-8.75h-1v6.31L563,296.46v8.76Zm-63.14,0v-7.75h4v-1.16h-8.95v1.16h4v7.75Zm-36.7,0v-8.91h-.94v8.91Zm-13.7,0-2.76-3.86H449c1.07-.08,1.76-1.07,1.76-2.51s-.77-2.54-2-2.54h-6.07v8.91h.94v-3.71h3l2.46,3.71Zm-20.48,0-2.76-3.86h1.34c1.06-.08,1.75-1.07,1.75-2.51s-.77-2.54-2-2.54h-6.07v8.91h.94v-3.71h3l2.47,3.71Zm-41.43,0v-8.68l-5.09,4.53-5.07-4.54v8.69h.94v-6.15l4.13,3.66,4.15-3.71v6.2ZM585.7,286.7V275l6.38-8.13H525.71L498.28,286.7Zm-133.48,0-27.44-19.81H358.42l6.37,8.13V286.7Z" transform="translate(-116.34 -227.98)"/><path class="cls-1" d="M602.31,261.91l-5.64,7.19-6,7.64v27.71h12.66v53.61H591.66l5,6.39,5.64,7.2H519.87l5.63-7.2,5-6.39H486l-9.83,7.2-1.17.86-2.42,1.71-2.23-1.71-1.17-.86-9.83-7.2H414.78l5,6.39,5.63,7.2H348.18l5.64-7.2,5-6.39h-9.56V304.45h10.54V276.74l-6-7.64-5.64-7.19h78.21l1.17.84,28.9,20.87,8.52,6.15h20.53l8.52-6.15,28.9-20.87,1.17-.84h78.21M496.63,287.23h89.6v-12l6.94-8.85H525.54l-28.91,20.87m-132.37,0h89.6L425,266.36H357.32l6.94,8.85v12M520.55,306c2.61,0,5.22-1.45,5.22-5.25a5.22,5.22,0,1,0-5.22,5.25m-40.45-2.08a8.71,8.71,0,0,1-3.87-.85l-.44,2.1a9.89,9.89,0,0,0,4.3.83c2.84,0,4.78-.93,4.78-3.49,0-2.32-1.61-2.78-4.56-3.08-1.82-.19-2.42-.4-2.42-1s1-.85,2.71-.85a7.46,7.46,0,0,1,3.61.8l.43-2.1a8.67,8.67,0,0,0-4-.78c-3,0-4.78,1.06-4.78,3.12,0,2.22,1.47,2.85,4.38,3.17,1.92.2,2.63.37,2.63,1.06s-.79,1.07-2.74,1.07M405.33,306c2.61,0,5.22-1.45,5.22-5.25a5.22,5.22,0,1,0-5.22,5.25m157.13-.26h2V300l7.51,6h.25V295.78h-2v5.74l-7.49-5.94h-.26v10.18M383.4,300.35l-5.35-4.77h-.26v10.18h2v-5.51l3.48,3.08h.24l3.5-3.12v5.55h2V295.58h-.24l-5.37,4.77m168.15-4.57h-2.42l-3.43,7.53-1.2-2.64,2.26-4.89h-2.23l-1.1,2.44-1.09-2.44h-2.28l2.27,4.9-1.2,2.63-3.38-7.53h-2.48L540,305.84h2.07l1.3-2.81,1.32,2.81h2.06l4.76-10.06M495.32,298h4v7.76h2V298h4v-2.22h-10V298m-32.7,7.76h2v-10h-2v10m-20.51,0h2V302h2.18l2.46,3.72h2.67l-2.76-3.87H449c1.27-.08,2.27-1.17,2.27-3,0-2.08-1.17-3.07-2.54-3.07h-6.6v10m-20.48,0h2V302h2.17l2.46,3.72H431l-2.76-3.87h.32c1.26-.08,2.27-1.17,2.27-3,0-2.08-1.18-3.07-2.55-3.07h-6.6v10m167.13,6.32h7v38.36H356.89V312.08h7.05V308.9H353.71v44.71h10.55v4.74l-6.94,8.85h59l-6.94-8.85v-4.74h51.42l11,8.06h1.73l11-8.06h51.42v4.74L529,367.2h64.17l-6.94-8.85v-4.74h12.66V308.9H588.76v3.18M565.58,340l-6.92-1.38,3.73,6.51H581l8.82-5.13v-7.3L583.41,329l-10.17-1.38-2.37-1.38v-1.58l1.35-1.58,2.71-.79h8.81l6.11,1.18-3.39-5.92H568.83L560,322.63v5.92l6.44,3.75,10.17,1.38,2.37,1.39v2.56l-1.36,1.58-2.71.79h-9.35m-40.13,5.13h27.79l3.73-6.51L549.85,340H538l-1-.59v-6.52l.68-.39h5.76l5.08,1v-6.71l-5.08,1h-5.76l-.68-.39v-4.74l.68-.39h12.2l6.1,1.18-3.39-5.92H525.45l1.35,3.16V342l-1.35,3.16m-39-21.11,7.11-1.39h6.11l.67.4v18.55l-2,3.55h14.24l-2-3.55V323l.68-.4h6.1l7.12,1.39-3.73-6.52H490.2L486.47,324m-3.39-6.52H464.77l1,2.57L455.62,342l-.83,1-1.54-1.56-5.09-8.09,7.46-4.34v-6.71l-8.14-4.74H419.69l1.36,3.16V342l-1.36,3.16h12.88L431.22,342v-7.1l.67-.4H437l1.35.4,5.77,10.26h21.35l-.68-3.16,1.36-3.16.68-.39h12.88l.67.39,1.36,3.16-.68,3.16h13.9L492.23,342l-10.17-21.9,1-2.57m-80.34,27.63h12.88L414.27,342V320.66l1.35-3.16H402.74l1.36,3.16V342l-1.36,3.16m-40,0H376l-1.7-3.95v-5.92l.68-.39h14.23l9.5-5.53v-7.1l-8.14-4.74H362.75l1.35,3.16V342l-1.35,3.16m241.74-84.28H523.75l-.27.2-1.17.84-28.9,20.87-8.24,5.95H465.32l-8.23-5.95-28.91-20.87-1.16-.84-.28-.2H346l1.35,1.71,5.64,7.2,5.76,7.35v26.28H348.2v55.73h8.45L353,363.8,347.35,371,346,372.71h81.61L426.26,371l-5.64-7.19L417,359.12h42l9.55,7,1.17.86,2.22,1.7.62.48.64-.45,2.41-1.72,1.19-.87,9.55-7h42l-3.66,4.68L519,371l-1.35,1.72h86.81L603.14,371l-5.64-7.19-3.66-4.68H604.4V303.39H591.74V277.11l5.76-7.35,5.64-7.2,1.35-1.71Zm-78.61,6.57H591l-5.59,7.13-.22.29v11.33H499.92l26-18.75Zm-166.37,0h65.1l26,18.75H365.32V274.84l-.22-.29-5.59-7.13Zm161,37.54a4.19,4.19,0,1,1,4.16-4.19,3.83,3.83,0,0,1-4.16,4.19Zm-115.22,0a4.19,4.19,0,1,1,4.16-4.19,3.83,3.83,0,0,1-4.16,4.19Zm144.48-8.11h.06l-1.65,3.48,1.59-3.48Zm-12.86,0h.11l2,4.54L537,296.85Zm-40.57,0h7.89v.09h-7.89v-.09Zm-53.21,0h5.54c.94,0,1.48.72,1.48,2s-.48,1.91-1.25,2H446.6l.1.15h-3.53v-4.13Zm-20.48,0h5.54c.94,0,1.48.72,1.48,2s-.48,1.91-1.25,2h-2.34l.11.15h-3.54v-4.13Zm140.83,1v-.32l6,4.8,1.6,1.27V304l-6-4.8-1.6-1.27ZM378.85,298v-.28l3.84,3.43.7.63.71-.63,3.85-3.42v.21l-1.65,1.47L383.39,302l-2.89-2.56L378.85,298Zm105,4.24c-.4-1.16-2-1.33-3.48-1.49-2.86-.31-3.35-.88-3.42-1.78.35,1.23,2,1.4,3.3,1.54,3,.3,3.54.73,3.6,1.73Zm-34.48,2.45-.5-.75.54.75Zm-20.48,0-.5-.75.54.75Zm161,5.27h8v42.59H585.17v6.17l.22.28,5.59,7.13H531.19l5.59-7.13.22-.28v-6.17H484.17l-.28.21-10.73,7.84h-1l-10.73-7.84-.28-.21H408.29v6.17l.22.28,5.59,7.13H359.51L365.1,359l.22-.28v-6.17H354.78V310h8.1V311h-7.05V351.5H596.77V311h-6.95V310Zm-20.7,8.61h16.72l1.93,3.37L584,321.2l-.1,0h-9.07l-.14,0-2.72.79-.3.09-.21.24-1.35,1.57-.26.3v2.59l.53.3,2.37,1.39.19.1.2,0,10,1.35,5.73,3.34v6.08l-8,4.68H563l-2.26-3.95,4.62.92.1,0h9.61l.15,0,2.71-.79.3-.09.21-.24,1.36-1.58.25-.3v-3.57l-.53-.3-2.37-1.38-.18-.11-.21,0-10-1.35-5.73-3.34v-4.69l8-4.68Zm-42.06,0H552l1.93,3.37-3.83-.74-.1,0H537.36l-.25.14-.67.4-.53.3v6l.53.31.67.39.25.15h6.15l.1,0,3.82-.74v4.13l-3.82-.74-.1,0h-6.15l-.25.14-.67.4-.53.3V340l.53.3,1,.6.25.14H550l.1,0,4.84-.94-2.27,4H527.06l.72-1.68.08-.2V320.44l-.08-.2-.72-1.67Zm-36.25,0h29.27l2.27,4-4.84-.94-.1,0h-6.49l-.24.15-.68.39-.53.31v19.44l.14.25,1.12,2H500.16l1.13-2,.14-.25V322.42l-.53-.31-.68-.39-.25-.15h-6.49l-.1,0-4.84.94,2.27-4Zm-24.47,0h15.17l-.44,1.11-.17.42.2.42,10.16,21.9.06.13.1.11,1.21,1.41H482.36l.4-1.88.07-.33-.13-.31-1.36-3.15-.14-.33-.3-.17-.68-.4-.25-.14H466.52l-.25.14-.68.4-.3.17-.14.33-1.35,3.15-.14.31.07.34.41,1.87h-8.92l.38-.44.83-1,.09-.11.07-.13,10.16-21.9.2-.42-.17-.42-.44-1.11Zm-45,0h25.9l7.36,4.28v5.49l-6.93,4-.95.55.58.93,5.09,8.1.06.1.08.08,1.55,1.55.38.39h-9.7l-5.46-9.72-.21-.38-.42-.12-1.36-.4-.14,0h-5.52l-.25.15-.68.39-.53.31v7.93l.09.2.72,1.68H421.3l.72-1.68.09-.2V320.44l-.09-.2-.72-1.67Zm-16.94,0H414l-.72,1.67-.08.2v21.75l.08.2.72,1.68h-9.65l.72-1.68.08-.2V320.44l-.08-.2-.72-1.67Zm-40,0h25.89l7.36,4.28v5.88l-8.71,5.08H374.66l-.25.14-.67.39-.53.31v6.75l.09.2,1.05,2.47h-10l.72-1.68.09-.2V320.44l-.09-.2-.72-1.67Z" transform="translate(-116.34 -227.98)"/><path class="cls-2" d="M410.56,300.77c0,3.8-2.62,5.25-5.23,5.25a5.25,5.25,0,1,1,5.23-5.25Z" transform="translate(-116.34 -227.98)"/><path class="cls-2" d="M428.19,301.89l2.75,3.86h-2.67L425.81,302h-2.18v3.71h-2v-10h6.6c1.37,0,2.54,1,2.54,3.06,0,1.88-1,3-2.27,3.05Z" transform="translate(-116.34 -227.98)"/><path class="cls-2" d="M448.66,301.89l2.76,3.86h-2.67L446.29,302h-2.18v3.71h-2v-10h6.6c1.37,0,2.54,1,2.54,3.06,0,1.88-1,3-2.27,3.05Z" transform="translate(-116.34 -227.98)"/><path class="cls-2" d="M525.77,300.77c0,3.8-2.61,5.25-5.22,5.25a5.25,5.25,0,1,1,5.22-5.25Z" transform="translate(-116.34 -227.98)"/><rect class="cls-3" x="346.28" y="67.81" width="2" height="9.97"/><polygon class="cls-3" points="435.2 67.81 430.45 77.87 428.39 77.87 427.07 75.06 425.78 77.87 423.7 77.87 418.93 67.81 421.4 67.81 424.8 75.34 425.99 72.71 423.72 67.81 426 67.81 427.09 70.25 428.19 67.81 430.42 67.81 428.16 72.69 429.36 75.34 432.79 67.81 435.2 67.81"/><polygon class="cls-3" points="455.88 67.81 455.88 77.99 455.63 77.99 448.12 72.01 448.12 77.78 446.12 77.78 446.12 67.6 446.38 67.6 453.87 73.55 453.87 67.81 455.88 67.81"/><path class="cls-3" d="M520.55,295.52a5.25,5.25,0,0,0,0,10.5c2.61,0,5.22-1.45,5.22-5.25A4.88,4.88,0,0,0,520.55,295.52Zm0,8.45a3.2,3.2,0,1,1,3.09-3.2A2.91,2.91,0,0,1,520.55,304Z" transform="translate(-116.34 -227.98)"/><path class="cls-3" d="M405.33,295.52a5.25,5.25,0,0,0,0,10.5c2.61,0,5.23-1.45,5.23-5.25A4.89,4.89,0,0,0,405.33,295.52Zm0,8.45a3.2,3.2,0,1,1,3.09-3.2A2.91,2.91,0,0,1,405.33,304Z" transform="translate(-116.34 -227.98)"/><polygon class="cls-3" points="272.67 67.6 272.67 77.78 270.67 77.78 270.67 72.23 267.17 75.35 266.93 75.35 263.45 72.27 263.45 77.78 261.45 77.78 261.45 67.6 261.7 67.6 267.05 72.38 272.43 67.6 272.67 67.6"/><polygon class="cls-3" points="388.99 67.81 388.99 70.03 384.98 70.03 384.98 77.78 382.99 77.78 382.99 70.03 378.98 70.03 378.98 67.81 388.99 67.81"/><path class="cls-3" d="M428.19,301.89h.31c1.27-.08,2.27-1.17,2.27-3.05,0-2.06-1.17-3.06-2.54-3.06h-6.6v10h2V302h2.18l2.46,3.71h2.67Zm-4.56-1.83v-2.18h4.13a1,1,0,0,1,1.05,1.05c0,.79-.41,1.13-1,1.13Z" transform="translate(-116.34 -227.98)"/><path class="cls-3" d="M448.66,301.89H449c1.27-.08,2.27-1.17,2.27-3.05,0-2.06-1.17-3.06-2.54-3.06h-6.6v10h2V302h2.18l2.46,3.71h2.67Zm-4.55-1.83v-2.18h4.13a1,1,0,0,1,1.05,1.05c0,.79-.41,1.13-1,1.13Z" transform="translate(-116.34 -227.98)"/><path class="cls-3" d="M484.87,302.53c0,2.56-1.94,3.49-4.78,3.49a9.89,9.89,0,0,1-4.3-.83l.44-2.1a8.71,8.71,0,0,0,3.87.85c1.95,0,2.74-.39,2.74-1.07s-.71-.86-2.63-1.06c-2.91-.32-4.38-.95-4.38-3.17,0-2.06,1.77-3.12,4.78-3.12a8.67,8.67,0,0,1,4,.78l-.43,2.1a7.46,7.46,0,0,0-3.61-.8c-1.74,0-2.71.24-2.71.85s.6.81,2.42,1C483.26,299.75,484.87,300.21,484.87,302.53Z" transform="translate(-116.34 -227.98)"/><path class="cls-4" d="M405.33,297.57a3.2,3.2,0,1,0,3.09,3.2A2.91,2.91,0,0,0,405.33,297.57Z" transform="translate(-116.34 -227.98)"/><path class="cls-4" d="M428.81,298.93a1,1,0,0,0-1.05-1.05h-4.12v2.18h4.19C428.4,300.06,428.81,299.72,428.81,298.93Z" transform="translate(-116.34 -227.98)"/><path class="cls-4" d="M449.29,298.93a1,1,0,0,0-1.05-1.05h-4.13v2.18h4.2C448.88,300.06,449.29,299.72,449.29,298.93Z" transform="translate(-116.34 -227.98)"/><path class="cls-4" d="M520.55,304a3.2,3.2,0,1,0-3.11-3.2A2.9,2.9,0,0,0,520.55,304Z" transform="translate(-116.34 -227.98)"/><polygon class="cls-5" points="337.52 59.25 308.62 38.38 240.98 38.38 247.92 47.23 247.92 55.2 247.92 59.25 337.52 59.25"/><polygon class="cls-5" points="476.83 38.38 409.19 38.38 380.29 59.25 469.88 59.25 469.88 57.17 469.89 57.17 469.89 47.23 476.83 38.38"/><path class="cls-5" d="M362.75,317.5l1.35,3.16V342l-1.35,3.16H376l-1.7-3.95v-5.92l.68-.39h14.23l9.5-5.53v-7.1l-8.14-4.74Zm25.08,9.67-1.36,1.58-3.39,1H375l-.68-.4v-6.71l.68-.39h8.13l3.39,1,1.36,1.57Z" transform="translate(-116.34 -227.98)"/><polygon class="cls-5" points="286.4 117.15 299.28 117.15 297.93 114 297.93 92.69 299.28 89.53 286.4 89.53 287.76 92.69 287.76 114 286.4 117.15"/><path class="cls-5" d="M419.69,345.13h12.88L431.22,342v-7.1l.67-.4H437l1.35.4,5.77,10.26h21.35l-.68-3.16,1.36-3.16.68-.39h12.88l.67.39,1.36,3.16-.68,3.16h13.9L492.23,342l-10.17-21.9,1-2.57H464.77l1,2.57L455.62,342l-.83,1-1.54-1.56-5.09-8.09,7.46-4.34v-6.71l-8.14-4.74H419.69l1.36,3.16V342Zm53.22-22.5.34-1.18.34,1.18,4.4,10.66-.68.39h-8.13l-.68-.39Zm-41.69,0,.67-.39H440l3.39,1,1.35,1.57v2.37l-1.35,1.58-3.39,1h-8.14l-.67-.4Z" transform="translate(-116.34 -227.98)"/><polygon class="cls-5" points="383.35 94.66 384.02 95.05 384.02 113.6 381.99 117.15 396.23 117.15 394.19 113.6 394.19 95.05 394.87 94.66 400.97 94.66 408.09 96.04 404.36 89.53 373.86 89.53 370.13 96.04 377.24 94.66 383.35 94.66"/><polygon class="cls-5" points="409.11 117.15 436.9 117.15 440.63 110.64 433.51 112.02 421.65 112.02 420.63 111.43 420.63 104.92 421.31 104.52 427.07 104.52 432.15 105.51 432.15 98.8 427.07 99.79 421.31 99.79 420.63 99.39 420.63 94.66 421.31 94.26 433.51 94.26 439.61 95.45 436.22 89.53 409.11 89.53 410.46 92.69 410.46 114 409.11 117.15"/><polygon class="cls-5" points="461.3 111.23 458.59 112.02 449.24 112.02 442.32 110.64 446.05 117.15 464.69 117.15 473.51 112.02 473.51 104.72 467.07 100.97 456.9 99.59 454.52 98.21 454.52 96.63 455.88 95.05 458.59 94.26 467.4 94.26 473.51 95.45 470.12 89.53 452.49 89.53 443.68 94.66 443.68 100.58 450.12 104.33 460.29 105.71 462.66 107.09 462.66 109.65 461.3 111.23"/><polygon points="469.88 59.25 469.88 59.25 469.89 59.25 469.89 57.17 469.88 57.17 469.88 59.25"/><path class="cls-5" d="M595.71,308.9h-242v44.71h10.55v4.74l-6.94,8.85h59l-6.94-8.85v-4.74h51.42l11.78,8.77,12-8.77h51.42v4.74L529,367.2h64.17l-6.94-8.85v-4.74h12.66V308.9Zm0,41.54H356.89V312.08H595.71Z" transform="translate(-116.34 -227.98)"/><polygon class="cls-2" points="272.43 67.6 272.67 67.6 272.67 77.78 270.67 77.78 270.67 72.23 267.17 75.35 266.93 75.35 263.45 72.27 263.45 77.78 261.45 77.78 261.45 67.6 261.7 67.6 267.05 72.38 272.43 67.6"/><rect class="cls-2" x="346.28" y="67.81" width="2" height="9.97"/><path class="cls-2" d="M484.87,302.53c0,2.56-1.94,3.49-4.78,3.49a9.89,9.89,0,0,1-4.3-.83l.44-2.1a8.71,8.71,0,0,0,3.87.85c1.95,0,2.74-.39,2.74-1.07s-.71-.86-2.63-1.06c-2.91-.32-4.38-.95-4.38-3.17,0-2.06,1.77-3.12,4.78-3.12a8.67,8.67,0,0,1,4,.78l-.43,2.1a7.46,7.46,0,0,0-3.61-.8c-1.74,0-2.71.24-2.71.85s.6.81,2.42,1C483.26,299.75,484.87,300.21,484.87,302.53Z" transform="translate(-116.34 -227.98)"/><polygon class="cls-2" points="378.98 67.81 388.99 67.81 388.99 70.03 384.98 70.03 384.98 77.78 382.99 77.78 382.99 70.03 378.98 70.03 378.98 67.81"/><polygon class="cls-2" points="432.79 67.81 435.2 67.81 430.45 77.87 428.39 77.87 427.07 75.06 425.78 77.87 423.7 77.87 418.93 67.81 421.4 67.81 424.8 75.34 425.99 72.71 423.72 67.81 426 67.81 427.09 70.25 428.19 67.81 430.42 67.81 428.16 72.69 429.36 75.34 432.79 67.81"/><polygon class="cls-2" points="455.88 67.81 455.88 77.99 455.63 77.99 448.12 72.01 448.12 77.78 446.12 77.78 446.12 67.6 446.38 67.6 453.87 73.55 453.87 67.81 455.88 67.81"/><path d="M236.58,426.2C229.1,405.4,223,395.86,216,387.93a19.89,19.89,0,0,0-5.41-4.74,14.06,14.06,0,0,0-6.86-1.49c-1.05,0-2.19.07-3.6.21a106.71,106.71,0,0,1-11.14.68h-.38a136.7,136.7,0,0,1-25-1.92c-11.75-2.24-21.63-6.95-28.57-13.63-.78-.74-1.55-1.54-2.29-2.37-7.51-8.39-13-20.43-15.1-33a47.83,47.83,0,0,1,.59-20.91l.5-1.91.53,1.91c4.31,15.76,19.84,24.66,32.1,29.35a118.52,118.52,0,0,0,24.88,6.36c-1.2-2.08-3.64-7.14-2.06-12.12,1.17-3.7,4.31-6.55,9.34-8.45-1.08-4.08-8.44-33.55-1.76-62.6l0-.1.06-.08a83.18,83.18,0,0,1,13.81-14.46,94.17,94.17,0,0,1,40.89-20.11l.1,0,.11,0a94.23,94.23,0,0,1,40.89,20.11,83.18,83.18,0,0,1,13.81,14.46l.05.08,0,.1a109.09,109.09,0,0,1,2.17,13.39c10.49-14.25,32.71-15.82,42-15.82,2.41,0,3.86.1,3.92.11l1.34.1-1.05.84c-16.94,13.63-21.63,38.49-22.33,42.83,15.15-1.44,23.55-15.65,23.63-15.8l.84-1.44.15,1.66c1.6,18.3-8.63,31.89-11.92,35.73l6.87-1a6.9,6.9,0,0,1,.65-5.24c1-1.45,2.69-2.26,5.11-2.41l.73,0c6.6,0,10.44,5.23,11.27,6.47,7.75.15,15.17,3.84,15.48,4l.46.24-.22.46c-3.22,6.92-11,11.2-12.7,12a24.27,24.27,0,0,1-6.8,16.5c-8.51,7.38-17.55,11.12-26.87,11.12h0c-14.38,0-24.51-9.07-24.61-9.16a2.27,2.27,0,0,0-1.57-.46c-2,0-4.8,1.19-6.48,1.9l-.93.39c-18.95,10-32.27,27.11-40.1,39.72-8.89,14.3-12.89,26-13,26.62l-.3,2.11Z" transform="translate(-116.34 -227.98)"/><path class="cls-1" d="M236.68,229.06c35.92,7.53,54.37,34.35,54.37,34.35a109,109,0,0,1,2.3,14.76c10-15.2,33.14-16.79,42.36-16.79,2.42,0,3.88.11,3.88.11C320.7,276.69,317,305.32,317,305.32c16-1.12,24.71-16.11,24.71-16.11,1.9,21.65-12.75,36.42-12.75,36.42l8.9-1.28s-2.45-7.11,5.12-7.56l.7,0c7.12,0,11,6.46,11,6.46,7.83.06,15.54,3.95,15.54,3.95-3.5,7.5-12.75,11.93-12.75,11.93a24,24,0,0,1-6.63,16.44c-9.56,8.3-18.7,11-26.51,11-14.34,0-24.26-9-24.26-9a2.75,2.75,0,0,0-1.92-.6c-2.51,0-6.16,1.76-7.63,2.34-36.81,19.39-53.26,65.3-53.38,66.77-5.1-14.19-10.61-26.94-20.67-38.44a20.61,20.61,0,0,0-5.56-4.86,14.94,14.94,0,0,0-7.11-1.55,34.21,34.21,0,0,0-3.65.22,108.2,108.2,0,0,1-11.09.67h-.38a136.34,136.34,0,0,1-24.88-1.91c-10.41-2-20.66-6.15-28.31-13.49q-1.17-1.12-2.25-2.34c-7.89-8.82-13.05-21.15-15-32.75a54.7,54.7,0,0,1-.48-15.17,53.06,53.06,0,0,1,1.07-5.51c8.47,30.94,58.54,36.23,58.54,36.23s-10.37-14.71,6.87-20.9c0,0-9.09-31.44-1.88-62.81,0,0,18.45-26.82,54.36-34.35m84.59,113.85h0l-.24-.13h0l-.18-.1.18.1c-.48-.26-.93-.53-1.37-.8l0,0h0c.52.34,1.08.67,1.67,1m-1.33-.77.07,0-.07,0-.23-.14.23.14m.49.29-.35-.21.35.21m.26.15.06,0-.06,0-.19-.11.19.11m.33.19h0m0,0h0m.25.14h0M236.68,228l-.21,0a91.76,91.76,0,0,0-23.93,8.65,97,97,0,0,0-17.19,11.58,81.32,81.32,0,0,0-13.9,14.56l-.12.16,0,.2c-3.76,16.35-3,32.7-1.79,43.53a143.59,143.59,0,0,0,3.43,18.87c-4.93,2-8,4.86-9.22,8.61-1.43,4.52.31,9.09,1.6,11.6a117.62,117.62,0,0,1-23.74-6.18,69.19,69.19,0,0,1-19.41-10.83c-6.32-5.21-10.48-11.33-12.35-18.16l-1-3.82-1,3.83a53.43,53.43,0,0,0-1.09,5.66,55.47,55.47,0,0,0,.49,15.46c2.1,12.69,7.65,24.82,15.23,33.29.74.83,1.52,1.64,2.31,2.4,7,6.74,17,11.5,28.84,13.76a137.87,137.87,0,0,0,25.08,1.93H189a107.48,107.48,0,0,0,11.19-.68,35.38,35.38,0,0,1,3.55-.21,13.62,13.62,0,0,1,6.61,1.42,20,20,0,0,1,5.27,4.63c6.89,7.88,13,17.38,20.46,38.1l1.66,4.59.39-4.83c.21-.94,4.27-12.59,13-26.64a131.41,131.41,0,0,1,16.4-21.32,92.2,92.2,0,0,1,23.33-18l.91-.38c1.65-.7,4.42-1.86,6.28-1.86a1.88,1.88,0,0,1,1.21.32,36.4,36.4,0,0,0,7,4.66,38.93,38.93,0,0,0,18,4.64c9.45,0,18.61-3.78,27.2-11.24h0a24.83,24.83,0,0,0,7-16.56c2.16-1.14,9.52-5.42,12.66-12.15l.44-.93-.92-.46a41.67,41.67,0,0,0-15.44-4c-1.12-1.62-5.05-6.48-11.55-6.48-.25,0-.51,0-.76,0-2.59.15-4.45,1-5.52,2.64a7.07,7.07,0,0,0-.84,5.08l-4.93.71A53,53,0,0,0,337,316a48.47,48.47,0,0,0,5.79-26.92l-.3-3.34-1.67,2.9a36.71,36.71,0,0,1-6.2,7.44,29.75,29.75,0,0,1-16.34,8,88.87,88.87,0,0,1,4-14.72c3-8.12,8.49-19.41,18-27.1l2.09-1.68-2.67-.2c-.06,0-1.53-.11-4-.11-9.11,0-30.66,1.51-41.58,15a108.34,108.34,0,0,0-2.05-12.15l0-.2-.12-.16A81.77,81.77,0,0,0,278,248.25a97,97,0,0,0-17.19-11.58A91.76,91.76,0,0,0,236.9,228l-.22,0Z" transform="translate(-116.34 -227.98)"/><path class="cls-2" d="M241.79,356.87a13.26,13.26,0,0,0,.6,3.58s-3.45-.35-4.19-2.08l0,3s-.1,1.05,1.32,1.05h2.2s1.84.36,1.76-2.36S242.43,356.82,241.79,356.87Z" transform="translate(-116.34 -227.98)"/><path class="cls-6" d="M246.33,358.18a8.53,8.53,0,0,1,0,3.2s3.54-1.23,4.13-3.2A23.71,23.71,0,0,1,246.33,358.18Z" transform="translate(-116.34 -227.98)"/><path class="cls-2" d="M253.61,361.38a16.84,16.84,0,0,0,1.18-1.71l-2.28.69Z" transform="translate(-116.34 -227.98)"/><path class="cls-2" d="M253,357.84l-.82,2.22.33.3,2.28-.69a9.09,9.09,0,0,0,1.2-2.8A6.88,6.88,0,0,1,253,357.84Z" transform="translate(-116.34 -227.98)"/><path class="cls-5" d="M268.82,299.35a21.47,21.47,0,0,0,6.14.1l-1-2.16A12.69,12.69,0,0,0,268.82,299.35Z" transform="translate(-116.34 -227.98)"/><path class="cls-2" d="M231,360.45a13.75,13.75,0,0,0,.6-3.58c-.64-.05-1.64.48-1.72,3.19s1.76,2.36,1.76,2.36h2.2c1.43,0,1.32-1.05,1.32-1.05l0-3C234.45,360.1,231,360.45,231,360.45Z" transform="translate(-116.34 -227.98)"/><path class="cls-2" d="M222.94,358.18c.59,2,4.12,3.2,4.12,3.2a8.53,8.53,0,0,1,0-3.2A23.59,23.59,0,0,1,222.94,358.18Z" transform="translate(-116.34 -227.98)"/><path class="cls-2" d="M219.78,361.38l1.23-1.13-2.51-.76A17.23,17.23,0,0,0,219.78,361.38Z" transform="translate(-116.34 -227.98)"/><path class="cls-2" d="M220.39,357.84a6.94,6.94,0,0,1-3-1,8.81,8.81,0,0,0,1.1,2.62l2.51.76.2-.19Z" transform="translate(-116.34 -227.98)"/><path class="cls-5" d="M255.82,276a59.94,59.94,0,0,1,19.76,14.18l8.71-5.05c-1.92-5.94-6.08-14.95-15.06-24.57,0,0,12.33,5.15,18.43,21.34l-.1-11.37s-15.2-21-43.87-31.47h-14c-28.68,10.44-43.87,31.47-43.87,31.47l-.11,11.37c6.1-16.19,18.44-21.34,18.44-21.34-15.67,16.76-16.69,31.71-16.69,31.71a8.68,8.68,0,0,0,5.26,4.34A59.54,59.54,0,0,1,217.57,276a61.72,61.72,0,0,0-17.69,20.13c8.51-3.18,18,1.15,18,1.15a48.79,48.79,0,0,1,18.4-3.83h.75a48.86,48.86,0,0,1,18.41,3.83,29.84,29.84,0,0,1,11.84-2.3l4.12-2.39A63.6,63.6,0,0,0,255.82,276Z" transform="translate(-116.34 -227.98)"/><path class="cls-5" d="M271.44,292.54l-4.12,2.39a18.89,18.89,0,0,1,6.19,1.15A39.91,39.91,0,0,0,271.44,292.54Z" transform="translate(-116.34 -227.98)"/><path class="cls-5" d="M280.65,296.56a8.68,8.68,0,0,0,5.26-4.34,33.38,33.38,0,0,0-1.62-7.14l-8.71,5.05A53.06,53.06,0,0,1,280.65,296.56Z" transform="translate(-116.34 -227.98)"/><path class="cls-5" d="M204.57,299.35a12.61,12.61,0,0,0-5.12-2.06l-1,2.16A21.49,21.49,0,0,0,204.57,299.35Z" transform="translate(-116.34 -227.98)"/><path class="cls-5" d="M291.82,327.34a18.38,18.38,0,0,1,3.58-8.69,31.22,31.22,0,0,0-4.78,1.48c-.81,3.86-1.46,6.09-1.46,6.09A22.89,22.89,0,0,1,291.82,327.34Z" transform="translate(-116.34 -227.98)"/><path class="cls-5" d="M288.56,326.63a6,6,0,0,1,3.2,1.26s0-.2.06-.55a22.89,22.89,0,0,0-2.66-1.12s.65-2.23,1.46-6.09a5.8,5.8,0,0,0-1.59.92Z" transform="translate(-116.34 -227.98)"/><path class="cls-5" d="M292.11,313.88s4.39-2.23,6.7-2c0,0-3.28-4.14-6.09-4.57,0,.3-.07.6-.11.9A15.41,15.41,0,0,1,292.11,313.88Z" transform="translate(-116.34 -227.98)"/><path class="cls-5" d="M292.61,308.25c0-.3.07-.6.11-.9l-.2,0S292.57,307.67,292.61,308.25Z" transform="translate(-116.34 -227.98)"/><path class="cls-5" d="M312.34,278.69c-10.62,9.61-11.41,27.75-11.41,27.75a11.62,11.62,0,0,1,4,4.15s5.67,7,9.63-14.51,16.85-29.83,16.85-29.83-10.87.73-24.14,7.81A24.59,24.59,0,0,0,294,294.43l-.54,7.81,1.58.18A39.23,39.23,0,0,1,312.34,278.69Z" transform="translate(-116.34 -227.98)"/><path class="cls-5" d="M305.14,315.7A14.45,14.45,0,0,0,309.3,320c-.24,9.6-2.93,9-2.93,9,3.39,1.84,12.05-2.41,12.05-2.41,13.81-8.27,16.42-24.34,16.42-24.34-6.93,7.37-20.91,7.76-20.91,7.76C309.23,320.31,305.14,315.7,305.14,315.7Z" transform="translate(-116.34 -227.98)"/><path class="cls-7" d="M264.37,310.19h0Z" transform="translate(-116.34 -227.98)"/><path class="cls-7" d="M273.37,301.55c-7.11.19-9.62.55-11.85,1.27a12.79,12.79,0,0,1,4.9-5.59,20.7,20.7,0,0,0-3.48.24c-3.75.54-9.66,2.27-13.29,7.71a17.1,17.1,0,0,0-1.64,3.1,2.56,2.56,0,0,1-2.48-.71,6.07,6.07,0,0,1-1.34-3.75,17.61,17.61,0,0,0-.91,5.05,16.76,16.76,0,0,0,1,6.67,3.94,3.94,0,0,1-.14-.51s3.93,2.42,11.39-7.62l5.09-3.48L258.38,308a7.16,7.16,0,0,1,1.85-.3c5.37-.88,10.91-.63,16.09-2.62a17.3,17.3,0,0,0,9.21-8.8s0-.08,0-.12S280.48,301.36,273.37,301.55Z" transform="translate(-116.34 -227.98)"/><path class="cls-7" d="M255.67,313.06l.13-.08-.11,0Z" transform="translate(-116.34 -227.98)"/><path class="cls-7" d="M219.11,367a38.56,38.56,0,0,1-7.19-9.48c-.25-.5-.48-1-.68-1.52,0,0-1.15.21-3,.41-5.36.59-16.67,1.19-24-3,0,0-38-2.77-57.87-18.82.73.59,1,5,1.33,6a49.54,49.54,0,0,0,5.64,12.6c6.66,10.54,18.83,17.26,30.61,20.38,15,4,30.76,2.93,45.85.34,14.35-2.45,28.33-6.26,42.45-9.71l-28,6.82Z" transform="translate(-116.34 -227.98)"/><path class="cls-7" d="M180.8,344.15l-.06-.19c.22.27.46.53.7.78,7.75,8,23.4,4.17,23.4,4.17l.29.14a35.55,35.55,0,0,0-10.36-3.35c-4.81-.81-7.69-2.07-9.41-3.24-2.19-1.49-2.48-2.82-2.48-2.82a7.78,7.78,0,0,1,0-8.55s-7.08,3.52-2.1,13Z" transform="translate(-116.34 -227.98)"/><path class="cls-7" d="M210.78,353l-.08-.08-.81.08Z" transform="translate(-116.34 -227.98)"/><path class="cls-7" d="M233,314.85a11.65,11.65,0,0,1-.88,2.4c.81.41,5.13,2.39,9.21-.05a13.51,13.51,0,0,1-1.28-6.43,26.41,26.41,0,0,1,2.89-10.59s-3.78-.43-6.07-.44h-.26c-2.29,0-6.07.44-6.07.44C233.69,306.88,233.77,311.67,233,314.85Z" transform="translate(-116.34 -227.98)"/><path class="cls-7" d="M243.22,320.06l.09-.11,0,0Z" transform="translate(-116.34 -227.98)"/><path class="cls-7" d="M230.2,320.08a.8.8,0,0,1-.08-.16l0,0A.69.69,0,0,0,230.2,320.08Z" transform="translate(-116.34 -227.98)"/><path class="cls-7" d="M190.47,302.58a13.51,13.51,0,0,1-2.53-5.71A12.22,12.22,0,0,0,190.47,302.58Z" transform="translate(-116.34 -227.98)"/><path class="cls-7" d="M187.86,296.16h0v0Z" transform="translate(-116.34 -227.98)"/><path class="cls-7" d="M217.79,313.06l-.14-.05.14.09.06.09Z" transform="translate(-116.34 -227.98)"/><path class="cls-7" d="M197.16,305.13c5.19,2,10.72,1.73,16.09,2.62.26,0,1.75.11,1.85.3L212.83,304l5.08,3.49c6.58,8.85,10.41,8,11.23,7.69a17.15,17.15,0,0,0,.07-11.33c-.5,5.52-3.83,4.46-3.83,4.46-4.7-11.67-18.41-11-18.41-11a12.78,12.78,0,0,1,4.91,5.59c-2.24-.72-4.74-1.08-11.85-1.27-6.75-.18-11.66-4.87-12.13-5.35A17.28,17.28,0,0,0,197.16,305.13Z" transform="translate(-116.34 -227.98)"/><path class="cls-7" d="M227,318.82l-.67-.1a14.42,14.42,0,0,1-2.33-.58,11.92,11.92,0,0,0,2.3.6C226.54,318.78,226.77,318.81,227,318.82Z" transform="translate(-116.34 -227.98)"/><path class="cls-7" d="M300.51,344.23a10.42,10.42,0,0,0-2-1A20.66,20.66,0,0,1,300.51,344.23Z" transform="translate(-116.34 -227.98)"/><path class="cls-7" d="M349.94,333.91c-2.46,25-24.31,18.48-24.31,18.48a51,51,0,0,1-26-29.48l-1.85,8.54a22,22,0,0,1,1.85,6.1c6.46,5.25,5.65,11.72,5.65,11.72l-.12-.19a3.06,3.06,0,0,1-.78,2.52c7.11,5.63,25,10.95,37,3.73s9.36-20.22,9.36-20.22Z" transform="translate(-116.34 -227.98)"/><path class="cls-7" d="M298.49,343.22a10.49,10.49,0,0,1-1.06,2.5A7.64,7.64,0,0,0,298.49,343.22Z" transform="translate(-116.34 -227.98)"/><path class="cls-7" d="M321.27,342.91c-.41-.23-1.25-.7-2-1.21A23.36,23.36,0,0,0,321.27,342.91Z" transform="translate(-116.34 -227.98)"/><path class="cls-7" d="M321.27,342.91l.27.15Z" transform="translate(-116.34 -227.98)"/><path class="cls-7" d="M318.08,340.87s18.95-6.68,25.3-6.92a5.8,5.8,0,0,0-.7-2s-15.73,1.93-26.9,6.92A23.53,23.53,0,0,0,318.08,340.87Z" transform="translate(-116.34 -227.98)"/><path class="cls-7" d="M361.05,329.39a8.85,8.85,0,0,0-3.65-.48,12.25,12.25,0,0,1,.22,3.16A23.39,23.39,0,0,0,361.05,329.39Z" transform="translate(-116.34 -227.98)"/><path class="cls-7" d="M245.15,351.78s6.52,3.51,18.15-9.09C263.3,342.69,248.27,345,245.15,351.78Z" transform="translate(-116.34 -227.98)"/><path class="cls-7" d="M244.74,341.61a6.5,6.5,0,0,0,3.2-1.55,8.63,8.63,0,0,0,1-1h0a15.83,15.83,0,0,0-5.69-6c.93,2.67.51,8.61.51,8.61A4.3,4.3,0,0,0,244.74,341.61Z" transform="translate(-116.34 -227.98)"/><path class="cls-7" d="M228.53,327.54A5.88,5.88,0,0,0,226.2,333l-.07.13a15.22,15.22,0,0,0-1.71,5.93h0s.12.17.32.4a6.05,6.05,0,0,0,4.18,2.21,3.91,3.91,0,0,0,.68,0s.16.19.44.49c1,1,3.58,3.42,6.53,3.59l.32,0s3.4-.25-.54-14.75a25.73,25.73,0,0,1-4.31-1.16,13.26,13.26,0,0,1-1.75-.81A5.29,5.29,0,0,1,228.53,327.54Z" transform="translate(-116.34 -227.98)"/><path class="cls-7" d="M251.19,329.41l-.05.07-3,4.13c.33.28.64.56.94.83a21.2,21.2,0,0,1,3.18,3.63,8.76,8.76,0,0,1,.5.81l.69-.28,3.12-1.29.91-.37c9.39-3.36,12.17-6,12.74-6.65l.05-.05a.59.59,0,0,0,.07-.1l-.27.12C260.16,334.87,251.19,329.41,251.19,329.41Z" transform="translate(-116.34 -227.98)"/><path class="cls-7" d="M215,351.41h0c8.26,1.84,12.05-1.21,12.05-1.21-5.35-5.6-16.69-9.19-16.69-9.19h-.24a21.79,21.79,0,0,0-11.19,2.45l.15,0c.38,0,.75.09,1.12.15a26.24,26.24,0,0,1,10.66,4.3A23.88,23.88,0,0,1,215,351.41Z" transform="translate(-116.34 -227.98)"/><path class="cls-7" d="M192.21,331.44a17.22,17.22,0,0,0,4.37,4.51,12.12,12.12,0,0,0,1.2.75,12.73,12.73,0,0,0,1.67.77,27.62,27.62,0,0,1,10.41-1.57,53.68,53.68,0,0,1-6.4-3.93,16.62,16.62,0,0,1-3.53-3.27,14.89,14.89,0,0,0,3.09,1.44,3.22,3.22,0,0,0,.44.14,8.61,8.61,0,0,0,2.48.25c2.69-.09,5.92-1,7.36-2.64l-.91-.41-.18,0a11.62,11.62,0,0,1-1.31.13c-3.22.13-10.92-.75-15.78-11.29l0-.06s-4.45,4.78-5.65,9.58l0,0A22.53,22.53,0,0,0,192.21,331.44Z" transform="translate(-116.34 -227.98)"/><path class="cls-8" d="M227.24,379c-.18,1.93-.05,6.37,2.32,15.62,0,0,2.43-7.08,6.09-10.12L236.3,416s5-26,8.93-31.5c0,0,1.62,9.6-.32,15.42,0,0,8.74-27.48,27-34.18L228,377.6Z" transform="translate(-116.34 -227.98)"/><path class="cls-8" d="M215.85,379.58l-2.58.47.26.13a26.49,26.49,0,0,1,9.94,8.68c-.29-3.17-.27-7.35,1.19-10.55.06-.14.12-.28.19-.41l-.13,0Z" transform="translate(-116.34 -227.98)"/><path class="cls-8" d="M262.62,353l11.2-.11a25.7,25.7,0,0,0,4-.22,24.88,24.88,0,0,0,8.8-2.67,14.5,14.5,0,0,0,6-5.93c5-9.44-2.1-13-2.1-13a7.79,7.79,0,0,1,0,8.55s-.92,4.22-11.9,6.06S262.62,353,262.62,353Z" transform="translate(-116.34 -227.98)"/><path class="cls-8" d="M264.83,356.61c-2.44-.26-4.14-.54-4.14-.54a10.54,10.54,0,0,1-.88,2.07,27,27,0,0,1-4.33,5.59l23.14-5.89-2.43-1A54.91,54.91,0,0,1,264.83,356.61Z" transform="translate(-116.34 -227.98)"/><path class="cls-8" d="M261.15,349.08a21.25,21.25,0,0,1,13.3-5.54s-11.26-5.65-23.09-.14c0,0-4.78,3-7.72,2.34,0,0-3.66,3.47-6.94,4.48-3.28-1-6.95-4.48-6.95-4.48-2.94.65-7.71-2.34-7.71-2.34a26.19,26.19,0,0,0-11.91-2.4h.24s11.34,3.59,16.69,9.19c0,0-3.79,3.05-12.05,1.21a23.81,23.81,0,0,0,10.33,4c8.6,1.21,6.47-3.77,6.47-3.77a4.58,4.58,0,0,1,2.33,4.36,5.72,5.72,0,0,0,2.56-2.87,5.64,5.64,0,0,0,2.55,2.87,4.57,4.57,0,0,1,2.34-4.36s-2.13,5,6.47,3.77A22.43,22.43,0,0,0,261.15,349.08Zm-16,2.7c3.12-6.79,18.15-9.09,18.15-9.09C251.67,355.29,245.15,351.78,245.15,351.78Z" transform="translate(-116.34 -227.98)"/><path class="cls-8" d="M210.87,347.92a16.29,16.29,0,0,1,1.38,1.16,16.37,16.37,0,0,0,2.76,2.33A23.88,23.88,0,0,0,210.87,347.92Z" transform="translate(-116.34 -227.98)"/><path class="cls-8" d="M198.94,343.54c.43,0,.85,0,1.27.08-.37-.06-.74-.11-1.12-.15Z" transform="translate(-116.34 -227.98)"/><path class="cls-8" d="M189.44,326a21.34,21.34,0,0,0,2.77,5.47,22.53,22.53,0,0,1-2.75-5.52Z" transform="translate(-116.34 -227.98)"/><path class="cls-8" d="M205.29,313.85l-5.17-1.93a34,34,0,0,0-5,4.44c4.86,10.54,12.56,11.42,15.78,11.29a11.62,11.62,0,0,0,1.31-.13l-.66-.25c-2.39-.95-6.53-3-7.71-6.15A6.64,6.64,0,0,1,205.29,313.85Z" transform="translate(-116.34 -227.98)"/><path class="cls-8" d="M243.09,324.06c0,.08-.44.42-.49.46a8.52,8.52,0,0,1-6.25,1.84,8.87,8.87,0,0,1-6-2.3,5.92,5.92,0,0,0,1.74,5.75,25.73,25.73,0,0,0,4.31,1.16c3.94,14.5.54,14.75.54,14.75l-.32,0,.32.11a20.8,20.8,0,0,0,6.9-4.1,4.13,4.13,0,0,0,1-.1,4.3,4.3,0,0,1-1,0s.42-5.94-.51-8.61a15.83,15.83,0,0,1,5.69,6,14.39,14.39,0,0,0-1.78-6,13.77,13.77,0,0,1,1.92,1.38c-.3-.27-.61-.55-.94-.83l3-4.13c-4.27-2.33-4.89-4.11-4.89-4.11a7.93,7.93,0,0,1-4.91,4.45A5.88,5.88,0,0,0,243.09,324.06Z" transform="translate(-116.34 -227.98)"/><path class="cls-8" d="M229.6,341.71l.44.4c-.28-.3-.44-.49-.44-.49a3.91,3.91,0,0,1-.68,0A3.77,3.77,0,0,0,229.6,341.71Z" transform="translate(-116.34 -227.98)"/><path class="cls-8" d="M257.51,336.94l-.91.37a25.81,25.81,0,0,1,17.35.25s7-2.66,10-11.59c0,0-1.6-7.42-10.68-14.05l-5.17,1.93a6.64,6.64,0,0,1,1.45,7.27c-1.68,4.51-9.46,6.77-9.46,6.77s3.41,3.33,10,2.37l.27-.12a.59.59,0,0,1-.07.1h.07l-.12.06C269.68,330.93,266.9,333.58,257.51,336.94Z" transform="translate(-116.34 -227.98)"/><path class="cls-8" d="M220.6,339a15.64,15.64,0,0,1,5.53-5.87l.07-.13a5.88,5.88,0,0,1,2.33-5.43,7.25,7.25,0,0,1-1.39-2.17s-.94,2.71-8.55,5.82c-5.28,2.15-10.72.86-13.56-.14a18.08,18.08,0,0,1-2-.82l.44,0a3.22,3.22,0,0,1-.44-.14,14.89,14.89,0,0,1-3.09-1.44,16.62,16.62,0,0,0,3.53,3.27,53.68,53.68,0,0,0,6.4,3.93,27.62,27.62,0,0,0-10.41,1.57,12.73,12.73,0,0,1-1.67-.77,10.92,10.92,0,0,0,1.67.86A25.82,25.82,0,0,1,220.6,339Z" transform="translate(-116.34 -227.98)"/><path class="cls-8" d="M230.29,329a8,8,0,0,1-1.76-1.46A5.29,5.29,0,0,0,230.29,329Z" transform="translate(-116.34 -227.98)"/><path class="cls-8" d="M247.94,340.06a9.75,9.75,0,0,0,1-.94V339A8.63,8.63,0,0,1,247.94,340.06Z" transform="translate(-116.34 -227.98)"/><path class="cls-8" d="M252.79,338.88a8.76,8.76,0,0,0-.5-.81,8.67,8.67,0,0,1,.5.9s.24-.15.69-.37Z" transform="translate(-116.34 -227.98)"/><path class="cls-8" d="M224.74,339.44c-.2-.23-.31-.39-.32-.4v.08Z" transform="translate(-116.34 -227.98)"/><path class="cls-8" d="M230.2,320.08a6.69,6.69,0,0,0,6.4,3.77,7.08,7.08,0,0,0,6.62-3.79l.06-.13,0-.07-2-2.68,0,0c-4.08,2.44-8.4.46-9.21.05l-.13-.07-1.86,2.68s0,0,0,.06A.8.8,0,0,0,230.2,320.08Z" transform="translate(-116.34 -227.98)"/><path class="cls-8" d="M246,318.84c7.2-.67,9.49-5.3,9.71-5.78l0-.05.11,0,8.57-2.79,0,0h0c7.07.22,13.47-2,17.28-6.1s3.89-8,3.89-8l-.1.21a17.3,17.3,0,0,1-9.21,8.8c-5.18,2-10.72,1.74-16.09,2.62a7.16,7.16,0,0,0-1.85.3l2.28-4.07-5.09,3.48c-7.46,10-11.39,7.62-11.39,7.62a3.94,3.94,0,0,0,.14.51A17.63,17.63,0,0,0,246,318.84Z" transform="translate(-116.34 -227.98)"/><path class="cls-8" d="M187.86,296.2a6,6,0,0,0,.08.67,13.51,13.51,0,0,0,2.53,5.71,15.56,15.56,0,0,0,1.28,1.54c3.81,4.08,10.23,6.33,17.32,6.1l8.58,2.79.14.05.06.13a10.55,10.55,0,0,0,6.11,4.95,14.42,14.42,0,0,0,2.33.58l.67.1c.18,0,.37.05.56.06,0,0,.36-.56.76-1.31a9.84,9.84,0,0,0,1-2.5l-.16.08c-.82.32-4.65,1.16-11.23-7.69L212.83,304l2.27,4.08c-.1-.19-1.59-.26-1.85-.3-5.37-.89-10.9-.63-16.09-2.62a17.28,17.28,0,0,1-9.26-8.93l-.05-.08v.08Z" transform="translate(-116.34 -227.98)"/><path class="cls-8" d="M204.84,348.91s-15.65,3.79-23.4-4.17c-.24-.25-.48-.51-.7-.78l.06.19a5.73,5.73,0,0,0,.33.77,12.16,12.16,0,0,0,5,4.85,27.71,27.71,0,0,0,10.42,3.13,63.87,63.87,0,0,0,13.33.08l.81-.08h.08a27.26,27.26,0,0,0-5.65-3.85Z" transform="translate(-116.34 -227.98)"/><path class="cls-8" d="M300.51,344.23a20.66,20.66,0,0,0-2-1,7.64,7.64,0,0,1-1.06,2.5c-3.06,4.9-11.16,9.61-11.16,9.61l18.11-3.73a3.06,3.06,0,0,0,.78-2.52C304.82,347,302.35,345.28,300.51,344.23Z" transform="translate(-116.34 -227.98)"/><path class="cls-8" d="M223.27,363.73,219.11,367l5.08,4,28-6.82L251,362.94S237.15,370.92,223.27,363.73Z" transform="translate(-116.34 -227.98)"/><path class="cls-8" d="M343.38,334h0c-6.35.24-25.29,6.92-25.3,6.92h0a12.38,12.38,0,0,0,1.15.83c1.1.71,2.31,1.36,2.31,1.36a112.54,112.54,0,0,1,21.94-6.38A6.7,6.7,0,0,0,343.38,334Z" transform="translate(-116.34 -227.98)"/><path d="M354.62,323.23s-4.1-6.88-11.67-6.44-5.12,7.56-5.12,7.56l-8.9,1.28s14.65-14.77,12.75-36.42c0,0-8.67,15-24.71,16.11,0,0,3.73-28.63,22.62-43.83,0,0-33.63-2.52-46.24,16.68a109,109,0,0,0-2.3-14.76s-18.45-26.82-54.37-34.35c-35.91,7.53-54.36,34.35-54.36,34.35-7.21,31.37,1.88,62.81,1.88,62.81-17.24,6.19-6.87,20.9-6.87,20.9s-50.07-5.29-58.54-36.23c0,0-7.38,22.32,11.94,50.49,12.84,18.72,40.86,21,61.5,20.76,6.15-.08,12.81-2.51,18.62.58a20.61,20.61,0,0,1,5.56,4.86c10.06,11.5,15.57,24.25,20.67,38.44.12-1.47.88-4.7,1.17-6,5.67-25.54,27.79-51.23,52.21-60.78,1.93-.76,7.59-3.55,9.55-1.74,0,0,23.68,21.54,50.77-2a24,24,0,0,0,6.63-16.44s9.25-4.43,12.75-11.93C370.16,327.18,362.45,323.29,354.62,323.23Zm-11.94,8.71a5.8,5.8,0,0,1,.7,2h0a6.7,6.7,0,0,1,.1,2.73,112.54,112.54,0,0,0-21.94,6.38,19,19,0,0,1-2.31-1.36,12.38,12.38,0,0,1-1.15-.83h0a23.53,23.53,0,0,1-2.3-2C327,333.87,342.68,331.94,342.68,331.94Zm-7.84-29.7s-2.61,16.07-16.42,24.34c0,0-8.66,4.25-12.05,2.41,0,0,2.69.56,2.93-9a14.45,14.45,0,0,1-4.16-4.25s4.09,4.61,8.79-5.7C313.93,310,327.91,309.61,334.84,302.24Zm-27.6-28.18c13.27-7.08,24.14-7.81,24.14-7.81s-12.9,8.33-16.85,29.83-9.63,14.51-9.63,14.51a11.62,11.62,0,0,0-4-4.15s.79-18.14,11.41-27.75A39.23,39.23,0,0,0,295,302.42l-1.58-.18.54-7.81A24.59,24.59,0,0,1,307.24,274.06Zm-62,110.47C241.34,390,236.3,416,236.3,416s-4.75-11.76-6.74-21.37h0c-2.37-9.25-2.5-13.69-2.32-15.62l.73-1.44,43.92-11.83c-18.24,6.7-27,34.18-27,34.18C246.85,394.13,245.23,384.53,245.23,384.53Zm-57.38-88.41.05.08c.47.48,5.38,5.17,12.13,5.35,7.11.19,9.61.55,11.85,1.27a12.78,12.78,0,0,0-4.91-5.59s13.71-.62,18.41,11c0,0,3.33,1.06,3.83-4.46a17.15,17.15,0,0,1-.07,11.33l.16-.08a9.84,9.84,0,0,1-1,2.5c-.4.75-.76,1.31-.76,1.31-.19,0-.38,0-.56-.06s-.42,0-.7-.08a11.92,11.92,0,0,1-2.3-.6,10.55,10.55,0,0,1-6.11-4.95l-.06-.09-.14-.09-8.58-2.79c-7.09.23-13.51-2-17.32-6.1a15.56,15.56,0,0,1-1.28-1.54,12.22,12.22,0,0,1-2.53-5.71,6,6,0,0,1-.08-.67v0h0Zm10.58,3.33,1-2.16a12.61,12.61,0,0,1,5.12,2.06A21.49,21.49,0,0,1,198.43,299.45Zm32.07.73s3.78-.43,6.07-.44h.26c2.29,0,6.07.44,6.07.44A26.41,26.41,0,0,0,240,310.77a13.51,13.51,0,0,0,1.28,6.43l0,0,2,2.68,0,.07,0,0-.09.11a7.08,7.08,0,0,1-6.62,3.79,6.69,6.69,0,0,1-6.4-3.77.69.69,0,0,1-.11-.13l0,0s0,0,0-.06l1.86-2.68.13.07a11.65,11.65,0,0,0,.88-2.4C233.77,311.67,233.69,306.88,230.5,300.18Zm17.51,8.1a17.1,17.1,0,0,1,1.64-3.1c3.63-5.44,9.54-7.17,13.29-7.71a20.7,20.7,0,0,1,3.48-.24,12.79,12.79,0,0,0-4.9,5.59c2.23-.72,4.74-1.08,11.85-1.27s12.17-5.39,12.17-5.39,0,.08,0,.12l.1-.21s-.09,3.94-3.89,8-10.21,6.32-17.28,6.1h-.09L255.8,313l-.13.08c-.22.48-2.51,5.11-9.71,5.78a17.63,17.63,0,0,1-1.64-3.3,16.76,16.76,0,0,1-1-6.67,17.61,17.61,0,0,1,.91-5.05,6.07,6.07,0,0,0,1.34,3.75A2.56,2.56,0,0,0,248,308.28ZM275,299.45a21.47,21.47,0,0,1-6.14-.1,12.69,12.69,0,0,1,5.12-2.06Zm-82.75,32a21.34,21.34,0,0,1-2.77-5.47l0-.05,0,0c1.2-4.8,5.65-9.58,5.65-9.58l0,.06a34,34,0,0,1,5-4.44l5.17,1.93a6.64,6.64,0,0,0-1.45,7.27c1.18,3.15,5.32,5.2,7.71,6.15l.66.25.18,0,.91.41c-1.44,1.59-4.67,2.55-7.36,2.64a8.61,8.61,0,0,1-2.48-.25l-.44,0a18.08,18.08,0,0,0,2,.82c2.84,1,8.28,2.29,13.56.14,7.61-3.11,8.55-5.82,8.55-5.82a7.25,7.25,0,0,0,1.39,2.17,8,8,0,0,0,1.76,1.46,13.26,13.26,0,0,0,1.75.81,5.92,5.92,0,0,1-1.74-5.75,8.87,8.87,0,0,0,6,2.3,8.52,8.52,0,0,0,6.25-1.84c.05,0,.51-.38.49-.46a5.88,5.88,0,0,1-1.75,5.76,7.93,7.93,0,0,0,4.91-4.45s.62,1.78,4.89,4.11l.05-.07s9,5.46,18.91.85c-6.6,1-10-2.37-10-2.37s7.78-2.26,9.46-6.77a6.64,6.64,0,0,0-1.45-7.27l5.17-1.93C282.35,318.55,284,326,284,326c-3,8.93-10,11.59-10,11.59a25.81,25.81,0,0,0-17.35-.25l-3.12,1.29c-.45.22-.69.37-.69.37a8.67,8.67,0,0,0-.5-.9,21.2,21.2,0,0,0-3.18-3.63,13.77,13.77,0,0,0-1.92-1.38,14.39,14.39,0,0,1,1.78,6h0v.08a9.75,9.75,0,0,1-1,.94,6.5,6.5,0,0,1-3.2,1.55,4.13,4.13,0,0,1-1,.1,20.8,20.8,0,0,1-6.9,4.1l-.32-.11c-2.95-.17-5.53-2.55-6.53-3.59l-.44-.4a3.77,3.77,0,0,1-.68-.06,6.05,6.05,0,0,1-4.18-2.21l-.32-.32V339h0a15.22,15.22,0,0,1,1.71-5.93A15.64,15.64,0,0,0,220.6,339a25.82,25.82,0,0,0-21.15-1.41,10.92,10.92,0,0,1-1.67-.86,12.12,12.12,0,0,1-1.2-.75A17.22,17.22,0,0,1,192.21,331.44Zm6.73,12A21.79,21.79,0,0,1,210.13,341,26.19,26.19,0,0,1,222,343.4s4.77,3,7.71,2.34c0,0,3.67,3.47,6.95,4.48,3.28-1,6.94-4.48,6.94-4.48,2.94.65,7.72-2.34,7.72-2.34,11.83-5.51,23.09.14,23.09.14a21.25,21.25,0,0,0-13.3,5.54,22.43,22.43,0,0,1-13.09,6.32c-8.6,1.21-6.47-3.77-6.47-3.77a4.57,4.57,0,0,0-2.34,4.36,5.64,5.64,0,0,1-2.55-2.87,5.72,5.72,0,0,1-2.56,2.87,4.58,4.58,0,0,0-2.33-4.36s2.13,5-6.47,3.77a23.81,23.81,0,0,1-10.33-4h0a16.37,16.37,0,0,1-2.76-2.33,16.29,16.29,0,0,0-1.38-1.16,26.24,26.24,0,0,0-10.66-4.3c-.42,0-.84-.07-1.27-.08l.15-.07Zm47.39,14.73a23.71,23.71,0,0,0,4.13,0c-.59,2-4.13,3.2-4.13,3.2A8.53,8.53,0,0,0,246.33,358.18Zm-8.13.19c.74,1.73,4.19,2.08,4.19,2.08a13.26,13.26,0,0,1-.6-3.58c.64-.05,1.63.48,1.71,3.19s-1.76,2.36-1.76,2.36h-2.2c-1.42,0-1.32-1.05-1.32-1.05Zm-4.35,4.05h-2.2s-1.83.36-1.76-2.36,1.08-3.24,1.72-3.19a13.75,13.75,0,0,1-.6,3.58s3.44-.35,4.18-2.08l0,3S235.28,362.42,233.85,362.42Zm-6.79-1s-3.53-1.23-4.12-3.2a23.59,23.59,0,0,0,4.12,0A8.53,8.53,0,0,0,227.06,361.38Zm-9.66-4.51a6.94,6.94,0,0,0,3,1l.82,2.22-.2.19-1.23,1.13a17.23,17.23,0,0,1-1.28-1.89A8.81,8.81,0,0,1,217.4,356.87Zm34.78,3.19.82-2.22a6.88,6.88,0,0,0,3-1,9.09,9.09,0,0,1-1.2,2.8,16.84,16.84,0,0,1-1.18,1.71l-1.1-1Zm-28.71,28.8a26.49,26.49,0,0,0-9.94-8.68l-.26-.13,2.58-.47,8.87-1.66.13,0c-.07.13-.13.27-.19.41C223.2,381.51,223.18,385.69,223.47,388.86Zm32-25.13a27,27,0,0,0,4.33-5.59,10.54,10.54,0,0,0,.88-2.07s1.7.28,4.14.54a54.91,54.91,0,0,0,11.36.26l2.43,1Zm22.37-11.08a25.7,25.7,0,0,1-4,.22l-11.2.11s5-5.44,16-7.28,11.9-6.06,11.9-6.06a7.79,7.79,0,0,0,0-8.55s7.08,3.52,2.1,13a14.5,14.5,0,0,1-6,5.93A24.88,24.88,0,0,1,277.85,352.65ZM289,321.05a5.8,5.8,0,0,1,1.59-.92,31.22,31.22,0,0,1,4.78-1.48,18.38,18.38,0,0,0-3.58,8.69c-.05.35-.06.55-.06.55a6,6,0,0,0-3.2-1.26Zm3.08-7.17a15.41,15.41,0,0,0,.5-5.63c0-.58-.09-.94-.09-.94l.2,0c2.81.43,6.09,4.57,6.09,4.57C296.5,311.65,292.11,313.88,292.11,313.88Zm-106.27-43.4s15.19-21,43.87-31.47h14c28.67,10.44,43.87,31.47,43.87,31.47l.1,11.37c-6.1-16.19-18.43-21.34-18.43-21.34,9,9.62,13.14,18.63,15.06,24.57a33.38,33.38,0,0,1,1.62,7.14,8.68,8.68,0,0,1-5.26,4.34,53.06,53.06,0,0,0-5.07-6.43A59.94,59.94,0,0,0,255.82,276a63.6,63.6,0,0,1,15.62,16.59,39.91,39.91,0,0,1,2.07,3.54,18.89,18.89,0,0,0-6.19-1.15,29.84,29.84,0,0,0-11.84,2.3,48.86,48.86,0,0,0-18.41-3.83h-.75a48.79,48.79,0,0,0-18.4,3.83s-9.53-4.33-18-1.15A61.72,61.72,0,0,1,217.57,276a59.54,59.54,0,0,0-24.83,20.61,8.68,8.68,0,0,1-5.26-4.34s1-15,16.69-31.71c0,0-12.34,5.15-18.44,21.34Zm-4.71,74.44a5.73,5.73,0,0,1-.33-.77l-.06-.1c-5-9.44,2.1-13,2.1-13a7.78,7.78,0,0,0,0,8.55s.29,1.33,2.48,2.82c1.72,1.17,4.6,2.43,9.41,3.24a35.55,35.55,0,0,1,10.36,3.35,27.26,27.26,0,0,1,5.65,3.85h-.08l.08.08h-.89a63.87,63.87,0,0,1-13.33-.08,27.71,27.71,0,0,1-10.42-3.13A12.16,12.16,0,0,1,181.13,344.92Zm-31.24,23.27c-20.71-9.5-23.59-33.6-23.59-33.6,19.83,16.05,57.87,18.82,57.87,18.82,7.37,4.18,18.68,3.58,24,3,1.88-.2,3-.41,3-.41.2.51.43,1,.68,1.52a38.56,38.56,0,0,0,7.19,9.48l4.16-3.26c13.88,7.19,27.76-.79,27.76-.79l1.15,1.25C185.32,382.08,170.6,377.68,149.89,368.19Zm191.53-12.86c-12,7.22-29.93,1.9-37-3.73l-18.11,3.73s8.1-4.71,11.16-9.61a10.49,10.49,0,0,0,1.06-2.5,10.42,10.42,0,0,1,2,1c1.84,1,4.31,2.81,4.65,4.85l.12.19s.81-6.47-5.65-11.72a22,22,0,0,0-1.85-6.1l1.85-8.54a51,51,0,0,0,26,29.48s21.85,6.5,24.31-18.48l.84,1.2S353.45,348.11,341.42,355.33Zm16.2-23.26a12.25,12.25,0,0,0-.22-3.16,8.85,8.85,0,0,1,3.65.48A23.39,23.39,0,0,1,357.62,332.07Z" transform="translate(-116.34 -227.98)"/><path d="M270.3,330.24l-.05.05.12-.06Z" transform="translate(-116.34 -227.98)"/><path class="cls-2" d="M229.56,394.66C230.93,400,233.05,407,236.3,416l-.65-31.49C232,387.58,229.56,394.66,229.56,394.66Z" transform="translate(-116.34 -227.98)"/><path class="cls-2" d="M229.56,394.66c2,9.61,6.74,21.37,6.74,21.37-3.25-9-5.37-16-6.74-21.37Z" transform="translate(-116.34 -227.98)"/></svg>