<svg id="Layer_1" data-name="Layer 1" xmlns="http://www.w3.org/2000/svg" viewBox="0 0 703.09 195.67"><defs><style>.cls-1{fill:#272361;}.cls-2{fill:#fff;}.cls-3{fill:#00a89c;}.cls-4{fill:gray;}</style></defs><polygon class="cls-1" points="513.61 131.57 528.78 107.04 543.65 131.57 513.61 131.57"/><path class="cls-2" d="M583.64,318.08l1.09,1.8L592.05,332l3.81,6.29H571.17l5.25-8.49,6-9.62,1.27-2.05m0-5.74-2.58,4.16-1.26,2.05-6,9.62-5.25,8.49-2.83,4.58h35.4l-2.77-4.56-3.81-6.29-7.32-12.06-1.09-1.81-2.54-4.18Z" transform="translate(-54.87 -208.17)"/><path class="cls-1" d="M499.17,329.78v-14.9H532c5.86,0,9.51,2.78,9.51,7.25,0,4.79-3.34,7.65-9,7.65Z" transform="translate(-54.87 -208.17)"/><path class="cls-2" d="M532,316.38c4.77,0,8,2,8,5.75,0,4.29-3.16,6.15-7.45,6.15H500.67v-11.9H532m0-3H497.67v17.9h34.89c6.45,0,10.45-3.51,10.45-9.15,0-5.32-4.32-8.75-11-8.75Z" transform="translate(-54.87 -208.17)"/><polygon class="cls-1" points="171.2 131.57 186.37 107.04 201.24 131.57 171.2 131.57"/><path class="cls-2" d="M241.22,318.08l2.11,3.47,5.6,9.24,4.51,7.45H228.76l4-6.53,6.42-10.37,2-3.26m0-5.74-2.58,4.16-2,3.26-6.41,10.37-4,6.53-2.83,4.58h35.4L256,336.68l-4.51-7.44L245.89,320l-2.1-3.48-2.54-4.18Z" transform="translate(-54.87 -208.17)"/><path class="cls-1" d="M305.37,349.29V315h24.48a45.25,45.25,0,0,1,12.75,1.78,18.55,18.55,0,0,1,9.25,5.84,14.24,14.24,0,0,1,3,9.08c0,.27,0,.53,0,.79l0,.29c-.35,6.14-4.18,16.45-25.88,16.45Z" transform="translate(-54.87 -208.17)"/><path class="cls-2" d="M328.89,316.54l.94,0a43.62,43.62,0,0,1,12.32,1.72,17,17,0,0,1,8.52,5.33,12.75,12.75,0,0,1,2.66,8.15c0,.34,0,.66-.05,1-.57,9.94-9.66,15-24.39,15h-22V316.54h22m0-3h-25v37.25h25c16.75,0,26.73-6.51,27.38-17.87l0-.27c0-.24,0-.55,0-.89a15.67,15.67,0,0,0-3.31-10,20,20,0,0,0-10-6.34,46.78,46.78,0,0,0-13.18-1.85h-1Z" transform="translate(-54.87 -208.17)"/><path class="cls-1" d="M461.33,367H206.53l0-.09H183.39l46.35-70h23.13l11.87,18h19.41V297.39H331.4c15.62,0,27.82,3.75,35.58,10.91V296.25h11.65l28.95,18.63h19l29.07-18.63h6.46l10.47-13.75,11.32,14.89h51.65c12.68,0,22.24,6.13,25.56,16.18l11-16.67h23.12l11.87,18H627V297.39h30.21v17.49h16.3c2.54-8.91,12.25-18.95,43.06-18.95,14.3,0,25.55,1.63,33.43,4.84l6.21,2.54-6.5,23.06c4.47,3.77,6.74,9,6.74,15.43,0,6.74-2.49,16-14.36,21.58-7.13,3.38-16.78,5-29.49,5a133.86,133.86,0,0,1-20-1.37H483.84l-11.25,14.8Zm11.26-.06,6.1-8V305.39l-6.1-8-6.11,8v53.55Zm220-9,.12,0a113.39,113.39,0,0,0,14.6,1.36c1.71.05,3.46.08,5.21.08,23.13,0,34.85-5.92,34.85-17.6,0-11.07-10.26-13.68-33.25-15.34-2.78-.21-5.08-.42-7-.64-8.27-.92-12.75-2.2-12.75-6.36,0-2,1.54-3.55,4.58-4.51,3.43-1.08,9.14-1.61,17.48-1.61,10.35,0,19.24,1.31,26.44,3.89l2.43-8.6c-8.42-3-20.19-3.7-28.79-3.7-19.37,0-31.53,4.24-34.24,11.95a10.88,10.88,0,0,0-.6,3.63c0,9.15,7,13.29,25.77,15.27,1.9.21,3.9.39,6.11.56,14.44,1.11,21.38,1.89,21.38,7.32,0,5.07-6.88,7.33-22.3,7.33-1.62,0-3.35-.07-5.45-.22-2.92-.21-6-.55-9.67-1.09a100,100,0,0,0-14.3-.87c-2,0-4,0-6,.06-1.71,0-3.42,0-5.12,0q-4.12,0-8.23-.05c-2.73,0-5.46-.06-8.19-.06h-7.5V306.39H636v51.55Zm-67.82,0-34.36-52H577l-30.42,46-14.94-15.05h6c9.54-.49,15.74-6.44,15.74-15.18a16.69,16.69,0,0,0-.69-4.83c-2-6.53-8.38-10.42-17.15-10.42H487.69v51.55h11.48V337.63h18.67l18.7,20.31h20.93l6.07-9.71h40l5.91,9.71Zm-167.32,0V305.78l-40.42,25.9L376,305.25v52.69H388.2V326.59l28.33,18.08h1L446,326.34v31.6Zm-126,0c28.13,0,34.2-14.36,35.5-20.71V325.94a20.61,20.61,0,0,0-3.89-8.64c-7-9-21.12-10.91-31.69-10.91H293.15v51.55Zm-49.09,0L248,305.9H234.58l-34.44,52h14.91l6.07-9.71h40.05l5.91,9.71Z" transform="translate(-54.87 -208.17)"/><path class="cls-2" d="M472.59,285l4.77,6.27,5.81,7.64h52.39c13.1,0,22.47,6.84,24.78,17.49h.73l10.12-15.29L573,298.4h21.51l1.78,2.69,10.09,15.29h22.11V298.89h27.21v17.49h19c1.86-8.44,10.49-18.95,41.9-18.95,14.11,0,25.17,1.59,32.87,4.73l5,2-1.45,5.16-3.24,11.49L748,326.91c4.26,3.26,6.95,8,6.95,14.89,0,6.31-2.34,14.94-13.5,20.22-6.93,3.29-16.36,4.88-28.84,4.88a131.92,131.92,0,0,1-19.93-1.37H483.1l-5.74,7.55-4.77,6.27-4.78-6.27-5.74-7.55H208.76l0-.09H186.18l6.16-9.31,36.43-55,1.78-2.69h21.51l1.78,2.69,10.09,15.29h21.72V298.89H331.4c17.28,0,30,4.63,37.08,13.16v-14.3h9.71l1.48,1,27.47,17.67H427l27.59-17.68,1.48-.95h6.77l4.94-6.5,4.78-6.27m0,84.46,3-3.91,3.89-5.11.74-1V304.89l-.74-1-6.86-9-6.87,9-.74,1v54.55l.74,1,3.89,5.11,3,3.91m240.05-19.95c-1.82,0-3.59-.09-5.34-.22-3.19-.22-6.33-.6-9.57-1.07a98.66,98.66,0,0,0-14.51-.89c-2,0-4,0-6.05.06-1.7,0-3.4,0-5.1,0-5.47,0-10.94-.11-16.41-.11h-6V304.89H634.45v54.55h58a115.53,115.53,0,0,0,14.8,1.38c1.73.05,3.49.08,5.26.08,21.61,0,36.34-5.1,36.34-19.1,0-12.71-12.22-15.22-34.64-16.84-2.66-.2-5-.41-7-.63-8.45-.94-11.42-2.19-11.42-4.87,0-1.35,1.22-2.35,3.53-3.08,3.4-1.07,9.17-1.54,17-1.54,10.44,0,19.91,1.38,27.44,4.37l3.24-11.49c-7.93-3.24-19.59-4.29-30.6-4.29-19.84,0-32.65,4.41-35.66,12.95a12.38,12.38,0,0,0-.68,4.13c0,11,9.1,14.86,27.12,16.77,1.94.2,4,.39,6.15.55,14.65,1.13,20,2,20,5.83s-6,5.83-20.8,5.83M417.06,329.9l-21-13.52-19.63-12.63h-1.94v55.69H389.7V329.33l26.39,16.84H418l26.55-17.08v30.35H459V303.75h-1.12l-19.71,12.63L417.06,329.9m129.28,19.61-11.11-11.19h2.43c9.64-.49,17.24-6.4,17.24-16.68a18.06,18.06,0,0,0-.75-5.26c-2.34-7.75-9.93-11.49-18.59-11.49H486.19v54.55h14.48V339.13h16.51l18.7,20.31H558.3l6.07-9.71h38.37l5.91,9.71h18.94l-28.44-43.06-7.91-12h-15l-7.93,12-21.92,33.13m-349,9.93h18.53l6.08-9.71h38.37l5.9,9.71h18.95l-28.44-43.06-7.91-12H233.77l-36.42,55m94.3,0h39.83c17.59,0,33.86-6.2,37-22.06V325.79a21.88,21.88,0,0,0-4.21-9.41c-6.65-8.54-19.44-11.49-32.87-11.49H291.65v54.55M472.59,280l-2.39,3.14-4.78,6.28-4,5.31h-6.16l-.74.48-1.48.94-26.84,17.21H408l-26.73-17.2-1.48-.95-.74-.48H365.48V305.1c-8-6.05-19.65-9.21-34.08-9.21H282.65v17.49H265.54l-9.2-13.94-1.78-2.69-.89-1.35H228.94l-.89,1.34-1.78,2.69-36.43,55.05-6.16,9.31-3.08,4.65h23.73l0,.09H460.58l4.84,6.36,4.78,6.28,2.39,3.14,2.38-3.14,4.78-6.28,4.84-6.36H692.41a135.43,135.43,0,0,0,20.15,1.37c12.93,0,22.79-1.69,30.13-5.17,9.81-4.64,15.21-12.79,15.21-22.93,0-6.58-2.2-11.93-6.54-15.94l1.18-4.21,3.24-11.49,1.46-5.16.72-2.58-2.48-1-5-2c-8.06-3.29-19.5-5-34-5-30.52,0-41,9.81-44.17,18.95H658.66V295.89H625.45v17.49H608l-9.21-13.94L597,296.75l-.89-1.35H571.35l-.89,1.34-1.78,2.69-7.22,10.92c-4.25-9.05-13.72-14.46-25.9-14.46h-50.9l-4.91-6.45L475,283.16,472.59,280ZM468,305.9l.13-.17,4.48-5.89,4.47,5.89.13.17v52.53l-.13.17-3.89,5.12-.58.77-.59-.77-3.89-5.12-.13-.17V305.9Zm244.66,46.59c11.77,0,23.8-1.05,23.8-8.83,0-7.06-9.06-7.76-22.76-8.82-2.2-.17-4.18-.35-6.07-.55-20.44-2.16-24.43-6.69-24.43-13.78a9.47,9.47,0,0,1,.51-3.13c2.45-7,14.42-10.95,32.83-10.95,11.22,0,20.46,1.09,27,3.16l-1.61,5.71c-7.08-2.29-15.62-3.46-25.43-3.46-8.61,0-14.31.54-17.93,1.68-4.65,1.47-5.63,4-5.63,5.94,0,6.29,8.14,7.19,14.08,7.85,2,.22,4.27.43,7.07.64,24.72,1.79,31.87,4.89,31.87,13.85,0,5.55-2.65,9.39-8.35,12.09s-14,4-25,4c-1.75,0-3.48,0-5.17-.08A112.42,112.42,0,0,1,693,356.48l-.24,0H637.45V307.89h9.21V350.3h9c2.72,0,5.49,0,8.18.06s5.48.05,8.23.05c1.87,0,3.55,0,5.15,0,1.94,0,4-.06,6-.06a97.91,97.91,0,0,1,14.08.86c3.72.54,6.83.89,9.78,1.1,2.15.15,3.91.22,5.56.22ZM577.8,307.4h11.83l7,10.63L622,356.44H610.34l-5-8.27-.87-1.44H562.71l-.88,1.41-5.19,8.3H537.2L519.39,337.1l-.89-1H497.67v20.31h-8.48V307.89h46.37c8.07,0,14,3.5,15.72,9.36a15.42,15.42,0,0,1,.62,4.39c0,6.25-3.76,13.11-14.31,13.68H528l5.08,5.11,11.1,11.19,2.6,2.62,2-3.08L570.76,318l7-10.64Zm-342.41,0h11.83l7,10.63,25.36,38.41H267.92l-5-8.27-.88-1.44H220.29l-.88,1.41-5.19,8.3H202.93l32.46-49Zm59.26.49H331.4c10.24,0,23.84,1.79,30.51,10.33a19.14,19.14,0,0,1,3.57,7.88v11c-1.29,6-7.19,19.36-34,19.36H294.65V307.89Zm82.83,48.55V308l16.95,10.9,21,13.52,1.62,1,1.62-1,21.09-13.51L456,308.52v47.92H447.5V323.59l-4.62,3-25.81,16.6H417L391.31,326.8l-4.61-2.94v32.58Z" transform="translate(-54.87 -208.17)"/><path class="cls-1" d="M253,276.24c-.8,4.27-2.39,11.9-13.92,11.9s-10.44-7.54-9.69-11.86l1.18-6.84c.75-4.27,2.38-11.86,13.92-11.86s10.44,7.63,9.68,11.9Zm-6.67-7.38c.38-2,.84-5.08-2.93-5.08s-4.37,3-4.7,5l-1.55,8.6c-.38,2.06-.76,4.53,3,4.53s4.31-2.56,4.69-4.57Z" transform="translate(-54.87 -208.17)"/><path class="cls-1" d="M270.53,263.78h-1.3c-4.15,0-4.61,2.52-5.07,5.2l-1.1,6.08c-.41,2.39-1.25,6.88,4,6.88a58.6,58.6,0,0,0,7.29-.55l-1,5.92a41.91,41.91,0,0,1-8.56.83c-11.49,0-10.48-8-9.81-11.78l1.26-7c.67-3.82,2.47-11.78,14-11.78a37.94,37.94,0,0,1,8.26.83l-1.55,8.73h-7Z" transform="translate(-54.87 -208.17)"/><path class="cls-1" d="M275.73,287.77l.92-5.45h2.73l3.35-18.92H280l1-5.45h21.85l-1.68,9.19h-7l.55-3h-4.32l-1.05,5.91h7l-1,5.87h-7l-1,5.62H292l.54-3h7l-1.59,9.19Z" transform="translate(-54.87 -208.17)"/><path class="cls-1" d="M303.32,282.32l12-24.37h8l3.19,24.37h2.1l-.92,5.45H315.48l.93-5.45h2.3l0-2.73h-6.5l-1.09,2.73h2.31l-.92,5.45H300.31l.92-5.45ZM317.79,266l-3.27,8h3.69Z" transform="translate(-54.87 -208.17)"/><path class="cls-1" d="M347.48,287.77l-4.44-14-1.51,8.52h2.64l-.92,5.45H330l.92-5.45h2.68L337,263.4h-2.68l1-5.45h9.52l4.07,13.76,1.46-8.31h-2.68l1-5.45H362l-1,5.45h-2.68L354,287.77Z" transform="translate(-54.87 -208.17)"/><path class="cls-1" d="M387,263.78h-1.3c-4.16,0-4.62,2.52-5.08,5.2l-1.09,6.08c-.42,2.39-1.26,6.88,4,6.88a58.73,58.73,0,0,0,7.29-.55l-1.05,5.92a41.88,41.88,0,0,1-8.55.83c-11.49,0-10.48-8-9.81-11.78l1.26-7c.67-3.82,2.47-11.78,14-11.78a38,38,0,0,1,8.26.83l-1.55,8.73h-7Z" transform="translate(-54.87 -208.17)"/><path class="cls-1" d="M406.4,282.32l-.92,5.45H392.19l.92-5.45h2.73l3.35-18.92h-2.73l1-5.45h13.29l-1,5.45h-2.69l-3.35,18.92Z" transform="translate(-54.87 -208.17)"/><path class="cls-1" d="M428.42,282.32l-.92,5.45H414.25l.92-5.45h2.68l3.31-18.5h-2l-.84,4.58H411.6L413.49,258h25.37L437,268.4h-6.79l.84-4.58h-2l-3.31,18.5Z" transform="translate(-54.87 -208.17)"/><path class="cls-1" d="M464.94,263.4l-9.89,14.68-.76,4.24H457l-.93,5.45H442.8l.93-5.45h2.68l.75-4.32-4.82-14.6h-2.09l1-5.45h12.21l-1,5.45h-1.93l1.68,8,4.57-8h-2.31l1-5.45H468l-1,5.45Z" transform="translate(-54.87 -208.17)"/><polygon class="cls-1" points="537.18 123.78 529.86 111.72 528.77 109.91 527.5 111.96 521.55 121.58 516.3 130.07 540.99 130.07 537.18 123.78"/><path class="cls-1" d="M540,322.13c0-3.73-3.24-5.75-8-5.75H500.67v11.9h31.89C536.85,328.28,540,326.42,540,322.13Z" transform="translate(-54.87 -208.17)"/><polygon class="cls-1" points="194.06 122.63 188.46 113.39 186.35 109.91 184.34 113.17 177.92 123.54 173.89 130.07 198.58 130.07 194.06 122.63"/><path class="cls-1" d="M328.89,347.79c14.73,0,23.82-5.1,24.39-15,0-.33.05-.65.05-1a12.75,12.75,0,0,0-2.66-8.15,17,17,0,0,0-8.52-5.33,43.62,43.62,0,0,0-12.32-1.72l-.94,0h-22v31.25h22Z" transform="translate(-54.87 -208.17)"/><path class="cls-1" d="M748,326.91l1.71-6.07,3.24-11.49,1.45-5.16-5-2c-7.7-3.14-18.76-4.73-32.87-4.73-31.41,0-40,10.51-41.9,18.95h-19V298.89H628.45v17.49H606.34l-10.09-15.29-1.78-2.69H573l-1.77,2.69-10.12,15.29h-.73c-2.31-10.65-11.68-17.49-24.78-17.49H483.17l-5.81-7.64L472.59,285l-4.78,6.27-4.94,6.5H456.1l-1.48.95L427,316.38H407.14l-27.47-17.67-1.48-1h-9.71v14.3c-7.11-8.53-19.8-13.16-37.08-13.16H285.65v17.49H263.93l-10.09-15.29-1.78-2.69H230.55l-1.78,2.69-36.43,55-6.16,9.31h22.61l0,.09H462.07l5.74,7.55,4.78,6.27,4.77-6.27,5.74-7.55H692.63a131.92,131.92,0,0,0,19.93,1.37c12.48,0,21.91-1.59,28.84-4.88,11.16-5.28,13.5-13.91,13.5-20.22C754.9,334.88,752.21,330.17,748,326.91Zm-35.39,34c-1.77,0-3.53,0-5.26-.08a115.53,115.53,0,0,1-14.8-1.38h-58V304.89h15.21V347.3h6c5.47,0,10.94.11,16.41.11,1.7,0,3.4,0,5.1,0,2,0,4.05-.06,6.05-.06a98.66,98.66,0,0,1,14.51.89c3.24.47,6.38.85,9.57,1.07,1.75.13,3.52.22,5.34.22,14.81,0,20.8-2.11,20.8-5.83s-5.34-4.7-20-5.83c-2.16-.16-4.21-.35-6.15-.55-18-1.91-27.12-5.81-27.12-16.77a12.38,12.38,0,0,1,.68-4.13c3-8.54,15.82-12.95,35.66-12.95,11,0,22.67,1.05,30.6,4.29l-3.24,11.49c-7.53-3-17-4.37-27.44-4.37-7.86,0-13.63.47-17,1.54-2.31.73-3.53,1.73-3.53,3.08,0,2.68,3,3.93,11.42,4.87,2,.22,4.3.43,7,.63,22.42,1.62,34.64,4.13,34.64,16.84C748.9,355.8,734.17,360.9,712.56,360.9Zm-240,8.54-3-3.91-3.89-5.11-.74-1V304.89l.74-1,6.87-9,6.86,9,.74,1v54.55l-.74,1-3.89,5.11Zm-223.76-65,7.91,12,28.44,43.06H266.23l-5.9-9.71H222l-6.08,9.71H197.35l36.42-55Zm42.82.49H331.4c13.43,0,26.22,2.95,32.87,11.49a21.88,21.88,0,0,1,4.21,9.41v11.59c-3.14,15.86-19.41,22.06-37,22.06H291.65V304.89Zm82.83,11.49V303.75h1.94l19.63,12.63,21,13.52,21.09-13.52,19.71-12.63H459v55.69H444.5V329.09L418,346.17h-1.86L389.7,329.33v30.11H374.48V316.38Zm179.67,0a18.06,18.06,0,0,1,.75,5.26c0,10.28-7.6,16.19-17.24,16.68h-2.43l11.11,11.19,21.92-33.13,7.93-12h15l7.91,12,28.44,43.06H608.65l-5.91-9.71H564.37l-6.07,9.71H535.88l-18.7-20.31H500.67v20.31H486.19V304.89h49.37C544.22,304.89,551.81,308.63,554.15,316.38Z" transform="translate(-54.87 -208.17)"/><path class="cls-3" d="M591.24,304.4h-15l-7.93,12-21.92,33.13-11.11-11.19h2.43c9.64-.49,17.24-6.4,17.24-16.68a18.06,18.06,0,0,0-.75-5.26c-2.34-7.75-9.93-11.49-18.59-11.49H486.19v54.55h14.48V339.13h16.51l18.7,20.31H558.3l6.07-9.71h38.37l5.91,9.71h18.94l-28.44-43.06Zm-90.57,23.88v-11.9H532c4.77,0,8,2,8,5.75,0,4.29-3.16,6.15-7.45,6.15Zm70.5,10,5.25-8.49,6-9.62,1.27-2.05,1.09,1.8L592.05,332l3.81,6.29Z" transform="translate(-54.87 -208.17)"/><path class="cls-3" d="M248.83,304.4H233.77l-36.42,55h18.53l6.08-9.71h38.37l5.9,9.71h18.95l-28.44-43.06Zm-20.07,33.84,4-6.53,6.42-10.37,2-3.26,2.11,3.47,5.6,9.24,4.51,7.45Z" transform="translate(-54.87 -208.17)"/><path class="cls-3" d="M331.4,304.89H291.65v54.55h39.83c17.59,0,33.86-6.2,37-22.06V325.79a21.88,21.88,0,0,0-4.21-9.41C357.62,307.84,344.83,304.89,331.4,304.89Zm-24.53,42.9V316.54h22l.94,0a43.62,43.62,0,0,1,12.32,1.72,17,17,0,0,1,8.52,5.33,12.75,12.75,0,0,1,2.66,8.15c0,.34,0,.66-.05,1-.57,9.94-9.66,15-24.39,15h-22Z" transform="translate(-54.87 -208.17)"/><polygon class="cls-3" points="383.29 108.21 362.19 121.73 341.18 108.21 321.56 95.58 319.61 95.58 319.61 108.21 319.61 117.06 319.61 129.73 319.61 151.28 334.83 151.28 334.83 121.16 361.22 138 363.08 138 389.63 120.92 389.63 151.28 404.11 151.28 404.11 108.21 404.11 96.72 404.11 95.58 402.99 95.58 383.29 108.21"/><polygon class="cls-3" points="417.72 86.72 410.85 95.74 410.11 96.72 410.11 108.21 410.11 151.28 410.85 152.25 414.74 157.37 417.72 161.28 420.69 157.37 424.58 152.25 425.33 151.28 425.33 108.21 425.33 96.72 424.58 95.74 417.72 86.72"/><path class="cls-3" d="M714.26,325c-2.66-.2-5-.41-7-.63-8.45-.94-11.42-2.19-11.42-4.87,0-1.35,1.22-2.35,3.53-3.08,3.4-1.07,9.17-1.54,17-1.54,10.44,0,19.91,1.38,27.44,4.37l3.24-11.49c-7.93-3.24-19.59-4.29-30.6-4.29-19.84,0-32.65,4.41-35.66,12.95a12.38,12.38,0,0,0-.68,4.13c0,11,9.1,14.86,27.12,16.77,1.94.2,4,.39,6.15.55,14.65,1.13,20,2,20,5.83s-6,5.83-20.8,5.83c-1.82,0-3.59-.09-5.34-.22-3.19-.22-6.33-.6-9.57-1.07a98.66,98.66,0,0,0-14.51-.89c-2,0-4,0-6.05.06-1.7,0-3.4,0-5.1,0-5.47,0-10.94-.11-16.41-.11h-6V304.89H634.45v54.55h58a115.53,115.53,0,0,0,14.8,1.38c1.73.05,3.49.08,5.26.08,21.61,0,36.34-5.1,36.34-19.1C748.9,329.09,736.68,326.58,714.26,325Z" transform="translate(-54.87 -208.17)"/><path class="cls-2" d="M200.19,251.31l-11.35-4a18.63,18.63,0,0,0-.12-6.12c-2.8-15.41-30.42-31.45-59.76-30.5-29.33-.95-56.52,15.09-59.32,30.5a18.64,18.64,0,0,0-.14,6l-11.76,4.1s-.49,57.17-.31,68.81S60,348.38,78.62,368.23,129,401.1,129,401.1s31.73-13,50.34-32.87,21-36.47,21.19-48.11S200.19,251.31,200.19,251.31Z" transform="translate(-54.87 -208.17)"/><path class="cls-2" d="M129,403.83l-1-.39C126.69,402.9,95.55,390,76.78,370c-19-20.26-21.67-37.25-21.87-49.79-.18-11.54.3-68.3.31-68.87v-1.77l11.59-4.05a21.22,21.22,0,0,1,.34-4.69c1.51-8.35,9.17-16.79,21-23.16A82.05,82.05,0,0,1,129,208.21c28.79-.92,59,14.91,62.24,32.57a21.32,21.32,0,0,1,.33,4.84l11.17,3.9v1.77c0,.57.49,57.33.31,68.87-.2,12.54-2.86,29.53-21.87,49.79-18.77,20-49.91,32.95-51.23,33.49ZM60.25,253.11c-.08,9.75-.46,56.64-.29,67,.18,11.63,2.67,27.42,20.5,46.42C96.69,383.8,123.57,396,129,398.36c5.39-2.34,32.27-14.56,48.5-31.86,17.83-19,20.32-34.79,20.51-46.42.16-10.33-.22-57.22-.3-67L186,249l.3-2.06a16,16,0,0,0-.11-5.3c-2.47-13.64-28.54-29.35-57.18-28.43h-.17a78.07,78.07,0,0,0-38.33,8.82C80.23,227.62,73.34,235,72.12,241.68a16.41,16.41,0,0,0-.12,5.18l.28,2Z" transform="translate(-54.87 -208.17)"/><path class="cls-3" d="M129,396.06c-6.81-3-31.73-14.75-47-31-17.33-18.47-19.75-33.76-19.93-45-.16-9.86.18-53.16.28-65.44L129,231.33l66.62,23.28c.1,12.28.44,55.58.28,65.44-.17,11.25-2.6,26.54-19.93,45C160.7,381.31,135.77,393.05,129,396.06Z" transform="translate(-54.87 -208.17)"/><path class="cls-1" d="M129,236.23l62,21.67c.12,15.31.4,53,.26,62.07-.17,10.43-2.44,24.61-18.68,41.93C159.05,376.3,137.39,387.11,129,391c-8.44-3.88-30.09-14.69-43.6-29.09C69.12,344.58,66.85,330.4,66.68,320c-.14-9.07.14-46.76.26-62.07l62-21.67m0-9.8L57.74,251.31s-.49,57.17-.31,68.81S60,348.38,78.62,368.23,129,401.1,129,401.1s31.73-13,50.34-32.87,21-36.47,21.19-48.11-.31-68.81-.31-68.81L129,226.43Z" transform="translate(-54.87 -208.17)"/><path class="cls-1" d="M191.43,323.1,186.64,320l-1.13-2.44s-14.64-5.23-19.86-12.19l.6-3.8s1.29-.27,3.5-.7L182.12,282l-5.64-14.6-3,.22,1.66-3.05s16.34-7.89,13.55-23.29S158.3,209.78,129,210.73c-29.33-.95-56.52,15.09-59.32,30.5s13.55,23.29,13.55,23.29l1.66,3.05-3-.22L76.24,282l12.36,18.9c2.22.43,3.51.7,3.51.7l.6,3.8c-5.22,7-19.86,12.19-19.86,12.19L71.72,320l-4.8,3.12-2.48,13.41S76.9,362.94,77.27,363.6,129,395.18,129,395.18s51.69-30.92,52.06-31.58,12.84-27.09,12.84-27.09Z" transform="translate(-54.87 -208.17)"/><path class="cls-2" d="M90.62,369.45a162.83,162.83,0,0,0-10.9-30.28s7.73-8,10.51-16.06l-.86-3.57L78,324.36s-3,3.23-3,13.84c0,0-3-6.34-2.75-10.57L67.12,331s1.28,8.92,5.41,15l2.76-2.65Z" transform="translate(-54.87 -208.17)"/><path class="cls-4" d="M163.42,291.55a16.26,16.26,0,0,0-4.81-3.28l-11.15,6.16a28.8,28.8,0,0,0-9.94-5l.94,6.56s-5.52-4.79-7.61-11.19H129v0h-2c-2.09,6.4-7.61,11.19-7.61,11.19l.94-6.56a28.8,28.8,0,0,0-9.94,5L99.28,288.3a16.26,16.26,0,0,0-4.81,3.28,14.29,14.29,0,0,1,5.9,8.49l-3.62,3.25,4.07,8.55a38.25,38.25,0,0,1,14.08-12c-8.8,15.66-2.38,23.84-2.38,23.84l8,10.51c3-2.18,8.46-2,8.46-2v0s5.31-.18,8.31,2l8-10.51s6.42-8.18-2.38-23.84a38.25,38.25,0,0,1,14.08,12l4.07-8.55L157.52,300A14.29,14.29,0,0,1,163.42,291.55ZM129,305.82v0s4.92-2.79,9.44-1.11c0,0-.58,1.16-4.16,2.83a31.21,31.21,0,0,0-5.28,3v0a39.06,39.06,0,0,0-5.43-3c-3.58-1.67-4.16-2.83-4.16-2.83C124,303,129,305.82,129,305.82Zm5.45,20.25a17.56,17.56,0,0,0-5.45-1.58v0a19.14,19.14,0,0,0-5.6,1.58l-1.86-3.91c2.33-2.62,7.46-2.07,7.46-2.07v0s5-.55,7.31,2.07Zm4.94-8.52s-7-1.73-10.39-1.16v0c-3.35-.57-10.54,1.16-10.54,1.16l-3.57-.87c2.79-4.61,10.32-6.2,10.32-6.2l3.79,1.43v0l3.64-1.43s7.53,1.59,10.33,6.2Z" transform="translate(-54.87 -208.17)"/><path class="cls-4" d="M137.83,352.4a32.3,32.3,0,0,1,.74-13l-10.13.57-9.12-.54a32.3,32.3,0,0,1,.74,13.05c-11.45-25.67-25.89-39.12-25.89-39.12a52.09,52.09,0,0,0,24.58,40.81l10.27,6v0l10.12-6a52.09,52.09,0,0,0,24.58-40.81S149.28,326.73,137.83,352.4Z" transform="translate(-54.87 -208.17)"/><path class="cls-2" d="M167.28,369.42a162.32,162.32,0,0,1,10.89-30.28s-7.73-8-10.5-16.06l.85-3.57L180,324.33s3,3.23,3,13.84c0,0,3-6.34,2.75-10.57l5.11,3.36s-1.27,8.92-5.41,15l-2.76-2.65Z" transform="translate(-54.87 -208.17)"/><path class="cls-2" d="M129,360.1v0s-7.68,2.77-11.94,12.25c0,0,4.21-.55,6.39,5l5.55.1v0l5.4-.09c2.18-5.51,6.4-5,6.4-5C136.55,362.87,129,360.1,129,360.1Z" transform="translate(-54.87 -208.17)"/><path class="cls-2" d="M134.86,383s-1.39-1.55-6.35-1.07c-4.62-.37-5.48,1.1-5.48,1.1l-2.7,6.81,8.69,5.32v0l8.55-5.32Z" transform="translate(-54.87 -208.17)"/><path class="cls-2" d="M167.91,267.59c-2.15,9.1-38.95-1.7-38.95-1.7v0s-36.83,10.8-39,1.7c0,0-.75,6.15,11,6.15s28-3,28-3v0s16.26,3,28,3S167.91,267.59,167.91,267.59Z" transform="translate(-54.87 -208.17)"/><path class="cls-2" d="M183.88,244.53c-1-10-11.4-19.09-25.59-24a93.91,93.91,0,0,0-29.33-5v0a94.09,94.09,0,0,0-29.36,5c-14.19,4.89-24.6,13.94-25.59,24s10.32,16.17,10.32,16.17l-1.14,3.79,1.66,3.05,2.38,3.48L83.94,253.9l-8.68-5.64,12.89,3.67,2.34,8c7.3-4.56,20.22-4.12,20.22-4.12l-1.56-17.14L129,228.27v0l19.78,10.44-1.55,17.14s12.91-.44,20.21,4.12l2.34-8,12.9-3.67L174,253.87,170.66,271l2.38-3.48,1.66-3.05-1.13-3.79S184.87,254.56,183.88,244.53Z" transform="translate(-54.87 -208.17)"/><polygon class="cls-2" points="77.66 32.2 74.09 24.45 74.09 24.48 70.5 32.23 61.97 33.48 68.02 40.27 66.04 48.07 74.09 44.23 74.09 44.2 82.12 48.04 80.14 40.24 86.19 33.45 77.66 32.2"/></svg>