<svg id="Layer_1" data-name="Layer 1" xmlns="http://www.w3.org/2000/svg" viewBox="0 0 747.53 185.6"><defs><style>.cls-1{fill:#842c26;}.cls-2{fill:#faaf3a;}.cls-3{fill:#402211;}.cls-4{fill:#f2f2f2;}.cls-5{fill:#f69220;}.cls-6{fill:#e6e6e5;}</style></defs><path class="cls-1" d="M197.56,305.17V287.24h9V245.52h-9V227.58h53.23c11.16,0,15.92,6,15.92,20.09,0,9.53-.89,15-5.49,17.7,5.17,2.68,6.35,9.37,6.35,18.86,0,14.88-4.61,20.94-15.92,20.94Zm46.61-18.36h.13c.41-.93.41-5.12.41-6.54s0-5.6-.41-6.53H229.4v13.07Zm-.86-29.51h.16c.26-.56.39-2.47.39-5.68s-.13-5.11-.39-5.67H229.4V257.3Z" transform="translate(-19.59 -166.96)"/><path class="cls-2" d="M250.79,229c9.84,0,14.54,4.7,14.54,18.71,0,12-1.49,16.46-8.66,17.85,7.7.75,9.52,7,9.52,18.71,0,14.86-4.7,19.56-14.54,19.56H198.94V288.61h9V244.14h-9V229h51.85M228,258.68h15.29c1.5,0,1.92-.64,1.92-7.06s-.42-7.05-1.92-7.05H228v14.11m0,29.51h16.15c1.49,0,1.92-.65,1.92-7.92s-.43-7.91-1.92-7.91H228v15.83m22.77-62h-54.6v20.7h9v39h-9v20.69h55.46c6.11,0,10.28-1.67,13.12-5.25s4.18-9,4.18-17.07c0-7.31-.52-15-5.36-18.94,4.08-3.68,4.5-10.05,4.5-17.62,0-14.85-5.33-21.47-17.3-21.47Zm-20,21.12h11.56c.08.76.14,2.06.14,4.3s-.06,3.55-.14,4.3H230.78v-8.6Zm0,27.8h12.39c.09.85.16,2.39.16,5.15s-.07,4.31-.16,5.16H230.78V275.12Z" transform="translate(-19.59 -166.96)"/><path class="cls-1" d="M292.91,305.17c-10.11,0-15.91-5.8-15.91-15.91V245.52h-9V227.58h38.26v17.94h-6.42v39a.41.41,0,0,0,.55.55h14.54a.41.41,0,0,0,.54-.55v-39h-6.41V227.58h38.25v17.94h-9v43.74c0,10.11-5.8,15.91-15.92,15.91Z" transform="translate(-19.59 -166.96)"/><path class="cls-2" d="M345.94,229v15.18h-9v45.12c0,9.4-5.13,14.53-14.54,14.53H292.91c-9.4,0-14.54-5.13-14.54-14.53V244.14h-9V229h35.5v15.18h-6.42v40.41a1.71,1.71,0,0,0,1.93,1.93h14.54a1.7,1.7,0,0,0,1.92-1.93V244.14h-6.41V229h35.49m2.76-2.76h-41v20.7h6.42v36.82H301.23V246.9h6.41V226.2h-41v20.7h9v42.36c0,11,6.3,17.29,17.29,17.29h29.51c11,0,17.3-6.3,17.3-17.29V246.9h9V226.2Z" transform="translate(-19.59 -166.96)"/><polygon class="cls-1" points="332.23 138.22 332.23 120.28 341.21 120.28 341.21 78.56 332.23 78.56 332.23 60.62 373.69 60.62 373.69 78.56 364.07 78.56 364.07 119.1 377.89 119.1 377.89 106.06 396.68 106.06 396.68 138.22 332.23 138.22"/><path class="cls-2" d="M391.91,229v15.18h-9.62v43.3h16.57V274.39h16v29.4H353.21V288.61h9V244.14h-9V229h38.7m2.75-2.76H350.45v20.7h9v39h-9v20.69h67.2V271.64H396.1v13H385V246.9h9.62V226.2Z" transform="translate(-19.59 -166.96)"/><polygon class="cls-1" points="401.4 138.22 401.4 120.28 410.38 120.28 410.38 78.56 401.4 78.56 401.4 60.62 442.86 60.62 442.86 78.56 433.24 78.56 433.24 119.1 447.05 119.1 447.05 106.06 465.85 106.06 465.85 138.22 401.4 138.22"/><path class="cls-2" d="M461.08,229v15.18h-9.62v43.3H468V274.39h16v29.4H422.38V288.61h9V244.14h-9V229h38.7m2.75-2.76H419.62v20.7h9v39h-9v20.69h67.2V271.64H465.27v13H454.21V246.9h9.62V226.2Z" transform="translate(-19.59 -166.96)"/><path class="cls-1" d="M490.17,305.17V287.24h9V245.52h-9V227.58H545c10.56,0,15.92,5.35,15.92,15.92v45.76c0,10.56-5.36,15.91-15.92,15.91Zm47.35-19.43a4.09,4.09,0,0,0,.51,0,2.94,2.94,0,0,0,0-.52V247.56a2.73,2.73,0,0,0,0-.51,2.47,2.47,0,0,0-.51,0H522v38.73Z" transform="translate(-19.59 -166.96)"/><path class="cls-2" d="M545,229c9.84,0,14.54,4.7,14.54,14.54v45.76c0,9.83-4.7,14.53-14.54,14.53H491.54V288.61h9V244.14h-9V229H545m-24.38,58.16h16.9c1.49,0,1.92-.43,1.92-1.93V247.56c0-1.5-.43-1.92-1.92-1.92h-16.9v41.48M545,226.2H488.79v20.7h9v39h-9v20.69H545c11.31,0,17.3-6,17.3-17.29V243.5c0-11.32-6-17.3-17.3-17.3Zm-21.62,22.19h13.3v36h-13.3v-36Z" transform="translate(-19.59 -166.96)"/><path class="cls-1" d="M582.2,305.17c-10.56,0-15.92-5.35-15.92-15.91V243.5c0-10.57,5.36-15.92,15.92-15.92h32.18c10.56,0,15.92,5.35,15.92,15.92v45.76c0,10.56-5.36,15.91-15.92,15.91Zm7-19.46a4.09,4.09,0,0,0,.51,0H606.9a4.09,4.09,0,0,0,.51,0,2.94,2.94,0,0,0,0-.52V247.56a2.73,2.73,0,0,0,0-.51,2.47,2.47,0,0,0-.51,0H589.68a2.47,2.47,0,0,0-.51,0,2.73,2.73,0,0,0,0,.51v37.63A2.94,2.94,0,0,0,589.17,285.71Z" transform="translate(-19.59 -166.96)"/><path class="cls-2" d="M614.38,229c9.84,0,14.54,4.7,14.54,14.54v45.76c0,9.83-4.7,14.53-14.54,14.53H582.2c-9.84,0-14.54-4.7-14.54-14.53V243.5c0-9.84,4.7-14.54,14.54-14.54h32.18m-24.7,58.16H606.9c1.49,0,1.92-.43,1.92-1.93V247.56c0-1.5-.43-1.92-1.92-1.92H589.68c-1.49,0-1.92.42-1.92,1.92v37.63c0,1.5.43,1.93,1.92,1.93m24.7-60.92H582.2c-11.31,0-17.3,6-17.3,17.3v45.76c0,11.31,6,17.29,17.3,17.29h32.18c11.32,0,17.3-6,17.3-17.29V243.5c0-11.32-6-17.3-17.3-17.3Zm-23.86,22.19h15.55v36H590.52v-36Z" transform="translate(-19.59 -166.96)"/><path class="cls-1" d="M651.58,305.17c-10.56,0-15.92-5.35-15.92-15.91V243.5c0-10.57,5.36-15.92,15.92-15.92H683c10.56,0,15.91,5.35,15.91,15.92V255H676.29v-7.68a4.47,4.47,0,0,0,0-.52,4.41,4.41,0,0,0-.51,0H659.07a4.47,4.47,0,0,0-.52,0,4.47,4.47,0,0,0,0,.52v38.06a4.09,4.09,0,0,0,0,.51,2.94,2.94,0,0,0,.52,0h16.68a2.89,2.89,0,0,0,.51,0,4.09,4.09,0,0,0,0-.51v-8h-12V258.8h34.61v30.46c0,10.56-5.35,15.91-15.91,15.91Z" transform="translate(-19.59 -166.96)"/><path class="cls-2" d="M683,229c9.84,0,14.54,4.7,14.54,14.54v10.15H677.67v-6.3c0-1.5-.43-1.93-1.93-1.93H659.07c-1.5,0-1.93.43-1.93,1.93v38.06c0,1.49.43,1.92,1.93,1.92h16.67c1.5,0,1.93-.43,1.93-1.92V276h-12V260.18h31.86v29.08c0,9.83-4.7,14.53-14.54,14.53H651.58c-9.83,0-14.54-4.7-14.54-14.53V243.5c0-9.84,4.71-14.54,14.54-14.54H683m0-2.76H651.58c-11.31,0-17.29,6-17.29,17.3v45.76c0,11.31,6,17.29,17.29,17.29H683c11.32,0,17.3-6,17.3-17.29V257.42H662.94v21.33h12v5.82h-15V248.18h15v8.23h25.4V243.5c0-11.32-6-17.3-17.3-17.3Z" transform="translate(-19.59 -166.96)"/><path class="cls-1" d="M719.57,305.17c-10.56,0-15.91-5.35-15.91-15.91V277.61h22.85v8.22a4.47,4.47,0,0,0,0,.52,4.47,4.47,0,0,0,.52,0h15.28a4.15,4.15,0,0,0,.52,0,2.94,2.94,0,0,0,0-.52v-6.52a1,1,0,0,0,0-.2,5.15,5.15,0,0,0-1.19-.39l-21.39-5.45c-10.19-2.6-16.43-4.8-16.43-16.73v-13c0-10.57,5.35-15.92,15.92-15.92h29c10.56,0,15.92,5.35,15.92,15.92v10.89H741.82v-7.47a2.94,2.94,0,0,0,0-.52,4.09,4.09,0,0,0-.51,0h-14a4.09,4.09,0,0,0-.51,0,2.68,2.68,0,0,0,0,.52v5.77a1.52,1.52,0,0,0,0,.28,6.09,6.09,0,0,0,1.22.43l21.35,5.33c10.19,2.6,16.44,4.8,16.44,16.73v13.8c0,10.56-5.36,15.91-15.92,15.91Z" transform="translate(-19.59 -166.96)"/><path class="cls-2" d="M748.76,229c9.84,0,14.54,4.7,14.54,14.54V253H743.2v-6.09c0-1.5-.43-1.93-1.92-1.93h-14c-1.5,0-1.92.43-1.92,1.93v5.77c0,1.18.32,1.5,2.24,2L749,260.07c10.48,2.67,15.4,4.7,15.4,15.39v13.8c0,9.83-4.7,14.53-14.54,14.53H719.57c-9.83,0-14.54-4.7-14.54-14.53V279h20.1v6.84c0,1.5.43,1.93,1.93,1.93h15.29c1.49,0,1.92-.43,1.92-1.93v-6.52c0-1.17-.53-1.49-2.25-1.92l-21.38-5.45c-10.48-2.68-15.39-4.71-15.39-15.4v-13c0-9.84,4.7-14.54,14.54-14.54h29m0-2.76h-29c-11.32,0-17.3,6-17.3,17.3v13c0,12.69,6.6,15.29,17.47,18.07l6.39,1.63H702.28v13c0,11.31,6,17.29,17.29,17.29h30.26c11.31,0,17.3-6,17.3-17.29v-13.8c0-12.69-6.6-15.29-17.47-18.06l-6.52-1.63h22.92V243.5c0-11.32-6-17.3-17.3-17.3ZM728.1,247.75h12.34v7.35l-12.14-3-.2-.06v-4.25ZM727.89,285v-8.37l13.45,3.43.17,0V285Z" transform="translate(-19.59 -166.96)"/><path class="cls-2" d="M211.39,197.13c0-.46-.13-.6-.59-.6h-4.35c-.46,0-.59.14-.59.6v1.79c0,.37.1.47.69.63l6.63,1.66c3.25.83,4.78,1.46,4.78,4.77v4.28c0,3.05-1.46,4.5-4.51,4.5h-9.38c-3,0-4.51-1.45-4.51-4.5v-3.18h6.23v2.12c0,.46.13.59.6.59h4.74c.46,0,.59-.13.59-.59v-2c0-.36-.16-.46-.69-.59l-6.63-1.69c-3.25-.83-4.77-1.46-4.77-4.78v-4c0-3,1.45-4.51,4.5-4.51h9c3,0,4.5,1.46,4.5,4.51v3h-6.23Z" transform="translate(-19.59 -166.96)"/><path class="cls-1" d="M213.45,215.45h-9.38c-3.45,0-5.2-1.74-5.2-5.19v-3.87h7.61v2.71H211v-1.81l-.17,0-6.63-1.7c-3.29-.84-5.29-1.62-5.29-5.44v-4c0-3.45,1.75-5.2,5.19-5.2h9c3.44,0,5.19,1.75,5.19,5.2v3.64H210.7v-2.49h-4.15v1.61l.19.06,6.61,1.65c3.3.84,5.29,1.63,5.29,5.44v4.28C218.64,213.71,216.9,215.45,213.45,215.45Zm-13.2-7.69v2.5c0,2.67,1.14,3.82,3.82,3.82h9.38c2.67,0,3.82-1.15,3.82-3.82V206c0-2.78-1-3.28-4.26-4.1l-6.62-1.66c-.5-.14-1.22-.34-1.22-1.3v-1.79a1.14,1.14,0,0,1,1.28-1.28h4.35a1.14,1.14,0,0,1,1.28,1.28v1.2h4.85v-2.26c0-2.68-1.14-3.82-3.81-3.82h-9c-2.67,0-3.81,1.14-3.81,3.82v4c0,2.79,1,3.29,4.25,4.11l6.63,1.69c.42.11,1.21.3,1.21,1.26v2a1.14,1.14,0,0,1-1.28,1.28h-4.74a1.15,1.15,0,0,1-1.29-1.28v-1.44Z" transform="translate(-19.59 -166.96)"/><path class="cls-2" d="M241.29,214.76c-3,0-4.51-1.45-4.51-4.5V196.07c0-3,1.46-4.51,4.51-4.51h10c3,0,4.51,1.46,4.51,4.51v14.19c0,3.05-1.46,4.5-4.51,4.5ZM243,209c0,.46.13.59.59.59H249c.46,0,.59-.13.59-.59V197.33c0-.46-.13-.6-.59-.6h-5.34c-.46,0-.59.14-.59.6Z" transform="translate(-19.59 -166.96)"/><path class="cls-1" d="M251.27,215.45h-10c-3.45,0-5.2-1.74-5.2-5.19V196.07c0-3.45,1.75-5.2,5.2-5.2h10c3.45,0,5.2,1.75,5.2,5.2v14.19C256.47,213.71,254.72,215.45,251.27,215.45Zm-10-23.2c-2.67,0-3.82,1.14-3.82,3.82v14.19c0,2.67,1.15,3.82,3.82,3.82h10c2.68,0,3.82-1.15,3.82-3.82V196.07c0-2.68-1.14-3.82-3.82-3.82Zm7.66,18h-5.34a1.14,1.14,0,0,1-1.28-1.28V197.33a1.15,1.15,0,0,1,1.28-1.29H249a1.15,1.15,0,0,1,1.28,1.29V209A1.14,1.14,0,0,1,249,210.28Zm-5.25-1.37h5.16V197.42H243.7Z" transform="translate(-19.59 -166.96)"/><path class="cls-2" d="M294.56,196.27v14c0,2.91-1.59,4.5-4.51,4.5H280.9c-2.91,0-4.5-1.59-4.5-4.5v-14h-2.79v-4.71h11v4.71h-2V208.8a.52.52,0,0,0,.59.59h4.51a.52.52,0,0,0,.6-.59V196.27h-2v-4.71h11v4.71Z" transform="translate(-19.59 -166.96)"/><path class="cls-1" d="M290.05,215.45H280.9c-3.3,0-5.19-1.89-5.19-5.19V197h-2.79v-6.09H285.3V197h-2V208.7h4.32V197h-2v-6.09H298V197h-2.78v13.3C295.25,213.56,293.35,215.45,290.05,215.45ZM274.3,195.58h2.78v14.68c0,2.53,1.29,3.82,3.82,3.82h9.15c2.54,0,3.82-1.29,3.82-3.82V195.58h2.78v-3.33H287v3.33h2V208.8a1.2,1.2,0,0,1-1.29,1.28h-4.51a1.2,1.2,0,0,1-1.28-1.28V195.58h2v-3.33H274.3Z" transform="translate(-19.59 -166.96)"/><path class="cls-2" d="M331.22,196.47h-2.68v13.59h3v4.7h-12.2v-4.7h3V196.47h-2.68v3.91h-5v-8.82h21.54v8.82h-5Z" transform="translate(-19.59 -166.96)"/><path class="cls-1" d="M332.21,215.45H318.63v-6.08h3V197.16h-1.3v3.91H314v-10.2h22.92v10.2h-6.35v-3.91h-1.31v12.21h3ZM320,214.08h10.82v-3.33h-3v-15h4.06v3.91h3.59v-7.44H315.34v7.44h3.59v-3.91H323v15h-3Z" transform="translate(-19.59 -166.96)"/><path class="cls-2" d="M375.67,210.06h2.78v4.7H367.32v-4.7h2.12v-4.64h-6.8v4.64h2.12v4.7H353.63v-4.7h2.78V196.27h-2.78v-4.71h11.13v4.71h-2.12v4.11h6.8v-4.11h-2.12v-4.71h11.13v4.71h-2.78Z" transform="translate(-19.59 -166.96)"/><path class="cls-1" d="M379.14,215.45H366.63v-6.08h2.12v-3.26h-5.42v3.26h2.12v6.08H352.94v-6.08h2.78V197h-2.78v-6.09h12.51V197h-2.12v2.73h5.42V197h-2.12v-6.09h12.51V197h-2.78v12.41h2.78ZM368,214.08h9.75v-3.33H375V195.58h2.78v-3.33H368v3.33h2.12v5.49H362v-5.49h2.13v-3.33h-9.76v3.33h2.78v15.17h-2.78v3.33h9.76v-3.33H362v-6h8.18v6H368Z" transform="translate(-19.59 -166.96)"/><path class="cls-2" d="M420.09,214.76v-4.7h2.78V196.27h-2.78v-4.71h12v4.71h-3v13.42h5.14v-4h5v9.11Z" transform="translate(-19.59 -166.96)"/><path class="cls-1" d="M439.9,215.45H419.4v-6.08h2.78V197H419.4v-6.09h13.38V197h-3v12h3.76v-4h6.35Zm-19.12-1.37h17.74v-7.74h-3.59v4h-6.52v-14.8h3v-3.33H420.78v3.33h2.78v15.17h-2.78Z" transform="translate(-19.59 -166.96)"/><path class="cls-2" d="M481.84,214.76H471v-4.7h1.89l-.72-2.45h-6.57l-.73,2.45h1.89v4.7H456.25v-4.7h2.55l4.55-13.79h-2.69v-4.71h12.46l6.17,18.5h2.55ZM468.91,196.3l-2.08,7.13H471Z" transform="translate(-19.59 -166.96)"/><path class="cls-1" d="M482.53,215.45H470.35v-6.08H472l-.32-1.08h-5.53l-.32,1.08h1.65v6.08H455.56v-6.08h2.75L462.39,197H460v-6.09h13.65l6.16,18.5h2.75Zm-10.81-1.37h9.43v-3.33h-2.36l-6.16-18.5H461.35v3.33h2.95l-5,15.17h-2.36v3.33h9.16v-3.33H464l1.14-3.83h7.59l1.14,3.83h-2.13Zm.16-10h-6l3-10.29Zm-4.13-1.38h2.3l-1.14-4Z" transform="translate(-19.59 -166.96)"/><path class="cls-2" d="M521.88,196.27v18.49h-6.13l-8.32-14.94v10.24h2.65v4.7H499v-4.7h2.78V196.27H499v-4.71h9.91l7.32,13.66v-8.95h-2.65v-4.71h11.14v4.71Z" transform="translate(-19.59 -166.96)"/><path class="cls-1" d="M522.57,215.45h-7.22l-7.23-13v6.9h2.65v6.08H498.26v-6.08H501V197h-2.78v-6.09h11l6.22,11.61V197h-2.65v-6.09h12.52V197h-2.79Zm-6.41-1.37h5v-18.5H524v-3.33h-9.76v3.33h2.65V208l-8.43-15.71h-8.8v3.33h2.78v15.17h-2.78v3.33h9.75v-3.33h-2.65V197.16Z" transform="translate(-19.59 -166.96)"/><path class="cls-2" d="M547,214.76c-3,0-4.51-1.45-4.51-4.5V196.07c0-3,1.53-4.51,4.58-4.51h9.28c3,0,4.44,1.46,4.44,4.51v4.34h-6.23v-3.08c0-.46-.14-.6-.6-.6h-4.64c-.46,0-.6.14-.6.6V209c0,.46.14.59.6.59H554c.46,0,.6-.13.6-.59v-3.09h6.23v4.35c0,3.05-1.46,4.5-4.51,4.5Z" transform="translate(-19.59 -166.96)"/><path class="cls-1" d="M556.29,215.45H547c-3.45,0-5.2-1.74-5.2-5.19V196.07c0-3.4,1.82-5.2,5.27-5.2h9.28c3.4,0,5.13,1.75,5.13,5.2v5h-7.61v-3.68h-4.46v11.49h4.46v-3.68h7.61v5C561.49,213.71,559.74,215.45,556.29,215.45Zm-9.21-23.2c-2.69,0-3.89,1.18-3.89,3.82v14.19c0,2.67,1.14,3.82,3.82,3.82h9.28c2.68,0,3.82-1.15,3.82-3.82V206.6h-4.85V209a1.15,1.15,0,0,1-1.29,1.28h-4.64A1.15,1.15,0,0,1,548,209V197.33a1.16,1.16,0,0,1,1.29-1.29H554a1.16,1.16,0,0,1,1.29,1.29v2.39h4.85v-3.65c0-2.68-1.12-3.82-3.75-3.82Z" transform="translate(-19.59 -166.96)"/><path class="cls-2" d="M603.49,214.76h-10.8v-4.7h1.89l-.73-2.45h-6.57l-.73,2.45h1.89v4.7H577.9v-4.7h2.56L585,196.27h-2.69v-4.71h12.46l6.17,18.5h2.55ZM590.56,196.3l-2.08,7.13h4.14Z" transform="translate(-19.59 -166.96)"/><path class="cls-1" d="M604.18,215.45H592v-6.08h1.65l-.32-1.08H587.8l-.32,1.08h1.65v6.08H577.21v-6.08H580L584,197h-2.42v-6.09h13.65l6.17,18.5h2.74Zm-10.8-1.37h9.42v-3.33h-2.36l-6.16-18.5H583v3.33h3l-5,15.17h-2.36v3.33h9.16v-3.33h-2.12l1.14-3.83h7.59l1.14,3.83h-2.12Zm.16-10h-6l3-10.29Zm-4.14-1.38h2.3l-1.14-4Z" transform="translate(-19.59 -166.96)"/><path class="cls-2" d="M632.5,197.13c0-.46-.14-.6-.6-.6h-4.34c-.47,0-.6.14-.6.6v1.79c0,.37.1.47.7.63l6.63,1.66c3.24.83,4.77,1.46,4.77,4.77v4.28c0,3.05-1.46,4.5-4.51,4.5h-9.38c-3,0-4.51-1.45-4.51-4.5v-3.18h6.24v2.12c0,.46.13.59.59.59h4.74c.47,0,.6-.13.6-.59v-2c0-.36-.17-.46-.7-.59l-6.63-1.69c-3.25-.83-4.77-1.46-4.77-4.78v-4c0-3,1.46-4.51,4.51-4.51h9c3,0,4.51,1.46,4.51,4.51v3H632.5Z" transform="translate(-19.59 -166.96)"/><path class="cls-1" d="M634.55,215.45h-9.38c-3.45,0-5.2-1.74-5.2-5.19v-3.87h7.61v2.71h4.56v-1.81l-.17,0-6.64-1.7c-3.29-.84-5.29-1.62-5.29-5.44v-4c0-3.45,1.75-5.2,5.2-5.2h9c3.45,0,5.2,1.75,5.2,5.2v3.64h-7.61v-2.49h-4.16v1.61l.19.06,6.61,1.65c3.3.84,5.3,1.63,5.3,5.44v4.28C639.75,213.71,638,215.45,634.55,215.45Zm-13.2-7.69v2.5c0,2.67,1.14,3.82,3.82,3.82h9.38c2.68,0,3.82-1.15,3.82-3.82V206c0-2.78-1-3.28-4.25-4.1l-6.63-1.66c-.5-.14-1.22-.34-1.22-1.3v-1.79a1.15,1.15,0,0,1,1.29-1.28h4.34a1.15,1.15,0,0,1,1.29,1.28v1.2H638v-2.26c0-2.68-1.14-3.82-3.82-3.82h-9c-2.68,0-3.82,1.14-3.82,3.82v4c0,2.79,1,3.29,4.25,4.11l6.63,1.69c.43.11,1.22.3,1.22,1.26v2a1.15,1.15,0,0,1-1.29,1.28h-4.74a1.14,1.14,0,0,1-1.28-1.28v-1.44Z" transform="translate(-19.59 -166.96)"/><path class="cls-2" d="M673.27,196.47h-2.69v13.59h3v4.7h-12.2v-4.7h3V196.47h-2.68v3.91h-5v-8.82h21.55v8.82h-5Z" transform="translate(-19.59 -166.96)"/><path class="cls-1" d="M674.26,215.45H660.68v-6.08h3V197.16h-1.3v3.91H656v-10.2h22.92v10.2h-6.35v-3.91h-1.31v12.21h3Zm-12.2-1.37h10.82v-3.33h-3v-15H674v3.91h3.59v-7.44H657.38v7.44H661v-3.91H665v15h-3Z" transform="translate(-19.59 -166.96)"/><path class="cls-2" d="M710.26,196.6h-5.44v3.91h7.66v4.91h-7.66v4.31h5.44v-2.46h5v7.49H695.81v-4.7h2.78V196.27h-2.78v-4.71h19.42v7.49h-5Z" transform="translate(-19.59 -166.96)"/><path class="cls-1" d="M715.92,215.45h-20.8v-6.08h2.78V197h-2.78v-6.09h20.8v8.87h-6.35v-2.45h-4.06v2.53h7.66v6.29h-7.66V209h4.06v-2.46h6.35Zm-19.42-1.37h18V208H711v2.46h-6.82v-5.69h7.66V201.2h-7.66v-5.29H711v2.45h3.59v-6.11h-18v3.33h2.78v15.17H696.5Z" transform="translate(-19.59 -166.96)"/><path class="cls-2" d="M755.84,214.76h-6.9l-3.88-8.71h-2.58v4h2.19v4.7H733.46v-4.7h2.79V196.27h-2.79v-4.71h16.38c3,0,4.5,1.46,4.5,4.51v4.67c0,2.66-1.09,4.11-3.38,4.45l2.19,4.87h2.69Zm-8.32-13.42c.46,0,.59-.13.59-.6v-3.61c0-.46-.13-.6-.59-.6h-5v4.81Z" transform="translate(-19.59 -166.96)"/><path class="cls-1" d="M756.53,215.45h-8l-3.87-8.71h-1.45v2.63h2.19v6.08H732.77v-6.08h2.79V197h-2.79v-6.09h17.07c3.45,0,5.19,1.75,5.19,5.2v4.67c0,2.67-1,4.32-3.09,4.94l1.66,3.69h2.93Zm-7.14-1.37h5.76v-3.33h-2.44L750,204.63l.9-.13c1.93-.28,2.8-1.44,2.8-3.76v-4.67c0-2.68-1.15-3.82-3.82-3.82H734.15v3.33h2.79v15.17h-2.79v3.33H744v-3.33h-2.19v-5.39h3.72ZM747.52,202h-5.73v-6.18h5.73a1.14,1.14,0,0,1,1.28,1.28v3.61A1.15,1.15,0,0,1,747.52,202Zm-4.35-1.38h4.25v-3.43h-4.25Zm4.47,0Z" transform="translate(-19.59 -166.96)"/><path class="cls-3" d="M191.33,263.18l-9-9.15-5.12-5.18a24.46,24.46,0,0,0-2.43-8.53l-.87-11.08a49.86,49.86,0,0,0-3.77-14.65,28,28,0,0,0,7.47,1c1,0,2.09-.05,3.14-.14l8.95-.83-6.24-6.47-6.92-7.17c2.08-4.51,3.12-11.41.58-21.83l-.68-2.79-2.82-.45-20.93-3.38-9.3-1.5a37,37,0,0,0-16.72-4,41.74,41.74,0,0,0-18.94,4.83A41.71,41.71,0,0,0,88.75,167,37.07,37.07,0,0,0,72,171l-9.29,1.5-20.93,3.38-2.83.45-.68,2.79c-2.54,10.42-1.5,17.32.58,21.83L32,208.11l-6.24,6.46,8.94.84c1.06.09,2.11.14,3.14.14a28.16,28.16,0,0,0,7.48-1,50.05,50.05,0,0,0-3.78,14.65l-.86,11.08a24.47,24.47,0,0,0-2.44,8.53L33.09,254l-9,9.15-4.46,4.51,5.84,2.5,12.14,5.18,5.4,2.31c.89,3.7,1.83,9.16,1,12.6L43.55,292l1,1.54c.91,1.46,1.9,2.9,2.94,4.31L43.2,326.43l28-7.54a100.88,100.88,0,0,0,20.14,9L103.85,347l3.61,5.52,3.61-5.52,12.43-19a101.25,101.25,0,0,0,21.18-9.43l27.84,7.51-4.29-28.65c.93-1.28,1.81-2.59,2.64-3.9l1-1.54-.42-1.76c-.82-3.44.11-8.9,1-12.6l5.41-2.31L190,270.19l5.83-2.5Z" transform="translate(-19.59 -166.96)"/><path class="cls-1" d="M138.93,211.88A7.09,7.09,0,1,1,146,204.8,7.09,7.09,0,0,1,138.93,211.88Zm0-10.81a3.73,3.73,0,1,0,3.73,3.73A3.74,3.74,0,0,0,138.93,201.07Z" transform="translate(-19.59 -166.96)"/><path class="cls-4" d="M176.12,271.4a48.08,48.08,0,0,0,3.1-14.34l9,9.16Z" transform="translate(-19.59 -166.96)"/><path class="cls-5" d="M76.45,211.88a7.09,7.09,0,1,1,7.09-7.08A7.09,7.09,0,0,1,76.45,211.88Zm0-10.81a3.73,3.73,0,1,0,3.73,3.73A3.73,3.73,0,0,0,76.45,201.07Z" transform="translate(-19.59 -166.96)"/><path class="cls-4" d="M39.26,271.4a48.43,48.43,0,0,1-3.1-14.34l-9,9.16Z" transform="translate(-19.59 -166.96)"/><path class="cls-2" d="M27.12,266.22l10-1.94a54.09,54.09,0,0,0,2.13,7.12Z" transform="translate(-19.59 -166.96)"/><path class="cls-2" d="M188.26,266.22l-10-2a58.59,58.59,0,0,1-2.15,7.17Z" transform="translate(-19.59 -166.96)"/><path class="cls-1" d="M167.21,291.28,152.08,279.4s-9,17.53-44.39,20.49c-35.35-3-44.38-20.49-44.38-20.49L48.17,291.28c18.77,29.87,55.65,35.54,59.37,36v0l.15,0,.16,0v0C111.57,326.82,148.44,321.15,167.21,291.28Z" transform="translate(-19.59 -166.96)"/><polygon class="cls-6" points="28.84 153.61 32.39 129.86 51.88 127.75 28.84 153.61"/><polygon class="cls-6" points="72.01 157.41 87.87 139.87 103.73 157.41 87.87 181.66 72.01 157.41"/><path class="cls-3" d="M107.46,310l13.15,14.54-13.15,20.09L94.32,324.58,107.46,310m0-6.44-3.2,3.54L91.12,321.69l-2.24,2.47L90.71,327,103.85,347l3.61,5.52,3.61-5.52L124.22,327l1.82-2.79-2.23-2.47-13.15-14.55-3.2-3.54Z" transform="translate(-19.59 -166.96)"/><polygon class="cls-2" points="87.87 177.72 74.72 157.63 87.87 143.08 87.87 177.72"/><polygon class="cls-6" points="87.87 177.72 101.01 157.63 87.87 143.08 87.87 177.72"/><path class="cls-4" d="M139.4,249.45s2.64-1.42,4.65-5.69c0,0,.68,7.07-2.33,9.9Z" transform="translate(-19.59 -166.96)"/><path class="cls-4" d="M76,249.45s-2.64-1.42-4.65-5.69c0,0-.69,7.07,2.32,9.9Z" transform="translate(-19.59 -166.96)"/><polygon class="cls-6" points="30.5 127.9 54.02 125.35 54.19 149 26.22 156.55 30.5 127.9"/><path class="cls-3" d="M71.48,294.71l.13,19.6-23.18,6.25L52,296.82l19.49-2.11m4.28-4.81-4.75.52-19.49,2.11-3.31.36-.49,3.29-3.56,23.74-1,6.53,6.37-1.72,23.18-6.25,3.21-.87,0-3.33-.14-19.6,0-4.78Z" transform="translate(-19.59 -166.96)"/><polygon class="cls-6" points="122.38 148.7 122.55 125.04 146.06 127.59 150.35 156.25 122.38 148.7"/><path class="cls-3" d="M144.28,294.4l19.49,2.11,3.55,23.75L144.14,314l.14-19.6M140,289.6l0,4.77-.13,19.6,0,3.33,3.22.87,23.18,6.25,6.37,1.72-1-6.52L168,295.87l-.49-3.29-3.31-.36-19.5-2.11L140,289.6Z" transform="translate(-19.59 -166.96)"/><polygon class="cls-2" points="28.84 153.61 52.02 147.35 51.88 127.75 28.84 153.61"/><polygon class="cls-2" points="147.73 153.3 124.55 147.05 124.69 127.44 147.73 153.3"/><polygon class="cls-6" points="147.73 153.3 144.18 129.56 124.69 127.44 147.73 153.3"/><path class="cls-6" d="M107.69,302.31h-.2a5,5,0,0,1-.88-.08c-7.16-.61-30.39-3.64-41.79-17.41L62.47,282l3.19-.88c.66-.47,5.84-4.65,13.82-25.45.33-.91,4.69-12.25,19-16.92l.08,0,.08,0c2.54-.64,5.64-2,6.55-3.16l.18-16.38,2.31,8.2,2.28-7.86.15,16c.91,1.13,4,2.52,6.56,3.16l.08,0,.08,0c14.35,4.67,18.7,16,19,16.92,8,20.81,13.16,25,13.82,25.45l3.48,1-2.63,2.74c-11.4,13.77-34.63,16.8-41.79,17.41a5.12,5.12,0,0,1-.89.08Z" transform="translate(-19.59 -166.96)"/><path class="cls-3" d="M107.76,235.82v.36c1.36,3.08,8.36,4.83,8.36,4.83,13.69,4.45,17.54,15.48,17.54,15.48,9.36,24.39,15.06,26.8,15.06,26.8-11,13.32-34.37,16.07-40.32,16.56a1.77,1.77,0,0,1-.51.06h-.4a1.65,1.65,0,0,1-.5-.06c-5.95-.49-29.3-3.24-40.32-16.56,0,0,5.69-2.41,15.06-26.8,0,0,3.85-11,17.53-15.48,0,0,7-1.75,8.36-4.83v-.36l.06.18.07-.18m4.46-33.12-4.53,15.88-4.52-15.84-.32,31.68a18.48,18.48,0,0,1-4.76,1.94l-.15,0-.16,0c-15.19,4.94-20,17-20.54,18.35-7.32,19.05-12,23.54-12.81,24.23l-5.57,2.35,4.11,5c5.3,6.41,13.5,11.33,24.37,14.63a96.63,96.63,0,0,0,18.94,3.63,6.09,6.09,0,0,0,1.21.11h.4a6.27,6.27,0,0,0,1.22-.11A96.76,96.76,0,0,0,128.05,301c10.86-3.3,19.06-8.22,24.36-14.63l4.11-5L151,279c-.84-.69-5.5-5.18-12.82-24.23-.5-1.36-5.35-13.41-20.53-18.35l-.16-.06-.17,0a18.12,18.12,0,0,1-4.74-1.93l-.32-31.72Z" transform="translate(-19.59 -166.96)"/><path class="cls-3" d="M135.2,281.1c-2.47-31.69-24.46-33.5-27.35-33.6h-.32c-2.88.1-24.88,1.91-27.35,33.6,0,0,4.37-27.74,27.51-28.69C130.83,253.36,135.2,281.1,135.2,281.1Z" transform="translate(-19.59 -166.96)"/><path class="cls-6" d="M45.61,290.67c1.15-4.82-.81-13.07-1.76-16.21-.9-1.65-2.72-6.75-4-21.85-.69-8.29,3.69-16.65,12.67-24.17A67.77,67.77,0,0,1,66,219.72l14-6.54L68.94,224a29.34,29.34,0,0,0-3.48,4.11,32.9,32.9,0,0,1,7.69-7,28.56,28.56,0,0,1,14.94-4.73h.47l2.4.14.1,2.41a3.69,3.69,0,0,0,1.88,3l.14,0a3.33,3.33,0,0,1-.23-2.78c.82-2.3,3.66-2.78,5.89-2.78H99l.25,0c5,.95,6.3,5.59,6.27,8,.46,8.84-5.91,12.64-9.36,13.42h-.07L96,238a22.53,22.53,0,0,0-11.34,5.08,15.21,15.21,0,0,0-3.25,3.8l-1.22,2.29L77.87,248a16.06,16.06,0,0,1-6.43-6.33c-3.13,11.64,1.53,17,1.76,17.31l1,1-.32,1.33c-4.34,20-23.49,31.73-24.3,32.22l-5.4,3.26Z" transform="translate(-19.59 -166.96)"/><path class="cls-3" d="M88.09,219.05h.33s.13,3.93,3.49,5.36a6.26,6.26,0,0,0,2.51.48,12.63,12.63,0,0,0,5.16-1.31l-3.21-1.7c-3.33-2.73,2.09-2.77,2.37-2.77h0c4.27.81,4.12,5.48,4.12,5.48.53,9-7.3,10.8-7.3,10.8-12.27,2-16.5,10.26-16.5,10.26-6.29-3.21-7.72-11.52-7.72-11.52-8.07,18.16-.09,26.63-.09,26.63-4.15,19.08-23.09,30.52-23.09,30.52,1.63-6.78-1.9-17.89-1.9-17.89s-2.27-2.9-3.77-21,24.59-30.28,24.59-30.28c-12.54,12.29-8.45,28.2-8.45,28.2,6.11-30.2,26.6-31.26,29.45-31.26m4.76-14.8-28,13.08a70.77,70.77,0,0,0-14,9.09c-9.66,8.1-14.36,17.23-13.6,26.41.68,8.13,1.93,18.25,4.15,22.63,1.17,3.89,2.54,10.88,1.65,14.6l-2.93,12.26L50.9,295.8c.85-.52,20.94-12.86,25.52-33.92l.63-2.9-1.91-1.8c-.37-.47-2.46-3.43-2.09-9.33a17.26,17.26,0,0,0,3.63,2.5l4.83,2.46,2.24-4.73c.33-.56,3.69-6,12.68-7.49l.15,0,.15,0c4.2-.95,11.94-5.52,11.41-16.07a12,12,0,0,0-.82-4.23,10,10,0,0,0-7.59-6.3l-.47-.09h-.52a12.07,12.07,0,0,0-5.18,1l0-.84-4.84-.25c-.09,0-.3,0-.61,0h0a26.6,26.6,0,0,0-5.63.67l10.39-10.19Z" transform="translate(-19.59 -166.96)"/><path class="cls-6" d="M165.85,293.54c-.81-.49-20-12.26-24.3-32.22l-.3-1.36.95-1c.22-.24,4.88-5.65,1.75-17.28a16.09,16.09,0,0,1-6.44,6.33l-2.34,1.19-1.2-2.34a15.21,15.21,0,0,0-3.25-3.78A22.49,22.49,0,0,0,119.38,238l-.07,0h-.08c-3.45-.78-9.82-4.58-9.35-13.42,0-2.43,1.23-7.07,6.26-8l.24,0h.24c2.26,0,5.1.48,5.92,2.78a3.37,3.37,0,0,1-.24,2.78l.14,0c1.74-.75,1.88-3,1.89-3.05l.08-2.4,2.41-.12h.47c1.83,0,13.78.47,23,12.16a28.91,28.91,0,0,0-3.79-4.58l-11-10.81,14,6.54a68.09,68.09,0,0,1,13.44,8.72c9,7.52,13.35,15.88,12.66,24.17-1.25,15.1-3.08,20.2-4,21.85-1,3.13-2.92,11.39-1.76,16.21l1.46,6.13Z" transform="translate(-19.59 -166.96)"/><path class="cls-3" d="M127.29,219.05c2.86,0,23.34,1.06,29.46,31.26,0,0,4.09-15.91-8.46-28.2,0,0,26.1,12.19,24.6,30.28s-3.78,21-3.78,21-3.52,11.11-1.9,17.89c0,0-18.94-11.44-23.09-30.52,0,0,8-8.47-.09-26.63,0,0-1.42,8.31-7.72,11.52,0,0-4.23-8.25-16.5-10.26,0,0-7.82-1.77-7.29-10.8,0,0-.15-4.67,4.11-5.48h0c.28,0,5.71,0,2.37,2.77l-3.2,1.7a12.55,12.55,0,0,0,5.15,1.31,6.31,6.31,0,0,0,2.52-.48c3.36-1.43,3.48-5.36,3.48-5.36h.33m-4.76-14.8,10.4,10.19a26.74,26.74,0,0,0-5.64-.67c-.31,0-.51,0-.61,0l-5.12.27,0,.71a12.38,12.38,0,0,0-4.94-.93h-.52l-.47.09a10,10,0,0,0-7.59,6.3,12.28,12.28,0,0,0-.82,4.23c-.53,10.55,7.22,15.12,11.41,16.07l.15,0,.16,0c9,1.48,12.35,6.93,12.67,7.49L134,253l4.76-2.61a17.52,17.52,0,0,0,3.63-2.5c.36,5.9-1.73,8.86-2.1,9.34l-2.1,2,.83,2.69c4.58,21.06,24.66,33.4,25.52,33.92l10.79,6.52-2.94-12.26c-1-4.13.78-11.64,1.65-14.6,2.22-4.38,3.48-14.51,4.15-22.63.77-9.18-3.94-18.31-13.6-26.41a70.45,70.45,0,0,0-14-9.09l-28-13.08Z" transform="translate(-19.59 -166.96)"/><path class="cls-6" d="M109.48,175.72l.74,27.93s5.29,8.94,17.63-3.15,13.9-11.25,20.87-10.83c0,0-5.41.87-7.07,3.3,0,0,11.77-.86,11.84,10s-8.07,10.82-8.07,10.82a47.65,47.65,0,0,1,24.15,15.77s-1.2-15.41-10.19-22.67c0,0-3.59-6.91-1.41-12.92,0,0,2.55,11.46,11.37,15.77,0,0,4,2,11,1.36L173,203.48l-5.74,1.32s10.79-3.67,5.68-24.67L152,176.75s3.09,1.68,4.57,11C156.53,187.76,138.37,160.92,109.48,175.72Z" transform="translate(-19.59 -166.96)"/><path class="cls-6" d="M105.9,175.72l-.73,27.93s-5.29,8.94-17.64-3.15-13.9-11.25-20.86-10.83c0,0,5.4.87,7.06,3.3,0,0-11.76-.86-11.84,10S70,213.8,70,213.8a47.65,47.65,0,0,0-24.15,15.77S47,214.16,56,206.9c0,0,3.58-6.91,1.41-12.92,0,0-2.55,11.46-11.38,15.77,0,0-4,2-11,1.36l7.37-7.63,5.73,1.32s-10.79-3.67-5.67-24.67l20.93-3.38s-3.09,1.68-4.58,11C58.85,187.76,77,160.92,105.9,175.72Z" transform="translate(-19.59 -166.96)"/><path class="cls-2" d="M85.41,266.86s8.56-9.8,22-9.8,22.52,9.8,22.52,9.8-7-14.08-22.29-14.45C107.69,252.41,93.56,252.08,85.41,266.86Z" transform="translate(-19.59 -166.96)"/><path class="cls-2" d="M107.69,294.24l.55,0c12.26-.48,28.48-6,35.27-17a30.13,30.13,0,0,0,5.21,6S136.88,299.85,107,299.85s-40.32-16.56-40.32-16.56a18.55,18.55,0,0,0,5.21-6c-.19.31,1.56,2.36,1.73,2.59a31.63,31.63,0,0,0,6.14,5.87A46.37,46.37,0,0,0,107.69,294.24Z" transform="translate(-19.59 -166.96)"/><path class="cls-2" d="M110,196.46c0,.43,5.29,11.62,23.5-1.28,0,0-15.85,19.38-23.31,8.47Z" transform="translate(-19.59 -166.96)"/><path class="cls-2" d="M152,216.15a18,18,0,0,0,1.5-13.17,12.36,12.36,0,0,1-8.07,10.82S150.19,215.29,152,216.15Z" transform="translate(-19.59 -166.96)"/><path class="cls-2" d="M146.25,257.06s3.7,14.78,21,24.76c0,0-1,3.27,0,9.46,0,0-18.26-10.5-23.09-30.52Z" transform="translate(-19.59 -166.96)"/><path class="cls-2" d="M159.38,206.9s3.7,8.16,2.86,15.46a49.59,49.59,0,0,1,7.33,7.21S168.79,214.8,159.38,206.9Z" transform="translate(-19.59 -166.96)"/><path class="cls-2" d="M119.81,235.39s11.46-.75,20.32,7.15a11.82,11.82,0,0,1-3.82,3.11S132.52,237.79,119.81,235.39Z" transform="translate(-19.59 -166.96)"/><path class="cls-2" d="M105.39,196.46c0,.43-5.29,11.62-23.5-1.28,0,0,15.85,19.38,23.31,8.47Z" transform="translate(-19.59 -166.96)"/><path class="cls-2" d="M63.43,216.15A17.93,17.93,0,0,1,61.93,203,12.34,12.34,0,0,0,70,213.8S65.23,215.29,63.43,216.15Z" transform="translate(-19.59 -166.96)"/><path class="cls-2" d="M69.17,257.06s-3.7,14.78-21,24.76c0,0,1,3.27,0,9.46,0,0,18.27-10.5,23.09-30.52Z" transform="translate(-19.59 -166.96)"/><path class="cls-2" d="M56,206.9s-3.7,8.16-2.87,15.46a49.78,49.78,0,0,0-7.32,7.21S46.62,214.8,56,206.9Z" transform="translate(-19.59 -166.96)"/><path class="cls-2" d="M95.61,235.39s-11.46-.75-20.33,7.15a12,12,0,0,0,3.82,3.11S82.9,237.79,95.61,235.39Z" transform="translate(-19.59 -166.96)"/></svg>