<svg id="Layer_1" data-name="Layer 1" xmlns="http://www.w3.org/2000/svg" viewBox="0 0 675.74 247.39"><defs><style>.cls-1{fill:#4d4e4e;}.cls-2{fill:#006937;}.cls-3{fill:#9e9d9d;}.cls-4{fill:#fff;}.cls-5{fill:#989898;}</style></defs><path class="cls-1" d="M349.61,239.05c-.46-.55-10.68-12.65-24.41-19.31a31.45,31.45,0,0,1,4.13-.29,17.13,17.13,0,0,1,5.66.82l7.52,2.65-6.63-4.42c-.25-.17-25.14-16.66-46.69-21.57,2.28-2.37,6.59-7.94,8.87-18l.54-2.38-2.06,1.32a62.74,62.74,0,0,1-29.63,8.38l11-7-1.95-.68a218.53,218.53,0,0,0-34.38-8,28.07,28.07,0,0,0-4.26-8.82l-.21-.26-.32-.08c-5.3-1.38-19.47-6-21.41-10.5a2,2,0,0,1,.09-1.91l1.52-2.72-2.82,1.33a29.55,29.55,0,0,1-11.4,2.37,23.79,23.79,0,0,1-2.55-.13,11.46,11.46,0,0,0-1.17-.06,13,13,0,0,0-10.49,5.82c-1.62,2.3-2.3,4.69-1.89,6.52-.62.88-2.29,3.21-4.66,6.07-41.6,3.52-77.32,18.16-106.16,43.53l-2.15,1.89,17-.83a83.16,83.16,0,0,1-44.39,12.57,91.88,91.88,0,0,1-11.55-.74l-2.13-.28,1.16,1.81c.26.39,6.35,9.74,20.42,21.89,12.46,10.74,33.67,25.66,64.87,36.78a83.85,83.85,0,0,1-9.9.58,85.15,85.15,0,0,1-8.64-.44l-4.39-.46,3.77,2.31c.22.14,22.82,13.73,61.78,18l-1.06,1.33-.06.22a54.34,54.34,0,0,0,2.22,29.16h-.47c-10.34.14-18.1,4.88-22.42,13.7-4.54,9.26-12.63,9.81-13,9.82l0,2h28.63a28.9,28.9,0,0,1-14.83,5.57l-4.57.32,4.29,1.61c.39.15,9.93,3.67,24.09,3.67a81.05,81.05,0,0,0,34.51-7.59l.58-.27v-.64a76.44,76.44,0,0,1,1.64-15.24c-.19,4.23.34,9.19,2.86,13.22l1,1.61.76-1.74a33.48,33.48,0,0,1,11-12.73,26.35,26.35,0,0,0-6,14.54c-1.06,1.73-10.48,15.9-34.66,15.9h-2.55l1.23,1.62c.3.39,7.49,9.54,28.16,9.54,1,0,1.93,0,2.91-.05,11.35-.46,17-2.9,22-5.06,3.81-1.64,7.11-3.06,12.22-3.06a34.63,34.63,0,0,1,4.69.34l1,.13.13-1c0-.16.46-3.64-3.21-7.61h24.21L255.56,361.4h26.68c.29-1,.57-1.91.85-2.86-3.22-1.31-8.6-4.14-10.64-8.92-3.48-8.12-12.1-13.48-22-13.74-1.23-1.26-6-5.8-11.28-6.76,0-4.13.56-13,2.74-15.61l.81-.92-1.07-.58s-2.51-1.67-6.07-11.08c7.49-1.54,15.07-3.43,22.59-5.63a29.44,29.44,0,0,1-5.11,6.06l-2,1.79,2.7,0a120.75,120.75,0,0,0,37.68-8.21,109.53,109.53,0,0,0,31.72-18.75,100.8,100.8,0,0,0,26.64-36.06l.25-.56ZM210.22,167.61c.73-.32,1.47-.67,2.22-1a19.38,19.38,0,0,1,8.44-2,19.07,19.07,0,0,1,12.57,4.93C225.68,168.51,217.9,167.88,210.22,167.61Z" transform="translate(-30.65 -144.1)"/><path class="cls-2" d="M350.37,238.41a86.91,86.91,0,0,0-21.64-18h.6a16.23,16.23,0,0,1,5.33.77l15,5.28-13.25-8.83c-1-.69-24.13-16-45.39-21.32,2.46-2.95,6-8.42,8-17.15l1.09-4.77L296,177.08a61.92,61.92,0,0,1-25.34,8l6-3.83,3.47-2.21-3.89-1.36c-.55-.2-13.49-4.68-33.95-7.95a28.55,28.55,0,0,0-4.23-8.55l-.42-.52-.65-.17c-7.71-2-19.24-6.42-20.74-9.92a1,1,0,0,1,.05-1l3-5.46-5.66,2.68a28.76,28.76,0,0,1-11,2.27c-.83,0-1.65,0-2.45-.12a10.81,10.81,0,0,0-1.27-.07,14,14,0,0,0-11.31,6.24,10.14,10.14,0,0,0-2.13,6.86c-.71,1-2.15,3-4.1,5.35-41.64,3.6-77.41,18.31-106.32,43.74l-4.3,3.78,5.71-.28,10.27-.5c-1.79,1-3.95,2.13-6.47,3.25a84.43,84.43,0,0,1-34,7.13,89.84,89.84,0,0,1-11.42-.74l-4.27-.55L33,226.76c.26.4,6.43,9.87,20.61,22.1a185.56,185.56,0,0,0,27.73,19.68A220.06,220.06,0,0,0,114.6,284.3c-1.62.1-3.43.17-5.39.17a80.45,80.45,0,0,1-8.54-.44l-8.78-.91,7.53,4.61a105.8,105.8,0,0,0,16.82,7.67,190.32,190.32,0,0,0,43.59,10.27l-.08.09-.11.43a55.3,55.3,0,0,0,1.79,28.41c-10.29.41-18,5.32-22.39,14.24s-12,9.26-12.12,9.27l.1,4h25.23a27,27,0,0,1-11.5,3.57l-9.15.64,8.58,3.23c.41.15,10.11,3.73,24.45,3.73a82.11,82.11,0,0,0,34.93-7.68l1.17-.55v-1.28c0-.07,0-3.07.36-7a19.16,19.16,0,0,0,2.29,5.55l2,3.23L206.9,362a31.78,31.78,0,0,1,5.75-8.15,27,27,0,0,0-2.58,9.24,29.07,29.07,0,0,1-7.27,7.45c-4.83,3.55-13.34,7.78-26.41,7.78h-.51l-4.07,0,2.46,3.24c.31.41,7.8,9.95,29,9.95,1,0,2,0,3-.07a55.43,55.43,0,0,0,22.38-5.13c3.86-1.67,6.91-3,11.83-3a34.31,34.31,0,0,1,4.55.33l2,.26.27-2c0-.16.4-3.13-2.12-6.75h24.39l-3-3.34-8.59-9.44h23.71c.18-.13.35-.27.54-.4.15-.53.31-1.07.47-1.6H253.3l11.63,12.78H240.45c5.33,4.35,4.75,8.48,4.75,8.48a36,36,0,0,0-4.81-.35c-11.93,0-14.11,7.3-34.29,8.12-1,0-1.94.06-2.87.06-20.41,0-27.36-9.16-27.36-9.16h.52c26.57,0,35.63-16.59,35.63-16.59a26.17,26.17,0,0,1,10.77-18.91c-12.57,4.54-17.72,16.39-17.72,16.39-5.31-8.5-1.25-21.66-1.25-21.66-5.23,7.67-5.1,24.21-5.1,24.21a80.32,80.32,0,0,1-34.09,7.5c-14.14,0-23.74-3.61-23.74-3.61a30.72,30.72,0,0,0,17.65-7.56H127s8.94-.44,13.81-10.38,13.33-13,21.54-13.14l1.92,0a53.9,53.9,0,0,1-2.71-29.95l2.06-2.6C123.34,300,100.47,286,100.47,286a83.37,83.37,0,0,0,8.74.45,73.67,73.67,0,0,0,14-1.21c-64.14-21.65-88.57-59.58-88.57-59.58a92,92,0,0,0,11.68.75c29.58,0,47.81-14.74,47.81-14.74l-17.66.86c33.35-29.33,71.82-40.5,106-43.32,3.25-3.89,5.25-6.85,5.25-6.85-1.33-3.68,4-11.52,11.29-11.52.35,0,.71,0,1.07,0a24,24,0,0,0,2.65.14,30.49,30.49,0,0,0,11.83-2.46c-4,7.11,21.94,13.85,21.94,13.85a29,29,0,0,1,4.27,9.09c21.23,3.29,34.82,8.05,34.82,8.05l-12.08,7.69c.78,0,1.55,0,2.31,0a63.11,63.11,0,0,0,31.24-8.56c-3.08,13.51-10,18.75-10,18.75,22,4.34,48.23,21.82,48.23,21.82a18.45,18.45,0,0,0-6-.88,34.25,34.25,0,0,0-7.48.88c15.15,6.19,27,20.36,27,20.36-27.3,61.5-95.15,62.42-95.15,62.42a30.86,30.86,0,0,0,6.58-8.49c-9,2.73-17.7,4.89-26.07,6.57,4.07,11.16,6.91,12.69,6.91,12.69-3.1,3.76-3,17.11-3,17.11,6.09.61,11.85,6.88,11.85,6.88,10.2.12,18.32,5.64,21.54,13.15,2.21,5.17,7.93,8.14,11.27,9.49l.57-1.94c-3.07-1.26-8.11-3.92-10-8.34-3.59-8.37-12.37-13.94-22.52-14.33-1.55-1.53-5.81-5.37-10.7-6.58.09-5,.79-12.09,2.5-14.17l1.77-2.15-2.3-.86c-.37-.32-2.38-2.29-5.22-9.47,6.24-1.31,12.53-2.86,18.79-4.63a27.8,27.8,0,0,1-3.32,3.58l-4,3.56,5.38-.07c.71,0,17.56-.33,38-8.28a110.58,110.58,0,0,0,32-18.92,102,102,0,0,0,26.91-36.41l.5-1.14Z" transform="translate(-30.65 -144.1)"/><path class="cls-2" d="M220.88,163.56a20.25,20.25,0,0,0-8.88,2.11,46.18,46.18,0,0,1-6.93,2.81,256.23,256.23,0,0,1,31.25,2.39C231.54,165.71,226.09,163.56,220.88,163.56Zm-6.45,3.23a18,18,0,0,1,6.45-1.23,17.31,17.31,0,0,1,8.85,2.48C224.62,167.47,219.51,167.05,214.43,166.79Z" transform="translate(-30.65 -144.1)"/><path class="cls-2" d="M162.37,336.58l5.4.11,11.29,23.41H127s9.32-2.38,13.81-10.38c5.42-9.65,13.33-13,21.54-13.14m0-2h0c-10.24.14-18.06,4.9-23.26,14.16-4,7.13-12.49,9.4-12.57,9.43l-15.14,3.93h70.86l-1.38-2.87-11.28-23.4-.54-1.11-1.22,0-5.4-.12Z" transform="translate(-30.65 -144.1)"/><path class="cls-2" d="M185.63,301.67c-15,0-37.89-1.62-61.43-9.31-2.77-.91-5.3-1.82-7.57-2.7a65.61,65.61,0,0,0,7.34-1L136.39,286l-12-4.07c-47-15.86-72.34-40.71-82-52.09,1.35.05,2.7.08,4,.08,30.47,0,49.22-14.88,50-15.52l8.32-6.73-17.84.87a168.71,168.71,0,0,1,53.74-27.81,206.21,206.21,0,0,1,61-8.79,256,256,0,0,1,65.74,8.78l-15.05,9.57,11.15.46c.81,0,1.63.05,2.45.05a66.75,66.75,0,0,0,25.33-5.19c-2.82,6.38-6.16,9.09-6.21,9.12l-6.21,4.72,7.68,1.48c12.45,2.46,26.51,9.4,36,14.69-.84.16-1.36.29-1.41.31l-10.31,2.61,9.84,4c11.2,4.58,20.68,14,24.18,17.75a96.15,96.15,0,0,1-24.4,32.31,104.69,104.69,0,0,1-30.31,18,123.38,123.38,0,0,1-28.16,7.27,26.34,26.34,0,0,0,1.58-2.73l3.5-7.2-7.66,2.32A254.62,254.62,0,0,1,185.63,301.67Z" transform="translate(-30.65 -144.1)"/><path d="M321.85,219.33a34.25,34.25,0,0,1,7.48-.88,18.45,18.45,0,0,1,6,.88s-26.21-17.48-48.23-21.82c0,0,6.9-5.24,10-18.75a63.11,63.11,0,0,1-31.24,8.56c-.76,0-1.53,0-2.31,0l12.08-7.69s-13.59-4.75-34.82-8.05a29,29,0,0,0-4.27-9.09s-25.91-6.74-21.94-13.85a30.12,30.12,0,0,1-14.48,2.32c-7.87-.81-13.75,7.61-12.36,11.47,0,0-2,3-5.25,6.85-34.18,2.82-72.64,14-106,43.32l17.66-.86s-18.23,14.74-47.81,14.74a92,92,0,0,1-11.68-.75s24.43,37.93,88.57,59.58a73.67,73.67,0,0,1-14,1.21,83.37,83.37,0,0,1-8.74-.45s22.87,14,63.17,18.05l-2.06,2.6a53.8,53.8,0,0,0,2.32,28.94l-1.54,0c-9.85.13-17.39,4.73-22.4,13.65-4.22,7.52-13.1,9.88-13.19,9.9l-7.71,2h38.26a30.34,30.34,0,0,1-16.43,6.56s27.38,10.29,57.83-3.89c0,0-.13-16.54,5.1-24.21,0,0-4.06,13.16,1.25,21.66,0,0,5.15-11.85,17.72-16.39A26.17,26.17,0,0,0,212,363.74s-9.17,16.81-36.15,16.59c0,0,7.6,10,30.23,9.1s22.63-10,39.1-7.77c0,0,.58-4.13-4.75-8.48h24.48L253.3,360.4h29.24c.09-.3.17-.6.26-.89-3.34-1.35-9.06-4.32-11.27-9.49-3.22-7.51-11.34-13-21.54-13.15,0,0-5.76-6.27-11.85-6.88,0,0-.13-13.35,3-17.11,0,0-2.84-1.53-6.91-12.69,8.37-1.68,17.06-3.84,26.07-6.57a30.86,30.86,0,0,1-6.58,8.49s67.85-.92,95.15-62.42C348.84,239.69,337,225.52,321.85,219.33Zm-153,78.17a193,193,0,0,1-37.91-6.74l18.61-4-24.07-8.12C93.72,267.91,72.33,253.06,60,242.48c-3.85-3.29-7.09-6.39-9.74-9.13,29.41-1.19,47.53-15.58,48.32-16.21l16.65-13.47-16.71.81a166.4,166.4,0,0,1,43.11-20.4A191.43,191.43,0,0,1,175.27,177c-7.62,7.28-17.5,13.7-25.91,9.38,0,0-.25,15.91-5.12,25.65,0,0,11.15-3.06,21.67,12.39a22.82,22.82,0,0,0-.68,8.89s-4.64,5.72-5,11a13.19,13.19,0,0,0-7.63,4.63s4.23.82.45,8.38c0,0-17.28-21.11,3.74-32.88,0,0-7.91-.67-13.29,2.39,0,0-4.39-3.32-12.35-1.55,0,0-.45,8-20.9,11a34,34,0,0,1-6.71,8.3c-4.24,3.74-3.13,10.59-3.13,10.59s1.71-11,16.1-14.49c0,0,7.85-2.07,14.57.46,0,0-5,23.68,7.84,33.46l24.3,10.68s-3.4-7.95,11.35-16c0,0,4.31,3.14,5.55,14ZM212,165.67c7.33-3.59,16.69-3,24.33,5.21a258.3,258.3,0,0,0-31.26-2.4A46.18,46.18,0,0,0,212,165.67ZM318.13,269.88A101.29,101.29,0,0,1,289,287.26a118.27,118.27,0,0,1-20.74,6l5.35-11-15.32,4.64q-13.05,3.94-26,6.51c-1.35-8.76,4.57-9.89,3.07-20.17,0,0,9.38.33,12.42,12.76,0,0,14.15-5.72,19.46-12.76,0,0-5.14-13.19,7.37-20.51,0,0,4.14-.63,8.06,3.52a47.67,47.67,0,0,1,.24-5.61q.15-1.08.3-2.19a10.52,10.52,0,0,0-1-.41l1.44-2.38c.17-1.08.36-2.15.59-3.22a37.39,37.39,0,0,1-9-15.26s1.18-6.45,12.86-7.28c0,0-12.84-3.44-19.93,3.62,0,0-19.41,7.09-19.77-7.19,0,0-11.13,0-16.69,4.37,0,0,7.08-2.58,12.93-.4,0,0,0,6.12,13,14.13,0,0,3.68,1.65,3.56,8.74l-9.52-.3-3.53,9.5a15,15,0,0,0-12.53-6.3l0-4s-6.49-1.87-10.06-6.81c0,0,3.43-9,2-26.66l-5.79-9s1.28-2.23,5.71-3.12c0,0-6.49-2.69-11.21.2s-8.57,2.31-12.95-.16-11.49.07-11.49.07,3.46-.85,7,3.66A15.42,15.42,0,0,0,194,206.9l-8.81-5.63A70.36,70.36,0,0,0,192,183.58a63.75,63.75,0,0,1,2.56-8q3.45-.1,6.94-.11v-6.12h0v6.12a253.66,253.66,0,0,1,57,6.68l-17.63,11.21,22.3.92c.86,0,1.73.05,2.6.05a67.6,67.6,0,0,0,16.7-2.14l-12.92,9,16.13,3.18c8.9,1.75,18.7,5.91,26.94,10.05l-13.17,3.33,19.68,8.05c9.16,3.74,17.16,11,21.29,15.17A92.31,92.31,0,0,1,318.13,269.88Z" transform="translate(-30.65 -144.1)"/><path class="cls-3" d="M156.93,365.22a16.17,16.17,0,0,0,6.69-5.52c2.29-3.7,10.52-1.95,10.5,3C174.12,362.74,174.27,368.68,156.93,365.22Z" transform="translate(-30.65 -144.1)"/><path class="cls-3" d="M176.61,364.12s1.5-5.68-2.39-8.12-4.88-2.43-8.69-1.54c0,0,.59-7.57,7.45-9.2a13.59,13.59,0,0,1,15.94,15.33s7.27-19-14.28-23c0,0-1.3-8.66,16.36-19.28,0,0-6.61-1.34-11,1.36,0,0-2.85-4.32-1.38-9.11,0,0-5.58,5.5-3.28,12.52a16.62,16.62,0,0,0-3.33,3s-3.64-14.7,11.85-26.36,8.85-30.15,8.85-30.15-.51,6.72-3.13,10.73c0,0,2.82-26.73-23.9-29.72,0,0-1.26-6.7,2.79-11.58,0,0,14.31,16.09,29.78,1.06,0,0,12.5,2.72,19.95,12.76A22.17,22.17,0,0,0,208,250.07a42.69,42.69,0,0,1,19.44,25.87s-9.24,17.09-10.48,32.21,3.39,24.78,3.39,24.78-8.81,2.51-12.32,15.43l-1.89,3s0-14,6-24.52c0,0-18.56,8.82-18.71,33.37A33.33,33.33,0,0,1,176.61,364.12Z" transform="translate(-30.65 -144.1)"/><path class="cls-3" d="M232,329.38s-.62-9.43,1.46-14.07a39.84,39.84,0,0,1-7.09-18.14s-5.25,18.14-2.46,34.51Z" transform="translate(-30.65 -144.1)"/><path class="cls-3" d="M214.75,344.83s4.8-9.13,19.78-7.16S250.18,353,250.18,353s-5-8.92-15.46-5.38A13.73,13.73,0,0,0,226.41,358s8.38-11.15,19-1.69l3.49,4.31-3.68,1.18,10.32,7.06H235.12s-2.22-2.48-11.49-3.12c0,0,7.31,1.79,12.61,11.53,0,0-7.4-1.76-16.52,3.1s-28.93,5.19-34.95,1.82a27.66,27.66,0,0,0,17.3-3.6c8.3-5.08,10.33-9.27,19.49-7.4a33.53,33.53,0,0,0-7-5.94s1.4-12.62,16.95-24C231.53,341.25,221.34,339.19,214.75,344.83Z" transform="translate(-30.65 -144.1)"/><path class="cls-3" d="M255.49,354.46s1.91-6.88-1.8-12.23c0,0,6.66.73,15.73,12.23Z" transform="translate(-30.65 -144.1)"/><path class="cls-3" d="M170.24,226.82s-1.2,10.61,6.2,13.06,14.91-1.09,17.12-7.73a13.13,13.13,0,0,1-11,1.59s12.94-4.41,9.22-19.26c0,0-7.75-.81-9.67-9.74,0,0-14.54,14.6-22-1,0,0,8.44,12.29,20.07-8,4.79-12.18,5.07-20.22,15.31-27.64l-3.18-1.48S187,169.51,174,184.91s-19.23,7.56-19.23,7.56l-.41,11.83s13.75,5.74,21.93,27.41A10.17,10.17,0,0,1,170.24,226.82Z" transform="translate(-30.65 -144.1)"/><path class="cls-3" d="M218.55,159.6s-3.09-.65-7.52-5.52c0,0-14.81-1.88-16.12,5.52-1.84,10.34,13.05,2.06,13.05,2.06S214.35,158.71,218.55,159.6Z" transform="translate(-30.65 -144.1)"/><path class="cls-3" d="M160.47,256A21.23,21.23,0,0,1,173,258.69S156.35,270,160.47,280l-18-7s-12.64-14.84-9.08-34.63c0,0-3.75-3-10.16-2.22,0,0,6.43.19,9.74-8.13,0,0,4.58.9,7.15,3.14,0,0-6.21,6.7,2.67,19.84,0,0,3.25,5.27,8.32,7.11,0,0-9.67,4.95-2,14.34C149.12,272.52,144,264.44,160.47,256Z" transform="translate(-30.65 -144.1)"/><path class="cls-3" d="M214.58,241.49l3.59-3.93,11.76,8.53a57.49,57.49,0,0,1,0,12.16l-7.51-4.72A23,23,0,0,0,214.58,241.49Z" transform="translate(-30.65 -144.1)"/><path class="cls-3" d="M233.16,263.34a50.64,50.64,0,0,0,2.63-12.46s6.8,2,10.15,7.53c0,0,5.44-1.64,9.55-1.07,0,0-2.06,7.48,3.82,12.15,0,0-3-7.7,1.1-14.12a25.35,25.35,0,0,0-6-1.25l1.76-7.16s12.1-.43,17-4.86a15.83,15.83,0,0,1-8.71.73s1.81-8.74-12.43-16.23c0,0,8.75,3.24,17.38,3l10.35,13.9-2.62.46s-18.93,12.16-13.36,26c0,0-8.53,7.73-15.16,9.2A25,25,0,0,0,233.16,263.34Z" transform="translate(-30.65 -144.1)"/><circle class="cls-4" cx="174.47" cy="60.85" r="2.94"/><circle class="cls-4" cx="185.04" cy="60.85" r="2.91"/><path class="cls-1" d="M187.86,311.72s3-8.13,7.14-12.44,11.77-16.92,2.82-35.67c0,0-6.74-14-15.25-17.17a26.43,26.43,0,0,1-14.13-7.4s-4.05,4-2.79,11.58c0,0,25.16,2.27,23.9,29.72,0,0,3-3.87,3.13-10.73,0,0,5.63,16.81-6.83,28.48,0,0-17.48,10.23-13.87,28l3.33-3a13.26,13.26,0,0,1,3.28-12.52,11.47,11.47,0,0,0,1.38,9.11l2.7-1.14s-2.27-8.16,4.2-16.62A14.33,14.33,0,0,0,187.86,311.72Z" transform="translate(-30.65 -144.1)"/><path class="cls-1" d="M207.38,330s-3.92-11.3,3.54-27.55a62.09,62.09,0,0,0,4.81-32.51s6.5,6.15,7.48,15c0,0-12,26.69-2.9,48,0,0-8.73,2.75-12.32,15.43l-1.89,3a53.44,53.44,0,0,1,6-24.52Z" transform="translate(-30.65 -144.1)"/><path d="M462.1,362.42V324.21c-5,.24-9.81.53-14.5.85l0,5.32-4.66.34c-7.69.55-15.47,1.24-23.13,2l-5.51.58,0-5.21c-3.4.39-6.83.8-10.2,1.23l0,5.22-4.35.58c-7.56,1-15.21,2.17-22.72,3.43l-1.95.33-1.92.34c-13.75,2.38-27.61,5.22-41.2,8.43l-1.77.42-1.77.43c-13.83,3.34-27.75,7.16-41.35,11.35l-6.47,2V328.09l5.94-1.08V270.58l-1.84-.34-4.1-.75V235.71l6.47,2a392.23,392.23,0,0,0,41.05,10.16l1.75.34,1.78.33,4,.71.65.12,4,.68c5.6.93,11.34,1.8,17.09,2.57l4.32.59v3.95c3.11.41,6.25.81,9.37,1.19v-4l1.11.11,4.42.46c7.58.79,15.59,1.49,23.81,2.1l3.47.25,1.33,4.63c2.71.23,5.59.47,9,.73l1.43-4.62,3.89.21c6.35.34,13,.64,19.85.89V198.3h115v60.5h.22c.5,0,1,0,1.47.05l.18,0h.06a14.63,14.63,0,0,1,3.78.84,12,12,0,0,1,3.44,2q.5.4.9.81a8.9,8.9,0,0,1,.69.77l0-5,4.7-.27c15.21-.86,29-2,42.22-3.4l1.24-.13,1.19-.13c14.95-1.67,28.58-3.69,41.65-6.17l5.94-1.12v2.66a15,15,0,0,1,3.15-2.53,15.48,15.48,0,0,1,2.12-1l.09,0c.32-.13.66-.25,1.05-.38l.17-.05c.4-.12.76-.22,1.11-.3h.06c6.45-1.44,12.82-3,18.93-4.71a13,13,0,0,1,3.52-.52c6.27,0,9.13,5,10.28,8,1.46,3.79,2.17,9.15,2.17,16.38v18.74l-4.46.49-3.77.4-.32,0-3.7.37-1.31.12,1.31.65.36.18.78.42.77.42.06,0,.68.4,0,0,.67.41.07,0c.23.15.43.28.62.42l.12.08c.18.12.37.25.55.39l.09.07.56.42.11.09.51.42.12.11.47.42.09.09.48.48.11.12c.15.15.29.31.43.46l.11.14.4.48.11.14c.13.17.26.33.38.51l.11.15.35.52.1.18.33.53.1.19c.1.18.21.37.3.56l.1.19c.1.2.19.39.28.59l.09.21c.09.21.18.41.26.62l.08.22.24.64.08.24c.07.22.14.43.21.66l.08.26c.07.23.13.45.19.69l.07.29c.06.23.12.46.17.7l.07.31.15.73.08.41c0,.23.08.45.11.68l.07.46c0,.23.07.45.1.68l.08.59c0,.2.05.4.07.61l.06.66.06.6c0,.11,0,.71,0,.71,0,.2,0,.4.05.6l0,.84,0,.54c0,.16.05,1.44.05,1.44,0,.23,0,1.51,0,1.51,0,.52,0,1,0,1.58v20.76c0,7.21-.7,12.57-2.14,16.36-1.14,3-4,8-10.23,8a12.47,12.47,0,0,1-3.68-.58c-6.56-1.91-13.27-3.77-19.93-5.5-.45-.12-.88-.26-1.35-.42l-.33-.13-.14-.06c-.26-.1-.51-.2-.76-.32l-.59-.28a6,6,0,0,1-.56-.3c-.22-.12-.44-.24-.65-.38a3.53,3.53,0,0,1-.32-.21l-.08-.05c-.24-.16-.49-.32-.72-.5l-.08-.06a15.75,15.75,0,0,1-1.86-1.69v2.48l-6.15-1.48C642,344.82,628,341.91,614,339.46l-1.21-.22-1.22-.21c-13.93-2.39-28.12-4.38-42.18-5.93l-1.52-.16-1.51-.16c-5-.53-10.05-1-15-1.42l-3.23-.27-.76-2.18V331l-5.34-.38c-3.34-.23-6.84-.45-10.41-.65v32.43Zm63.46-6V329.08H511v-96.2h15.09v24.38h22.24v-53h-103v53h22.24V232.88h15.08v96.2H468.1v27.34Zm-238.94-2.66c13.05-4,26.38-7.64,39.64-10.87l0-27.42-8.7.89v10.08l-.85.13c-3.79.58-7.72,1.2-11.66,1.84l-1.16.19v-21l.93-.06,15.5-1V288.67q-3.41-.1-6.79-.24l-6-.25-1.13-.05-1.57-.07-1,0V268.78l1.13.15c1.59.22,3.17.42,4.76.62q2.67.34,5.36.66l1.52.18.88.11v10.08l5.88.36,2.82.15,0-27.5a396.08,396.08,0,0,1-39.57-9.76v20.66l1.18.21.67.12,3.25.57.84.15V332l-.83.15-3.19.57-1.92.35ZM662,326.39c0,7,1,12,3.23,15.22a10.3,10.3,0,0,0,2.42,2.54,10,10,0,0,0,3.3,1.56c6.71,1.74,13.49,3.61,20.13,5.55a6.5,6.5,0,0,0,1.76.32h.2c4.23,0,6.37-6.18,6.37-18.36V312.47c0-13.91-2.32-17.62-7.52-20.66-.57-.33-1.21-.67-2-1.06l-.15-.08-1.29-.62-.55-.27c-1.94-.95-3.69-1.79-5.35-2.56-2.29-1.06-4.62-2.11-6.94-3.11-1.65-.81-2.09-1.56-2.09-3.5V273c0-.46,0-.84.05-1.17a2.79,2.79,0,0,1,.93-2.06,2.27,2.27,0,0,1,1.17-.45c2.42-.31,4.94-.66,7.71-1.05l1.57-.22.42,0a1.75,1.75,0,0,1,1.72,1.19,6.48,6.48,0,0,1,.28,2.33V279l.82-.07,1.95-.19,2-.19c2.35-.23,4.48-.45,6.49-.67V264.5c0-12.35-2.11-18.35-6.45-18.35h-.14a6.66,6.66,0,0,0-1.75.29c-6.23,1.72-12.71,3.33-19.28,4.79a9.5,9.5,0,0,0-3.31,1.44c-3.76,2.63-5.59,8.36-5.6,17.51v16c0,9.2.38,13.48,9.73,18.61,4.86,2.67,9.66,5.48,14.26,8.35a3.57,3.57,0,0,1,2,3.68V326c0,.44,0,.82,0,1.14,0,.56-.19,2.28-1.83,2.36h-.1a2.69,2.69,0,0,1-.47,0c-3.37-.56-6.76-1.11-10.15-1.65a2.26,2.26,0,0,1-1.45-.77,4,4,0,0,1-.66-2.44c0-.16,0-.32,0-.51V316L663,315l-1-.11Zm-46.13,7.3c13.4,2.37,26.89,5.16,40.12,8.3l0-26.91-8.73-.86v9.1l-1.14-.15-1.66-.23-1.34-.17q-4-.56-8-1.07l-1.64-.22,0-17,1.06,0,.5,0,5.93.38,9.07.6,0-16.45c-5,.1-10.2.17-15.55.22h-1l0-15.68.93-.06,6.37-.46,5.37-.42,1.08-.09v9.11c3-.12,5.93-.26,8.73-.4l0-27c-12.61,2.36-25.72,4.3-40,5.91l0,13.33,5-.28,1.06-.06-.09,47.94-1.12-.13-4.56-.55-.38-.05Zm-284,7.87c13-3.05,26.31-5.76,39.49-8.07L371.26,306c-2.94.19-5.88.37-8.81.57l0,13.55-.88.11c-3.7.45-7.45.92-11.14,1.4l-1.13.14-.08-49.57,1.08.08,5.39.39,0-14.24c-5.16-.7-10.45-1.5-15.75-2.38-3.11-.52-5.74-1-8.17-1.42v16.05l3.32.32,1.78.17.9.08.06,53.43-6,.89Zm239.09-14.32c13.48,1.5,27.09,3.41,40.48,5.68l.05-21.92-1.69-.13c-2.38-.19-4.77-.39-7.16-.57l0,7.6-1.1-.11c-1.68-.18-3.37-.34-5.06-.51-2.12-.21-4.23-.41-6.35-.6l-1.37-.13,0-14.75,1,.05c5,.26,10.17.54,15.68.86l0-13.36-4.54,0-12.18-.05,0-13.58,1,0,1.72-.06,1.38-.05,4.76-.16,1.61-.06,2.4-.08,1,0,0,7.6,4.32-.06,4.52-.06,0-22c-12.69,1.35-25.95,2.41-40.47,3.25l0,11.25,5.08-.12,1,0-.12,41.44-1.08-.09-5-.4Zm-193.7,5.24c6.91-1.14,13.92-2.2,20.88-3.15l0-11.87-3.26.31-1.09.11-.11-40,2,6.91c3,10.5,6.15,21.16,9.36,31.72,2.7-.25,5.47-.49,8.24-.72,3-10.23,6.1-20.65,9.26-31l1.94-6.33.1,36.88-.93.06-3.29.23,0,11.06c7.05-.73,14.21-1.36,21.3-1.88l0-10.49-5.07.27-1.05.06-.1-39.05,6.13.09,0-10.51c-7.36-.25-14.6-.57-21.55-.94v0c-3.18,10.26-6.3,20.57-9.27,30.64l-.94,3.2-1-3.19c-3.25-10.65-6.44-21.41-9.49-32-7.63-.57-15.09-1.22-22.19-1.95l0,12.93,5.12.23.95,0,.11,44.76-.89.1c-1.73.18-3.45.37-5.18.57Zm175.23-7.05c4.46.38,9,.81,13.41,1.27l0-11.06-4.95-.35-.66-.05-.22-.62q-1.08-3.11-2.16-6.17-1.3-3.7-2.61-7.37l-.41-1.16,1.21-.17a7,7,0,0,0,3.15-1.19c2.31-1.62,3.44-4.83,3.45-9.82l0-12.92c0-5.49-1.36-8.83-4.19-10.21a8.92,8.92,0,0,0-4-.81h-.68c-10,.42-20.19.73-31.26.94l-3.9.07v10.09l6.14,0-.05,37.62-1,0-5.11-.15V323.4c4.13.15,8.46.34,12.89.59,3.46.19,6.66.38,9.77.59l0-10.43-3.86-.18-1,0,0-12.52,1,0,5.7.18.68,0,.23.63c2.56,7.07,5.14,14.3,7.68,21.51Z" transform="translate(-30.65 -144.1)"/><path class="cls-2" d="M553.35,199.3v60.53h.31l.91,0h0c.48,0,.94,0,1.39.05l.23,0a13.92,13.92,0,0,1,3.52.77,11.35,11.35,0,0,1,3.16,1.81c.28.24.56.48.82.74a11.68,11.68,0,0,1,1,1.14l1.43-.1v-5l3.77-.22c15.22-.86,29-2,42.26-3.4l1.25-.14,1.19-.13c15-1.67,28.63-3.69,41.73-6.17l4.75-.9v4.34a15.83,15.83,0,0,1,1.52-2,13.85,13.85,0,0,1,3.14-2.59h0a13.62,13.62,0,0,1,2-1l.06,0c.33-.13.66-.24,1-.35l.17,0c.34-.11.68-.2,1-.28h0c6.47-1.44,12.87-3,19-4.72a11.87,11.87,0,0,1,3.25-.49c5.67,0,8.29,4.59,9.34,7.33,1.42,3.67,2.11,8.91,2.11,16v17.84l-3.57.4-3.76.4-.32,0-3.7.37h0l-2,.2-2,.18v.5l2,1,1.65.81h0l.32.16.77.41,0,0,.7.39.07,0,.65.38.08.06.61.37.1.06.57.38.11.07.53.38.11.09.51.38.11.09c.16.13.32.26.47.4l.12.1.44.4.12.11.42.42.11.12.4.43.11.13.37.45.11.14.35.47.1.14.33.49.09.16c.11.17.21.34.31.51a1,1,0,0,0,.1.17l.28.53.09.19.27.56a1.54,1.54,0,0,1,.08.19c.09.2.17.39.25.59l.08.21c.08.2.15.4.23.61s.05.15.07.23l.21.63c0,.08.05.17.07.26s.13.43.19.65l.06.28c.06.22.12.45.17.68l.06.31.15.7.06.34c0,.24.09.48.13.72s0,.25,0,.38.08.48.11.74,0,.28,0,.42.07.49.09.75,0,.32,0,.47.05.5.07.76,0,.36,0,.54l.06.76,0,.6c0,.25,0,.5,0,.76s0,.47,0,.71l0,.71c0,.29,0,.6,0,.89s0,.4,0,.61c0,.51,0,1,0,1.56v20.76c0,7.09-.68,12.33-2.08,16-1,2.75-3.64,7.36-9.29,7.36a11.87,11.87,0,0,1-3.39-.53c-6.59-1.93-13.31-3.78-20-5.52h0a12.57,12.57,0,0,1-1.23-.39L668,350c-.24-.09-.48-.19-.71-.3s-.37-.17-.54-.26l-.54-.28-.6-.35-.37-.25c-.23-.15-.46-.3-.68-.47l-.09-.07a14.77,14.77,0,0,1-2.38-2.3h0a17.33,17.33,0,0,1-1.07-1.44v4.07L656,347.14c-13.8-3.3-27.89-6.21-41.89-8.67l-1.21-.21-1.22-.21c-14-2.4-28.17-4.4-42.24-5.94l-1.52-.17-1.52-.16c-5-.52-10.07-1-15.05-1.42l-2.59-.21-.78-2.22-.07-.23c-.22-.61-.44-1.23-.65-1.84l-.72-2-.26,0v6.14l-4.27-.3q-5.71-.39-11.48-.7v32.48H463.1V323.16c-5.43.26-10.86.57-16.29,1h-.21v5.32l-3.72.27c-7.71.55-15.5,1.24-23.17,2l-4.4.46V327q-6.1.69-12.2,1.47v5.22l-3.48.47c-7.58,1-15.24,2.18-22.75,3.44l-2,.33-1.92.33c-13.77,2.39-27.65,5.23-41.26,8.45l-1.77.42-1.78.43c-13.85,3.35-27.78,7.17-41.4,11.36l-5.18,1.59v-31.6l2-.36,1.29-.23.71-.13,1.94-.35V269.74l-1.94-.35-.72-.13-1.28-.23-2-.37V237.07l5.18,1.59A393.53,393.53,0,0,0,328,248.84l1.75.34,1.79.33,4,.72.66.11,4,.68c5.56.94,11.29,1.8,17.11,2.58l3.46.47v4q5.52.74,11.37,1.43v-4h0l4.43.46c7.58.79,15.6,1.5,23.83,2.1l2.78.21.15.5.59,2.05,0,.13c.19.64.38,1.29.56,1.93l.35,0q5.06.43,10.11.82l.51-1.66.09-.3.61-2,.22-.72,3.11.17c6.74.36,13.76.67,20.91.93V199.3h113m-109,59h24.24V233.88h13.09v94.21H467.1v29.33h59.46V328.09H512V233.88h13.09v24.38h24.24v-55h-105v55m-158.7,96.85q20.69-6.36,41.64-11.43v-1.52q0-11.37,0-22.74v-5.06l-.15,0-.2,0-5.1.52-5.25.54v10.12q-5.84.9-11.66,1.85V308.55q8.19-.51,16.43-1.07,0-9.89,0-19.78-3.89-.12-7.75-.27c-2-.07-4-.16-6-.25-.9,0-1.81-.07-2.71-.12V269.92c1.59.22,3.17.42,4.76.62l5.37.66,1.52.19q0,5.06,0,10.13c2.27.15,4.54.28,6.82.41l3.87.22q0-3.61,0-7.23,0-11,0-22v-.2a400.22,400.22,0,0,1-41.57-10.29v22.85l2,.35c1.31.24,2.62.48,3.94.7v64.81l-3.94.71-2,.36v22.85m400.5-26.59-.3,0c-3.38-.56-6.77-1.12-10.16-1.66a1.26,1.26,0,0,1-.84-.42,3.06,3.06,0,0,1-.43-1.83c0-.15,0-.31,0-.48v-3.8c0-1.72,0-3.45,0-5.17L663.14,314l-.94-.09L661,313.8v2c0,3.53,0,7.06,0,10.59,0,7.16,1.11,12.36,3.4,15.77A11.13,11.13,0,0,0,667,345a10.84,10.84,0,0,0,3.63,1.71q10.08,2.63,20.11,5.55a7.56,7.56,0,0,0,2,.36H693c5,0,7.37-6.3,7.37-19.36V312.47c0-14.35-2.57-18.34-8-21.52-.63-.37-1.29-.73-2-1.09l-.16-.08-1.85-.9c-1.79-.87-3.58-1.73-5.37-2.56q-3.48-1.62-7-3.13c-1.28-.63-1.49-1-1.49-2.58V273a10.69,10.69,0,0,1,.05-1.07,1.85,1.85,0,0,1,.54-1.37,1.3,1.3,0,0,1,.69-.25q3.87-.49,7.72-1l1.58-.22.27,0c.77,0,1,.63,1,2.52v8.51l1.91-.18,2-.19,2-.18c2.46-.25,4.93-.5,7.39-.77V264.5c0-13.09-2.42-19.35-7.45-19.35h-.17a7.8,7.8,0,0,0-2,.33h0q-9.59,2.64-19.21,4.77a10.49,10.49,0,0,0-3.67,1.6c-4.05,2.83-6,8.81-6,18.33q0,8,0,16c0,13.11,3.28,15.66,10.25,19.48q7.11,3.92,14.21,8.33c1.13.7,1.49,1.18,1.49,2.83,0,.75,0,1.51,0,2.26V326c0,.42,0,.76,0,1.06-.09,1-.34,1.43-.88,1.45h-.06M615,274.6l.43,0,5.62-.31,0,14.42c0,2.64,0,5.28,0,7.92l0,10.89c0,2.93,0,5.86,0,8.79,0,1.24,0,2.49,0,3.73l-4.56-.54-1.5-.18v.11l0,12.3v2.82Q636,338.25,657,343.25V340.3q0-11.48,0-23v-3.14l-5.41-.54-5.32-.52q0,4.53,0,9.06l-3-.41-8-1.07-.77-.1c0-.7,0-1.4,0-2.11,0-2.88,0-5.77,0-8.65,0-1.45,0-2.9,0-4.35l.49,0,8.55.56,6.56.43,1,.07c0-1.52,0-3,0-4.55V295.7q0-3.82,0-7.66-8.26.16-16.55.24,0-6.87,0-13.74c2.13-.14,4.25-.3,6.38-.46l5.37-.42V278c0,1.58,0,3.16,0,4.74,3.58-.15,7.16-.31,10.73-.5v-1.17q0-13.72,0-27.47v-.49c-13.93,2.64-27.95,4.65-42,6.22v.26l0,15v.06M330.83,342.83q20.66-4.89,41.49-8.5v-1.24L372.26,305q-5.42.33-10.82.69l0,13.61q-5.58.67-11.15,1.39,0-23.64-.07-47.35l6.46.46,0-16.18q-8.31-1.12-16.59-2.5c-3.11-.52-6.23-1-9.33-1.63v.13q0,8,0,15.91v2.12c1.48.15,3,.28,4.45.42l1.56.15q0,25.86.05,51.66l-2.9.43-3.11.46v6.21q0,5.2,0,10.41v1.49m239.23-66.6h.78l5.33-.13,0,9.08q0,6.79,0,13.58v2.39l0,7.95v.36c0,2,0,4,0,6l-6.11-.49v.66l0,10.14c0,.67,0,1.34,0,2v.39q21.32,2.34,42.48,6c0-.27,0-.54,0-.8v-2l0-13.05c0-2,0-4,0-6v-2.15l-2.61-.21-8.23-.65q0,3.79,0,7.57l-5.08-.5-6.35-.61-.45,0V315c0-2.32,0-4.63,0-6.95,0-1.74,0-3.47,0-5.21q8.37.43,16.73.92v-1l0-14.37h-.3l-7.72,0h-3.55l-5.15,0c0-1.19,0-2.38,0-3.56,0-1.53,0-3.05,0-4.57,0-1.17,0-2.33,0-3.49l3.1-.11,4.76-.16,4-.14c0,2.52,0,5.05,0,7.58l6.86-.1,4-.06q0-4.31,0-8.61l0-15.18v-.29c-14.09,1.51-28.25,2.61-42.47,3.41V264l0,11.64v.64M376.22,333.66q11.43-1.91,22.89-3.45c0-.4,0-.8,0-1.2l0-12.64-4.35.4q0-15.86-.09-31.74,4.8,16.74,9.6,32.5c3.24-.29,6.48-.58,9.73-.84q4.73-16.2,9.45-31.62,0,14.67.08,29.33c-1.41.09-2.82.19-4.22.3l0,11.87v1.22q11.64-1.23,23.31-2.06c0-.43,0-.87,0-1.3,0-3.73,0-7.45,0-11.17l-6.13.32-.09-37,6.13.08q0-5.64,0-11.27V264.2q-11.66-.39-23.27-1L419,264q-4.65,15-9.28,30.66c-3.18-10.44-6.36-21.15-9.54-32.2,0-.15-.09-.3-.13-.45q-12-.89-24-2.11v.07q0,7.46,0,14.92l6.07.28q0,21.48.1,42.9l-6.07.67,0,13.73v1.22m141.5-56.75,3.79,0h2.35V282c0,.88,0,1.76,0,2.64,0,2.66,0,5.31,0,8l0,16.81v3l-2.45-.07-3.69-.1v5.48c0,1.58,0,3.16,0,4.74v1.85q6.92.24,13.84.62c3.61.2,7.21.42,10.82.67v-2.1l0-10.35-4.82-.23q0-5.27,0-10.53l5.7.18q3.84,10.58,7.67,21.49c.24.69.48,1.37.73,2.06,0,.07.05.14.07.21q7.57.63,15.14,1.43v-.37c0-.67,0-1.34,0-2l0-10.48v-.24c-2-.15-3.93-.29-5.9-.42l-2.16-6.18q-1.3-3.71-2.61-7.37a8.17,8.17,0,0,0,3.59-1.36c2.59-1.82,3.86-5.34,3.87-10.64l0-9.45c0-1.16,0-2.31,0-3.47,0-5.89-1.54-9.54-4.75-11.11a9.94,9.94,0,0,0-4.41-.91h-.72q-15.6.66-31.24.94l-4.88.09v1.63c0,3.48,0,7,0,10.44m37.62-79.61h-117v60.75c-6.44-.24-12.76-.52-18.8-.85l-3.11-.16-1.56-.09-.46,1.49-.22.71-.61,2-.09.3,0,.13c-2.76-.22-5.19-.41-7.48-.61l-.18-.62,0-.12-.59-2.06-.15-.5-.38-1.33-1.39-.11-2.78-.2c-8.21-.6-16.21-1.31-23.78-2.1l-4.42-.46-2.21-.23v4l-7.37-.94v-3.95l-1.73-.23-3.46-.47c-5.74-.77-11.48-1.64-17.05-2.57l-4-.68-.2,0-.45-.08-4-.72-1.79-.33-1.73-.33a393.47,393.47,0,0,1-40.95-10.13l-5.17-1.6-2.59-.79v36l1.64.31,2,.36,1.28.24.41.07.31.06.1,0,.2,0v54.77h0l-.28.05-.28,0-.43.08-1.29.23-2,.37-1.64.29v36l2.59-.8,5.17-1.59c13.59-4.18,27.48-8,41.29-11.33l1.78-.43,1.76-.42c13.57-3.2,27.41-6,41.14-8.42l1.93-.33,1.94-.33c7.49-1.26,15.13-2.41,22.69-3.43l3.47-.46,1.74-.24v-5.21c2.72-.34,5.46-.67,8.2-1v5.2l2.2-.23,4.41-.46c7.64-.81,15.42-1.49,23.11-2l3.72-.27,1.86-.13V326c4.06-.28,8.25-.53,12.49-.74v38.16h71.46V331.05c3.21.18,6.34.38,9.34.59l4.27.3,1.17.08h0l1.3.11,2.58.22c5,.41,10,.89,15,1.41l1.52.16,1.51.17c14,1.54,28.21,3.53,42.12,5.92l1.22.21,1.21.21c14,2.45,28,5.36,41.76,8.65l4.93,1.17,2.46.59v-1.46l.24.18.11.09c.26.2.53.37.76.53l.08.05.36.23a7.26,7.26,0,0,0,.68.4c.2.12.4.22.61.33l.61.29c.3.14.59.26.81.34l.13.05.37.15c.5.17.95.32,1.39.44h0c6.65,1.73,13.35,3.58,19.92,5.5a13.85,13.85,0,0,0,3.95.61c5,0,9.07-3.15,11.16-8.65,1.49-3.9,2.21-9.37,2.21-16.71V312.47c0-.54,0-1.07,0-1.59,0-.13,0-.26,0-.39v-.43c0-.24,0-.48,0-.71s0-.33,0-.5v-.46c0-.16,0-.33,0-.49s0-.39,0-.58v-.41c0-.14,0-.28,0-.41s0-.41-.05-.61v-.18l0-.19c0-.12,0-.24,0-.36l-.06-.63,0-.16,0-.17,0-.31c0-.24,0-.47-.08-.69v-.1l0-.15a2.89,2.89,0,0,0,0-.29c0-.24-.06-.47-.1-.7v-.07l0-.14a2.34,2.34,0,0,0,0-.26c0-.25-.08-.49-.13-.73v0l0-.12c0-.08,0-.16,0-.24,0-.25-.1-.49-.15-.74l0-.11c0-.08,0-.15,0-.22l-.18-.73,0-.09c0-.07,0-.14,0-.21-.06-.24-.13-.47-.2-.71l0-.08-.06-.19c-.07-.24-.15-.46-.22-.69l0-.07-.06-.18-.24-.67,0-.07-.06-.16-.27-.65,0-.06c0-.05,0-.1-.07-.16s-.19-.41-.29-.62l0,0-.08-.15c-.1-.21-.21-.41-.32-.6l0-.05-.08-.14c-.11-.2-.23-.39-.35-.58l0,0a1,1,0,0,0-.08-.14c-.12-.19-.25-.37-.37-.55l0,0-.09-.13-.39-.53,0,0-.09-.12c-.13-.17-.27-.34-.42-.5l0,0-.09-.11-.45-.49,0,0-.09-.1-.48-.47,0,0-.1-.09c-.16-.16-.33-.31-.5-.45l0,0-.09-.08-.53-.43,0,0-.09-.07c-.18-.15-.37-.29-.56-.43l0,0-.09-.07c-.19-.14-.38-.28-.58-.41l0,0-.08-.05-.62-.41,0,0-.07,0-.65-.4,0,0-.06,0-.69-.4-.08-.05-.22-.12,1.63-.17.17,0h.15l3.78-.41,3.57-.39,1.78-.19V264.5c0-7.36-.74-12.83-2.24-16.74-2.11-5.47-6.2-8.61-11.21-8.61a13.53,13.53,0,0,0-3.8.57c-6.08,1.67-12.44,3.25-18.89,4.69h0c-.38.09-.76.2-1.19.32l-.05,0-.13,0c-.4.13-.78.26-1.14.4l-.07,0a16.5,16.5,0,0,0-2.27,1.12,16.21,16.21,0,0,0-1.62,1.13v-1.61l-2.38.45-4.75.9c-13,2.48-26.65,4.49-41.57,6.15l-1.19.14-1.24.13c-13.18,1.42-27,2.53-42.17,3.39l-3.76.22-1.88.11v3.54a13.1,13.1,0,0,0-3.69-2.11,15.72,15.72,0,0,0-4-.89h0l-.24,0-.78-.05V197.3Zm-109,8h101v51H527.11V231.88H510v98.2h14.54v25.34H469.1V330.08h14.54v-98.2H466.56v24.38H446.32v-51Zm-158.7,58.35V245.18c12,3.58,24.3,6.61,37.57,9.23l0,20.52V280l-1.52-.09h-.23l-4.94-.3v-10l-1.77-.2-.83-.1-.69-.08-5.35-.66c-1.51-.19-3.14-.4-4.74-.62l-2.27-.31V289l1.91.09,1.59.07,1.12.05,6,.25,5.83.21v16l-14.56.95-1.87.12v23.09l2.32-.37c3.92-.64,7.84-1.26,11.65-1.84l1.7-.27v-10l1.62-.16,1.84-.19,1.65-.17,1.59-.17v2.85l0,22.69c-12.59,3.07-25.23,6.53-37.64,10.3V333.93l.36-.06.66-.12,3.27-.59,1.65-.29V264.69l-1.67-.28-3.25-.58-.67-.12-.35-.06Zm398.67,66.86c1-.05,2.53-.56,2.76-3.28,0-.35,0-.75,0-1.22v-9.14a4.53,4.53,0,0,0-2.44-4.53c-4.6-2.88-9.42-5.7-14.29-8.38-3.17-1.74-5.53-3.16-7-5.55s-2.21-6.25-2.21-12.18v-16c0-8.8,1.7-14.26,5.18-16.69a8.34,8.34,0,0,1,3-1.29c6.57-1.46,13.07-3.08,19.31-4.79h0a6,6,0,0,1,1.5-.25h.11c4.5,0,5.45,9.43,5.45,17.35V277l-5.59.57-1.2.11-.79.07-.22,0-1.5.14v-6.31a7.34,7.34,0,0,0-.35-2.7,2.77,2.77,0,0,0-2.65-1.82,3.6,3.6,0,0,0-.56,0l-.92.13-.65.09c-2.78.4-5.3.74-7.69,1a3.33,3.33,0,0,0-1.66.66,3.74,3.74,0,0,0-1.31,2.75,11.63,11.63,0,0,0-.06,1.27v7.58c0,2,.41,3.3,2.61,4.37l0,0,0,0c2.31,1,4.63,2.05,6.92,3.11,1.64.76,3.38,1.59,5.33,2.55l.59.28,1.25.61.06,0,.08,0c.73.38,1.36.72,1.91,1,4.24,2.48,7,5.19,7,19.79v20.76c0,7.92-.93,17.36-5.37,17.36h-.16a6.1,6.1,0,0,1-1.5-.27h0c-6.66-1.94-13.44-3.81-20.16-5.56a8.88,8.88,0,0,1-3-1.4,9,9,0,0,1-2.18-2.29c-2-3-3.06-8-3.06-14.66V316l9.4.93v7.16c0,.2,0,.37,0,.54a4.86,4.86,0,0,0,.89,3.05,3.26,3.26,0,0,0,2.07,1.12c3.27.52,6.69,1.08,10.14,1.65a3.52,3.52,0,0,0,.63.06ZM617,261.11c13.54-1.54,26-3.38,38-5.59l0,24.82-6.73.31v-9.16l-2.17.18-5.36.42-6.37.46-1.86.12V290.3l2,0c5,0,9.88-.12,14.54-.2v14.36l-2.79-.18-2.6-.17-2.28-.15-6.27-.41-.23,0h-.26l-2.13-.14v19l1.75.22.38.06.38.05c2.67.34,5.3.7,8,1.07l1.33.17,1.66.23,2.27.31v-9.15l1.38.14,1.75.17,1.86.19L655,316v1.33l0,23v.42c-12.58-3-25.38-5.6-38.12-7.87v-1.13l0-6.25v-3.92l3.83.46,2.23.27v-20l0-5.63V288.7l0-7.83v-8.72l-2.13.12-3.93.22v-1.42l0-10Zm-284.24,8.67V255.84c2.11.38,4.39.77,7,1.2,5,.83,10,1.6,14.92,2.27v4l0,8.32-4.32-.31-2.15-.16v2.16l.07,47.36v2.27l2.25-.29c3.67-.48,7.42-.95,11.14-1.4l1.76-.21v-1.78l0-11.26v-.47l6.81-.44,0,11.13,0,14.45c-12.51,2.21-25.11,4.78-37.49,7.65V326.44l.38-.05,1-.15,1-.15,1.91-.29,1.71-.25v-1.73q0-25.8-.05-51.65v-1.82l-1.81-.17-.86-.08-.7-.07h-.14l-2.49-.24Zm239.32-4.88c13.75-.8,26.37-1.82,38.47-3.08l0,12.67v7.22h-.43l-1.58,0-1.5,0-3.33.05,0-5.55v-2.08l-2.08.08-2.36.08-1.65.06-4.75.16-1.39.05-1.71.06-1.93.06v15.54l2,0h11.29l3.44,0,0,11.3c-5.1-.29-9.9-.55-14.63-.8l-2.09-.1v16.71l1.82.17.24,0,.22,0,6.34.61,5.06.5,2.2.22v-7.62l6.08.48.76.07v6.31l0,13.06v.44c-12.73-2.14-25.66-4-38.48-5.4v-.6l0-8.65,3.95.32,2.16.18V309.1l0-4.42v-9.3l0-10.21v-3.79l0-5.29V274l-2.06.06-4.05.1,0-9.29Zm-194,8.05,0-10.86c6.55.66,13.4,1.26,20.41,1.78,3,10.37,6.12,20.91,9.3,31.34l2,6.38,1.88-6.4c2.9-9.82,5.94-19.89,9-29.92,6.4.34,13.06.63,19.82.87l0,8.53-4.1-.06-2,0v2l.09,37v2.11l2.1-.12,4-.22v8.51c-6.43.48-12.9,1.05-19.3,1.7l0-7v-2l2.35-.17,1.87-.13v-1.87l-.08-29.32,0-13.24-3.87,12.66c-3.1,10.11-6.15,20.3-9.07,30.32-2.27.19-4.53.38-6.76.59-3.13-10.3-6.19-20.7-9.12-30.92l-4-13.84,0,14.39.09,31.75V319l2.19-.21,2.17-.21v.81l0,9.09c-6.29.86-12.63,1.82-18.88,2.85l0-5.4V320.5l4.29-.47,1.79-.19V318l0-8.72-.08-34.18v-1.91l-1.91-.09-4.16-.19Zm141.65-6.15,1.43,0,1.49,0c11.09-.21,21.32-.52,31.28-.94h.64a8,8,0,0,1,3.53.7c2.45,1.21,3.64,4.25,3.63,9.31v3.48l0,9.44c0,4.58-1,7.61-3,9a6.12,6.12,0,0,1-2.72,1l-2.42.34.82,2.31c.87,2.44,1.73,4.9,2.6,7.37.72,2.05,1.44,4.1,2.16,6.17l.44,1.25,1.32.09,4,.28v9c-3.9-.4-7.81-.77-11.69-1.1l-.08-.22-.29-.82c-2.53-7.19-5.11-14.43-7.68-21.52l-.47-1.27-1.35,0-5.7-.18-2.05-.06v2.06l0,10.53v1.92l1.91.08,2.9.14,0,8.4c-2.76-.18-5.63-.35-8.71-.52-4.09-.22-8.1-.41-12-.56v-8.09l.7,0,.93,0,1,0,1.48,0,2,.06v-5.08l0-13.43V274.86l-2,0h-4.13v-8.1Z" transform="translate(-30.65 -144.1)"/><path d="M548.76,277.33h0l-2.73,0-6,.07-2.4,0c0,2.07,0,4.13,0,6.2s0,4.29,0,6.43l3.64,0,1.66,0h1.24l4.55.05h.06c1,0,1.26-.36,1.26-1.59l0-9.69C550,277.69,549.74,277.33,548.76,277.33Z" transform="translate(-30.65 -144.1)"/><path class="cls-5" d="M318,316.81v10.05l-1.28.2c-3.8.59-7.72,1.21-11.65,1.85l-1.74.28v-22l1.4-.09,15-1V289.15c-2.2-.07-4.38-.14-6.53-.23q-2.94-.1-5.79-.24l-2.68-.12-1.43-.07V268.2l1.7.24c3.78.51,7.69,1,11.62,1.46l1.33.15v10.06l5.72.34,2,.12v-4.16l0-22.41c-11.05-2.17-21.44-4.63-31.5-7.45q-3.56-1-7.07-2v19.57l.5.09,4.19.73,1.25.21v67.34l-1.24.22-4.2.75-.5.09v19.57c12.49-3.8,25.22-7.29,37.9-10.4l.74-.18,0-26.48Z" transform="translate(-30.65 -144.1)"/><path class="cls-5" d="M370.76,306.54l-7.81.51V309l0,10.26v1.34l-1.32.16c-3.72.45-7.47.91-11.14,1.39l-1.69.22v-1.7l-.07-47.36v-1.62l1.62.12,4.85.35,0-7.86v-5.4c-7.88-1.08-15.57-2.3-22.92-3.64v15l2.4.23,2.24.21,1.36.12v1.37q0,25.86.05,51.65v1.3l-1.28.19-3.08.46-1.65.24v14.92c12.71-3,25.64-5.6,38.49-7.86l0-13Z" transform="translate(-30.65 -144.1)"/><path class="cls-5" d="M436.54,315.08l-1.58.09v-1.58l-.09-37v-1.52l1.52,0,4.61.06,0-9.52c-7.06-.24-14-.55-20.68-.9-3.13,10.11-6.22,20.3-9.17,30.3l-1.41,4.8-1.46-4.78c-3.22-10.56-6.38-21.21-9.39-31.67-7.33-.55-14.48-1.17-21.3-1.87V262l0,11.48,4.64.21,1.43.06v1.44l.09,36.7v7.55l-1.34.15-4.73.51,0,7.76v4.08c6.58-1.08,13.26-2.09,19.88-3l0-10.89-2.71.26-1.64.16v-1.65L393.13,285l0-10.79,3,10.38c3,10.35,6.07,20.88,9.24,31.31,2.47-.23,5-.44,7.5-.65,2.95-10.12,6-20.42,9.16-30.65l2.91-9.49,0,9.93.08,29.32v1.4l-1.4.1-2.82.2V319l0,7.14c6.73-.69,13.54-1.29,20.3-1.79l0-9.51Z" transform="translate(-30.65 -144.1)"/><path class="cls-5" d="M559.91,315.72l-.32-.94-.06-.16q-.85-2.46-1.73-4.93c-1-2.82-2-5.65-3-8.45l-.62-1.73,1.82-.26a6,6,0,0,0,4.14-2.25c1.17-1.51,2-4,2-8.27v-4l0-9c0-4.17-.81-7.1-2.44-8.73a7,7,0,0,0-5.22-1.79h-.66c-6.83.29-13.9.53-21.12.71q-5.07.14-10.23.23l-3.33.06v9.09h6.15v1.51q0,17.79-.05,35.58V314l-1.55,0-2.53-.08-2.06-.06v9.09c7.2.27,14.47.65,21.66,1.14v-9.42l-3.37-.16-1.44-.06V313l0-10.53V300.9l1.54,0,5.69.18,1,0,.35,1c2.69,7.43,5.34,14.86,7.9,22.13l.25.73c4.17.36,8.38.75,12.56,1.18V324l0-7.86-4.49-.31Zm-8.42-28.06v1c0,2-.93,3.08-2.76,3.08h-.07l-11.09-.12h-1.49v-7.05l0-7.07V276l1.48,0,4.29,0,2.17,0,4.64-.06h.07a2.77,2.77,0,0,1,2,.71,3.15,3.15,0,0,1,.75,2.38Z" transform="translate(-30.65 -144.1)"/><path class="cls-5" d="M571.56,274.7l4.57-.11,1.54,0v1.54q0,13.47-.08,26.93c0,1.54,0,3.08,0,4.62,0,.89,0,1.79,0,2.68,0,1.7,0,3.4,0,5.1V317l-1.62-.13-.28,0-3-.24-1.18-.1,0,9.34v.9c13.16,1.47,26.42,3.33,39.48,5.54v-1.27l.05-19.6-7.85-.62v7.61l-1.65-.17c-4-.4-8-.79-11.86-1.15L588.2,317v-1.37l0-12.79v-1.58l1.57.08,15.15.83v-1l0-8.85v-2.49l-15.23-.06h-1.49v-1.5l0-11.62v-1.45l1.45,0c4-.13,8-.26,11.86-.41l1.56-.06v1.56l0,5.62v.44l6.28-.09,1.56,0v-5.79l0-15.15c-12.39,1.31-25.34,2.35-39.47,3.17Z" transform="translate(-30.65 -144.1)"/><path class="cls-5" d="M616.48,271.65V273l4.46-.25,1.59-.09v1.59l-.08,41.88v5.57l-1.68-.21-4.38-.53v4.63l0,6.36v1.3c13.07,2.32,26.21,5,39.12,8.08v-1.41q0-11.44,0-22.92v-1.48l-2.67-.27-5.06-.5v9.13l-1.7-.24-5.38-.73-4-.54-2.33-.3-1.31-.17v-18l1.59.11h.27l8.55.56,6.15.41V289.57l-5.08.09h-.57q-4.6.07-9.39.12H633V273.14l1.4-.09c2.08-.15,4.14-.29,6.18-.45l5.55-.43,1.63-.14v9.14l7.73-.35v-1.4l0-24.51c-12.3,2.29-25.11,4.18-39,5.76Z" transform="translate(-30.65 -144.1)"/><path class="cls-5" d="M692.39,292.7c-.63-.4-1.3-.77-2-1.14l-.85-.44-1.16-.57c-2.13-1.05-4.31-2.08-6.52-3.1s-4.26-1.95-6.42-2.89h0l0,0c-1.79-.87-2.33-1.79-2.33-3.92V273c0-1.35,0-3.85,2.59-4.18l.36-.05c2.19-.28,4.39-.57,6.55-.88l2.36-.33a2.77,2.77,0,0,1,.49,0,2.27,2.27,0,0,1,2.19,1.51,7,7,0,0,1,.31,2.51v6.87l.4,0,2-.18,2-.2c2-.19,4-.4,5.9-.6V264.5c0-6.33-.59-11.06-1.74-14-1.31-3.41-3-3.81-4.21-3.81h-.16a6.53,6.53,0,0,0-1.59.27l-.4.11c-2.44.67-4.91,1.31-7.41,2q-5.67,1.42-11.5,2.74c-5.8,1.34-8.51,7.2-8.52,18.46v16c0,12.44,2.9,14.56,9.47,18.17,4.87,2.67,9.67,5.49,14.28,8.37a3.82,3.82,0,0,1,2.14,3.13,9.66,9.66,0,0,1,.05,1V326c0,1.21,0,4-2.47,4a3.51,3.51,0,0,1-.55,0l-.64-.11c-3.15-.52-6.26-1-9.27-1.51l-.23,0c-2.55-.41-2.55-2.88-2.55-4.21v-7.61l-6.71-.67-3.69-.37v10.94c0,5.74.75,10.23,2.24,13.34a11.17,11.17,0,0,0,2.14,3.08,9.06,9.06,0,0,0,4.2,2.41c6.56,1.71,13.19,3.54,19.71,5.44l.43.12a6.53,6.53,0,0,0,1.57.3H693c1.16,0,2.85-.39,4.15-3.81,1.14-3,1.72-7.73,1.72-14V312.47C698.89,299.28,696.67,295.42,692.39,292.7Z" transform="translate(-30.65 -144.1)"/><polygon class="cls-5" points="479.87 185.49 479.87 183.99 479.87 182.27 479.87 180.26 479.87 178.27 479.87 122.51 479.87 120.51 479.87 118.51 479.87 89.78 479.87 88.28 481.37 88.28 494.45 88.28 495.95 88.28 495.95 89.78 495.95 112.66 517.19 112.66 517.19 60.71 415.17 60.71 415.17 112.66 428.97 112.66 436.4 112.66 436.4 99.95 436.4 89.78 436.4 88.28 437.9 88.28 440.7 88.28 449.81 88.28 450.99 88.28 452.49 88.28 452.49 89.78 452.49 118.56 452.49 120.57 452.49 122.56 452.49 178.36 452.49 180.35 452.49 182.36 452.49 183.99 452.49 185.49 450.99 185.49 437.95 185.49 437.95 211.83 494.41 211.83 494.41 185.49 481.37 185.49 479.87 185.49"/><path class="cls-4" d="M327.24,319.42v-5.06l-.15,0-.2,0-5.1.52-5.25.54v10.12q-5.84.9-11.66,1.85V308.55q8.19-.51,16.43-1.07,0-9.89,0-19.78-3.89-.12-7.75-.27c-2-.07-4-.16-6-.25-.9,0-1.81-.07-2.71-.12V269.92c1.59.22,3.17.42,4.76.62l5.37.66,1.52.19q0,5.06,0,10.13c2.27.15,4.54.28,6.82.41l3.87.22q0-3.61,0-7.23,0-11,0-22v-.2a400.22,400.22,0,0,1-41.57-10.29v22.85l2,.35c1.31.24,2.62.48,3.94.7v64.81l-3.94.71-2,.36v22.85q20.69-6.36,41.64-11.43v-1.52Q327.25,330.79,327.24,319.42Zm-40.12,14.09.5-.09,4.2-.75,1.24-.22V265.11l-1.25-.21-4.19-.73-.5-.09V244.51q3.51,1.05,7.07,2c10.06,2.82,20.45,5.28,31.5,7.45l0,22.41v4.16l-2-.12-5.72-.34V270.05l-1.33-.15c-3.93-.46-7.84-.95-11.62-1.46l-1.7-.24v20.29l1.43.07,2.68.12q2.85.13,5.79.24c2.15.09,4.33.16,6.53.23v16.93l-15,1-1.4.09v22l1.74-.28c3.93-.64,7.85-1.26,11.65-1.85l1.28-.2V316.81l7.7-.79,0,26.48-.74.18c-12.68,3.11-25.41,6.6-37.9,10.4Z" transform="translate(-30.65 -144.1)"/><path class="cls-4" d="M372.26,305q-5.42.33-10.82.69l0,13.61q-5.58.67-11.15,1.39,0-23.64-.07-47.35l6.46.46,0-16.18q-8.31-1.12-16.59-2.5c-3.11-.52-6.23-1-9.33-1.63v.13q0,8,0,15.91v2.12c1.48.15,3,.28,4.45.42l1.56.15q0,25.86.05,51.66l-2.9.43-3.11.46v6.21q0,5.2,0,10.41v1.49q20.66-4.89,41.49-8.5v-1.24Zm-39.94,23.6V326l1.65-.24,3.08-.46,1.28-.19v-1.3q0-25.8-.05-51.65V270.8l-1.36-.12-2.24-.21-2.4-.23v-15c7.35,1.34,15,2.56,22.92,3.64v5.4l0,7.86-4.85-.35-1.62-.12v1.62l.07,47.36v1.7l1.69-.22c3.67-.48,7.42-.94,11.14-1.39l1.32-.16v-1.34L363,309v-1.93l7.81-.51,0,13.5,0,13C358,335.33,345,338,332.33,340.93V328.55Z" transform="translate(-30.65 -144.1)"/><path class="cls-4" d="M442.58,313.26l-6.13.32-.09-37,6.13.08q0-5.64,0-11.27V264.2q-11.66-.39-23.27-1L419,264q-4.65,15-9.28,30.66c-3.18-10.44-6.36-21.15-9.54-32.2,0-.15-.09-.3-.13-.45q-12-.89-24-2.11v.07q0,7.46,0,14.92l6.07.28q0,21.48.1,42.9l-6.07.67,0,13.73v1.22q11.43-1.91,22.89-3.45V329l0-12.64-4.35.4q0-15.86-.09-31.74,4.8,16.74,9.6,32.5c3.24-.29,6.48-.58,9.73-.84q4.73-16.2,9.45-31.62,0,14.67.08,29.33c-1.41.09-2.82.19-4.22.3l0,11.87v1.22q11.64-1.23,23.31-2.06v-1.3C442.59,320.7,442.59,317,442.58,313.26Zm-19,2.63,1.4-.1v-1.4l-.08-29.32,0-9.93L422,284.63c-3.13,10.23-6.21,20.53-9.16,30.65-2.51.21-5,.42-7.5.65-3.17-10.43-6.27-21-9.24-31.31l-3-10.38,0,10.79.09,31.75v1.65l1.64-.16,2.71-.26,0,10.89c-6.62.9-13.3,1.91-19.88,3v-4.08l0-7.76,4.73-.51,1.34-.15v-7.55l-.09-36.7V273.7l-1.43-.06-4.64-.21,0-11.48v-.42c6.82.7,14,1.32,21.3,1.87,3,10.46,6.17,21.11,9.39,31.67l1.46,4.78,1.41-4.8c2.95-10,6-20.19,9.17-30.3,6.67.35,13.62.66,20.68.9l0,9.52-4.61-.06-1.52,0v1.52l.09,37v1.58l1.58-.09,4.54-.25,0,9.51c-6.76.5-13.57,1.1-20.3,1.79l0-7.14v-2.9Z" transform="translate(-30.65 -144.1)"/><path class="cls-4" d="M558.84,308.11q-1.3-3.71-2.61-7.37a8.17,8.17,0,0,0,3.59-1.36c2.59-1.82,3.86-5.34,3.87-10.64l0-9.45c0-1.16,0-2.31,0-3.47,0-5.89-1.54-9.54-4.75-11.11a9.94,9.94,0,0,0-4.41-.91h-.72q-15.6.66-31.24.94l-4.88.09v1.63c0,3.48,0,7,0,10.44l3.79,0h2.35V282c0,.88,0,1.76,0,2.64,0,2.66,0,5.31,0,8l0,16.81v3l-2.45-.07-3.69-.1v5.48c0,1.58,0,3.16,0,4.74v1.85q6.92.24,13.84.62c3.61.2,7.21.42,10.82.67v-2.1l0-10.35-4.82-.23q0-5.27,0-10.53l5.7.18q3.84,10.58,7.67,21.49c.24.69.48,1.37.73,2.06,0,.07.05.14.07.21q7.57.63,15.14,1.43v-.37c0-.67,0-1.34,0-2l0-10.48v-.24c-2-.15-3.93-.29-5.9-.42ZM565.37,324v2.18c-4.18-.43-8.39-.82-12.56-1.18l-.25-.73c-2.56-7.27-5.21-14.7-7.9-22.13l-.35-1-1,0-5.69-.18-1.54,0v1.54L536,313v1.44l1.44.06,3.37.16v9.42c-7.19-.49-14.46-.87-21.66-1.14v-9.09l2.06.06,2.53.08,1.55,0v-1.54q0-17.79.05-35.58v-1.51h-6.15v-9.09l3.33-.06q5.16-.09,10.23-.23c7.22-.18,14.29-.42,21.12-.71h.66a7,7,0,0,1,5.22,1.79c1.63,1.63,2.45,4.56,2.44,8.73l0,9v4c0,4.24-.86,6.76-2,8.27a6,6,0,0,1-4.14,2.25l-1.82.26.62,1.73c1,2.8,2,5.63,3,8.45q.87,2.47,1.73,4.93l.06.16.32.94,1,.07,4.49.31Z" transform="translate(-30.65 -144.1)"/><path class="cls-4" d="M548.76,275.83h-.07l-4.64.06-2.17,0-4.29,0-1.48,0v1.48l0,7.07v7.05h1.49l11.09.12h.07c1.83,0,2.76-1,2.76-3.08v-1l0-8.74a3.15,3.15,0,0,0-.75-2.38A2.77,2.77,0,0,0,548.76,275.83ZM550,288.61c0,1.23-.28,1.59-1.26,1.59h-.06l-4.55-.05h-1.24l-1.66,0-3.64,0c0-2.14,0-4.29,0-6.43s0-4.13,0-6.2l2.4,0,6-.07,2.73,0h0c1,0,1.26.36,1.26,1.59Z" transform="translate(-30.65 -144.1)"/><path class="cls-4" d="M570.09,264l0,11.64v.64h.78l5.33-.13,0,9.08q0,6.79,0,13.58v2.39l0,7.95v.36c0,2,0,4,0,6l-6.11-.49v.66l0,10.14c0,.67,0,1.34,0,2v.39q21.32,2.34,42.48,6V331.3l0-13.05c0-2,0-4,0-6v-2.15l-2.61-.21-8.23-.65q0,3.79,0,7.57l-5.08-.5-6.35-.61-.45,0V315c0-2.32,0-4.63,0-6.95,0-1.74,0-3.47,0-5.21q8.37.43,16.73.92v-1l0-14.37h-.3l-7.72,0h-3.55l-5.15,0c0-1.19,0-2.38,0-3.56,0-1.53,0-3.05,0-4.57,0-1.17,0-2.33,0-3.49l3.1-.11,4.76-.16,4-.14c0,2.52,0,5.05,0,7.58l6.86-.1,4-.06q0-4.31,0-8.61l0-15.18v-.29c-14.09,1.51-28.25,2.61-42.47,3.41Zm1.5.48c14.13-.82,27.08-1.86,39.47-3.17l0,15.15v5.79l-1.56,0-6.28.09v-.44l0-5.62V274.7l-1.56.06c-3.85.15-7.84.28-11.86.41l-1.45,0v1.45l0,11.62v1.5h1.49l15.23.06v2.49l0,8.85v1l-15.15-.83-1.57-.08v1.58l0,12.79V317l1.37.12c3.9.36,7.89.75,11.86,1.15l1.65.17v-7.61l7.85.62-.05,19.6v1.27c-13.06-2.21-26.32-4.07-39.48-5.54v-.9l0-9.34,1.18.1,3,.24.28,0,1.62.13v-1.62c0-1.7,0-3.4,0-5.1,0-.89,0-1.79,0-2.68,0-1.54,0-3.08,0-4.62q0-13.47.08-26.93v-1.54l-1.54,0-4.57.11Z" transform="translate(-30.65 -144.1)"/><path class="cls-4" d="M615,259.59l0,15v.06l.43,0,5.62-.31,0,14.42c0,2.64,0,5.28,0,7.92l0,10.89c0,2.93,0,5.86,0,8.79,0,1.24,0,2.49,0,3.73l-4.56-.54-1.5-.18v.11l0,12.3v2.82Q636,338.25,657,343.25V340.3q0-11.48,0-23v-3.14l-5.41-.54-5.32-.52q0,4.53,0,9.06l-3-.41-8-1.07-.77-.1c0-.7,0-1.4,0-2.11,0-2.88,0-5.77,0-8.65,0-1.45,0-2.9,0-4.35l.49,0,8.55.56,6.56.43,1,.07c0-1.52,0-3,0-4.55V295.7q0-3.82,0-7.66-8.26.16-16.55.24,0-6.87,0-13.74c2.13-.14,4.25-.3,6.38-.46l5.37-.42V278c0,1.58,0,3.16,0,4.74,3.58-.15,7.16-.31,10.73-.5v-1.17q0-13.72,0-27.47v-.49c-13.93,2.64-27.95,4.65-42,6.22Zm40.51,19.83v1.4l-7.73.35V272l-1.63.14-5.55.43c-2,.16-4.1.3-6.18.45l-1.4.09v16.65h1.52q4.79,0,9.39-.12h.57l5.08-.09V305l-6.15-.41-8.55-.56h-.27l-1.59-.11v18l1.31.17,2.33.3,4,.54,5.38.73,1.7.24v-9.13l5.06.5,2.67.27V317q0,11.46,0,22.92v1.41c-12.91-3-26.05-5.76-39.12-8.08V332l0-6.36V321l4.38.53,1.68.21v-5.57l.08-41.88v-1.59l-1.59.09-4.46.25v-1.37l0-11c13.92-1.58,26.73-3.47,39-5.76Z" transform="translate(-30.65 -144.1)"/><path class="cls-4" d="M692.37,291c-.63-.37-1.29-.73-2-1.09l-.16-.08-1.85-.9c-1.79-.87-3.58-1.73-5.37-2.56q-3.48-1.62-7-3.13c-1.28-.63-1.49-1-1.49-2.58V273a10.69,10.69,0,0,1,.05-1.07,1.85,1.85,0,0,1,.54-1.37,1.3,1.3,0,0,1,.69-.25q3.87-.49,7.72-1l1.58-.22.27,0c.77,0,1,.63,1,2.52v8.51l1.91-.18,2-.19,2-.18c2.46-.25,4.93-.5,7.39-.77V264.5c0-13.09-2.42-19.35-7.45-19.35h-.17a7.8,7.8,0,0,0-2,.33h0q-9.6,2.64-19.22,4.77a10.49,10.49,0,0,0-3.67,1.6c-4.05,2.83-6,8.81-6,18.33q0,8,0,16c0,13.11,3.28,15.66,10.25,19.48q7.11,3.92,14.21,8.33c1.13.7,1.49,1.18,1.49,2.83,0,.75,0,1.51,0,2.26V326c0,.42,0,.76,0,1.06-.09,1-.34,1.43-.88,1.45h-.06l-.3,0c-3.38-.56-6.77-1.12-10.16-1.66a1.26,1.26,0,0,1-.84-.42,3.06,3.06,0,0,1-.43-1.83c0-.15,0-.31,0-.48v-3.8c0-1.72,0-3.45,0-5.17L663.14,314l-.94-.09L661,313.8v2c0,3.53,0,7.06,0,10.59,0,7.16,1.11,12.36,3.4,15.77A11.13,11.13,0,0,0,667,345a10.84,10.84,0,0,0,3.63,1.71q10.08,2.63,20.11,5.55a7.56,7.56,0,0,0,2,.36H693c5,0,7.37-6.3,7.37-19.36V312.47C700.39,298.12,697.82,294.13,692.37,291Zm6.52,42.28c0,6.32-.58,11-1.72,14-1.3,3.42-3,3.81-4.15,3.81h-.25a6.53,6.53,0,0,1-1.57-.3l-.43-.12c-6.52-1.9-13.15-3.73-19.71-5.44a9.06,9.06,0,0,1-4.2-2.41,11.17,11.17,0,0,1-2.14-3.08c-1.49-3.11-2.24-7.6-2.24-13.34V315.45l3.69.37,6.71.67v7.61c0,1.33,0,3.8,2.55,4.21l.23,0c3,.48,6.12,1,9.27,1.51l.64.11a3.51,3.51,0,0,0,.55,0c2.47,0,2.47-2.81,2.47-4v-9.13a9.66,9.66,0,0,0-.05-1,3.82,3.82,0,0,0-2.14-3.13c-4.61-2.88-9.41-5.7-14.28-8.37-6.57-3.61-9.48-5.73-9.47-18.17v-16c0-11.26,2.72-17.12,8.52-18.46q5.82-1.3,11.5-2.74c2.5-.64,5-1.28,7.41-2l.4-.11a6.53,6.53,0,0,1,1.59-.27h.16c1.18,0,2.9.4,4.21,3.81,1.15,3,1.74,7.71,1.74,14v12.92c-1.94.2-3.92.41-5.9.6l-2,.2-2,.18-.4,0v-6.87a7,7,0,0,0-.31-2.51,2.27,2.27,0,0,0-2.19-1.51,2.77,2.77,0,0,0-.49,0l-2.36.33c-2.16.31-4.36.6-6.55.88l-.36.05c-2.59.33-2.59,2.83-2.59,4.18v7.58c0,2.13.54,3.05,2.33,3.92l0,0h0c2.16.94,4.3,1.91,6.42,2.89s4.39,2.05,6.52,3.1l1.16.57.85.44c.71.37,1.38.74,2,1.14,4.28,2.72,6.5,6.58,6.5,19.77Z" transform="translate(-30.65 -144.1)"/><path class="cls-4" d="M512,326.39V233.88h13.09v24.38h24.24v-55h-105v55h24.24V233.88h13.08v94.21H467.1v29.33h59.46V328.09H512Zm13,29.53H468.6V329.58h14.54v-97.2H467.06v24.38H445.82v-52h102v52H526.61V232.38H510.52v97.2h14.54Z" transform="translate(-30.65 -144.1)"/><path d="M461.63,219.54h-3.32l-2.06-3.32-2.05,3.32H451l3.52-5.43-3.31-5.17h3.18l1.91,3.27,1.84-3.27h3.27l-3.35,5.4Z" transform="translate(-30.65 -144.1)"/><path d="M476.15,219.54l-.52-2h-3.44l-.54,2H468.5L472,208.89h3.82l3.51,10.65ZM475,215.2l-.46-1.74q-.16-.59-.39-1.5t-.3-1.32c0,.25-.13.65-.26,1.22s-.41,1.68-.85,3.34Z" transform="translate(-30.65 -144.1)"/><path d="M493.22,208.94h3.2L493,219.54h-3.37l-3.46-10.6h3.22l1.44,5.37a16.22,16.22,0,0,1,.49,2.49c0-.34.1-.76.21-1.27s.19-.9.26-1.19Z" transform="translate(-30.65 -144.1)"/><path d="M504.4,219.54v-10.6h2.88v10.6Z" transform="translate(-30.65 -144.1)"/><path d="M522.69,219.54H516.4v-10.6h6.29v2.29h-3.43v1.67h3.18v2.3h-3.18v2h3.43Z" transform="translate(-30.65 -144.1)"/><path d="M541.47,219.54h-3.75l-3.87-7.47h-.07c.09,1.17.14,2.07.14,2.69v4.78h-2.54v-10.6h3.74L539,216.3h0c-.06-1.07-.1-1.92-.1-2.57v-4.79h2.55Z" transform="translate(-30.65 -144.1)"/></svg>