<svg id="Layer_1" data-name="Layer 1" xmlns="http://www.w3.org/2000/svg" viewBox="0 0 690.92 244.11"><defs><style>.cls-1{fill:#231f20;}.cls-2{fill:#672f8f;}.cls-3{fill:#faaf3a;}.cls-4{fill:#f05a26;}.cls-5{fill:#fff;}.cls-6{fill:#f69220;}.cls-7{fill:#f2f2f2;}</style></defs><path class="cls-1" d="M176.33,429.72c-9.94,0-16.08-3.63-16.33-3.79l-.88-.53-1.65-56.89-.42-.24c-5.57,5.81-10.28,11.18-10.49,11.42l-1.07,1.22-1.36-.87c-13.14-8.3-19-16.07-19.25-16.4l-.31-.41,0-.52a43.24,43.24,0,0,1,0-10l-11.16-7.92-.14-.75a76.66,76.66,0,0,1-1.2-12,41.21,41.21,0,0,1-10.1-4.08l-.94-.59.06-1.1c.08-1.74.26-4.26.4-6.13l-6.29.06-.72-13.68a53.48,53.48,0,0,1-18.83-14.08l0,0,0-.05C55,260.53,65.24,225,65.36,224.65l2.19-6,.63,4.61a5.44,5.44,0,0,1,.06,1.11v.13c.1,6.79,1.35,12.19,3.92,17,1.89,3.54,5.53,8.19,9.06,10a10.19,10.19,0,0,0,4.66,1.14,9.59,9.59,0,0,0,7.45-3.45,17.55,17.55,0,0,0,3.33-13.64c-1.51-7.66-7.24-21.26-16.89-27.34l-3-1.9L80,205a206.51,206.51,0,0,1,83.34-17c60.54,0,107.39,24.42,107.86,24.67l.93.49.07,1a94.43,94.43,0,0,1-12.42,53.66A96.9,96.9,0,0,1,242.69,290l4.12,5.94a42.53,42.53,0,0,1,20-5.4c10.22,0,20.09,4.77,28.54,13.78a61.9,61.9,0,0,1,9.74,13.7l-2,1.2c-1.13-1.51-3.84-2.45-7.54-2.64,15,20.12,10.15,39.9,10.1,40.11l-1.82,7-1.83-7c-1.55-5.94-6.26-10-13.27-11.5a16.27,16.27,0,0,0-3.4-.34,40,40,0,0,0-9,1.42,43.32,43.32,0,0,1-9.93,1.53,21,21,0,0,1-2.27-.12,66.29,66.29,0,0,1-8.23-2C242.9,377,228.29,400,212.54,414,200.74,424.42,188.56,429.72,176.33,429.72Z" transform="translate(-61.56 -186.77)"/><path class="cls-2" d="M163.36,189.08c60.23,0,106.85,24.29,107.32,24.53l.36.19,0,.41c2.94,44.3-25.71,71.85-29.9,75.63l5.28,7.62a41.85,41.85,0,0,1,20.35-5.75c24.2,0,37.24,26.83,37.24,26.83-2-2.73-7.07-3.14-9.89-3.14h-.95c16.44,20.32,11.41,40.79,11.36,41l-.7,2.73-.72-2.73c-1.66-6.38-6.69-10.77-14.15-12.34a17.73,17.73,0,0,0-3.63-.36,41.06,41.06,0,0,0-9.25,1.44,42,42,0,0,1-9.66,1.5c-.73,0-1.45,0-2.15-.11-.07,0-6.48-1.2-9-2.38-13.1,31.72-27.75,54.9-43.55,68.92-11.58,10.28-23.5,15.49-35.44,15.49-9.61,0-15.49-3.48-15.73-3.62l-.35-.21-1.65-56.91-1.76-1c-6,6.22-11.1,12.05-11.15,12.11l-.41.47-.53-.33c-13-8.21-18.71-15.8-18.94-16.12l-.12-.16,0-.2a41.53,41.53,0,0,1,.1-10.38l-11.35-8,0-.29a73.76,73.76,0,0,1-1.19-12.64,40.63,40.63,0,0,1-10.64-4.17l-.36-.23,0-.43c.11-2.22.38-5.77.5-7.35l-6.44.06-.7-13.28a52.33,52.33,0,0,1-19-14c-19.72-30.66-10.64-65.26-10.08-66.75l.59-1.61a4.61,4.61,0,0,1,0,1.1c.1,6.15,1.13,12,4.06,17.52,2,3.68,5.77,8.54,9.54,10.52a11.19,11.19,0,0,0,5.2,1.27A10.76,10.76,0,0,0,94.23,250a18.8,18.8,0,0,0,3.56-14.59c-1.54-7.86-7.44-21.82-17.4-28.1l-1.17-.73,1.27-.56a205.41,205.41,0,0,1,82.87-16.93m0-2.31a207.53,207.53,0,0,0-83.8,17.13l-1.26.55-4,1.75L78,208.52l1.17.74c4.09,2.58,7.92,6.94,11.06,12.62a50.71,50.71,0,0,1,5.3,14,16.57,16.57,0,0,1-3.08,12.69,8.43,8.43,0,0,1-6.56,3,8.9,8.9,0,0,1-4.12-1c-3.17-1.65-6.71-6.06-8.58-9.56-2.48-4.64-3.68-9.87-3.79-16.46a.15.15,0,0,1,0-.07,7.14,7.14,0,0,0-.08-1.31l-1.25-9.24-3.21,8.75-.59,1.61c-.44,1.16-2.83,10.47-2.71,23.26.12,11.72,2.47,29.14,13,45.54l0,.09.07.08a54.73,54.73,0,0,0,18.63,14.13L94,319.23l.12,2.21,2.21,0,3.93,0c-.12,1.65-.25,3.52-.32,4.9l0,.43-.07,1.36,1.16.72.36.22a41.12,41.12,0,0,0,9.58,4,75.78,75.78,0,0,0,1.2,11.29l.05.3.17.92.77.54,10.21,7.25a45.83,45.83,0,0,0,.07,9.54l0,.19.06.63.38.51.12.16c.25.34,6.24,8.27,19.56,16.69l.53.34,1.67,1.05,1.31-1.49.41-.47c0-.05,4-4.53,8.94-9.8l1.57,54.16,0,1.26,1.08.65.34.21c.27.16,6.67,3.95,16.93,3.95,12.52,0,25-5.41,37-16.07,15.72-13.94,30.28-36.72,43.29-67.72a73.73,73.73,0,0,0,7.46,1.75,23.32,23.32,0,0,0,2.39.12,43.82,43.82,0,0,0,10.19-1.56,39.44,39.44,0,0,1,8.72-1.38,15.33,15.33,0,0,1,3.16.31c6.56,1.39,11,5.17,12.39,10.66l.71,2.73,2.25,8.63,2.22-8.63.71-2.74c.05-.2,4.7-19.14-8.78-39,2,.37,3.52,1,4.17,1.9l3.93-2.39a63.06,63.06,0,0,0-9.94-14c-8.67-9.25-18.83-14.14-29.38-14.14a43.27,43.27,0,0,0-19.62,5.05l-3-4.29a99.26,99.26,0,0,0,16.59-21.8,95.46,95.46,0,0,0,12.57-54.3l0-.41-.08-1.29-1.14-.6-.36-.19c-.47-.25-47.56-24.8-108.4-24.8Z" transform="translate(-61.56 -186.77)"/><path class="cls-3" d="M108.53,322.65s-.62-11.36,9.85-25l39.37-1.73-18.1-6.1s-.53-8.13,7.57-17.28c0,0-5.07-3-17.83-.4,0,0,1-5,9.1-8.08,0,0-32.7,4.45-25.72,30.89,0,0-4.72,9.43-12.82,9.11,0,0,0-20.63,8.11-38.26,0,0,41.54-31.34,63.05,12a41.44,41.44,0,0,0-10.77,4.41s16.94,1.86,28.23,9.42c0,0,.49-13.47-.48-21.72,0,0,1.2-9.61,6.07-12.57,0,0,9.59-.19,15.48,14.09,0,0-4,12.44-7.91,18.21l-1,10.5s-4.14,1.83-7.53-.11a23.1,23.1,0,0,0-3.88-4.38,80.13,80.13,0,0,1,6.26,27h-3.24a35.29,35.29,0,0,0-11.26-13.48c-4.57-1.12-10.8-1.27-17.19-1.05,0,0,14.33,5.44,20.3,24.28a155.45,155.45,0,0,0-42,37A36.14,36.14,0,0,1,130.8,360s1.78-13,13-24.93A49.72,49.72,0,0,0,127.45,348l-3.66-2s-.28-13.08,22.06-20.4c0,0-10.72-6-23.08,1.61l-1.13,5.22-3.26.85,1.21-6.07a6.45,6.45,0,0,1,4.2-2.83S113.92,325.09,108.53,322.65Z" transform="translate(-61.56 -186.77)"/><path class="cls-3" d="M194,357.68s-.66-15.89,1.59-23.64a30.35,30.35,0,0,0,7.12-6.06s-2.64-17.48-4.61-21.6c0,0,3.15,1.49,5.81.74l1.24-4s16.35,7.74,26.74,18.84c0,0-18.41,14.57-32.22,21.54Z" transform="translate(-61.56 -186.77)"/><path class="cls-4" d="M161,361.42s11.65-13.14,24.41-21.87c0,0,1.57,16.52,5.14,25.92l-5,13.93-7.27-8.86,6.64-5.42s-9.76,0-15.61,4.28Z" transform="translate(-61.56 -186.77)"/><path class="cls-4" d="M182.37,327.62s-23.65,12.15-39.25,32.92a8.34,8.34,0,0,1-8.61-1.41s-.86,4.28,4,8.27a13.73,13.73,0,0,0,3.69,2s17.14-22.77,42-37Z" transform="translate(-61.56 -186.77)"/><path class="cls-4" d="M191.47,320.93a7.87,7.87,0,0,0,3.28-5.54,51.63,51.63,0,0,1,.82,7.26h-3.24Z" transform="translate(-61.56 -186.77)"/><path class="cls-4" d="M202.69,328l-3,15.55L194,357.68s-.82-15.08,1.59-23.64Z" transform="translate(-61.56 -186.77)"/><path class="cls-4" d="M229,324.06s-15.93-13.41-21.7-13.76l.05,3.37a17.42,17.42,0,0,0-8-2.09l-1.24-5.2a12.1,12.1,0,0,0,5.81.74l1.24-4s16.43,7.26,26.74,18.84Z" transform="translate(-61.56 -186.77)"/><path class="cls-4" d="M193.18,291.67s-.49-21,1.91-27.82c0,0,4.27-2.29,8.44-1.81,0,0,4.83,4.62,6.11,9.43,0,0-4.48,14.79-7.91,18.21l-1,10.5s-4.06,1.83-7.53-.11c0,0,3.63-.17,4.45-3.41a5.47,5.47,0,0,0-1.63-5.3Z" transform="translate(-61.56 -186.77)"/><path class="cls-2" d="M205.33,346s12.2,11.88,17.13,44.49c0,0,21.84-30.89,27.5-50.95,0,0-8.35-11-13.22-14.28Z" transform="translate(-61.56 -186.77)"/><path class="cls-5" d="M203.94,411.55a51.19,51.19,0,0,0,13.59-14.64s-1.36-25.74-14.27-47.66l-15.2,41.25-12.9-15.65L164,420.59a40.67,40.67,0,0,0,16.58-.7l-8.69-4.31,5.81-28.4,11.82,18.5,12.78-35.14s5.37,13.91,7.3,24.88A143.61,143.61,0,0,1,203.94,411.55Z" transform="translate(-61.56 -186.77)"/><path class="cls-4" d="M145.47,291.81s-2.39-12,1.75-19.25c0,0-7.14,7.22-7.57,17.28Z" transform="translate(-61.56 -186.77)"/><path d="M114.33,319.48s8.53-6.11,14.62-6.12c0,0-.65,3.81-5.58,6.37C123.37,319.73,117.5,318.63,114.33,319.48Z" transform="translate(-61.56 -186.77)"/><path class="cls-5" d="M168.78,263.85a41.93,41.93,0,0,1,14.81,2.85s2.7,10.23,2.15,18.07c0,0-8.06-3.8-10.81-4a9.43,9.43,0,0,1,3.65-1.62A36.21,36.21,0,0,0,168.78,263.85Z" transform="translate(-61.56 -186.77)"/><path class="cls-5" d="M162.14,258.21s11.38-1.31,22,3.23c0,0,2.61-5.26,5-6.71,0,0-19.74-5.55-40-3.42C149.25,251.31,157.71,254.56,162.14,258.21Z" transform="translate(-61.56 -186.77)"/><path class="cls-5" d="M205.86,298.72s1.06-8.3,4.1-13.31a53.33,53.33,0,0,1,25.41,20.11,47.07,47.07,0,0,1-6,6.38A131,131,0,0,0,205.86,298.72Z" transform="translate(-61.56 -186.77)"/><path class="cls-5" d="M213.13,277.44s2.91-4.23-.07-11.5c0,0,19.39,11.41,26,31.08a19.36,19.36,0,0,1-.78,3.94S232.2,290,213.13,277.44Z" transform="translate(-61.56 -186.77)"/><path class="cls-5" d="M246.51,302.23s27.32-15.5,47.65,8.29l-7.46.37s-15.54-12.93-40.07-7.32Z" transform="translate(-61.56 -186.77)"/><path class="cls-5" d="M247.09,309.78s41.64-16.51,54,35.7c-.53-2.24-5.11-4.9-6.85-5.89-13.5-7.69-29.72,5.73-42.19-6.74l-10.66-11.64A20.38,20.38,0,0,0,247.09,309.78Z" transform="translate(-61.56 -186.77)"/><path class="cls-2" d="M237.84,318.1a20.35,20.35,0,0,0,4.44-17.5s-.08,8.75-9.88,13.07Z" transform="translate(-61.56 -186.77)"/><path class="cls-2" d="M84.24,264.32a79.72,79.72,0,0,1,12.15,31.13s-.9-18.69,8.5-32.53c0,0,24.54-21.26,69.66-17s62.7,38,62.7,38,28.32-25.11,25.47-63.6c0,0-80.43-42.56-167.62-8.88,0,0,11.44,6.6,11.44,26.63a31,31,0,0,1-5.83,18.53C97.05,261.48,90.44,266,84.24,264.32Z" transform="translate(-61.56 -186.77)"/><path class="cls-3" d="M72.59,251.53c0,2.11,3.81,5.11,5.27,6.13a16.44,16.44,0,0,0,7.55,2.8c6.71.78,11.29-1.39,15.25-6.86a28.54,28.54,0,0,0,5.61-16.31,30.77,30.77,0,0,0-2.91-13A45.4,45.4,0,0,0,99.08,217c-.61-.87-5.58-7.92-6.36-7.6,0,0,76.66-32.74,170,11,0,0,.84,4.49.2,13.48,0,0-63.66-38.8-157.13-19.35,0,0,20.71,24.56-2.68,46.25a21,21,0,0,1-13.94,5.91c-4.22,0-9.38-1-12.55-4C73.68,259.93,72.66,255.41,72.59,251.53Z" transform="translate(-61.56 -186.77)"/><path class="cls-5" d="M171.93,415.58,179,403l9.91,19.67s-13.15,3.64-24.86-2.06Z" transform="translate(-61.56 -186.77)"/><path class="cls-5" d="M217.53,396.91a57,57,0,0,1-24.39,24.22l10.62-33,5.88,7.3Z" transform="translate(-61.56 -186.77)"/><path d="M246.2,313.61s32.79-2.23,43.51,24.14h-9s-10.36-21.2-37.93-21.2Z" transform="translate(-61.56 -186.77)"/><path d="M252.24,381.07c4.67-40.77,9.65-81.77,14.81-121.88l1.09-8.48H560.7L558.84,262,556,279.38l-2.14,12.79-.75,4.6q-1.4,8.64-2.81,17.26l-.58,3.52-1.57,9.28-.78,4.57q-1.46,8.58-2.93,17.15L543,357l-8.54-.35c-11-.46-22.27-.69-33.34-.69h-3.3L493,356l-14.77.3c-4.93.14-10,.33-15,.57l-5,.24-20.94,1.41-1.93.15c-7.82.65-15.74,1.41-23.54,2.29l-3.07.34-10.22,1.25-3,.39c-5,.66-10,1.37-14.92,2.12l-4.24.64-6.09,1-2.86.48c-4.95.84-10,1.73-14.91,2.66l-3.85.73-3.83.76c-4.91,1-9.9,2-14.84,3.08l-3.81.83-3.81.87c-4.87,1.11-9.82,2.29-14.7,3.5L297.88,382c-3.23.84-6.51,1.72-9.74,2.61L283,386.08l-1.09.32-2.59.74c-4.84,1.39-9.72,2.84-14.53,4.32l-14.19,4.37Z" transform="translate(-61.56 -186.77)"/><path class="cls-2" d="M558.82,252.31l-1.56,9.44q-1.44,8.7-2.88,17.37l-.57,3.43-1.57,9.36-.75,4.61q-1.4,8.64-2.81,17.25l-.58,3.52-1.57,9.27-.78,4.57q-1.46,8.58-2.93,17.15l-.6,3.52-.6,3.52-3.57-.15-3.56-.15c-11.08-.46-22.32-.69-33.41-.69h-3.3l-4.82,0-14.79.3c-5,.14-10.06.34-15.06.57l-5,.24-21,1.41-1.95.16c-7.84.64-15.77,1.41-23.59,2.29l-3.07.34-10.23,1.25-3,.39c-5,.66-10,1.38-14.95,2.13l-4.24.64-6.11,1-2.87.48c-5,.84-10,1.74-14.93,2.67l-3.86.72-1,.21-2.8.56c-4.94,1-9.94,2-14.86,3.09l-3.81.83-1.1.25-2.72.62c-4.91,1.12-9.88,2.3-14.74,3.51l-9.77,2.49c-3.24.84-6.53,1.72-9.77,2.62l-5.19,1.42-1.12.33-2.59.74c-4.83,1.39-9.73,2.85-14.55,4.33l-11.86,3.65,1.42-12.33c4.67-40.76,9.65-81.77,14.81-121.86l.91-7.08H558.82m3.77-3.2H266.73l-.36,2.79-.91,7.08c-5.16,40.11-10.14,81.13-14.81,121.91l-1.42,12.32-.55,4.87,4.68-1.44L265.21,393c4.81-1.48,9.68-2.93,14.5-4.31l2.58-.74,1.12-.33,5.15-1.42c3.24-.89,6.51-1.76,9.74-2.61l9.76-2.48c4.83-1.2,9.76-2.37,14.65-3.49l2.72-.62,1.1-.25,3.78-.82c4.91-1.07,9.89-2.11,14.81-3.08l2.8-.56,1.05-.21,3.82-.72c4.93-.92,9.93-1.81,14.87-2.65l2.88-.48,6.08-1,4.21-.64c4.93-.74,9.94-1.46,14.89-2.11l3-.4,10.2-1.24,3-.34c7.78-.87,15.68-1.64,23.49-2.28l1.93-.16,20.91-1.4,5-.24c5-.23,10-.42,15-.57l14.74-.29,4.79,0h3.29c11.05,0,22.25.23,33.28.69l3.56.15,3.57.14,2.81.12.48-2.77.6-3.52.6-3.52q1.47-8.56,2.93-17.15l.78-4.57,1.57-9.27.58-3.54L554.66,297l.75-4.61,1.56-9.34.57-3.43q1.44-8.67,2.88-17.38l1.56-9.44.61-3.72Z" transform="translate(-61.56 -186.77)"/><path class="cls-3" d="M281.78,224.69h4.79V237H294v4H281.78Z" transform="translate(-61.56 -186.77)"/><path class="cls-3" d="M315,224.69h4.8v16.39H315Z" transform="translate(-61.56 -186.77)"/><path class="cls-3" d="M340.79,224.69h14.56v4.05h-4.88v12.34h-4.79V228.74h-4.89Z" transform="translate(-61.56 -186.77)"/><path class="cls-3" d="M375.05,224.69h14.56v4.05h-4.89v12.34h-4.79V228.74h-4.88Z" transform="translate(-61.56 -186.77)"/><path class="cls-3" d="M410.39,224.69h4.79V237h7.47v4H410.39Z" transform="translate(-61.56 -186.77)"/><path class="cls-3" d="M443.44,224.69h12.83v3.5h-8v2.6h7.45v3.35h-7.45v3.23h8.27v3.71H443.44Z" transform="translate(-61.56 -186.77)"/><path class="cls-3" d="M502,224.69h5.32l3.12,5.53,3.13-5.53h5.29l-6,9.52v6.87H508v-6.87Z" transform="translate(-61.56 -186.77)"/><path class="cls-3" d="M537.1,232.89a8.72,8.72,0,0,1,2.12-6.25,7.69,7.69,0,0,1,5.88-2.23,7.88,7.88,0,0,1,6,2.19,8.61,8.61,0,0,1,2.09,6.16,10.53,10.53,0,0,1-.92,4.71,6.79,6.79,0,0,1-2.64,2.87,8.36,8.36,0,0,1-4.31,1,9.47,9.47,0,0,1-4.34-.88,6.7,6.7,0,0,1-2.78-2.8A9.73,9.73,0,0,1,537.1,232.89Zm4.79,0a5.72,5.72,0,0,0,.87,3.56,3.17,3.17,0,0,0,4.76,0,6.3,6.3,0,0,0,.85-3.82,5.26,5.26,0,0,0-.88-3.38,3,3,0,0,0-2.4-1.07,2.82,2.82,0,0,0-2.32,1.09A5.71,5.71,0,0,0,541.89,232.92Z" transform="translate(-61.56 -186.77)"/><path class="cls-3" d="M574.42,241.08V224.69h8a11,11,0,0,1,3.4.4,3.68,3.68,0,0,1,1.89,1.49,4.72,4.72,0,0,1,.72,2.66,4.83,4.83,0,0,1-.55,2.35,4.43,4.43,0,0,1-1.52,1.61,5.77,5.77,0,0,1-1.68.65,4.69,4.69,0,0,1,1.25.6,4.52,4.52,0,0,1,.76.86,6.74,6.74,0,0,1,.68,1l2.31,4.75h-5.41l-2.56-5a3.73,3.73,0,0,0-.86-1.26,1.91,1.91,0,0,0-1.18-.38h-.42v6.65Zm4.81-9.75h2a7.66,7.66,0,0,0,1.27-.22,1.29,1.29,0,0,0,.78-.52,1.73,1.73,0,0,0-.18-2.17,2.79,2.79,0,0,0-1.79-.42h-2.1Z" transform="translate(-61.56 -186.77)"/><path class="cls-3" d="M609.84,224.69h4.79v6.19l5-6.19H626l-5.65,6.18,5.91,10.21h-5.9l-3.27-6.74-2.47,2.74v4h-4.79Z" transform="translate(-61.56 -186.77)"/><path d="M723.33,386.74c-4.88-1.41-9.8-2.77-14.63-4.06l-8.65-2.27-4.36-1.09c-4.92-1.23-9.89-2.42-14.77-3.54l-7.8-1.75c-11.91-2.6-24.07-5-36.14-7l-7.69-1.28c-5-.8-10-1.56-14.9-2.26l-9.93-1.35c-3.26-.42-6.6-.83-9.94-1.22l-9.11-1c-4.87-.51-9.9-1-14.94-1.43l-9.88-.85,1.59-9.8c4.81-29.64,9.54-59.5,14.07-88.75l1.2-7.8H750.67l-1.25,10.31c-5.11,42.3-9.82,80.74-14.41,117.5l-1.33,10.68Z" transform="translate(-61.56 -186.77)"/><path class="cls-2" d="M748.86,252.82l-1,8.52c-5.09,42.14-9.8,80.57-14.41,117.49l-1.1,8.82-8.55-2.45c-4.86-1.4-9.79-2.77-14.66-4.07l-8.65-2.27-4.38-1.09c-4.93-1.23-9.91-2.43-14.8-3.55l-7.81-1.75c-11.93-2.61-24.12-5-36.22-7.06l-7.7-1.29c-5-.8-10-1.57-14.94-2.26l-9.94-1.36c-3.29-.42-6.65-.84-10-1.22l-9.12-1c-4.92-.52-10-1-15-1.44l-8.16-.7,1.31-8.09c4.79-29.52,9.52-59.38,14.07-88.77l1-6.44h170m3.62-3.2H576.08l-.42,2.71-1,6.44c-4.53,29.33-9.26,59.18-14.06,88.75l-1.31,8.08-.56,3.41,3.44.3,8.16.7c5,.44,10,.92,14.92,1.44l9.1,1c3.28.38,6.62.79,9.91,1.22l9.92,1.35c4.87.69,9.88,1.45,14.86,2.25l7.69,1.28c12,2.07,24.17,4.44,36.06,7l7.79,1.75c4.84,1.11,9.8,2.3,14.73,3.52l4.37,1.09,8.62,2.27c4.84,1.29,9.75,2.66,14.59,4l8.55,2.46,3.59,1,.47-3.72,1.1-8.82c4.58-36.76,9.3-75.2,14.41-117.51l1-8.52.44-3.58Z" transform="translate(-61.56 -186.77)"/><path class="cls-6" d="M261.09,382.08c4.67-40.72,9.65-81.69,14.8-121.76l.09-.7h21.88l-.31,56c4.94-18.54,10.11-37.15,15.38-55.4l.16-.58h23.54l-.14.92C331.13,296,325.91,331.68,321,366.69l-.07.55-.54.12c-5,1.14-10,2.33-14.89,3.55l-1.14.28.15-1.17c2.89-21.54,5.88-43.33,8.92-64.94-5.94,22.37-11.71,45.1-17.2,67.75l-.11.46-.46.12c-3.28.86-6.6,1.75-9.86,2.64l-1,.29v-1.07q.6-33.19,1.2-66.25c-2.93,22.83-5.81,45.94-8.58,68.88l-.06.53-.51.14c-4.91,1.41-9.85,2.88-14.69,4.37l-1.17.36Z" transform="translate(-61.56 -186.77)"/><path class="cls-7" d="M335.7,260.42q-7.8,51.49-15.51,106.16-7.45,1.71-14.9,3.55,5.34-39.9,10.76-78c-6.93,25.64-13.81,52.41-20.61,80.5q-4.95,1.29-9.87,2.64.72-40.48,1.45-80.75-5.28,40.64-10.43,83.28-7.36,2.1-14.7,4.37,7.23-63.1,14.79-121.76h20.38q-.18,30.72-.35,61.45,8.43-31.9,17-61.45h22m1.87-1.6H312.49l-.33,1.16c-4.7,16.28-9.32,32.85-13.78,49.41l.21-37.08.07-11.88v-1.61H275.28l-.18,1.4c-5.16,40.06-10.13,81-14.8,121.77l-.28,2.44,2.34-.72c4.86-1.5,9.79-3,14.67-4.37l1-.29.13-1.05c2.17-18.05,4.42-36.22,6.71-54.28q-.47,25.72-.93,51.53l0,2.14,2.06-.56c3.27-.9,6.59-1.79,9.85-2.64l.93-.25L297,373c4.42-18.24,9-36.54,13.75-54.66-2.4,17.21-4.75,34.47-7,51.57l-.31,2.33,2.28-.57c4.93-1.22,9.93-2.41,14.88-3.54l1.07-.24.16-1.1c4.92-35,10.14-70.71,15.51-106.14l.28-1.84Z" transform="translate(-61.56 -186.77)"/><path class="cls-6" d="M327.11,364.75c5-34.35,10.25-69.49,15.69-104.45l.1-.68h16.63l-.14.93c-5.44,34.1-10.71,68.19-15.68,101.31l-.09.55-.55.11c-5,1-10,2-15,3.12l-1.13.25Z" transform="translate(-61.56 -186.77)"/><path class="cls-7" d="M358.6,260.42q-7.86,49.27-15.68,101.32-7.53,1.49-15,3.12,7.8-53.82,15.69-104.44h15m1.87-1.6H342.22l-.21,1.36c-5.44,34.95-10.72,70.1-15.7,104.45l-.33,2.29,2.26-.49c5-1.09,10-2.13,15-3.12l1.1-.22.17-1.11c5-33.13,10.24-67.21,15.68-101.3l.29-1.86Z" transform="translate(-61.56 -186.77)"/><path class="cls-6" d="M349.91,360.11c5-32.5,10.33-66.09,15.83-99.81l.11-.68h16.42l.06.74q2,23.4,4,46.49c2.51-15.17,5.13-30.8,7.78-46.56l.11-.67h16.68l-.16.94c-5.64,32.91-10.77,63.28-15.68,92.83l-.09.59-.59.07c-5,.67-10.12,1.39-15.09,2.15l-.84.13-.08-.85q-2-23-4-46.39c-2.66,16.4-5.28,32.71-7.8,48.58l-.09.57-.57.09c-5,.85-10.07,1.75-15.06,2.69l-1.11.21Z" transform="translate(-61.56 -186.77)"/><path class="cls-7" d="M409.91,260.42q-7.8,45.51-15.68,92.84-7.55,1-15.1,2.15-2.25-26.22-4.51-52.85-4.41,27.1-8.84,55-7.54,1.27-15.08,2.69,7.91-51.28,15.83-99.81h15q2.25,26.64,4.51,52.85,4.43-26.76,8.82-52.85h15.05m1.9-1.6h-18.3l-.23,1.34c-2.29,13.61-4.55,27.1-6.73,40.27-1.14-13.26-2.29-26.71-3.42-40.14l-.13-1.47H365.16l-.21,1.35c-5.5,33.72-10.83,67.31-15.83,99.82l-.35,2.24,2.23-.42c5-.94,10.05-1.84,15.05-2.69l1.13-.19.18-1.13c2.2-13.84,4.46-28,6.76-42.18,1.14,13.42,2.29,26.8,3.42,39.92l.14,1.71,1.69-.26c5-.76,10.07-1.48,15.08-2.14l1.17-.16.19-1.17c4.92-29.57,10-59.94,15.68-92.83l.32-1.87Z" transform="translate(-61.56 -186.77)"/><path class="cls-6" d="M409.93,351.54c-2.26-5.86-4.5-11.73-6.65-17.42l-.08-.2,0-.22c3.92-23.18,8-47.2,12.55-73.41l.12-.67h16.54l-.16.94c-4.48,25.84-8.5,49.1-12.25,71.06,3.93-.32,7.91-.62,11.85-.89q6.17-35.61,12.24-70.44l.11-.67h16.51l-3.63,20.7q-4.23,24.17-8.51,48.62l0,.16-.09.14c-4.6,6.87-9.08,13.65-13.32,20.14l-.21.33-.39,0c-7.9.65-15.91,1.43-23.8,2.31l-.61.07Z" transform="translate(-61.56 -186.77)"/><path class="cls-7" d="M459.8,260.42q-5.94,33.93-12,68.38-6.66,9.92-13.33,20.14-11.92,1-23.82,2.31-3.33-8.64-6.65-17.41,6.3-37.29,12.55-73.42H431.5Q425.32,296,419.07,332.5q6.75-.56,13.5-1,6.21-35.94,12.35-71.07H459.8m1.9-1.6H443.57l-.23,1.33c-4.82,27.66-8.58,49.27-12.13,69.83-3.4.23-6.82.49-10.21.76,3.7-21.62,7.66-44.56,12.08-70l.33-1.88H415.23l-.23,1.33c-4.5,26.05-8.6,50.07-12.55,73.42l-.07.43.15.4c2.18,5.75,4.42,11.62,6.66,17.43l.44,1.15,1.23-.14c7.88-.88,15.88-1.65,23.77-2.3l.79-.07.42-.65c4.28-6.57,8.64-13.15,13.32-20.13l.18-.28.06-.34q4.5-25.69,8.94-51.07l3-17.3.33-1.88Z" transform="translate(-61.56 -186.77)"/><path class="cls-6" d="M462.78,346.88q6.06-34.51,12-68.56l-12.52.11h-1l3.31-18.92h43.53s-2.08,12.34-3,18.05l-.12.66h-3l-10.53,0c-3.53,20.44-7.43,42.8-11.89,68.33l-.11.64-.66,0c-5.05.14-10.16.34-15.19.58l-1,0Z" transform="translate(-61.56 -186.77)"/><path class="cls-7" d="M507.21,260.32q-1.44,8.56-2.89,17.11H502l-11.2,0q-6,34.38-12,69-7.61.22-15.21.58,6.14-35,12.18-69.5-6.74,0-13.48.11,1.51-8.67,3-17.31h41.92m1.89-1.6H463.94l-.23,1.33-3,17.3-.33,1.9,1.92,0,11.56-.1Q468,312.75,462,346.74l-.34,2,2-.09c5-.24,10.14-.44,15.18-.58l1.3,0,.23-1.28c4.49-25.7,8.24-47.24,11.78-67.67l9.85,0h3.68l.23-1.33,2.88-17.11.32-1.87Z" transform="translate(-61.56 -186.77)"/><path class="cls-6" d="M534.79,347.71c-11.17-.46-22.51-.7-33.71-.7l-4.29,0,.16-.95c5.41-31,10.27-59,14.84-85.79l.11-.67h38.3l-.16.93q-1.42,8.71-2.87,17.37l-.12.68h-.68c-7-.08-14-.14-21-.18l-2.67,15.67c6.92.07,13.91.19,20.79.33l.93,0-.15.91q-1.41,8.64-2.82,17.25l-.11.69-.7,0c-7-.21-14.12-.36-21.12-.46q-1.34,7.81-2.69,15.63c6.94.1,14,.29,20.94.54l.92,0-.16.9q-1.45,8.6-2.92,17.15l-.12.69Z" transform="translate(-61.56 -186.77)"/><path class="cls-7" d="M549.25,260.42q-1.43,8.7-2.87,17.37-10.85-.12-21.68-.19-1.47,8.64-2.94,17.27,10.88.12,21.73.34-1.41,8.64-2.82,17.25-10.9-.33-21.81-.47l-3,17.22q10.93.17,21.86.56-1.46,8.58-2.92,17.14-16.87-.69-33.75-.7h-3.34q7.5-42.93,14.84-85.8h36.67m1.89-1.6H511.23l-.23,1.33c-4.58,26.83-9.44,54.9-14.83,85.8l-.33,1.88h5.24c11.18,0,22.52.24,33.68.7l1.41.06.24-1.39q1.46-8.55,2.92-17.14l.31-1.81-1.83-.06c-6.63-.24-13.36-.42-20-.53q1.22-7,2.41-14c6.78.1,13.64.25,20.42.45l1.4,0,.23-1.38q1.41-8.61,2.82-17.25l.29-1.82-1.84,0c-6.59-.14-13.26-.25-19.86-.32q1.2-7,2.39-14.08c6.75.05,13.57.11,20.31.18l1.37,0,.23-1.36q1.44-8.67,2.87-17.36l.31-1.87Z" transform="translate(-61.56 -186.77)"/><path class="cls-6" d="M630.64,357.41c-5-.81-10.06-1.58-15.07-2.29l-.8-.12.12-.79c2.68-18,5.37-36.42,8-54.81-5.35,17.93-10.88,36-16.48,53.8l-.21.64-.66-.08c-3.38-.44-6.77-.86-10.07-1.24l-.71-.09s.29-35.94.42-53.59c-2.62,17.28-5.32,34.72-8,52l-.12.75-.75-.08c-5-.52-10.09-1-15.11-1.45l-.86-.07.14-.85c4.78-29.5,9.52-59.39,14.07-88.82l.11-.68h21.85l.48,46.76c5-15.33,9.87-30.85,14.6-46.19l.18-.57h23.51l-.12.91c-4.49,32.57-9.06,64.94-13.6,96.2l-.12.81Z" transform="translate(-61.56 -186.77)"/><path class="cls-7" d="M644.36,260.42q-6.79,49.35-13.59,96.2-7.53-1.22-15.09-2.29,4.8-32.34,9.58-65.69c-6.51,22.1-13,43.48-19.6,64.32-3.35-.43-6.71-.85-10.07-1.24q.25-32,.5-64.07-4.83,31.92-9.7,63.05-7.56-.79-15.12-1.45,7.1-43.77,14.08-88.83h20.37q.25,25.44.52,50.86,8.09-24.82,16.12-50.86h22m1.84-1.6h-25l-.35,1.13c-4.25,13.78-8.64,27.7-13.09,41.51l-.42-41,0-1.59H584l-.21,1.36c-4.54,29.38-9.28,59.26-14.07,88.81l-.28,1.7,1.72.15c5,.44,10.09.92,15.09,1.45l1.52.16L588,351c2.13-13.58,4.25-27.29,6.35-41q-.17,20.9-.33,41.75v1.43l1.42.17c3.34.39,6.72.81,10.06,1.24l1.33.17.4-1.28c4.53-14.4,9-28.95,13.38-43.44-2.15,14.8-4.31,29.56-6.47,44.09l-.24,1.59,1.6.23c5,.71,10.07,1.48,15,2.29l1.61.26.23-1.61c4.53-31.21,9.11-63.58,13.6-96.21l.25-1.82Z" transform="translate(-61.56 -186.77)"/><path class="cls-6" d="M674.93,365.83c-12-2.64-24.35-5-36.53-7.13l-.77-.13.11-.78c4.58-31.57,9.21-64.36,13.76-97.47l.1-.7h38.28l-.12.91q-1.39,10.77-2.8,21.4l-.1.72-.74,0c-6.92-.32-13.93-.63-20.86-.91q-1.29,9.44-2.56,18.79c6.9.56,13.88,1.16,20.74,1.79l.83.08-.11.82q-1.35,10.5-2.71,20.87l-.1.8-.8-.11c-6.9-.94-13.9-1.83-20.8-2.65q-1.28,9.21-2.55,18.33c6.9,1.08,13.91,2.25,20.82,3.48l.76.14-.11.76q-1.38,10.23-2.77,20.34l-.12.86Z" transform="translate(-61.56 -186.77)"/><path class="cls-7" d="M689,260.42q-1.41,10.77-2.81,21.4-10.78-.49-21.6-.94-1.38,10.23-2.77,20.35,10.8.87,21.58,1.86Q682,313.59,680.66,324q-10.78-1.47-21.6-2.75-1.38,10-2.77,19.89,10.82,1.68,21.59,3.6-1.39,10.23-2.77,20.34-18.23-4-36.57-7.13,6.87-47.48,13.75-97.49H689m1.82-1.6H650.9l-.19,1.39c-4.56,33.16-9.19,66-13.76,97.47l-.22,1.54,1.54.27c12.16,2.08,24.44,4.48,36.49,7.12l1.7.37.23-1.72q1.39-10.11,2.78-20.34l.2-1.53-1.51-.26c-6.64-1.19-13.38-2.32-20.06-3.37q1.15-8.34,2.33-16.77c6.66.8,13.39,1.65,20,2.55l1.6.22.21-1.6q1.35-10.37,2.7-20.86l.22-1.65-1.66-.15c-6.59-.61-13.28-1.19-19.91-1.73q1.18-8.58,2.35-17.23c6.7.27,13.47.57,20.14.88l1.47.07.19-1.46q1.39-10.63,2.81-21.4l.23-1.81Z" transform="translate(-61.56 -186.77)"/><path class="cls-6" d="M725.65,378.66c-4.89-1.41-9.87-2.79-14.78-4.1l-.55-.15,0-.56c-1.53-18.63-3.11-37.62-4.71-56.54-2.31,18.12-4.61,36-6.86,53.18l-.11.89-.87-.22c-4.94-1.23-10-2.43-14.93-3.57l-.71-.16.09-.73c4.53-33.8,9.22-69.59,13.92-106.38l.09-.7h16.45l.06.74c1.58,18.8,3.16,37.91,4.7,56.92,2.29-18.37,4.65-37.49,7-56.95l.09-.71h16.66l-.11.9c-5,41.35-9.85,80.87-14.41,117.47l-.12.93Z" transform="translate(-61.56 -186.77)"/><path class="cls-7" d="M740.28,260.42q-7.35,60.88-14.41,117.47-7.38-2.13-14.8-4.11-2.64-32.4-5.34-64.06-3.93,30.91-7.81,60.67-7.45-1.86-14.94-3.58,6.9-51.51,13.92-106.39h15q2.69,32,5.32,64.69,4-31.71,8-64.69h15m1.81-1.6H723.82l-.17,1.41c-2,16.71-4.09,33.21-6.08,49.23-1.34-16.4-2.7-32.88-4.07-49.17l-.12-1.47H695.49l-.18,1.4c-4.71,36.77-9.39,72.56-13.92,106.38L681.2,368l1.42.33c5,1.14,10,2.34,14.91,3.57l1.75.43.23-1.78c1.93-14.81,3.9-30.13,5.89-45.69,1.38,16.31,2.75,32.74,4.08,49l.09,1.13,1.09.29c4.9,1.31,9.87,2.69,14.77,4.1l1.8.51.23-1.85c4.62-37,9.33-75.44,14.41-117.47l.22-1.8Z" transform="translate(-61.56 -186.77)"/></svg>